<?xml version="1.0" encoding="UTF-8"?>
<svg xmlns="http://www.w3.org/2000/svg" width="132" height="122" version="1.1" viewBox="0 0 132 122">
  <defs>
    <style>
      .cls-1 {
        fill: #007cc4;
      }
    </style>
  </defs>
  <!-- Generator: Adobe Illustrator 28.7.1, SVG Export Plug-In . SVG Version: 1.2.0 Build 142)  -->
  <g>
    <g id="Layer_1">
      <path class="cls-1" d="M122.713,73.516c-7.369,2.694-14.972,4.456-22.711,5.661-12.193,1.899-24.458,2.361-36.76,1.606-13.249-.813-26.264-2.926-38.749-7.639-6.052-2.284-11.801-5.133-16.673-9.501-1.449-1.299-2.747-2.737-3.802-4.377-3.234-5.026-3.249-10.069-.007-15.09,1.889-2.927,4.451-5.193,7.287-7.16,6.185-4.289,13.092-6.998,20.253-9.11,9.363-2.761,18.95-4.284,28.669-5.055,9.235-.733,18.468-.735,27.699.04,6.175.518,12.318,1.279,18.396,2.51.045.05.058.099.04.145-.018.046-.036.068-.052.068-4.051-.483-8.092-1.047-12.161-1.383-9.232-.763-18.458-.756-27.687.03-9.297.792-18.458,2.32-27.392,5.056-6.306,1.932-12.384,4.387-17.859,8.145-2.41,1.654-4.601,3.551-6.36,5.908-3.845,5.153-3.843,10.749.02,15.894,2.348,3.126,5.398,5.443,8.723,7.416,6.789,4.027,14.179,6.518,21.81,8.334,15.515,3.693,31.25,4.601,47.122,3.532,10.001-.673,19.861-2.2,29.477-5.114.163-.049.337-.062.506-.091.232-.139.224.016.215.174Z"/>
      <path class="cls-1" d="M38.565,65.7c-2.942.001-5.885.006-8.827,0-4.437-.009-7.53-3.072-7.539-7.484-.011-5.366-.006-10.731-.001-16.097.001-1.678.755-2.458,2.359-2.473,1.712-.016,2.487.724,2.49,2.439.01,4.916.001,9.831.004,14.747.002,3.235,1.604,4.824,4.861,4.825,4.5.001,9.001.004,13.501,0,3.051-.003,4.692-1.631,4.698-4.665.009-4.916.004-9.831.013-14.747.003-1.889.737-2.627,2.546-2.598,1.548.025,2.309.806,2.311,2.417.006,4.95.007,9.901-.002,14.851-.002.966.058,1.933-.129,2.898-.656,3.386-3.492,5.835-6.937,5.879-3.115.04-6.231.008-9.347.01Z"/>
      <path class="cls-1" d="M117.629,65.702c-3.323,0-6.645.01-9.968-.002-4.313-.016-7.398-3.074-7.414-7.38-.02-5.399-.008-10.798-.003-16.197.002-1.743.742-2.484,2.442-2.477,1.671.007,2.393.765,2.395,2.532.006,4.984.004,9.968.01,14.951.003,2.814,1.696,4.519,4.527,4.524,6.161.012,12.321-.001,18.482.007,1.49.002,2.257.622,2.31,1.801.066,1.458-.658,2.223-2.191,2.23-3.53.017-7.06.005-10.591.005v.005Z"/>
      <path class="cls-1" d="M106.3,25.614c.004-.071.008-.143.013-.214.725.17.713-.438.901-.846.677-1.473,2.284-2.327,3.833-2.043,1.586.291,2.805,1.622,2.935,3.207.136,1.654-.861,3.151-2.45,3.678-2.098.696-4.302-.68-4.582-2.921-.061-.486-.211-.74-.65-.861Z"/>
      <path class="cls-1" d="M44.503,94.773c.72-1.382,1.441-2.554,1.956-3.811.525-1.282,1.334-1.729,2.671-1.333.073.083.036.204-.035.33-1.543,2.731-3.066,5.474-4.634,8.191-.789,1.366-1.773,1.748-3.094,1.451-.538-.121-.556-.399-.496-.81.052-.357-.036-.704.585-.729,1.202-.047,1.731-.81,1.529-2.01-.316-1.872-.654-3.74-.953-5.614-.047-.294-.435-.874.221-.852.553.019,1.475-.591,1.642.58.209,1.468.391,2.94.61,4.607Z"/>
      <path class="cls-1" d="M62.078,95.918c-.869.685-1.619,1.006-2.486.991-1.217-.021-2.021-.777-1.855-1.978.232-1.673.572-3.339.993-4.975.22-.852,1.056-.351,1.592-.379.623-.032.279.514.232.769-.24,1.325-.532,2.641-.802,3.961-.078.383-.119.765.248,1.04.391.293.794.188,1.172-.014.71-.38,1.152-.979,1.33-1.762.26-1.145.51-2.292.758-3.44.242-1.12,1.124-.539,1.684-.545.653-.006.235.592.183.862-.363,1.9-.819,3.782-1.161,5.685-.133.738-.589.61-1.06.633-.507.025-.995.054-.83-.85Z"/>
      <path class="cls-1" d="M114.145,96.912c-1.148-.021-2.219-.138-2.973-1.05-.252-.305-.829-.782-.358-1.08.458-.29,1.251-.65,1.773-.005.59.728,1.272.883,2.112.643.348-.099.674-.276.694-.671.019-.372-.319-.499-.61-.613-.674-.263-1.375-.47-2.025-.782-1.248-.599-1.505-1.991-.598-3.009,1.03-1.155,3.815-1.355,4.986-.336.35.304.897.853.588,1.138-.41.378-1.203.658-1.767.134-.583-.542-1.208-.6-1.913-.485-.298.048-.532.241-.576.525-.048.312.191.503.47.6.587.202,1.186.369,1.766.588.913.346,1.695.825,1.665,1.975-.025.965-.717,1.818-1.762,2.203-.497.183-1.014.19-1.474.224Z"/>
      <path class="cls-1" d="M102.125,89.62c-.04.837-.136,1.55-1.264,1.379-.517-.079-.44.457-.505.746-.325,1.449-.604,2.908-.912,4.361-.116.547-1.546.972-1.949.586-.19-.181-.044-.384-.004-.576.309-1.488.628-2.974.921-4.465.048-.245.315-.668-.27-.66-.42.005-.699-.078-.545-.576.11-.357-.015-.932.629-.863.644.069.746-.33.808-.805.282-2.158,1.75-2.353,3.54-1.951.407.091.64.231.432.69-.161.356-.024.991-.79.722-.427-.15-.888-.223-1.154.331-.633,1.319.555.889,1.063,1.082Z"/>
      <path class="cls-1" d="M122.592,87.175c-.114.581-.182,1.021-.289,1.451-.132.532-.298,1.043.592.924.334-.045.421.155.302.45-.149.369.082,1.044-.626.978-.73-.068-.854.307-.946.893-.138.885-.369,1.755-.545,2.635-.086.431-.117.836.511.903.234.025.76-.246.631.329-.097.434.067,1.075-.74,1.154-2.221.217-2.811-.878-2.355-2.392.277-.921.409-1.887.587-2.837.042-.226.31-.595-.167-.641-.418-.041-.687-.11-.521-.597.13-.38.009-.972.726-.89.213.024.368-.055.482-.286.623-1.265.686-1.31,2.358-2.073Z"/>
      <path class="cls-1" d="M81.833,91.598c1.335-1.082,1.723-1.105,3.047-.066.35.275.412-.038.553-.157.468-.395.984-.626,1.605-.607.973.029,1.518.556,1.371,1.52-.207,1.364-.536,2.708-.799,4.064-.084.433-.39.427-.708.405-.462-.032-.321-.366-.269-.616.235-1.15.504-2.294.725-3.446.178-.926-.292-1.323-1.172-1.002-.695.254-1.149.757-1.32,1.484-.23.974-.458,1.948-.656,2.929-.097.48-.292.785-.824.644-.613-.162-.172-.58-.13-.836.179-1.089.453-2.163.637-3.252.161-.952-.313-1.308-1.194-.931-.72.308-1.137.892-1.318,1.631-.23.938-.44,1.882-.621,2.831-.08.42-.266.603-.693.569-.541-.043-.358-.417-.303-.688.316-1.556.67-3.105.969-4.665.086-.449.303-.546.705-.547.577-.002.241.45.395.735Z"/>
      <path class="cls-1" d="M10.122,95.314c.624-1.382,1.174-2.552,1.677-3.741.215-.509.49-.812,1.079-.699.589.114.356.593.386.921.101,1.099.158,2.202.236,3.361,1.163-1.318,1.042-3.492,2.72-4.392.118.073.236.147.353.22-.896,1.834-1.791,3.668-2.687,5.502-.18.368-.52.28-.82.267-.387-.017-.384-.321-.401-.602-.071-1.185-.143-2.369-.377-3.576-.535,1.182-1.08,2.361-1.6,3.55-.181.415-.386.687-.91.652-.614-.041-.473-.486-.512-.829-.165-1.476-.311-2.955-.477-4.431-.037-.325-.129-.627.371-.649.394-.018.549.133.582.528.102,1.233.236,2.464.379,3.919Z"/>
      <path class="cls-1" d="M108.601,90.442c.584-.371.969-.915,1.611-1.027.437-.076,1.159-.124,1.145.271-.018.493-.154,1.366-.9,1.395-1.31.05-1.928.815-2.257,1.902-.308,1.019-.531,2.068-.73,3.116-.215,1.13-1.079.637-1.644.625-.732-.016-.303-.63-.243-.944.362-1.894.776-3.779,1.165-5.668.205-.996.986-.508,1.51-.546.738-.053.117.549.344.876Z"/>
      <path class="cls-1" d="M18.39,91.629c.719-.466,1.289-.916,2.071-.865.976.065,1.578.668,1.425,1.623-.207,1.294-.518,2.571-.756,3.86-.084.452-.345.567-.735.508-.528-.08-.29-.47-.241-.728.206-1.084.457-2.16.67-3.244.193-.98-.234-1.383-1.189-1.125-.849.229-1.343.836-1.56,1.649-.248.933-.462,1.877-.631,2.827-.082.464-.256.7-.734.625-.621-.097-.288-.515-.232-.796.436-2.165.897-4.324,1.336-6.489.094-.463.157-.953.798-.791.72.181.175.684.157,1-.036.608-.226,1.206-.38,1.946Z"/>
      <path class="cls-1" d="M102.646,96.759c-.834.179-.954-.163-.747-1.003.452-1.838.78-3.707,1.173-5.559.118-.557,1.514-.971,1.925-.584.183.172.072.389.035.574-.407,1.991-.848,3.975-1.228,5.97-.136.716-.613.608-1.158.601Z"/>
      <path class="cls-1" d="M72.851,94.814c-.207.596-.5,1.098-.965,1.478-.758.619-1.626.767-2.524.408-.91-.363-1.228-1.148-1.256-2.077-.071-2.34,1.369-4.004,3.332-3.849.788.062,1.383.413,1.663,1.179.083.228.344.557-.042.701-.272.101-.591.226-.864-.228-.687-1.144-1.895-1.084-2.555.088-.343.608-.499,1.282-.512,1.983-.013.653.083,1.284.797,1.521.742.246,1.316-.139,1.636-.756.296-.57.616-.777,1.29-.448Z"/>
      <path class="cls-1" d="M30.778,91.782c.461-.503.869-1.056,1.622-1.004.254.018.64-.01.564.402-.046.252-.059.683-.518.609-1.167-.188-1.615.62-1.927,1.471-.295.803-.422,1.666-.636,2.5-.11.428,0,1.152-.732.975-.764-.186-.219-.792-.152-1.176.231-1.323.535-2.633.806-3.949.075-.365.051-.805.626-.741.745.083.049.616.347.914Z"/>
      <path class="cls-1" d="M104.258,88.555c-.209-.151-.827.295-.749-.384.082-.71.068-1.658,1.264-1.352.308.079.92-.37.875.443-.062,1.139-.227,1.304-1.391,1.293Z"/>
      <path class="cls-1" d="M126.104,72.183c-.122.102-.191.176-.275.224-.102.058-.227.043-.244-.08-.008-.059.102-.172.179-.196.081-.026.187.025.34.052Z"/>
      <path class="cls-1" d="M123.716,72.907c.213-.181.571-.337.686-.126.129.235-.274.224-.446.32-.09-.053-.229-.044-.241-.194Z"/>
      <path class="cls-1" d="M123.716,72.907c.08.065.16.129.241.194-.207.072-.415.144-.622.215-.084-.057-.217-.057-.233-.196.168-.177.387-.207.614-.213Z"/>
      <path class="cls-1" d="M123.101,73.12c.078.065.155.131.233.196-.207.067-.414.133-.621.2-.072-.058-.143-.116-.215-.174.159-.187.378-.214.603-.222Z"/>
      <path class="cls-1" d="M92.12,53.213c-.402-.458-.324-.678.035-1.081,1.564-1.756,2.221-3.811,1.778-6.141-.71-3.73-3.998-6.299-8.135-6.341-3.598-.037-7.197-.008-10.796-.009-3.841-.001-7.682-.01-11.523.004-1.507.005-2.304.741-2.308,2.19-.017,7.232-.017,14.464,0,21.696.003,1.494.774,2.208,2.251,2.209,6.713.002,13.426.004,20.139-.002,1.107,0,2.227.063,3.317-.081,3.063-.403,5.4-1.931,6.615-4.836,1.166-2.789.6-5.361-1.373-7.608ZM65.955,49.948c.052-1.798.048-3.599.001-5.397-.017-.672.234-.796.838-.794,6.298.018,12.596-.004,18.894.019,2.425.009,4.237,1.566,4.22,3.527-.017,1.958-1.838,3.459-4.272,3.473-3.08.018-6.16.004-9.239.004-3.184,0-6.367-.015-9.551.012-.644.006-.912-.127-.891-.844ZM89.836,58.697c-.359,1.53-1.442,2.403-2.923,2.775-.496.125-1.03.137-1.546.138-6.127.009-12.255-.01-18.382.023-.801.004-1.068-.18-1.034-1.017.07-1.693.07-3.394,0-5.087-.034-.82.257-.961.998-.952,3.184.039,6.369.017,9.554.017,3.046,0,6.093.007,9.139-.003,1.111-.003,2.133.25,2.988.983.955.82,1.504,1.851,1.205,3.123Z"/>
      <path class="cls-1" d="M53.257,89.366c-2.412.004-4.06,1.732-4.075,4.273-.012,2.009,1.253,3.252,3.329,3.272,2.363.023,4.131-1.781,4.145-4.231.012-2.058-1.281-3.319-3.4-3.315ZM54.722,92.579c-.051.766-.256,1.488-.752,2.104-.506.628-1.141.906-1.913.6-.747-.296-.92-.962-.933-1.668.126-.85.287-1.669.931-2.266.512-.474,1.117-.68,1.803-.378.701.309.91.908.864,1.608Z"/>
      <path class="cls-1" d="M26.169,90.779c-1.763-.178-3.214,1.166-3.404,3.154-.133,1.4.325,2.357,1.327,2.77,1.076.443,2.35.092,3.159-.915.204-.254.679-.582.316-.906-.314-.279-.741-.14-1.026.312-.371.59-.944.934-1.67.826-.79-.117-1.085-.699-1.096-1.417-.013-.864.678-.432,1.068-.505.334-.062.69-.013,1.036-.013.484,0,.969.005,1.453-.002.332-.005.677.083.81-.412.348-1.294-.63-2.756-1.975-2.893ZM27.169,92.956c-.095.656-.659.235-.999.335-.189.056-.409.01-.615.01-.493-.068-1.153.251-1.443-.159-.255-.362.238-.798.55-1.101.513-.498,1.147-.644,1.803-.348.513.231.784.708.704,1.263Z"/>
      <path class="cls-1" d="M36.115,90.783c-1.693-.197-3.036.939-3.417,2.893-.273,1.398.197,2.534,1.238,2.994,1.106.489,2.418.137,3.238-.908.188-.24.637-.547.296-.855-.34-.306-.739-.16-1.021.288-.326.517-.825.835-1.465.845-.744.011-1.336-.609-1.336-1.423,0-.967.749-.406,1.15-.514.322-.087.686-.018,1.032-.018.518,0,1.036-.001,1.555,0,.283,0,.515-.003.627-.37.394-1.291-.549-2.775-1.895-2.932ZM36.62,93.305c-.889-.015-1.778-.005-2.776-.005.299-.963.768-1.579,1.694-1.724.808-.126,1.438.372,1.556,1.159.059.394-.049.577-.474.57Z"/>
      <path class="cls-1" d="M92.452,90.77c-1.652-.076-2.953,1.144-3.219,3.022-.201,1.421.252,2.45,1.274,2.892,1.105.477,2.418.11,3.237-.946.182-.235.64-.534.287-.84-.334-.29-.746-.174-1.027.285-.321.523-.819.842-1.46.854-.752.015-1.333-.588-1.338-1.417-.007-.973.747-.409,1.148-.517.322-.087.687-.018,1.033-.018.519,0,1.039-.014,1.557.004.36.012.56-.083.646-.48.308-1.424-.69-2.772-2.137-2.838ZM93.628,92.949c-.081.667-.655.241-.993.343-.19.057-.41.01-.617.01-.138,0-.28.023-.413-.004-.373-.077-.951.244-1.082-.214-.116-.406.301-.812.649-1.104.515-.432,1.114-.57,1.735-.293.52.232.787.712.721,1.263Z"/>
      <path class="cls-1" d="M78.735,91.739c-.361-.603-.935-.896-1.631-.961-1.981-.185-3.448,1.326-3.492,3.602-.031,1.623.979,2.597,2.604,2.478,1.17-.086,2.014-.696,2.498-1.75.509-1.108.69-2.25.021-3.369ZM77.138,95.642c-.468.434-1.026.566-1.63.358-.597-.206-.842-.709-.884-1.285-.069-.96.151-1.854.825-2.58.486-.523,1.097-.737,1.784-.49.724.261.906.884.915,1.584-.05.925-.31,1.765-1.01,2.414Z"/>
    </g>
  </g>
</svg>