<?xml version="1.0" encoding="UTF-8"?>
<svg xmlns="http://www.w3.org/2000/svg" width="150" height="150" version="1.1" viewBox="0 0 150 150">
  <defs>
    <style>
      .cls-1 {
        fill: #ff6200;
      }
    </style>
  </defs>
  <!-- Generator: Adobe Illustrator 28.7.1, SVG Export Plug-In . SVG Version: 1.2.0 Build 142)  -->
  <g>
    <g id="Layer_1">
      <path class="cls-1" d="M61.3,82.4v-9.5h1.7v8.1h4.6v1.5h-6.2Z"/>
      <path class="cls-1" d="M77.5,82.4l-.7-1.8h-4.5l-.7,1.8h-1.8l3.7-9.5h2.1l3.7,9.5h-1.8ZM74.5,74.2l-1.8,4.8h3.6l-1.8-4.8Z"/>
      <path class="cls-1" d="M100.6,82.4l-1.9-7-1.8,7h-1.8l-2.7-9.5h1.9l1.9,7.3,2-7.3h1.3l2,7.3,1.8-7.3h1.9l-2.7,9.5h-1.8Z"/>
      <path class="cls-1" d="M108.4,82.4v-9.5h1.7v9.5h-1.7Z"/>
      <path class="cls-1" d="M121,82.4l-5-6.9v6.9h-1.7v-9.5h1.7l4.9,6.8v-6.8h1.7v9.5h-1.6Z"/>
      <path class="cls-1" d="M126.6,82.4v-9.5h3.5c3,0,5,2,5,4.8s-2,4.8-5,4.8h-3.5ZM128.3,80.9h1.9c2.1,0,3.3-1.5,3.3-3.3s-1.1-3.3-3.3-3.3h-1.9v6.6h0Z"/>
      <path class="cls-1" d="M53.5,72.7c-2.7,0-4.9,2.2-4.9,4.9s2.2,4.9,4.9,4.9,4.9-2.2,4.9-4.9-2.2-4.9-4.9-4.9ZM53.5,80.9c-1.8,0-3.3-1.5-3.3-3.3s1.5-3.3,3.3-3.3,3.3,1.5,3.3,3.3-1.5,3.3-3.3,3.3Z"/>
      <path class="cls-1" d="M88.4,79.4h0s0,0,0,0l-.4-.7h0c.9-.5,1.7-1.4,1.7-2.8s-1.2-3-3.1-3h-4.2v9.5h1.7v-3.6h2.3l2.1,3.6h1.9l-1.9-3ZM84,77.3v-3h2.3c.9,0,1.6.6,1.6,1.5s-.7,1.5-1.6,1.5h-2.3Z"/>
      <path class="cls-1" d="M42.8,76.6c-1.1-.3-2.1-.5-2.1-1.3s.6-1.2,1.6-1.2,1.9.3,2.6,1l1-1.1h0c-.9-.9-2.1-1.4-3.6-1.4s-3.5,1.2-3.5,2.8,1.8,2.5,3.4,2.9c1.2.3,2.2.6,2.2,1.4s-.5,1.3-1.9,1.3-2.2-.5-2.8-1.1l-1.1,1.1c.8.9,2.1,1.5,3.9,1.5,2.6,0,3.7-1.4,3.7-2.9s-1.9-2.6-3.4-3Z"/>
      <path class="cls-1" d="M141.8,76.6c-1.1-.3-2.1-.5-2.1-1.3s.6-1.2,1.6-1.2,1.9.3,2.6,1l1.1-1.1h0c-.9-.9-2.1-1.4-3.6-1.4s-3.5,1.2-3.5,2.8,1.8,2.5,3.4,2.9c1.2.3,2.2.6,2.2,1.4s-.5,1.3-1.9,1.3-2.2-.5-2.8-1.1l-1.1,1.1c.8.9,2.1,1.5,3.9,1.5,2.6,0,3.7-1.4,3.7-2.9,0-2.1-1.9-2.6-3.4-3Z"/>
      <g>
        <path class="cls-1" d="M147,73.6h-.2v.4h-.1v-.9h.3c0,0,.2,0,.2,0,0,0,0,.1,0,.2s0,.1,0,.1c0,0,0,0-.1,0l.2.4h0s-.1,0-.1,0l-.2-.4ZM146.8,73.5h.2c0,0,.1,0,.1,0s0,0,0-.1,0,0,0-.1,0,0-.1,0h-.2v.3h0Z"/>
        <path class="cls-1" d="M147,74.3c-.4,0-.8-.3-.8-.8s.3-.8.8-.8.8.3.8.8-.3.8-.8.8ZM147,72.9c-.4,0-.6.3-.6.6s.3.6.6.6.6-.3.6-.6-.3-.6-.6-.6Z"/>
      </g>
      <g>
        <path class="cls-1" d="M21.6,87.4h-.4v1h-.1v-1h-.4c0-.1.9-.1.9-.1h0Z"/>
        <path class="cls-1" d="M22,87.3l.4.9.4-.9h.2v1.1h-.1v-.9s-.4.9-.4.9h-.1l-.4-.9v.5s0,.4,0,.4h-.1v-1.1s.2,0,.2,0Z"/>
      </g>
      <path class="cls-1" d="M16.3,75.9c0,0,.2,0,.3,0,1.9-.5,3.7-1.3,5.6-2,1.8-.7,3.6-1.6,5.1-2.9,1.6-1.3,2.9-3,3.6-5.1.1-.3.3-.7.3-1-2.5,3.4-12.3,3.8-12.3,3.8l2.3-2.1c-9.4,0-15.9,4-18.9,6.1,3.8.4,7.3,2,10,4.5,1.3-.4,2.7-.7,4-1.1Z"/>
      <path class="cls-1" d="M31.8,75.5s-9.1-.7-18.6,2.3c1.3,1.3,2.3,2.8,3.1,4.5,5-2.8,11.9-6.3,15.4-6.8Z"/>
      <path class="cls-1" d="M17,83.7c.6,1.5,1,3.1,1.1,4.7l8.7-8.9-9.8,4.2Z"/>
    </g>
  </g>
</svg>