<?xml version="1.0" encoding="UTF-8"?>
<svg xmlns="http://www.w3.org/2000/svg" width="150" height="150" version="1.1" viewBox="0 0 150 150">
  <defs>
    <style>
      .cls-1 {
        fill: #fa0060;
      }
    </style>
  </defs>
  <!-- Generator: Adobe Illustrator 28.7.1, SVG Export Plug-In . SVG Version: 1.2.0 Build 142)  -->
  <g>
    <g id="Layer_1">
      <path class="cls-1" d="M3.97,55.912c0-3.671,2.937-6.607,6.791-6.607s6.424,2.753,6.424,6.607-2.937,6.791-6.607,6.791c-3.855-.184-6.608-2.937-6.608-6.791ZM4.888,100.328v-36.34h11.563v36.341H4.888Z"/>
      <path class="cls-1" d="M59.399,81.24c0,11.012-7.709,19.088-17.987,19.088-4.588,0-7.892-1.835-10.278-4.221v4.221h-11.012v-51.024h11.563v16.702c2.386-2.202,5.506-3.671,9.728-3.671,10.277.001,17.986,7.893,17.986,18.905ZM47.653,81.24c0-4.588-3.487-8.443-8.259-8.443s-8.259,3.854-8.259,8.443c0,4.772,3.487,8.443,8.259,8.443s8.259-3.671,8.259-8.443Z"/>
      <path class="cls-1" d="M98.126,84.911h-26.063c1.101,3.487,4.038,5.69,8.993,5.69,3.854,0,8.259-1.468,11.012-3.304l4.588,7.892c-3.671,2.57-9.177,4.956-16.151,4.956-13.582,0-20.189-8.993-20.189-19.088,0-10.829,7.709-19.088,19.455-19.088,10.462,0,18.721,6.607,18.721,18.17,0,1.652-.182,3.304-.366,4.772ZM72.063,77.019h15.417c-.918-3.487-3.671-5.69-7.525-5.69-3.854,0-6.79,2.019-7.892,5.69Z"/>
      <path class="cls-1" d="M120.518,100.328l-5.873-11.196-6.24,11.196h-13.95l11.93-19.272-10.278-18.904h13.949l4.956,10.278,5.873-10.278h13.398l-11.196,18.905,11.563,19.088-14.132.183h0Z"/>
      <circle class="cls-1" cx="139.789" cy="94.455" r="6.24"/>
    </g>
  </g>
</svg>