<?xml version="1.0" encoding="utf-8"?>
<!-- Generator: Adobe Illustrator 25.0.1, SVG Export Plug-In . SVG Version: 6.00 Build 0)  -->
<svg version="1.1" id="Layer_1" xmlns="http://www.w3.org/2000/svg" xmlns:xlink="http://www.w3.org/1999/xlink" x="0px" y="0px"
	 width="150px" height="150px" viewBox="0 0 150 150" style="enable-background:new 0 0 150 150;" xml:space="preserve">
<style type="text/css">
	.st0{fill:#EA1B22;}
</style>
<path class="st0" d="M65.416,77.746h9.276l-4.902-7.884L60.79,84.12h-4.095L67.639,66.99c0.488-0.703,1.293-1.119,2.149-1.11
	c0.837-0.008,1.625,0.397,2.106,1.082L82.885,84.12h-4.1l-1.929-3.188h-9.39L65.416,77.746z M107.952,80.932V66.05h-3.471v16.338
	c-0.001,0.455,0.181,0.891,0.504,1.21c0.336,0.336,0.794,0.524,1.269,0.519H122.1l2.048-3.186H107.952z M50.466,78.264
	c3.373,0,6.107-2.734,6.107-6.107c0-3.373-2.734-6.107-6.107-6.107H35.269V84.12h3.474V69.238h11.499
	c1.617,0.037,2.897,1.378,2.86,2.995c-0.036,1.564-1.296,2.824-2.86,2.86l-9.797-0.015l10.367,9.042h5.046l-6.985-5.855h1.592
	V78.264z M13.881,84.12c-4.989,0.003-9.035-4.04-9.038-9.028c-0.003-4.989,4.04-9.035,9.028-9.038c0.003,0,0.006,0,0.009,0h10.5
	c4.989-0.003,9.035,4.04,9.038,9.028c0.003,4.989-4.04,9.035-9.028,9.038c-0.003,0-0.006,0-0.009,0H13.881z M24.148,80.934
	c3.229,0,5.847-2.618,5.847-5.847c0-3.229-2.618-5.847-5.847-5.847H14.113c-3.229,0-5.847,2.618-5.847,5.847
	c0,3.229,2.618,5.847,5.847,5.847H24.148z M90.133,84.12c-4.989,0.003-9.035-4.04-9.038-9.028c-0.003-4.989,4.04-9.035,9.028-9.038
	c0.003,0,0.006,0,0.009,0h12.473l-2.033,3.186H90.369c-3.229,0-5.847,2.618-5.847,5.847c0,3.229,2.618,5.847,5.847,5.847h12.532
	l-2.055,3.186H90.133z M132.627,80.934c-2.616,0.001-4.914-1.737-5.624-4.255h14.852l2.047-3.186h-16.899
	c0.716-2.514,3.011-4.249,5.624-4.253h10.194l2.058-3.189h-12.484c-4.989-0.065-9.087,3.926-9.152,8.916
	c-0.065,4.989,3.926,9.087,8.916,9.152c0.079,0.001,0.158,0.001,0.236,0h10.714l2.048-3.186L132.627,80.934z"/>
</svg>
