<?xml version="1.0" encoding="utf-8"?>
<!-- Generator: Adobe Illustrator 25.0.1, SVG Export Plug-In . SVG Version: 6.00 Build 0)  -->
<svg version="1.1" id="Layer_1" xmlns="http://www.w3.org/2000/svg" xmlns:xlink="http://www.w3.org/1999/xlink" x="0px" y="0px"
	 width="150px" height="150px" viewBox="0 0 150 150" style="enable-background:new 0 0 150 150;" xml:space="preserve">
<style type="text/css">
	.st0{fill-rule:evenodd;clip-rule:evenodd;fill:#006AA7;}
	.st1{fill-rule:evenodd;clip-rule:evenodd;fill:#DFDB00;}
	.st2{fill-rule:evenodd;clip-rule:evenodd;fill:#FEC200;}
</style>
<g>
	<path class="st0" d="M93.867,72.045h15.763c4.459,0.116,7.989,3.81,7.901,8.269c0.054,3.876-2.614,7.261-6.396,8.113l7.431,10.872
		h-8.23l-7.321-10.731h-7.431v10.731h-6.608V72.045H93.867z M95.583,84.516h10.143c2.086,0.022,3.796-1.652,3.817-3.738
		c0-0.032,0-0.063,0-0.095c0.039-2.153-1.665-3.934-3.817-3.99H95.583L95.583,84.516z M58.038,72.045H78.19
		c4.389,0,7.979,3.323,7.979,7.376c-0.036,2.612-1.469,5.005-3.755,6.271c2.283,1.268,3.715,3.659,3.755,6.271
		c0,4.06-3.59,7.376-7.979,7.376H58.038L58.038,72.045z M64.716,87.314v7.133h9.5c1.97,0.131,3.672-1.36,3.803-3.33
		c0.131-1.97-1.36-3.672-3.33-3.803c-0.158-0.01-0.316-0.01-0.473,0H64.716z M64.716,76.913v7.133h9.5
		c1.97,0.131,3.672-1.36,3.803-3.33c0.131-1.97-1.36-3.672-3.33-3.803c-0.158-0.01-0.316-0.01-0.473,0H64.716z M54.26,72.014H41.475
		c-5.395,0.013-9.769,4.379-9.79,9.774v17.511h5.996V88.082H54.26v-4.844H37.682v-0.071c0.034-3.467,2.85-6.262,6.318-6.271h10.26
		L54.26,72.014z"/>
	<path class="st1" d="M75,65.006C38.567,65.79,22.726,69.983,2.934,80.267C14.833,68.51,38.567,59.543,75,58.775
		c36.433,0.784,60.159,9.759,72.066,21.493C127.266,69.983,111.433,65.774,75,65.006z"/>
	<path class="st2" d="M75,41.57l1.787,17.111l6.13-4.915l-4.883,6.09l16.562,1.818l-16.609,1.826l5.095,6.271l-6.318-5.126
		L75,81.788l-1.795-17.103l-6.122,4.915l4.883-6.098l-16.562-1.826l16.609-1.826l-5.095-6.271l6.318,5.126L75,41.57z"/>
	<path class="st0" d="M74.906,102.434h4.123v1.168h-3.974c-0.286,0-0.517,0.232-0.517,0.517s0.232,0.517,0.517,0.517h2.093
		c1.039,0,1.881,0.842,1.881,1.881c0,1.039-0.842,1.881-1.881,1.881h-3.919v-1.168h3.794c0.396-0.041,0.684-0.396,0.642-0.792
		c-0.035-0.339-0.303-0.607-0.642-0.642h-2.109c-0.933-0.064-1.638-0.871-1.574-1.804c0.058-0.844,0.73-1.516,1.574-1.574
		L74.906,102.434z M81.96,102.434h3.504v1.231h-2.281v4.703H81.96v-4.703h-2.257v-1.231H81.96z M91.837,102.434h1.811l2.971,4.303
		v-4.303h1.231v5.941h-1.811l-3.01-4.248v4.303h-1.231L91.837,102.434z M89.36,105.852l-0.886-2.54l-0.878,2.54H89.36z
		 M88.168,102.434h1.231l2.069,5.941h-1.231l-0.455-1.301h-2.61l-0.455,1.301h-1.231l2.061-5.941H88.168z M64.99,102.434h1.231
		v2.352l2.069-2.352h1.701l-2.587,2.971l2.587,2.971H68.29l-2.069-2.352v2.352H64.99V102.434z M62.224,105.852l-0.886-2.54
		l-0.878,2.54H62.224z M61.04,102.434h1.223l2.061,5.941h-1.238l-0.455-1.301h-2.618l-0.447,1.301h-1.231l2.069-5.941H61.04z
		 M70.955,102.434h1.231v5.941h-1.231V102.434z M56.345,102.434h-3.378l0,0h-0.784v5.941h1.231v-1.967h2.908
		c1.108-0.002,2.005-0.901,2.004-2.009c-0.002-1.106-0.898-2.002-2.004-2.004L56.345,102.434z M53.437,103.586h2.908
		c0.472,0.001,0.853,0.385,0.852,0.857c-0.001,0.47-0.382,0.851-0.852,0.852h-2.908V103.586z"/>
</g>
</svg>
