<?xml version="1.0" encoding="utf-8"?>
<!-- Generator: Adobe Illustrator 25.0.1, SVG Export Plug-In . SVG Version: 6.00 Build 0)  -->
<svg version="1.1" id="Layer_1" xmlns="http://www.w3.org/2000/svg" xmlns:xlink="http://www.w3.org/1999/xlink" x="0px" y="0px"
	 width="150px" height="150px" viewBox="0 0 150 150" style="enable-background:new 0 0 150 150;" xml:space="preserve">
<g>
	<path d="M20.384,77.339h1.084v-0.407c0-4.201-2.71-5.692-6.234-5.692s-8.945,3.117-8.945,3.117L3.308,68.53
		c0,0,5.014-4.066,12.739-4.066s13.417,4.743,13.417,12.875v20.193H22.01v-2.71c0-1.22,0-2.304,0-2.304l0,0
		c0,0-2.439,5.692-9.893,5.692S1.139,94.822,1.139,88.317C1.139,78.017,15.098,77.339,20.384,77.339 M14.285,92.112
		c4.201,0,7.318-4.608,7.318-8.538V82.76h-1.355c-4.066,0-10.842,0.542-10.842,5.014c0,4.472,1.626,4.201,4.879,4.201"/>
	<path d="M51.69,71.783h-8.945v26.021h-8.131V71.783h-4.066v-6.37h4.066v-0.949c0.136-10.706,8.809-12.062,13.281-12.062
		s2.71,0.136,2.71,0.136v6.912c0,0-0.678,0-1.626,0c-2.304,0-6.234,0.542-6.234,5.285v0.813h17.076v32.39H51.69V71.783z"/>
	<path d="M64.565,65.278h7.725v3.795c0,1.22,0,2.168,0,2.168l0,0c1.355-2.71,5.014-6.776,11.52-6.776s11.249,3.795,11.249,12.333
		v20.871h-7.996V78.424c0-3.93-1.084-6.641-5.15-6.641s-7.454,2.71-8.674,6.641c-0.407,1.355-0.542,2.846-0.542,4.337v14.908h-8.131
		V65.278z"/>
	<rect x="99.394" y="65.278" width="8.131" height="32.39"/>
	<path d="M114.438,72.19h-4.201v-6.37h4.337v-9.351h7.86v9.351h7.318v6.37h-7.318v12.604c0,5.285,4.201,6.099,6.37,6.099
		c2.168,0,1.491,0,1.491,0v7.047c0,0-0.949,0.136-2.439,0.136c-4.472,0-13.417-1.355-13.417-12.197V72.325L114.438,72.19z"/>
	<rect x="133.411" y="65.278" width="8.131" height="32.39"/>
	<path d="M103.46,61.348c2.71,0,4.879-2.168,4.879-4.879s-2.168-4.879-4.879-4.879c-2.575,0-4.743,2.168-4.743,5.014
		s2.168,4.879,4.743,4.879"/>
	<path d="M137.341,61.348c2.71,0,4.879-2.168,4.879-4.879s-2.168-4.879-4.879-4.879c-2.71,0-4.743,2.168-4.743,5.014
		s2.168,4.879,4.743,4.879"/>
	<path d="M146.15,92.518c1.491,0,2.71,1.22,2.71,2.71s-1.22,2.71-2.71,2.71s-2.71-1.22-2.71-2.71
		C143.44,93.738,144.659,92.518,146.15,92.518 M146.15,97.668c1.22,0,2.304-1.084,2.304-2.304s-0.949-2.304-2.304-2.304
		s-2.168,1.084-2.168,2.304S144.93,97.668,146.15,97.668 M145.202,93.873h1.084c0.542,0,0.949,0.407,0.949,0.813
		c0,0.407-0.271,0.678-0.542,0.813l0,0c0,0,0,0,0,0.136l0.542,1.084h-0.407l-0.542-1.22h-0.542v1.22h-0.407v-2.982L145.202,93.873z
		 M146.15,95.229c0.271,0,0.542-0.271,0.542-0.542c0-0.271-0.271-0.542-0.542-0.542h-0.542v1.084H146.15z"/>
</g>
</svg>
