<?xml version="1.0" encoding="utf-8"?>
<!-- Generator: Adobe Illustrator 25.0.1, SVG Export Plug-In . SVG Version: 6.00 Build 0)  -->
<svg version="1.1" id="Layer_1" xmlns="http://www.w3.org/2000/svg" xmlns:xlink="http://www.w3.org/1999/xlink" x="0px" y="0px"
	 width="151px" height="150px" viewBox="0 0 151 150" style="enable-background:new 0 0 151 150;" xml:space="preserve">
<style type="text/css">
	.st0{fill:#A70B52;}
	.st1{fill:#FFFFFF;}
	.st2{fill:#808183;}
</style>
<g>
	<path class="st0" d="M37.526,109.539c19.082,0,34.539-15.457,34.539-34.539S56.609,40.461,37.526,40.461S2.988,55.918,2.988,75
		S18.444,109.539,37.526,109.539z"/>
	<path class="st1" d="M45.923,87.155h-7.144v-27.04h-2.652v29.705h2.652v-0.017h7.144V87.155z"/>
	<path class="st1" d="M63.784,76.107H45.972v-2.652H66.39c0.027,0.509,0.04,1.024,0.04,1.546
		c0.001,15.968-12.943,28.914-28.911,28.915C21.55,103.916,8.605,90.972,8.603,75.004C8.602,59.035,21.547,46.09,37.515,46.089
		c0.004,0,0.008,0,0.011,0c0.422,0,0.842,0,1.258,0.027v2.631c-0.418-0.019-0.838-0.029-1.256-0.029
		c-14.515-0.004-26.285,11.759-26.29,26.274c-0.004,14.515,11.759,26.285,26.274,26.29c14.059,0.004,25.631-11.056,26.263-25.101
		L63.784,76.107z"/>
	<path class="st1" d="M26.735,68.13c2.244,0,4.063-1.819,4.063-4.063c0-2.244-1.819-4.063-4.063-4.063
		c-2.244,0-4.063,1.819-4.063,4.063C22.673,66.312,24.492,68.13,26.735,68.13L26.735,68.13z"/>
	<path class="st2" d="M89.209,91.953h24.679v-7.454H98.269V57.811h-9.06V91.953z M143.706,60.213
		c-2.828-2.191-6.473-3.303-10.82-3.303c-5.162,0-9.476,1.586-12.474,4.58c-3.131,3.133-4.788,7.747-4.788,13.342
		c0,5.98,1.752,11.024,4.933,14.203c2.498,2.496,5.824,3.816,9.633,3.816c8.358,0,10.28-5.011,10.28-5.011v4.11h7.543V72.668h-15.02
		v6.034h6.915c0,0,0.067,7.599-7.072,7.599c-1.751,0.023-3.437-0.665-4.671-1.908c-1.937-1.935-2.96-5.194-2.96-9.421
		c0-7.001,2.782-11.182,7.442-11.182c2.91,0,5.099,1.788,5.66,4.496h9.612c-0.498-3.935-1.578-5.986-4.213-8.078L143.706,60.213z"/>
</g>
</svg>
