<?xml version="1.0" encoding="utf-8"?>
<!-- Generator: Adobe Illustrator 25.0.1, SVG Export Plug-In . SVG Version: 6.00 Build 0)  -->
<svg version="1.1" id="Layer_1" xmlns="http://www.w3.org/2000/svg" xmlns:xlink="http://www.w3.org/1999/xlink" x="0px" y="0px"
	 width="150px" height="150px" viewBox="0 0 150 150" style="enable-background:new 0 0 150 150;" xml:space="preserve">
<g>
	<path d="M40.454,71.736h-0.156l-0.323-2.695H37.4v18.185h3.378V75.677c0.803-2.216,2.456-3.438,4.78-3.702V68.98
		C43.137,68.884,41.377,70.118,40.454,71.736z"/>
	<path d="M24.81,62.02l-8.816,20.162l-0.156,0.479h-0.144l-0.156-0.479L6.662,62.02H2.805l11.392,25.205h3.138L28.667,62.02H24.81z"
		/>
	<path d="M74.341,79.798c0,4.9-2.6,8.194-7.594,8.194c-4.995,0-7.619-3.294-7.594-8.194V68.98h3.474v10.494
		c0,3.821,1.857,5.319,4.121,5.319c2.264,0,4.061-1.497,4.121-5.319V68.98h3.474V79.798z"/>
	<path d="M31.889,68.98h-3.534v18.245h3.534V68.98z"/>
	<path d="M47.942,80.553c0,4.301,2.06,6.852,6.372,6.852h0.958V84.41c-3.078-0.06-3.917-1.497-3.917-4.995v-7.499h4.456V68.98
		h-4.456v-6.972h-3.414V80.553z"/>
	<path d="M111.402,68.968H99.891v2.875h6.409l-6.852,15.37h12.494v-2.875h-7.475L111.402,68.968z"/>
	<path d="M125.813,68.968h-11.512v2.875h6.409l-6.852,15.37h12.53v-2.875h-7.475L125.813,68.968z"/>
	<path d="M87.721,68.25c-5.558,0-9.774,4.301-9.774,9.871c0,5.559,4.216,9.871,9.774,9.871c5.558,0,9.775-4.301,9.775-9.871
		C97.496,72.562,93.279,68.25,87.721,68.25z M87.721,84.793c-3.558,0-6.157-3.019-6.157-6.673c0-3.642,2.6-6.673,6.157-6.673
		c3.558,0,6.157,3.019,6.157,6.673C93.878,81.774,91.279,84.793,87.721,84.793z"/>
	<path d="M137.421,68.25c-5.558,0-9.774,4.301-9.774,9.871c0,5.558,4.216,9.871,9.774,9.871s9.775-4.301,9.775-9.871
		C147.195,72.562,142.979,68.25,137.421,68.25z M137.421,84.793c-3.558,0-6.157-3.019-6.157-6.673c0-3.642,2.599-6.673,6.157-6.673
		c3.558,0,6.157,3.019,6.157,6.673S140.978,84.793,137.421,84.793z"/>
</g>
</svg>
