<?xml version="1.0" encoding="utf-8"?>
<!-- Generator: Adobe Illustrator 25.0.1, SVG Export Plug-In . SVG Version: 6.00 Build 0)  -->
<svg version="1.1" id="Layer_1" xmlns="http://www.w3.org/2000/svg" xmlns:xlink="http://www.w3.org/1999/xlink" x="0px" y="0px"
	 width="150px" height="150px" viewBox="0 0 150 150" style="enable-background:new 0 0 150 150;" xml:space="preserve">
<style type="text/css">
	.st0{fill:#696969;}
	.st1{fill:#F25022;}
	.st2{fill:#7FBA00;}
	.st3{fill:#00A4EF;}
	.st4{fill:#FFB900;}
</style>
<path class="st0" d="M146.7,73.6c0-2.6,0-2.6,0-2.6c-3.2,0-3.2,0-3.2,0c0-3.9,0-3.9,0-3.9c-0.1,0-0.1,0-0.1,0
	c-2.9,0.9-2.9,0.9-2.9,0.9c-0.1,0.1-0.1,0.1-0.1,0.1c0,2.9,0,2.9,0,2.9c-4.6,0-4.6,0-4.6,0c0-1.6,0-1.6,0-1.6c0-0.7,0.2-1.4,0.5-1.7
	c0.3-0.5,0.8-0.6,1.4-0.6c0.5,0,0.9,0.1,1.4,0.4c0.2,0,0.2,0,0.2,0c0-2.7,0-2.7,0-2.7c-0.1,0-0.1,0-0.1,0c-0.5-0.2-1-0.3-1.7-0.3
	c-0.9,0-1.7,0.3-2.5,0.6c-0.7,0.4-1.3,0.9-1.7,1.6s-0.5,1.6-0.5,2.5c0,1.8,0,1.8,0,1.8c-2.2,0-2.2,0-2.2,0c0,2.6,0,2.6,0,2.6
	c2.2,0,2.2,0,2.2,0c0,10.7,0,10.7,0,10.7c3.1,0,3.1,0,3.1,0c0-10.7,0-10.7,0-10.7c4.6,0,4.6,0,4.6,0c0,6.8,0,6.8,0,6.8
	c0,2.8,1.3,4.2,3.9,4.2c0.5,0,0.8,0,1.3-0.1c0.5-0.2,0.8-0.3,1-0.4c0.1,0,0.1,0,0.1,0c0-2.6,0-2.6,0-2.6c-0.2,0.1-0.2,0.1-0.2,0.1
	c-0.2,0.1-0.4,0.2-0.6,0.3c-0.3,0.1-0.5,0.1-0.6,0.1c-0.5,0-1-0.2-1.3-0.5c-0.3-0.4-0.5-0.9-0.5-1.7c0-6.2,0-6.2,0-6.2L146.7,73.6
	L146.7,73.6z M126.9,77.7c0-1.4-0.3-2.5-0.9-3.2s-1.5-1.1-2.6-1.1c-1.2,0-2,0.4-2.6,1.1c-0.6,0.8-1,1.9-1,3.3s0.4,2.5,1,3.2
	s1.5,1.1,2.6,1.1s2-0.4,2.6-1.1C126.7,80.2,126.9,79.1,126.9,77.7z M128.4,72.6c1.2,1.2,1.7,2.8,1.7,4.9s-0.5,3.8-1.8,5.1
	c-1.2,1.3-2.9,1.9-5,1.9c-2,0-3.6-0.6-4.8-1.8c-1.2-1.2-1.8-2.8-1.8-4.9c0-2.2,0.6-3.9,1.8-5.2c1.3-1.2,3-1.8,5.1-1.8
	C125.7,70.8,127.3,71.3,128.4,72.6z M111.9,76.6c-1-0.4-1.6-0.7-1.8-1c-0.3-0.2-0.5-0.5-0.5-1c0-0.4,0.2-0.6,0.5-0.9
	s0.7-0.4,1.3-0.4c0.6,0,1.1,0.1,1.6,0.2c0.5,0.2,1,0.5,1.4,0.6c0.1,0.1,0.1,0.1,0.1,0.1c0-2.8,0-2.8,0-2.8c-0.4-0.2-0.8-0.3-1.5-0.5
	c-0.5-0.1-1.1-0.1-1.6-0.1c-1.5,0-2.6,0.4-3.5,1.1c-1,0.7-1.5,1.7-1.5,2.9c0,0.6,0.1,1.2,0.3,1.6c0.3,0.5,0.5,0.9,1,1.2
	c0.4,0.4,1,0.7,1.9,1.1c0.6,0.3,1.2,0.6,1.5,0.7c0.4,0.2,0.6,0.4,0.7,0.6s0.2,0.4,0.2,0.7c0,0.8-0.6,1.3-2,1.3
	c-0.5,0-1.1-0.1-1.7-0.3c-0.6-0.3-1.3-0.6-1.7-0.9c-0.2-0.1-0.2-0.1-0.2-0.1c0,3,0,3,0,3c0.1,0,0.1,0,0.1,0c0.4,0.3,1,0.4,1.6,0.6
	c0.6,0.1,1.3,0.2,1.7,0.2c1.6,0,2.9-0.4,3.8-1.1c1-0.8,1.5-1.8,1.5-3c0-0.9-0.3-1.6-0.7-2.3C114,77.6,113.1,77,111.9,76.6z
	 M101.8,77.7c0-1.4-0.3-2.5-0.9-3.2s-1.5-1.1-2.6-1.1s-2,0.4-2.6,1.1c-0.6,0.8-1,1.9-1,3.3s0.4,2.5,1,3.2s1.6,1.1,2.6,1.1
	c1.2,0,2-0.4,2.6-1.1C101.5,80.2,101.8,79.1,101.8,77.7z M103.4,72.6c1.1,1.2,1.7,2.8,1.7,4.9s-0.6,3.8-1.9,5.1
	c-1.2,1.3-2.9,1.9-5,1.9c-2,0-3.6-0.6-4.8-1.8c-1.2-1.2-1.8-2.8-1.8-4.9c0-2.2,0.6-3.9,1.8-5.2c1.3-1.2,3-1.8,5.2-1.8
	C100.5,70.8,102.2,71.3,103.4,72.6z M90.1,70.9c-0.7,0-1.5,0.2-2,0.7s-0.9,1-1.2,1.7c-0.1,0-0.1,0-0.1,0c0-2.3,0-2.3,0-2.3
	c-3.1,0-3.1,0-3.1,0c0,13.3,0,13.3,0,13.3c3.1,0,3.1,0,3.1,0c0-6.8,0-6.8,0-6.8c0-1.2,0.3-2.1,0.8-2.8c0.5-0.7,1.2-1.1,2-1.1
	c0.3,0,0.5,0.1,0.9,0.2s0.5,0.2,0.7,0.3c0.1,0.1,0.1,0.1,0.1,0.1c0-3.1,0-3.1,0-3.1C91.1,70.9,90.6,70.9,90.1,70.9z M79.9,71
	c-0.5-0.2-1.1-0.2-1.7-0.2c-1.4,0-2.6,0.3-3.7,0.9c-1.1,0.5-1.9,1.5-2.5,2.6c-0.5,1.1-0.8,2.4-0.8,3.7c0,1.3,0.3,2.4,0.8,3.4
	c0.6,1,1.3,1.8,2.3,2.4s2.1,0.8,3.4,0.8c1.5,0,2.7-0.3,3.7-0.8c0.1-0.1,0.1-0.1,0.1-0.1c0-2.8,0-2.8,0-2.8C81.3,81,81.3,81,81.3,81
	c-0.5,0.4-0.9,0.6-1.5,0.8C79.2,82,78.7,82,78.2,82c-1.2,0-2.2-0.4-2.9-1.1c-0.6-0.8-1-1.8-1-3.2c0-1.3,0.4-2.4,1.1-3.2
	c0.7-0.8,1.7-1.2,2.9-1.2c1,0,2,0.4,2.9,1c0.2,0.1,0.2,0.1,0.2,0.1c0-3,0-3,0-3c-0.1,0-0.1,0-0.1,0C81,71.3,80.5,71.1,79.9,71z
	 M67.5,65.5c-0.5,0-1,0.2-1.4,0.6c-0.4,0.3-0.5,0.7-0.5,1.3c0,0.5,0.2,0.9,0.5,1.3c0.4,0.3,0.8,0.5,1.4,0.5c0.5,0,0.9-0.2,1.3-0.5
	c0.4-0.4,0.5-0.8,0.5-1.3c0-0.6-0.2-0.9-0.5-1.3C68.4,65.7,67.9,65.5,67.5,65.5z M65.9,84.3c3.1,0,3.1,0,3.1,0C69,71,69,71,69,71
	c-3.1,0-3.1,0-3.1,0V84.3z M58.6,65.9c4.3,0,4.3,0,4.3,0c0,18.5,0,18.5,0,18.5c-3.1,0-3.1,0-3.1,0c0-11.7,0-11.7,0-11.7
	c0-0.8,0-2,0.1-3.4c-0.2,0.6-0.3,1.2-0.5,1.5c-5.5,13.6-5.5,13.6-5.5,13.6c-2.1,0-2.1,0-2.1,0C46.3,71,46.3,71,46.3,71
	c-0.1-0.4-0.3-0.9-0.5-1.6c-0.1,0-0.1,0-0.1,0c0.1,0.4,0.1,0.7,0.1,1.2c0.1,1,0.1,1.8,0.1,2.6c0,11.3,0,11.3,0,11.3c-3,0-3,0-3,0
	c0-18.5,0-18.5,0-18.5c4.5,0,4.5,0,4.5,0C52,77.6,52,77.6,52,77.6c0.5,1,0.7,1.8,0.8,2.4c0.1,0,0.1,0,0.1,0c0.8-2.4,0.8-2.4,0.8-2.4
	L58.6,65.9z"/>
<rect x="3.2" y="59.7" class="st1" width="14.6" height="14.6"/>
<rect x="19.3" y="59.7" class="st2" width="14.5" height="14.6"/>
<rect x="3.2" y="75.8" class="st3" width="14.6" height="14.6"/>
<rect x="19.3" y="75.8" class="st4" width="14.5" height="14.6"/>
</svg>
