<?xml version="1.0" encoding="UTF-8"?>
<svg xmlns="http://www.w3.org/2000/svg" width="150" height="150" version="1.1" viewBox="0 0 150 150">
  <defs>
    <style>
      .cls-1 {
        fill: #fcfcfc;
      }

      .cls-2 {
        fill: #262526;
      }

      .cls-3 {
        fill: #292729;
      }

      .cls-4 {
        fill: #e38b8e;
      }

      .cls-5 {
        fill: #292628;
      }

      .cls-6 {
        fill: #272426;
      }

      .cls-7 {
        fill: #282527;
      }

      .cls-8 {
        fill: #ca2128;
      }

      .cls-9 {
        fill: #e1e1e1;
      }

      .cls-10 {
        fill: #e5e5e5;
      }

      .cls-11 {
        fill: #575556;
      }

      .cls-12 {
        fill: #c4c4c4;
      }

      .cls-13 {
        fill: #282627;
      }

      .cls-14 {
        fill: #f1f1f1;
      }

      .cls-15 {
        fill: #282728;
      }

      .cls-16 {
        fill: #272526;
      }

      .cls-17 {
        fill: #2d2c2d;
      }

      .cls-18 {
        fill: #272527;
      }

      .cls-19 {
        fill: #c3c2c2;
      }

      .cls-20 {
        fill: #efeeef;
      }

      .cls-21 {
        fill: #272627;
      }

      .cls-22 {
        fill: #7a7979;
      }

      .cls-23 {
        fill: #fefefe;
      }

      .cls-24 {
        fill: #fdfdfd;
      }
    </style>
  </defs>
  <!-- Generator: Adobe Illustrator 28.7.1, SVG Export Plug-In . SVG Version: 1.2.0 Build 142)  -->
  <g>
    <g id="Layer_1">
      <path class="cls-8" d="M17.9,75.4c1.4.5,2.7.4,3.9-.5.7-.5,1.1-1.2,1.3-2.1.4-1.8-.6-3.5-2.4-4.2-1-.4-2-.3-2.9.2-.9.5-1.5,1.2-1.9,2.2-.2-1.9,1-4.8,4-5.8,2.7-.9,5.6.4,7,2.9,1.4,2.6.7,5.7-1.5,7.5-2.2,1.8-5.3,1.6-7.5-.3Z"/>
      <path class="cls-8" d="M15.9,72.2c-.4,2.2-2.2,4-4.5,4.4-2.5.5-4.6-.4-6-2.4-2.5-3.5-.5-8.3,3.7-9,2.2-.4,4,.4,5.5,2,0,0,.2.2.1.3-1.8-1.3-4.2-.8-5.3.9-1.3,2.1,0,4.9,2.5,5.4,1.6.3,3-.3,3.9-1.7,0,0,0,0,0,0Z"/>
      <path class="cls-6" d="M121.8,74.5s0,0,0,0c.3-.6.2-.7-.4-.6-.8,0-1.6.3-2.4.5.3.3.6.7.9.9.8.7.6,1.6.4,2.5,0,.1-.1.2-.3.2-.9,0-1.8,0-2.7,0-.2,0-.2,0-.3-.2,0-.2-.1-.4-.2-.7-.1.2-.1.4-.2.6,0,.2-.1.3-.3.3-3,0-6,0-9,0-.4,0-.7,0-1.1,0-.2,0-.5,0-.7-.2-.8-.7-.6-2.4.3-2.9,0,.3-.2.7-.2,1,0,.7.2.9.9.9,1.6,0,3.2,0,4.9,0,1.6,0,3.2,0,4.9,0,.3,0,.4,0,.4-.3,0-.3,0-.6.1-.8.2.3.3.6.4.9,0,.1,0,.3.2.2.8,0,1.6,0,2.4,0-.2-.4-.5-.7-.8-.9-.8-.8-.9-1-.4-2,0-.2.2-.3.4-.4,1-.5,2.1-.6,3.2-.7.2,0,.3.1.3.3,0,.6-.2,1.1-.6,1.6-.1,0-.1,0,0-.1Z"/>
      <path class="cls-6" d="M72.7,78.4c.9-.1,1.7,0,2.4-.7-.4,0-.7,0-1,0-.3,0-.4-.1-.5-.4-.2-.7,0-1.4.4-2.1.2-.3.7-.4,1.1-.2.4.2.7.6.8,1,0,0,0,.2,0,.2.3.1.7,0,1.1,0,.1,0,.2-.1.3-.2.2-.2.4-.4.8-.4.2,0,.3-.1.4-.3.3-.3.6-.6,1-.7.9-.2,1.6.2,1.8,1.1,0,.3.1.3.4.3.5,0,.9,0,1.4,0,.2,0,.3,0,.4-.2.2-.5.7-.8,1-1.1.6-.5,1.2-.4,1.5.3.4.7.4,1.4,0,2.2-.2.3-.4.4-.6.2-.5-.3-1-.5-1.4-.8-.2-.1-.3-.1-.4.2-.2.6-.2.6-.8.6-.4,0-.9,0-1.3,0-.3,0-.4,0-.4-.4,0-.4-.1-.8-.3-1.1-.3-.6-1-.8-1.6-.5-.1,0-.1.1,0,.3,0,0,0,0,0,0,.5.7.5.8-.1,1.4-.1.1-.2.1-.3,0-.2-.2-.3-.4-.6-.5-.4-.2-.5-.2-.7.2,0,0,0,.2,0,.2,0,.2-.2.3-.4.3-.7-.2-1.1,0-1.4.7-.4.9-1.1,1-1.9.4-.2-.1-.4-.3-.7-.5Z"/>
      <path class="cls-2" d="M41.4,74.5c0,.3-.1.6-.2.8-.1.8.2,1.1,1,1.1,1.6,0,3.3,0,4.9,0,.8,0,1.5,0,2.3,0,.2,0,.3,0,.3-.3,0-.3,0-.6.1-.9.2.3.3.6.3.9,0,.3.2.3.4.3.4,0,.9,0,1.3,0,.3,0,.4,0,.4-.3,0-.1,0-.3,0-.5.2.2.3.4.3.6,0,.2.2.3.4.2,0,0,0,0,0,0,.2,0,.5,0,.7,0,.2-.1,0-.4.2-.7,0,0,0,0,0-.1.2.1.2.4.3.6,0,.2.2.3.4.3.3,0,.5,0,.8,0,0,0,0,0,0,0,0,0,0-.1,0-.2,0-.1-.3-.2-.3-.4,0-.3.1-.6.2-.9,0-.1.2,0,.2,0,.3.2.5.5.6.9,0,.6,0,1.1-.2,1.7,0,.2-.1.2-.3.2-.4,0-.9,0-1.3,0-.1,0-.2,0-.2-.2,0-.1,0-.3-.2-.4,0,1-.8.5-1.3.6-.3,0-.2-.3-.4-.4-.1,0,0,.1-.1.2,0,.2-.2.3-.4.3-.4,0-.9,0-1.3,0-.3,0-.4,0-.5-.3,0-.2,0-.3-.2-.5,0,0,0,0,0,0-.2.8-.2.8-1,.8-2.3,0-4.6,0-6.8,0-.7,0-1.1-.3-1.3-1-.2-.8,0-1.8.7-2.2Z"/>
      <path class="cls-6" d="M16.3,78.2c1.8,0,3.9.5,5.8,1.4.2,0,.3.2.2.4-.1.3-.3.7-.4,1.1,0,.3-.2.2-.4.1-1.4-.7-2.9-1.3-4.3-2-.2-.1-.5-.1-.7,0-2,.7-3.9,1.3-5.9,2-.3,0-.4,0-.5-.2-.2-.4-.3-.8-.5-1.2,0-.2,0-.3.1-.3,2-.9,4-1.4,6.5-1.4Z"/>
      <path class="cls-6" d="M130.1,77.4c-.2.2,0,.6-.4.6-.4,0-1.1.3-1.3-.5,0,.5-.4.5-.8.5-1.3,0-2.6,0-3.9,0-.2,0-.4,0-.5.3-.2.4-.3.7-.6,1-.3.2-.6.3-1,.2-.4-.2-.7-.3-1-.6.8,0,1.5-.2,2.2-.8-.3,0-.6,0-.9,0-.6,0-.9-.4-.8-1,0-.5.1-.9.4-1.3.4-.5,1-.5,1.4,0,.2.2.3.5.4.8,0,.2.2.2.4.2,1.4,0,2.8,0,4.3,0,.3,0,.5,0,.5-.4,0-.1,0-.3,0-.4.2.1.3.4.3.6,0,.2.2.2.3.2.3,0,.6,0,.8,0,.2-.1,0-.5.2-.8.2.1.2.4.3.6,0,.1,0,.2.3.2.3,0,.6,0,1,0,0,0,0-.1,0-.2-.1-.1-.3-.2-.3-.4,0-.3.1-.6.2-.9,0-.1.1,0,.2,0,.3.2.5.4.5.8.2.6,0,1.2-.2,1.8,0,.1-.1.2-.3.2-.2,0-.5,0-.7,0-.2,0-.5,0-.7,0-.3,0-.1-.4-.3-.6Z"/>
      <path class="cls-6" d="M101.2,76.8c-.4-.8-1.3-1.2-2-.8,0-1,1.1-1.5,1.9-1,.3.2.6.5.9.8.8.9,1,1,2.2,1.3-.1.3-.3.6-.4.8-.1.2-.3.2-.5.2-.5,0-1.1,0-1.6,0-1.9,0-3.9,0-5.8,0-.1,0-.3,0-.4,0-.6,0-.9-.3-.9-.9,0-1,0-2,0-3,0-.3,0-.5,0-.8,0-.5.3-.8.5-1.3.1.4.1.7.1,1.1,0,1.1,0,2.3,0,3.4,0,.2,0,.3.3.3,1.9,0,3.8,0,5.8,0Z"/>
      <path class="cls-6" d="M98.3,65.2c-.4,1.2-.8,2.3-1.2,3.5,0,.2-.2.4-.2.7,0,.2-.2.3-.4.3-.3,0-.4-.1-.5-.4-.5-1.4-.9-2.8-1.4-4.2-.1,0,0,.2,0,.3,0,1.3,0,2.7,0,4,0,.3-.1.3-.4.3-.2,0-.4,0-.4-.3,0-1.7,0-3.3,0-5,0-.2,0-.3.3-.3.8,0,.8,0,1.1.8.4,1.3.9,2.6,1.3,3.9.2,0,.1-.2.2-.3.5-1.4,1-2.7,1.4-4.1,0-.3.2-.4.5-.4.6,0,.6,0,.6.6,0,1.6,0,3.2,0,4.7,0,.3-.2.3-.4.3-.2,0-.4,0-.4-.3,0-1.4,0-2.8,0-4.1,0,0,0,0,0,0Z"/>
      <path class="cls-6" d="M62.5,75.6c0,.2-.1.4-.2.6-.4.8-.1,1.7.7,2.1.9.4,2.2.2,2.9-.4.2-.2.3-.4.3-.6,0-1.1-.2-2.1-.3-3.2,0-.5.3-.8.5-1.3.1.3.1.5.1.7,0,.8,0,1.6.1,2.4,0,.5,0,.6.6.6.7,0,1.3,0,2,0,0,0,0,0,0,0,0,0,0,0,0,0,0-.2-.4-.2-.3-.4,0-.3.2-.6.3-.9,0-.1.2,0,.2,0,.4.3.7.7.7,1.3,0,.2,0,.3,0,.5-.2,1-.2,1-1.3,1-.7,0-1.4,0-2.1,0-.3,0-.4,0-.5.3-.6,1.3-1.9,1.8-3.3,1.4-1-.3-1.6-1.1-1.4-2.2.1-.7.4-1.3.9-1.7Z"/>
      <path class="cls-6" d="M87.1,80.5c-.1-1.1-.4-2.3-.2-3.4.2-1,.6-1.4,1.6-1.5.2,0,.3-.1.3-.3,0-.3.2-.6.3-.9.2-.4.6-.5.9-.2.6.5.7,1.5.3,2.2,0,.1-.3.1-.4.3.1.1.3.1.4.1.8,0,1.6,0,2.3,0,0,0,.2,0,.3,0,0-.1,0-.2-.1-.2-.2-.3-.2-1,0-1.2,0,0,.2,0,.2,0,.3.2.5.6.5.9,0,.5,0,1-.2,1.5,0,.2-.2.3-.4.3-.9,0-1.9,0-2.8,0-.7,0-1-.3-.9-1,0-.4,0-.5-.4-.5-.4,0-.9,0-1.3.2-.3.1-.4.3-.4.6,0,.7.1,1.3.1,2,0,.4-.1.8-.4,1.2Z"/>
      <path class="cls-6" d="M14.3,61.4c.5.3,1,.7,1.4,1,.2.1.3.1.4,0,.4-.3.9-.6,1.3-.9,0,0,.1-.1.2,0,0,0,0,.2,0,.2-.2.5-.3,1-.5,1.4,0,.3,0,.4.2.5.5.3,1,.7,1.6,1.1-.7,0-1.3,0-2,0-.2,0-.3,0-.4.3-.2.6-.4,1.2-.6,1.9-.2-.7-.4-1.3-.6-1.8,0-.3-.2-.3-.4-.3-.6,0-1.2,0-1.9,0,.5-.4,1-.7,1.5-1.1.2-.1.2-.3.2-.5-.2-.5-.3-1-.5-1.5,0,0,0-.2,0-.2Z"/>
      <path class="cls-2" d="M33,69.8c-.5,0-.9,0-1.3-.3-.6-.3-.9-.8-1-1.4,0-.1,0-.3.1-.3.2,0,.5-.2.6.1.4,1,1.4,1.4,2.4,1,.4-.2.6-.5.6-.8,0-.4-.3-.6-.6-.7-.5-.2-1-.3-1.4-.4-.3,0-.5-.2-.8-.3-1-.6-1-1.9,0-2.4.9-.5,1.8-.5,2.7,0,.4.2.6.6.7,1.1,0,.2,0,.3-.2.3-.3,0-.5,0-.6-.3,0-.3-.3-.5-.6-.6-.5-.2-.9-.2-1.4,0-.3.1-.6.3-.6.7,0,.4.2.6.6.7.4.1.9.2,1.3.4.3,0,.5.1.8.3,1.1.5,1.2,1.9.2,2.6-.4.3-.9.4-1.5.4Z"/>
      <path class="cls-16" d="M87.9,66.2c.4-.4.8-.7,1.3-.7.7,0,1.2.4,1.2,1.1,0,1,0,1.9,0,2.9,0,.3-.3.1-.4.2-.2,0-.3,0-.3-.2,0-.8,0-1.6,0-2.4,0-.6-.2-.9-.7-.9-.6,0-1,.3-1,.9,0,.6,0,1.3,0,1.9,0,.3.4.8-.3.8q-.4,0-.4-.8c0-.6,0-1.2,0-1.8,0-.6-.2-.9-.7-.9-.5,0-.9.3-1,.9-.1.8,0,1.6,0,2.4,0,.3,0,.4-.4.3-.2,0-.4,0-.4-.3,0-1.1,0-2.3,0-3.4,0-.2,0-.4.3-.4.3,0,.4,0,.4.4,0,0,0,0,0,.1.4-.4.7-.6,1.2-.6.5,0,.9.2,1.1.7Z"/>
      <path class="cls-6" d="M105.3,66.1c.4-.4.8-.6,1.3-.6.4,0,.7.1,1,.5.1.2.2.1.3,0,.4-.4.9-.6,1.5-.5.6.1.9.5.9,1.1,0,.9,0,1.9,0,2.8,0,.3-.2.2-.4.2-.1,0-.3,0-.3-.2,0-.8,0-1.6,0-2.4,0-.7-.2-.9-.7-.9-.6,0-1,.3-1,.9,0,.8,0,1.5,0,2.3,0,.3,0,.4-.4.4-.3,0-.4,0-.3-.4,0-.7,0-1.4,0-2.1,0-.1,0-.2,0-.4,0-.5-.2-.7-.6-.7-.4,0-.9.1-1,.5-.1.3-.1.6-.1.9,0,.6,0,1.3,0,1.9,0,.3-.2.3-.4.3-.2,0-.4,0-.4-.3,0-1.2,0-2.3,0-3.5,0-.3,0-.3.3-.3.3,0,.3.1.3.3,0,0,0,0,0,.2Z"/>
      <path class="cls-16" d="M63,66.8c.2-.2.4-.4.5-.6.6-.6,1.2-1.1,1.7-1.7.4-.5.9-.5,1.5-.4-.2.2-.3.3-.5.4-.6.5-1.1,1.1-1.7,1.6-.2.2-.2.3,0,.5.8,1,1.5,2,2.3,3-.6.2-.9,0-1.3-.4-.5-.7-1-1.4-1.5-2.1-.1-.2-.2-.2-.4,0-.6.4-.8,1-.7,1.7,0,.2,0,.3,0,.5,0,.5-.1.6-.6.5-.2,0-.1-.2-.1-.3,0-.9,0-1.8,0-2.7s0-1.6,0-2.3c0-.3.1-.3.4-.3.3,0,.4,0,.4.4,0,.8,0,1.6,0,2.4,0,0,0,0,0,0Z"/>
      <path class="cls-2" d="M15.8,77c2.5,0,4.7.5,6.8,1.5.2,0,.3.2.1.4-.1.2-.1.4-.5.3-2.2-1-4.5-1.5-6.9-1.4-2,0-3.9.5-5.7,1.3-.1,0-.2.2-.3,0-.1-.1-.2-.3-.3-.5,0,0,.1-.1.2-.1,1.6-.7,3.3-1.2,5.1-1.4.6,0,1.1,0,1.5,0Z"/>
      <path class="cls-6" d="M60.8,76.1c-.1-.1-.2-.2-.2-.3-.4-.5-.5-.8-.2-1.4,0-.2.2-.2.3,0,.4.3.7.6.8,1.1,0,.5,0,1.1-.2,1.6,0,.2-.2.3-.4.3-.6-.1-1.3,0-1.8-.3-.2-.1-.2.1-.2.2-.1.5-.4.9-.7,1.2-.2.3-.5.4-.9.3-.6-.1-1.1-.3-1.6-.6.5,0,.9-.1,1.3-.2.5-.1.9-.3,1.3-.7.4-.4.5-.6.1-1.1-.4-.5-.2-.9,0-1.4,0-.2.2-.2.3,0,.1.2.3.4.3.6.2.5.6.7,1.1.7.3,0,.6,0,.9,0Z"/>
      <path class="cls-2" d="M56.7,69.7q-.7,0-.9-.4c-.5.4-1,.6-1.6.5-.7,0-1.2-.4-1.2-1,0-.6.3-1.1,1-1.3.5-.1.9-.1,1.4-.2.2,0,.4,0,.4-.2,0-.3,0-.5-.2-.7-.5-.4-1.5-.2-1.8.4-.2.4-.4.1-.6,0-.2,0,0-.2,0-.3,0-.2.2-.4.4-.6.6-.5,1.9-.5,2.5-.1.3.2.4.5.4.8,0,.7,0,1.4,0,2.1,0,.3,0,.7.2,1Z"/>
      <path class="cls-16" d="M73.4,65.5c.1,0,.3,0,.4,0,.8,0,1.2.4,1.2,1.3,0,.7,0,1.4,0,2,0,.2,0,.3,0,.5,0,.1.2.3,0,.3-.2,0-.6.2-.7-.2,0-.3-.2-.2-.4,0-.5.4-1.2.5-1.8.3-.5-.1-.8-.5-.8-1,0-.5.2-.9.6-1.1.3-.2.5-.2.8-.2.3,0,.7,0,1-.2.2,0,.4,0,.4-.2,0-.2,0-.5-.2-.6-.4-.5-1.5-.3-1.8.3,0,.2-.6.3-.7.1,0,0,0-.1,0-.2.1-.4.4-.7.8-.9.3-.1.7-.2,1-.2Z"/>
      <path class="cls-2" d="M123.5,69.7q-.7,0-.9-.4c-.5.4-1.1.6-1.7.5-.6,0-1.1-.4-1.1-1,0-.6.2-1.1.9-1.3.5-.2,1.1-.1,1.6-.3.2,0,.4,0,.4-.2,0-.3,0-.5-.2-.7-.5-.4-1.4-.2-1.7.4-.2.3-.4.1-.6,0-.2,0,0-.2,0-.3,0-.2.2-.4.4-.6.6-.4,1.8-.5,2.4-.1.3.2.5.5.5.9,0,.5,0,1.1,0,1.6,0,.5,0,1,.2,1.4Z"/>
      <path class="cls-16" d="M43.1,69.2c-.5.4-1.1.6-1.7.6-.6,0-1.1-.4-1.2-1,0-.6.2-1.1.9-1.3.5-.2,1-.1,1.5-.3.2,0,.4,0,.5-.3,0-.3,0-.6-.4-.7-.6-.3-1.3-.1-1.6.5,0,.1-.1.1-.2.1-.2,0-.3,0-.5,0,0-.3.1-.5.3-.7.5-.7,2.2-.8,2.8-.2.2.2.3.5.3.8,0,.4,0,.9,0,1.3,0,.5,0,1.1.2,1.6q-.7,0-.9-.5Z"/>
      <path class="cls-16" d="M102.2,67.8c-.4,0-.9,0-1.3,0-.2,0-.3,0-.2.3.1.7.6,1.1,1.2,1.1.5,0,.8-.2,1-.6,0-.2.6-.3.8-.1,0,0,0,.1,0,.2-.1.4-.4.7-.8.9-1.3.6-2.7-.1-2.9-1.5,0-.3,0-.7,0-1,.2-1.1,1.1-1.7,2.2-1.6,1,.1,1.7,1.1,1.6,2.1,0,.2-.1.2-.3.2-.4,0-.9,0-1.3,0Z"/>
      <path class="cls-16" d="M36.8,66c.5-.5,1.1-.6,1.7-.5.5.1.8.4.9.9.1.8,0,1.6,0,2.3,0,.2,0,.3,0,.5,0,.3,0,.4-.4.4-.3,0-.4,0-.3-.4,0-.7,0-1.5,0-2.2,0-.7-.3-1-.8-1-.6,0-1.1.4-1.1,1,0,.7,0,1.5,0,2.2,0,.3,0,.4-.4.4-.3,0-.3,0-.3-.3,0-1.7,0-3.3,0-5,0-.3.1-.3.3-.3.2,0,.4,0,.4.3,0,.5,0,1.1,0,1.7Z"/>
      <path class="cls-16" d="M67.9,66.1c.6-.5,1.1-.6,1.8-.5.5.1.8.5.8,1,.1,1,0,2,0,3,0,.3-.3.1-.4.2-.1,0-.3,0-.3-.2,0-.7,0-1.4,0-2.1,0-.1,0-.2,0-.4,0-.6-.3-.9-.8-.9-.6,0-1,.3-1.1.8,0,.3,0,.7,0,1,0,.5,0,1,0,1.5,0,.3-.2.2-.4.2-.2,0-.3,0-.3-.2,0-1.7,0-3.4,0-5.2,0-.3.2-.2.4-.2.2,0,.3,0,.3.3,0,.6,0,1.1,0,1.8Z"/>
      <path class="cls-16" d="M49.9,67.2c.4-.4.9-.8,1.2-1.2.3-.4.8-.5,1.3-.4-.4.4-.8.9-1.2,1.2-.2.2-.2.3,0,.5.5.6.9,1.3,1.3,1.9,0,0,.2.2.2.3-.5,0-.9,0-1.1-.5-.2-.5-.6-.9-.9-1.4-.1-.2-.2-.2-.3,0-.2.2-.3.4-.3.7,0,.3,0,.7,0,1,0,.3-.2.2-.4.2-.2,0-.3,0-.3-.2,0-1.7,0-3.4,0-5.2,0-.3.2-.2.4-.3.2,0,.4,0,.3.3,0,.9,0,1.9,0,2.9Z"/>
      <path class="cls-16" d="M114.8,67.7c0,1.1-.5,1.8-1.4,2.1-1.2.3-2.3-.4-2.4-1.7,0-.3,0-.6,0-1,.2-1,.9-1.6,2-1.6,1,0,1.7.7,1.8,1.8,0,.1,0,.2,0,.3Z"/>
      <path class="cls-16" d="M141.3,69.8c-.9,0-1.4-.3-1.6-1,0-.1-.1-.3,0-.3.2,0,.4-.2.6,0,.3.6,1,.9,1.6.6.2-.1.3-.3.3-.5,0-.3-.2-.4-.4-.4-.5-.1-.9-.3-1.4-.4-.6-.2-.8-.6-.8-1.1,0-.5.3-.9.9-1,.5-.2,1.1-.1,1.6,0,.2,0,.4.2.6.5,0,.2.2.3.1.5-.1.1-.3,0-.5.1-.1,0-.1,0-.2-.2-.2-.5-1.1-.7-1.5-.3-.3.2-.2.6.1.8.3.1.7.2,1,.3.2,0,.4.1.5.2.4.1.7.4.7.8,0,.5,0,.8-.5,1.1-.4.3-.8.4-1.2.4Z"/>
      <path class="cls-16" d="M138.1,69.2c-.5.6-1.1.7-1.8.5-.5-.2-.8-.6-.9-1.1,0-.9,0-1.9,0-2.8,0-.3.3-.1.4-.2.2,0,.3,0,.3.2,0,.8,0,1.5,0,2.3,0,.7.3,1,.8,1.1.6,0,1.1-.4,1.1-1,0-.8,0-1.5,0-2.3,0-.3.1-.3.4-.3.2,0,.4,0,.4.3,0,1.1,0,2.3,0,3.4,0,.2,0,.4-.3.4-.3,0-.4,0-.4-.4,0,0,0,0,0-.2Z"/>
      <path class="cls-2" d="M83.1,69.2c-.5.6-1.1.7-1.8.5-.5-.1-.7-.5-.8-.9-.1-1,0-2,0-3,0-.3.3-.1.4-.2.2,0,.3,0,.3.2,0,.6,0,1.3,0,1.9,0,.2,0,.4,0,.6,0,.5.3.8.7.9.5,0,.9-.2,1.1-.7,0-.2,0-.5,0-.7,0-.6,0-1.2,0-1.8,0-.3,0-.4.4-.4.2,0,.4,0,.4.3,0,1.2,0,2.3,0,3.5,0,.2,0,.3-.3.3-.2,0-.4,0-.4-.3,0,0,0-.1,0-.3Z"/>
      <path class="cls-2" d="M129.8,67.2c0-.7,0-1.4,0-2.2,0-.3,0-.4-.4-.3-.4,0-.9,0-1.3,0-.3,0-.2-.2-.3-.4,0-.2,0-.3.3-.3,1.3,0,2.6,0,4,0,.3,0,.3.2.3.4,0,.2,0,.4-.3.3-.4,0-.8,0-1.2,0-.3,0-.4,0-.4.4,0,1.4,0,2.8,0,4.2,0,.3-.2.3-.4.3-.3,0-.4,0-.4-.3,0-.7,0-1.4,0-2.2Z"/>
      <path class="cls-16" d="M47.4,69.2c-.3.4-.8.6-1.3.6-.8,0-1.3-.5-1.3-1.3,0-.9,0-1.8,0-2.7,0-.3.2-.2.4-.2.2,0,.4,0,.4.2,0,.8,0,1.6,0,2.5,0,.5.2.8.7.9.5,0,1-.2,1.1-.6,0-.2.1-.5.1-.8,0-.6,0-1.3,0-1.9,0-.3.1-.3.3-.3.2,0,.4,0,.4.3,0,1.2,0,2.3,0,3.5,0,.2,0,.3-.3.3-.2,0-.4,0-.3-.3,0,0,0-.1,0-.2Z"/>
      <path class="cls-16" d="M76.7,66.1c.6-.6,1.2-.7,1.9-.5.5.1.8.5.8.9,0,1,0,2,0,3,0,.3-.3.1-.4.2-.2,0-.3,0-.3-.2,0-.7,0-1.4,0-2.1,0-.1,0-.3,0-.4,0-.5-.3-.8-.7-.8-.5,0-1,.2-1.1.7-.1.4,0,.7,0,1.1,0,.5,0,1,0,1.5,0,.3-.2.3-.4.3-.2,0-.4,0-.4-.3,0-1.2,0-2.4,0-3.5,0-.2,0-.3.3-.3.2,0,.4,0,.3.3,0,0,0,.1,0,.3Z"/>
      <path class="cls-18" d="M58.4,64.2c0,.3,0,.6,0,.9,0,.3,0,.5.4.4.2,0,.3,0,.3.3,0,.2,0,.3-.3.3-.4,0-.4,0-.4.4,0,.7,0,1.4,0,2,0,.4,0,.5.5.5.4,0,.2.3.3.4,0,.2,0,.2-.2.2-.8.2-1.2-.2-1.3-1,0-.8,0-1.5,0-2.3,0-.2,0-.4-.3-.3-.2,0-.2-.1-.2-.3,0-.2,0-.3.2-.3.2,0,.3,0,.3-.3,0,0,0,0,0-.1-.1-.5.2-.8.7-1Z"/>
      <path class="cls-18" d="M143.9,67.7c0-.4,0-.8,0-1.2,0-.2,0-.3-.3-.3-.2,0-.3-.1-.3-.3,0-.2,0-.3.3-.3.2,0,.3,0,.3-.3,0-.1,0-.2,0-.3,0-.4.2-.6.6-.8.2,0,.2,0,.2.1,0,.3,0,.6,0,.9,0,.3,0,.4.3.3.2,0,.4,0,.4.2,0,.2,0,.4-.3.3-.3,0-.4,0-.4.4,0,.7,0,1.4,0,2.1,0,.4,0,.5.5.5.4,0,.2.3.3.4,0,.2-.1.2-.2.2-.7,0-1.3,0-1.2-1,0-.4,0-.7,0-1.1,0,0,0,0,0,0Z"/>
      <path class="cls-16" d="M69.6,78.5c.3-.1.6-.1.9-.2.6-.1,1.1-.3,1.5-.8.2-.2.2-.3,0-.5-.1-.2-.2-.5-.4-.6-.2-.2-.3-.4-.1-.7,0,0,0-.2.1-.3,0-.1,0-.4.2-.4.2,0,.3.2.4.4.7,1,.4,2.7-.6,3.5-.3.2-.5.3-.9.1-.4-.2-.8-.4-1.2-.6Z"/>
      <path class="cls-13" d="M125.1,66.9c0,.8,0,1.7,0,2.5,0,.3-.1.3-.4.3-.2,0-.4,0-.4-.3,0-1.7,0-3.4,0-5.1,0-.3.2-.3.4-.3.2,0,.4,0,.3.3,0,.8,0,1.7,0,2.5Z"/>
      <path class="cls-21" d="M116.2,66.1c.6-.6.9-.7,1.4-.5.2,0,.2.2.1.3,0,.1,0,.5-.3.3-.6-.2-.9,0-1,.6-.1.6,0,1.2,0,1.8,0,.2,0,.5,0,.7,0,.3,0,.3-.4.3-.3,0-.4,0-.4-.3,0-1.1,0-2.3,0-3.4,0-.2,0-.4.3-.4.3,0,.3.2.3.4,0,0,0,0,0,.2Z"/>
      <path class="cls-21" d="M133.4,66.2c.5-.6.8-.8,1.4-.5.2,0,.2.2.1.4,0,.1,0,.4-.4.3-.5-.2-.9,0-1,.6-.1.6,0,1.1,0,1.7,0,.3,0,.6,0,.8,0,.3-.2.3-.4.3-.2,0-.4,0-.4-.3,0-1.2,0-2.4,0-3.6,0-.3,0-.3.3-.3.2,0,.4,0,.3.3,0,0,0,.1,0,.3Z"/>
      <path class="cls-16" d="M69.7,79.3c-.1.3-.3.6-.6.7-.2.1-.4,0-.6-.2,0,0-.2,0-.2-.1-.2-.3-.4-.2-.6,0-.1.3-.4.3-.6.2-.6-.3-.7-.6-.3-1.1q.3-.4.7,0c.4.4.6.3.9-.1.1-.2.2-.2.4-.1.2.2.5.4.8.5,0,0,.1,0,0,.2Z"/>
      <path class="cls-18" d="M79.1,78.3s0,0,.1.1c.1,0,.2.2.4.3.3.2.5.2.7-.1.2-.3.4-.3.6,0,.1.1.3.2.4.3.4.2.4.2,0,.5-.5.6-.7.6-1.3.1-.3-.2-.4-.2-.6,0-.1.3-.4.3-.7.2-.1,0-.3-.2-.4-.3-.2-.1-.2-.3,0-.5.2-.2.4-.4.5-.6,0,0,0,0,0,0Z"/>
      <path class="cls-5" d="M119,67.6c0,.6,0,1.2,0,1.8,0,.3-.1.3-.3.3-.2,0-.4,0-.4-.2,0-1.2,0-2.4,0-3.6,0-.3.2-.2.4-.3.2,0,.4,0,.3.3,0,.6,0,1.2,0,1.8Z"/>
      <path class="cls-18" d="M110,73.9c.1,0,.3.2.4.3.4.3.5.3.7-.1.2-.3.4-.3.6,0,0,0,.1,0,.2.2.1.2.5.2.4.4,0,.3-.3.5-.5.8,0,0-.2,0-.2,0-.1,0-.2-.1-.3-.2-.4-.3-.4-.3-.7,0-.1.2-.3.2-.5.1-.3-.1-.6-.3-.6-.5,0-.3.3-.5.5-.8,0,0,0,0,0,0Z"/>
      <path class="cls-7" d="M130.8,73.9c-.1.3-.3.6-.6.8,0,0-.2,0-.2,0-.1,0-.3-.1-.4-.2-.2-.2-.4-.2-.5.1-.2.4-.6.4-1,0-.3-.2-.3-.4,0-.7,0,0,0,0,0,0,.2-.3.4-.4.7-.1.3.3.5.2.7-.2.1-.3.3-.4.5-.1.1.2.3.2.5.3,0,0,.2,0,.1.2Z"/>
      <path class="cls-13" d="M101.5,74.3c-.4,0-.7-.3-1-.6,0,0,0-.1,0-.2.1-.2.3-.4.4-.6,0-.1.2,0,.3,0,.3.1.6.3.9.4,0,0,.1,0,.1.1,0,.3-.4.9-.7.9Z"/>
      <path class="cls-3" d="M59.1,73.3c.5,0,.5-.2.5-.6,0-.3,0-.6,0-.9,0,0,0-.2.2-.1,0,0,0,.1,0,.2,0,.1,0,.3,0,.5.2,0,.4-.3.6,0,.2.2.1.5,0,.7,0,.2-.2.3-.3.5-.2.4-.8.3-1.2,0Z"/>
      <path class="cls-15" d="M45.9,73.9c.2,0,.4-.3.6,0,.2.2.1.4,0,.7,0,.2-.2.4-.4.6-.2.2-.8.1-1,0,0,0-.1-.2,0-.2.3,0,.3-.2.3-.5,0-.3,0-.5,0-.8,0-.1,0-.3.2-.3.2,0,0,.2.1.3,0,.1,0,.2,0,.3Z"/>
      <path class="cls-13" d="M92,74.9c-.3,0-.6-.2-.8-.4,0,0,0-.1,0-.2.1-.3.3-.6.5-.8,0,0,.1,0,.2,0,.2.2.5.3.8.4,0,0,0,0,.1,0,0,.2-.5.9-.7.9Z"/>
      <path class="cls-13" d="M129.7,72.7c0,.3-.2.5-.5.7,0,0-.2,0-.3,0-.3-.1-.7-.2-.8-.6,0-.3.3-.6.5-.8,0,0,.1,0,.2,0,.2.1.5.3.7.4,0,0,.1,0,0,.2Z"/>
      <path class="cls-17" d="M118.9,64.4c0,.3,0,.4-.3.4-.3,0-.4-.1-.4-.4,0-.2,0-.4.4-.4.3,0,.4.1.3.4Z"/>
      <path class="cls-11" d="M121.8,74.5c0,0,0,.1,0,.1,0,0,0,.2-.2.2,0-.1,0-.2.1-.3Z"/>
      <path class="cls-22" d="M14.3,61.4c0,0,0,.1,0,.2,0,0-.1-.2,0-.3,0,0,.1,0,.1,0Z"/>
      <path class="cls-4" d="M15.9,72.2s0,0,0,0c0,0,0-.2,0-.2,0,0,0,.2,0,.2Z"/>
      <path class="cls-10" d="M74.9,76.5c-.3,0-.5,0-.7,0,0,0-.2,0-.2-.2,0-.1.2-.1.3-.1.2,0,.4,0,.6.3Z"/>
      <path class="cls-9" d="M85.1,76.2c-.3,0-.5-.2-.7-.3.3,0,.5,0,.7.3Z"/>
      <path class="cls-14" d="M122.5,76.8c-.3,0-.5,0-.8,0,0,0-.2,0-.2-.2,0-.1.1-.1.2-.1.3,0,.5.1.7.4Z"/>
      <path class="cls-20" d="M89.7,75.5c-.2,0-.3,0-.5,0,0,0-.3,0-.2,0,0-.1,0-.3.3-.3.2,0,.4.1.5.4Z"/>
      <path class="cls-24" d="M55.8,68c0,1.1-1,1.4-1.6,1.2-.3,0-.5-.3-.5-.6,0-.3.1-.5.4-.6.5-.1,1-.2,1.6-.3.3,0,0,.2.1.3Z"/>
      <path class="cls-24" d="M74.3,68c0,.9-.7,1.4-1.6,1.2-.3,0-.5-.2-.5-.6,0-.3.2-.5.4-.6.5-.1,1-.2,1.5-.3.3,0,0,.2.1.3Z"/>
      <path class="cls-24" d="M122.6,68c0,.9-.8,1.4-1.6,1.2-.3,0-.5-.3-.5-.6,0-.3.1-.5.4-.6.5-.1,1-.2,1.6-.3.3,0,0,.2.1.3Z"/>
      <path class="cls-24" d="M41.8,69.2c-.1,0-.3,0-.4,0-.2-.1-.4-.3-.4-.5,0-.3.1-.5.4-.5.5-.1,1.1-.2,1.6-.4.2,0,.1.1.1.2,0,.8-.5,1.3-1.3,1.3Z"/>
      <path class="cls-1" d="M101.9,67.3c-.3,0-.6,0-.9,0-.2,0-.2,0-.2-.2,0-.5.6-.9,1.2-.9.5,0,1,.4,1.1,1,0,.2,0,.2-.2.2-.3,0-.6,0-1,0Z"/>
      <path class="cls-23" d="M111.7,67.7c0-.3,0-.6.1-.8.2-.5.5-.7,1-.7.5,0,.9.2,1,.7.3.6.3,1.2,0,1.8-.2.4-.6.6-1,.6-.5,0-.8-.2-1-.7-.1-.3-.2-.6-.2-.9Z"/>
      <path class="cls-19" d="M60,73c0-.1,0-.2.2-.3,0,0,0,0,0,0,0,.1-.1.2-.2.2Z"/>
      <path class="cls-12" d="M45.9,74.6c0-.2,0-.3.2-.3,0,0,0,0,0,0,0,.1-.1.2-.3.2Z"/>
    </g>
  </g>
</svg>