<?xml version="1.0" encoding="utf-8"?>
<!-- Generator: Adobe Illustrator 25.0.1, SVG Export Plug-In . SVG Version: 6.00 Build 0)  -->
<svg version="1.1" id="b3712bca-dc6c-4e8d-81d3-91001ed1b789"
	 xmlns="http://www.w3.org/2000/svg" xmlns:xlink="http://www.w3.org/1999/xlink" x="0px" y="0px" width="150px" height="150px"
	 viewBox="0 0 150 150" style="enable-background:new 0 0 150 150;" xml:space="preserve">
<style type="text/css">
	.st0{fill:#ED0080;}
	.st1{fill:#8DC63F;}
</style>
<g>
	<path class="st0" d="M125.831,53.067h-1.616l-9.844,15.549h8.417v3.312h3.036v-3.312h2.082v-3.183h-2.075V53.067z M122.796,65.433
		l-3.11,0.025l3.11-5.294V65.433z"/>
	<path class="st0" d="M138.858,60.903v3.183h3.819v3.6c-0.555,0.416-1.176,0.734-1.837,0.942c-0.65,0.204-1.327,0.307-2.008,0.306
		c-0.866,0.006-1.725-0.164-2.522-0.502c-1.551-0.655-2.785-1.889-3.44-3.44c-0.67-1.598-0.67-3.398,0-4.996
		c0.655-1.551,1.889-2.785,3.44-3.44c1.577-0.657,3.348-0.67,4.934-0.036c0.768,0.305,1.47,0.753,2.07,1.322l2.277-2.278
		c-0.905-0.865-1.962-1.554-3.118-2.032c-2.379-0.963-5.042-0.945-7.408,0.05c-1.149,0.49-2.196,1.192-3.085,2.07
		c-0.886,0.881-1.592,1.925-2.081,3.074c-0.51,1.191-0.768,2.475-0.759,3.771c-0.009,1.295,0.249,2.579,0.759,3.77
		c0.488,1.149,1.195,2.193,2.081,3.073c0.889,0.878,1.935,1.581,3.085,2.07c2.366,0.994,5.029,1.012,7.408,0.05
		c1.157-0.479,2.215-1.168,3.121-2.032l0.05-0.148v-8.376H138.858z"/>
	<polygon class="st1" points="5.22,57.548 19.275,57.548 4.353,77.823 4.353,80.3 27.203,80.3 27.203,75.952 11.848,75.952 
		26.404,55.59 26.423,55.585 26.423,55.561 26.429,55.555 26.423,55.556 26.423,53.054 5.22,53.054 	"/>
	<path class="st1" d="M64.29,58.078h7.865c2.884-0.032,5.278,1.234,5.057,5.151V80.3h5.105V62.57
		c0.039-6.939-4.584-9.51-9.586-9.521H58.933V80.3h5.358L64.29,58.078z"/>
	<path class="st1" d="M84.412,66.741c0,7.803,7.05,14.167,15.693,14.167c3.106,0.012,6.155-0.836,8.807-2.452l0.04-0.023V67.304
		h-5.148v8.417c-1.064,0.314-2.168,0.473-3.277,0.473c-5.868,0-10.655-4.32-10.655-9.617s4.788-9.619,10.655-9.619
		c2.276-0.012,4.504,0.661,6.393,1.932l2.032-3.832c-2.661-1.635-5.725-2.495-8.847-2.484
		C91.461,52.574,84.412,58.938,84.412,66.741"/>
	<path class="st1" d="M56.524,66.768c0-7.839-6.355-14.194-14.194-14.194s-14.194,6.355-14.194,14.194
		c0,7.425,5.752,13.546,13.027,14.143v-5.005c-5.051-0.645-8.623-5.263-7.978-10.314s5.263-8.623,10.314-7.978
		c5.051,0.645,8.623,5.263,7.978,10.314c-0.532,4.166-3.812,7.446-7.978,7.978v5.005C50.772,80.314,56.524,74.193,56.524,66.768"/>
	<path class="st0" d="M64.246,97.315h-5.303v-8.508h1.431v7.072h3.863L64.246,97.315z"/>
	<path class="st0" d="M69.925,97.315h-5.303v-8.508h5.303v1.436h-3.863v2.1h3.419v1.435h-3.423v2.1h3.863L69.925,97.315z"/>
	<path class="st0" d="M76.112,90.243h-2.177v7.072H72.5v-7.072h-2.191v-1.436h5.795L76.112,90.243z"/>
	<path class="st0" d="M78.299,88.807l-0.442,3.281h-1.249v-3.281H78.299z"/>
	<path class="st0" d="M83.425,94.961c0.006,0.362-0.073,0.72-0.232,1.045c-0.149,0.298-0.36,0.561-0.618,0.773
		c-0.266,0.214-0.57,0.378-0.896,0.482c-0.343,0.111-0.701,0.167-1.061,0.166c-0.574,0.014-1.136-0.169-1.591-0.52
		c-0.448-0.354-0.778-0.835-0.949-1.38l1.216-0.542c0.081,0.254,0.223,0.483,0.414,0.669c0.157,0.149,0.346,0.26,0.552,0.326
		c0.197,0.059,0.404,0.072,0.607,0.039c0.197-0.03,0.386-0.095,0.559-0.193c0.161-0.092,0.298-0.219,0.403-0.371
		c0.101-0.144,0.155-0.315,0.155-0.491c0.004-0.219-0.089-0.429-0.254-0.574c-0.195-0.172-0.41-0.321-0.64-0.443
		c-0.258-0.139-0.534-0.281-0.828-0.425c-0.295-0.143-0.573-0.319-0.828-0.524c-0.259-0.207-0.476-0.46-0.642-0.746
		c-0.18-0.333-0.268-0.709-0.254-1.087c-0.002-0.322,0.06-0.641,0.182-0.94c0.119-0.29,0.291-0.556,0.508-0.784
		c0.217-0.228,0.476-0.413,0.763-0.542c0.293-0.133,0.612-0.201,0.934-0.199c0.492-0.01,0.976,0.128,1.388,0.397
		c0.409,0.279,0.728,0.67,0.918,1.127l-1.242,0.575c-0.11-0.263-0.312-0.478-0.568-0.603c-0.219-0.104-0.465-0.133-0.702-0.083
		c-0.236,0.051-0.451,0.174-0.613,0.353c-0.17,0.189-0.261,0.436-0.254,0.69c-0.001,0.218,0.096,0.425,0.265,0.563
		c0.202,0.171,0.425,0.316,0.664,0.431c0.265,0.138,0.552,0.276,0.855,0.414c0.303,0.147,0.59,0.324,0.857,0.53
		c0.266,0.208,0.491,0.465,0.662,0.756C83.345,94.187,83.439,94.572,83.425,94.961z"/>
	<path class="st0" d="M94.021,96.121l-0.022,0.066c-0.409,0.39-0.887,0.701-1.409,0.918c-0.521,0.213-1.078,0.322-1.641,0.32
		c-0.585,0.004-1.164-0.113-1.701-0.344c-0.519-0.22-0.991-0.537-1.392-0.933c-0.399-0.398-0.718-0.868-0.94-1.387
		c-0.456-1.088-0.456-2.314,0-3.403c0.222-0.516,0.541-0.984,0.94-1.38c0.401-0.396,0.873-0.713,1.392-0.933
		c0.537-0.231,1.117-0.348,1.701-0.344c0.563-0.002,1.12,0.107,1.641,0.32c0.522,0.216,1,0.527,1.409,0.918l-1.028,1.028
		c-0.271-0.257-0.588-0.459-0.934-0.597c-0.346-0.139-0.715-0.21-1.087-0.21c-0.391-0.003-0.778,0.074-1.138,0.226
		c-0.699,0.296-1.256,0.853-1.552,1.552c-0.302,0.721-0.302,1.533,0,2.255c0.146,0.347,0.358,0.662,0.625,0.927
		c0.266,0.266,0.581,0.478,0.927,0.625c0.36,0.152,0.747,0.229,1.138,0.226c0.307,0,0.612-0.047,0.905-0.138
		c0.298-0.094,0.578-0.239,0.828-0.426v-1.631H90.96v-1.435h3.06V96.121z"/>
	<path class="st0" d="M99.82,97.315h-5.303v-8.508h5.303v1.436h-3.863v2.1h3.425v1.435h-3.427v2.1h3.863L99.82,97.315z"/>
	<path class="st0" d="M106.007,90.243h-2.169v7.072h-1.443v-7.072h-2.188v-1.436h5.795L106.007,90.243z"/>
	<path class="st0" d="M116.105,93.061c0.004,0.569-0.109,1.132-0.331,1.656c-0.432,1.02-1.244,1.833-2.264,2.264
		c-0.523,0.223-1.087,0.337-1.656,0.333h-2.477v-8.507h2.475c0.569-0.004,1.133,0.109,1.656,0.333
		c1.02,0.432,1.833,1.244,2.264,2.264C115.995,91.928,116.108,92.492,116.105,93.061z M114.668,93.061
		c0.003-0.379-0.072-0.755-0.221-1.104c-0.287-0.674-0.826-1.21-1.503-1.493c-0.349-0.148-0.725-0.224-1.104-0.221h-1.039v5.635
		h1.039c0.379,0.003,0.755-0.072,1.104-0.221c0.675-0.285,1.212-0.822,1.497-1.497C114.592,93.813,114.67,93.439,114.668,93.061
		L114.668,93.061z"/>
	<path class="st0" d="M118.093,97.315h-1.436v-8.508h1.436V97.315z"/>
	<path class="st0" d="M126.092,96.121l-0.022,0.066c-0.409,0.391-0.886,0.702-1.409,0.918c-0.521,0.214-1.08,0.322-1.643,0.32
		c-0.585,0.004-1.164-0.113-1.701-0.344c-0.519-0.22-0.991-0.537-1.392-0.933c-0.399-0.397-0.718-0.868-0.938-1.387
		c-0.456-1.088-0.456-2.314,0-3.403c0.221-0.516,0.54-0.985,0.938-1.38c0.401-0.396,0.873-0.712,1.392-0.933
		c0.537-0.233,1.116-0.352,1.701-0.35c0.563-0.002,1.12,0.107,1.641,0.32c0.522,0.216,1,0.527,1.409,0.918l-1.028,1.028
		c-0.546-0.518-1.269-0.807-2.021-0.807c-0.391-0.002-0.778,0.075-1.138,0.226c-0.699,0.296-1.256,0.853-1.551,1.552
		c-0.304,0.721-0.304,1.534,0,2.255c0.453,1.083,1.515,1.785,2.689,1.779c0.307,0,0.613-0.047,0.907-0.138
		c0.298-0.095,0.578-0.239,0.828-0.426v-1.624h-1.721v-1.435h3.06L126.092,96.121z"/>
	<path class="st0" d="M128.025,97.315h-1.436v-8.508h1.436V97.315z"/>
	<path class="st0" d="M134.212,90.243h-2.176v7.072h-1.429v-7.072h-2.195v-1.436h5.795L134.212,90.243z"/>
	<path class="st0" d="M140.127,97.315h-1.573l-0.635-1.436h-3.332l-0.629,1.436h-1.569l3.863-8.839L140.127,97.315z M137.299,94.442
		l-1.039-2.387l-1.038,2.387H137.299z"/>
	<path class="st0" d="M145.647,97.315h-5.303v-8.508h1.439v7.072h3.863V97.315z"/>
</g>
</svg>
