<?xml version="1.0" encoding="UTF-8"?>
<svg xmlns="http://www.w3.org/2000/svg" width="150" height="150" version="1.1" xmlns:xlink="http://www.w3.org/1999/xlink" viewBox="0 0 150 150">
  <defs>
    <style>
      .cls-1 {
        fill: #102a83;
      }

      .cls-1, .cls-2, .cls-3 {
        fill-rule: evenodd;
      }

      .cls-2 {
        fill: #fff;
      }

      .cls-4 {
        fill: none;
      }

      .cls-3 {
        fill: #1b1918;
      }

      .cls-5 {
        fill: #009ee0;
      }

      .cls-6 {
        clip-path: url(#clippath);
      }
    </style>
    <clipPath id="clippath">
      <rect class="cls-4" x="18.342" y="121.691" width="113.317" height="22.249"/>
    </clipPath>
  </defs>
  <!-- Generator: Adobe Illustrator 28.7.1, SVG Export Plug-In . SVG Version: 1.2.0 Build 142)  -->
  <g>
    <g id="Layer_1">
      <g>
        <path class="cls-1" d="M72.901,6.05c29.318,0,53.08,23.053,53.08,51.491s-23.769,51.485-53.08,51.485-53.08-23.046-53.08-51.485S43.583,6.05,72.901,6.05Z"/>
        <path class="cls-2" d="M119.246,67.548c1.302-3.19,1.977-6.741,1.977-10.688.15-4.008-.389-7.594-1.534-10.811H25.622c-1.152,3.217-1.684,6.81-1.534,10.811,0,3.947.675,7.498,1.977,10.688,31.274.198,61.893.198,93.181,0Z"/>
        <rect class="cls-5" x="30.202" y="47.91" width="85.396" height="17.239"/>
        <path class="cls-2" d="M39.507,51.1c.716,0,1.411.164,2.079.498.314.157.532.239.654.239.089,0,.232-.02.423-.068l.218-.02c.259,0,.477.123.668.375.47.6.709,1.35.709,2.243,0,.627-.204,1.091-.613,1.384-.218.157-.47.232-.743.232-.252,0-.45-.055-.607-.17-.157-.116-.307-.32-.457-.607-.211-.409-.382-.702-.518-.879-.13-.177-.293-.341-.484-.491-.477-.348-.975-.525-1.5-.525-.504,0-.907.198-1.2.579-.293.389-.443.907-.443,1.554,0,.893.211,1.711.641,2.447.579.995,1.411,1.486,2.488,1.486.395,0,.791-.068,1.179-.211.395-.136.695-.32.913-.545.184-.184.334-.279.457-.279.17,0,.32.082.443.252.123.164.184.368.184.607,0,.3-.082.641-.259,1.016-.17.368-.375.668-.62.879-.102.089-.314.164-.641.232-.184.034-.436.13-.743.293-.723.361-1.479.552-2.27.552-.825,0-1.636-.198-2.454-.586-.947-.45-1.697-1.145-2.249-2.079-.539-.907-.811-1.854-.811-2.849,0-1.152.334-2.202,1.016-3.156.586-.825,1.363-1.459,2.311-1.895.715-.344,1.458-.508,2.229-.508ZM50.468,51.1c1.261,0,2.365.382,3.313,1.145.641.525,1.159,1.2,1.554,2.038.389.832.579,1.663.579,2.495,0,1.227-.382,2.318-1.152,3.286-.648.825-1.5,1.404-2.543,1.765-.641.218-1.288.327-1.936.327-.852,0-1.663-.191-2.44-.566-.934-.45-1.67-1.138-2.202-2.045-.518-.886-.77-1.861-.77-2.917,0-1.234.327-2.331.995-3.272.586-.845,1.384-1.459,2.379-1.854.662-.266,1.405-.402,2.223-.402ZM49.766,53.336c-.409,0-.736.198-.982.579-.184.293-.279.634-.279,1.036,0,.579.116,1.261.341,2.038.225.77.511,1.459.859,2.052.15.259.341.457.566.607.225.15.45.225.682.225.368,0,.675-.15.9-.443.225-.293.341-.688.341-1.166,0-.627-.095-1.302-.293-2.031-.191-.729-.436-1.35-.743-1.861-.191-.314-.402-.566-.648-.743-.247-.184-.499-.286-.744-.293ZM63.855,58.721l-.886,2.093c-.157.354-.279.586-.368.716-.095.123-.198.184-.314.184-.102,0-.204-.048-.286-.15-.055-.061-.177-.293-.368-.682-.198-.395-.354-.75-.484-1.05l-.968-2.318c-.136-.314-.273-.477-.423-.477-.157,0-.245.136-.259.416-.034.607-.048,1.172-.048,1.697,0,.538.02.907.075,1.097.034.109.082.198.136.252.055.055.211.143.464.286.164.089.245.239.245.457,0,.579-.702.873-2.113.873-1.186,0-1.779-.286-1.779-.852,0-.143.027-.252.095-.314.061-.061.218-.157.477-.286.157-.082.273-.191.327-.32.055-.136.102-.395.143-.791.048-.416.089-1.097.13-2.038.041-.947.055-1.759.055-2.433,0-.845-.061-1.418-.184-1.718-.041-.109-.089-.184-.15-.239-.055-.055-.164-.116-.314-.204-.348-.177-.525-.402-.525-.682,0-.184.068-.348.198-.504.13-.15.3-.252.518-.314.218-.068.511-.123.866-.177.361-.041.668-.075.92-.075.627,0,1.077.055,1.336.17.13.048.232.123.3.211.075.089.184.273.314.545l1.534,2.979c.164.327.286.525.341.6.068.068.157.109.266.109.102,0,.184-.034.266-.116.075-.075.164-.225.273-.436l1.036-2.14c.13-.273.211-.457.252-.538.245-.518.484-.866.716-1.036.3-.225.845-.334,1.636-.334,1.391,0,2.086.334,2.086,1.002,0,.15-.027.273-.082.361-.055.089-.17.198-.334.327-.225.184-.368.443-.429.791-.109.716-.17,1.588-.17,2.618,0,1.322.055,2.481.177,3.483.027.245.075.409.136.498.061.089.218.218.477.395.177.123.266.293.266.498,0,.361-.232.613-.688.77-.239.089-.484.143-.743.164-.259.027-.661.041-1.2.041-.832,0-1.452-.061-1.861-.191-.45-.143-.675-.375-.675-.716,0-.123.027-.232.089-.307.061-.082.211-.232.457-.443.13-.109.218-.32.266-.627.041-.314.068-.845.068-1.595,0-.409-.02-.688-.055-.811-.034-.13-.116-.198-.232-.198-.136,0-.273.102-.395.3-.165.184-.356.579-.608,1.179ZM74.346,51.1c.504,0,1.166.13,1.99.395.095.034.177.048.232.048.048,0,.198-.048.443-.143l.252-.048c.327,0,.675.279,1.043.825.368.552.552,1.077.552,1.575,0,.293-.082.539-.245.736-.164.204-.361.3-.6.3-.198,0-.354-.048-.477-.123-.123-.089-.395-.327-.811-.75-.586-.579-1.166-.866-1.738-.866-.279,0-.498.068-.661.211-.164.143-.245.32-.245.552,0,.457.375.798,1.132,1.022,1.016.314,1.67.552,1.95.695,1.254.641,1.881,1.595,1.881,2.842,0,1.111-.429,2.011-1.281,2.713-.873.709-2.018,1.077-3.429,1.077-.627,0-1.288-.082-1.99-.239-.695-.164-1.2-.348-1.513-.566-.239-.164-.45-.525-.634-1.084-.191-.559-.286-1.104-.286-1.629,0-.259.048-.45.15-.579.123-.164.279-.252.464-.252.191,0,.368.095.538.307.102.109.348.477.729,1.097.184.293.47.532.866.723.395.191.804.293,1.227.293.361,0,.654-.068.886-.218.225-.143.334-.327.334-.552,0-.204-.089-.382-.266-.539-.177-.15-.464-.293-.866-.423-.702-.232-1.234-.443-1.602-.641-.368-.191-.716-.436-1.036-.736-.777-.729-1.166-1.554-1.166-2.474,0-.457.102-.9.3-1.336.204-.429.484-.804.859-1.125.823-.72,1.832-1.088,3.018-1.088ZM88.899,56.567l1.397,3.149c.13.293.245.484.327.573.089.095.225.157.409.184.354.061.532.245.532.566,0,.382-.218.648-.648.825-.429.164-1.138.252-2.12.252-1.111,0-1.929-.048-2.468-.15-.252-.048-.443-.143-.586-.286-.15-.143-.218-.32-.218-.518,0-.164.041-.279.116-.361.075-.089.218-.164.423-.239.232-.082.348-.225.348-.423,0-.341-.204-.552-.593-.607-.429-.061-1.029-.095-1.806-.095-.654,0-1.043.041-1.172.123-.075.048-.143.143-.204.279-.055.136-.089.266-.089.389,0,.109.02.184.061.218s.177.089.409.164c.3.095.45.279.45.566,0,.613-.695.927-2.099.927-.798,0-1.377-.055-1.752-.17-.341-.109-.518-.354-.518-.716,0-.164.034-.286.116-.375.075-.089.211-.17.409-.245.314-.116.559-.286.723-.504s.395-.675.702-1.384l1.036-2.406c.382-.879.641-1.541.77-1.984.13-.443.198-.873.204-1.288.007-.45.027-.757.075-.927s.15-.341.314-.511c.341-.361.77-.545,1.295-.545.498,0,.968.204,1.425.613.625.57,1.539,2.2,2.732,4.906ZM83.766,57.548h1.452c.266,0,.395-.061.395-.191,0-.17-.184-.586-.552-1.261-.17-.307-.293-.511-.382-.613-.089-.102-.184-.157-.286-.157-.177,0-.32.17-.436.525-.02.041-.095.225-.218.552-.204.532-.307.852-.307.947,0,.13.109.198.334.198ZM94.359,51.318h3.885c.416-.014.804-.075,1.145-.177.15-.041.279-.061.389-.061.402,0,.791.307,1.166.934.375.62.566,1.261.566,1.922,0,.45-.13.784-.389.988-.198.157-.436.239-.709.239-.266,0-.491-.075-.682-.232-.191-.15-.382-.402-.573-.757-.157-.32-.286-.539-.382-.627-.095-.095-.204-.15-.341-.15-.184,0-.314.082-.389.245s-.116.423-.116.791v4.363c0,.45.048.77.136.975.089.198.252.361.498.47.266.116.443.232.545.334.095.109.143.252.143.436,0,.382-.245.654-.716.838-.484.184-1.213.273-2.209.273-1.213,0-2.12-.109-2.713-.32-.498-.177-.743-.464-.743-.859,0-.211.089-.375.266-.498.041-.027.218-.089.525-.191.191-.048.314-.164.389-.32.068-.157.13-.47.177-.927.034-.402.075-1.057.109-1.963.034-.907.048-1.69.048-2.352,0-.47-.034-.804-.102-.995-.068-.198-.184-.293-.341-.293-.191,0-.375.143-.559.429-.327.538-.6.879-.818,1.057-.252.204-.491.3-.729.3-.266,0-.484-.102-.654-.314-.177-.211-.259-.477-.259-.804,0-.32.068-.675.204-1.07.136-.382.32-.736.552-1.063.375-.532.743-.798,1.104-.798.095,0,.211.014.341.041.266.055.484.095.648.116.172.006.37.02.588.02ZM106.26,51.1c.504,0,1.166.13,1.99.395.095.034.177.048.239.048.048,0,.198-.048.443-.143l.252-.048c.327,0,.675.279,1.043.825.368.552.552,1.077.552,1.575,0,.293-.082.539-.245.736-.17.204-.368.3-.6.3-.198,0-.354-.048-.484-.123-.123-.089-.389-.327-.811-.75-.586-.579-1.166-.866-1.738-.866-.279,0-.498.068-.661.211-.164.143-.245.32-.245.552,0,.457.375.798,1.132,1.022,1.016.314,1.67.552,1.95.695,1.254.641,1.881,1.595,1.881,2.842,0,1.111-.429,2.011-1.282,2.713-.873.709-2.018,1.077-3.429,1.077-.627,0-1.295-.082-1.99-.239-.695-.164-1.2-.348-1.513-.566-.232-.164-.443-.525-.634-1.084s-.286-1.104-.286-1.629c0-.259.048-.45.15-.579.123-.164.279-.252.464-.252s.368.095.538.307c.102.109.348.477.729,1.097.184.293.47.532.866.723.395.191.804.293,1.227.293.368,0,.661-.068.886-.218.225-.143.341-.327.341-.552,0-.204-.089-.382-.266-.539-.177-.15-.464-.293-.866-.423-.702-.232-1.241-.443-1.609-.641-.368-.191-.716-.436-1.036-.736-.777-.729-1.166-1.554-1.166-2.474,0-.457.102-.9.3-1.336.204-.429.484-.804.859-1.125.824-.72,1.826-1.088,3.019-1.088Z"/>
        <path class="cls-2" d="M91.816,87.82c13.599-3.626,23.019-9.707,27.109-18.868h-11.67c-2.017,9.325-7.034,14.178-15.439,18.868ZM118.891,44.781c-4.281-9.379-14.144-15.303-27.498-18.868,8.016,4.478,13.476,10,15.753,18.868h11.745ZM53.46,87.82c-13.599-3.626-23.019-9.707-27.102-18.868h11.67c2.017,9.325,7.027,14.178,15.432,18.868ZM26.385,44.781c4.281-9.379,14.151-15.303,27.504-18.868-8.016,4.478-13.476,10-15.753,18.868h-11.751ZM90.473,26.738c6.619,4.11,11.806,10.463,14.594,18.043h-2.624c-2.29-7.389-6.53-13.694-11.97-18.043ZM105.538,68.959c-2.652,8.159-8.057,15.023-15.058,19.379,5.767-4.608,10.177-11.411,12.365-19.379h2.693ZM55.321,88.338c-7-4.356-12.406-11.213-15.058-19.379h2.692c2.196,7.968,6.606,14.771,12.366,19.379ZM40.734,44.781c2.788-7.573,7.982-13.933,14.594-18.043-5.44,4.349-9.673,10.647-11.977,18.043h-2.617ZM72.158,25.974h1.479v18.807h-1.479v-18.807ZM73.644,88.434h-1.479v-19.475h1.479v19.475ZM83.936,27.999c3.354,4.063,5.985,9.911,7.464,16.782h-1.84c-1.125-6.646-3.095-12.44-5.624-16.782ZM91.666,68.959c-1.411,7.45-4.158,13.797-7.73,18.118,2.706-4.628,4.765-10.913,5.835-18.118h1.895ZM61.872,87.077c-3.572-4.322-6.319-10.675-7.73-18.118h1.895c1.07,7.205,3.128,13.49,5.835,18.118ZM54.408,44.781c1.479-6.871,4.104-12.72,7.457-16.775-2.536,4.335-4.499,10.129-5.617,16.775h-1.84Z"/>
        <g class="cls-6">
          <path class="cls-3" d="M28.123,128.146l1.268.157c-.082.872-.375,1.588-.879,2.147s-1.166.845-1.99.845c-.688,0-1.254-.198-1.684-.593-.436-.395-.763-.941-.995-1.622-.232-.682-.348-1.438-.348-2.256,0-1.322.273-2.399.825-3.231s1.302-1.241,2.263-1.241c.75,0,1.377.266,1.875.791.498.532.818,1.288.947,2.284l-1.268.157c-.232-1.316-.75-1.97-1.547-1.97-.511,0-.907.273-1.186.818-.286.545-.423,1.336-.423,2.372,0,1.057.15,1.84.457,2.379.3.538.702.811,1.2.811.402,0,.743-.177,1.022-.538.266-.376.422-.812.463-1.31ZM33.263,131.295c-1.002,0-1.786-.436-2.352-1.295-.566-.872-.838-1.936-.838-3.204,0-1.261.293-2.324.893-3.17.593-.852,1.384-1.275,2.358-1.275.988,0,1.765.423,2.338,1.275.573.852.859,1.909.859,3.19,0,1.336-.3,2.42-.893,3.245s-1.384,1.234-2.365,1.234ZM33.277,130.034c.491,0,.907-.232,1.247-.695.341-.464.511-1.309.511-2.543,0-.995-.143-1.772-.423-2.338-.279-.573-.716-.852-1.309-.852-1.172,0-1.752,1.084-1.752,3.238,0,1.05.15,1.84.45,2.379.294.539.723.811,1.276.811ZM45.226,131.159h-1.391v-7.6l-2.099,7.6h-.716l-2.113-7.6v7.6h-1.118v-8.684h2.14l1.588,5.589,1.561-5.589h2.147v8.684h0ZM46.105,129.066l1.329-.32c.164.859.77,1.288,1.834,1.288.484,0,.859-.109,1.118-.327s.389-.491.389-.825c0-.239-.061-.457-.177-.654-.116-.204-.375-.361-.763-.477l-1.452-.436c-.498-.143-.866-.314-1.097-.504-.239-.191-.429-.457-.573-.798-.143-.341-.211-.709-.211-1.104,0-.777.252-1.397.757-1.868.504-.47,1.152-.702,1.936-.702.648,0,1.234.164,1.745.491s.845.791.982,1.391l-1.302.368c-.198-.661-.661-.988-1.397-.988-.429,0-.75.102-.975.3-.225.204-.334.464-.334.777,0,.491.348.845,1.057,1.043l1.288.368c.777.225,1.302.552,1.568.995.266.436.402.92.402,1.452,0,.852-.279,1.527-.845,2.018-.566.491-1.288.736-2.181.736-.75,0-1.411-.184-1.977-.545-.555-.356-.937-.915-1.121-1.679ZM59.302,131.159h-1.459l-.607-2.065h-2.911l-.593,2.065h-1.166l2.515-8.684h1.684l2.537,8.684ZM56.875,127.84l-1.104-3.872-1.111,3.872h2.215ZM62.246,131.159h-1.466v-7.341h-2.018v-1.343h5.501v1.343h-2.018v7.341h0ZM64.394,129.066l1.329-.32c.157.859.77,1.288,1.834,1.288.484,0,.859-.109,1.118-.327.266-.218.389-.491.389-.825,0-.239-.055-.457-.177-.654-.123-.204-.375-.361-.763-.477l-1.452-.436c-.498-.143-.866-.314-1.104-.504s-.429-.457-.573-.798c-.143-.341-.218-.709-.218-1.104,0-.777.252-1.397.757-1.868s1.145-.702,1.929-.702c.654,0,1.234.164,1.745.491.511.327.838.791.982,1.391l-1.302.368c-.198-.661-.661-.988-1.397-.988-.429,0-.75.102-.975.3-.225.204-.334.464-.334.777,0,.491.348.845,1.057,1.043l1.288.368c.784.225,1.309.552,1.575.995.266.436.402.92.402,1.452,0,.852-.286,1.527-.845,2.018-.566.491-1.288.736-2.181.736-.75,0-1.411-.184-1.977-.545-.548-.356-.923-.915-1.107-1.679ZM75.893,131.159h-1.363v-8.684h1.363v8.684ZM82.13,131.159h-1.268v-4.015c0-.423-.082-.743-.259-.961-.17-.211-.375-.32-.613-.32-.327,0-.62.17-.866.498-.252.327-.375.832-.375,1.493v3.299h-1.268v-6.421h1.159v1.486c.402-1.084.968-1.622,1.697-1.622.491,0,.913.184,1.261.538.348.354.525.982.525,1.875v4.151h.007ZM82.962,129.687l1.186-.259c.184.525.579.784,1.2.784.784,0,1.179-.266,1.179-.798,0-.17-.061-.307-.184-.416s-.266-.191-.429-.225l-1.022-.225c-1.138-.252-1.704-.886-1.704-1.902,0-.573.177-1.05.538-1.452.361-.395.893-.593,1.609-.593,1.186,0,1.909.498,2.174,1.493l-1.132.259c-.116-.484-.457-.723-1.009-.723-.675,0-1.009.245-1.009.723,0,.334.273.573.818.695l1.207.286c.934.225,1.404.845,1.404,1.847,0,.709-.239,1.241-.723,1.588-.484.348-1.057.525-1.718.525-.579,0-1.084-.136-1.52-.402-.443-.258-.729-.667-.865-1.205ZM91.414,130.028v1.132c-.375.095-.668.143-.873.143-.341,0-.634-.082-.879-.232-.245-.157-.423-.368-.538-.634-.116-.266-.17-.682-.17-1.241v-3.326h-.702v-1.132h.77l.116-1.677,1.036-.109v1.779h1.132v1.132h-1.132v3.136c0,.402.061.682.191.825.13.15.368.225.723.225.108-.008.217-.015.326-.021ZM93.738,123.981h-1.268v-1.506h1.268v1.506ZM93.738,131.159h-1.268v-6.421h1.268v6.421ZM97.862,130.028v1.132c-.375.095-.668.143-.873.143-.341,0-.634-.082-.873-.232-.245-.157-.423-.368-.538-.634-.109-.266-.17-.682-.17-1.241v-3.326h-.702v-1.132h.777l.116-1.677,1.036-.109v1.779h1.132v1.132h-1.132v3.136c0,.402.068.682.191.825.13.15.368.225.723.225.095-.008.204-.015.313-.021ZM103.547,131.159h-1.172v-1.384c-.32,1.009-.907,1.52-1.772,1.52-.511,0-.913-.184-1.213-.545-.3-.361-.45-.872-.45-1.52v-4.499h1.295v4.185c0,.457.089.763.273.907.177.143.348.218.525.218.273,0,.552-.143.838-.423.286-.279.429-.886.429-1.8v-3.088h1.268v6.428h-.021ZM107.664,130.028v1.132c-.375.095-.668.143-.873.143-.341,0-.634-.082-.873-.232-.245-.157-.423-.368-.538-.634-.116-.266-.17-.682-.17-1.241v-3.326h-.702v-1.132h.777l.116-1.677,1.036-.109v1.779h1.132v1.132h-1.132v3.136c0,.402.061.682.191.825.13.15.368.225.723.225.095-.008.204-.015.313-.021ZM112.136,129.114l1.145.177c-.15.579-.443,1.057-.873,1.438-.429.382-.968.566-1.615.566-.777,0-1.404-.3-1.875-.893-.47-.6-.709-1.411-.709-2.433,0-.968.239-1.772.716-2.406s1.125-.954,1.943-.954c.798,0,1.418.314,1.854.941s.654,1.431.654,2.413v.17h-3.851c0,.436.034.784.109,1.043.068.266.218.498.429.688.218.198.484.293.804.293.628,0,1.051-.348,1.269-1.043ZM112.061,127.185c-.007-.457-.13-.838-.361-1.132-.239-.293-.538-.443-.886-.443s-.641.143-.873.416-.368.654-.409,1.159h2.529ZM119.573,131.295c-.832,0-1.459-.341-1.902-1.022s-.654-1.466-.654-2.345c0-.947.239-1.745.723-2.372.484-.634,1.125-.947,1.915-.947.75,0,1.37.307,1.854.92.484.613.723,1.418.723,2.399,0,1.016-.252,1.827-.757,2.447-.505.621-1.132.92-1.902.92ZM119.614,130.096c.852,0,1.282-.729,1.282-2.181,0-.654-.102-1.172-.307-1.554-.204-.382-.518-.579-.941-.579-.436,0-.763.204-.968.593-.211.395-.314.913-.314,1.561,0,.702.109,1.227.334,1.602.225.381.532.558.914.558ZM124.815,131.159h-1.22v-5.296h-.832v-1.132h.832v-.314c0-.627.136-1.138.402-1.513.266-.382.804-.573,1.615-.573.123,0,.273.007.45.014v1.138c-.157-.014-.273-.02-.327-.02-.307,0-.532.055-.654.15-.123.095-.198.211-.225.334-.02.13-.034.389-.034.791h1.241v1.132h-1.241v5.29h-.007ZM19.725,141.622h-1.37v-8.684h1.37v8.684ZM25.962,141.622h-1.268v-4.015c0-.429-.089-.75-.259-.961s-.375-.314-.613-.314c-.327,0-.62.17-.866.498-.252.334-.375.832-.375,1.493v3.306h-1.268v-6.428h1.159v1.486c.402-1.084.968-1.629,1.704-1.629.491,0,.913.184,1.261.538.348.354.525.982.525,1.875v4.151ZM28.894,141.622h-1.22v-5.303h-.832v-1.125h.832v-.314c0-.627.136-1.132.402-1.513.266-.382.804-.573,1.616-.573.123,0,.273,0,.45.007v1.138c-.157-.014-.266-.02-.327-.02-.307,0-.532.048-.654.143-.123.095-.198.211-.225.334-.02.13-.034.395-.034.791h1.241v1.125h-1.243v5.31h-.006ZM33.154,141.759c-.832,0-1.466-.341-1.902-1.029-.436-.682-.654-1.466-.654-2.345,0-.947.239-1.745.723-2.372s1.125-.954,1.915-.954c.75,0,1.37.314,1.854.927s.723,1.411.723,2.399c0,1.016-.252,1.827-.75,2.447-.505.613-1.139.927-1.909.927ZM33.202,140.559c.852,0,1.275-.723,1.275-2.181,0-.661-.102-1.179-.307-1.554-.204-.382-.518-.573-.934-.573-.436,0-.763.198-.975.586-.211.395-.314.913-.314,1.561,0,.702.109,1.234.334,1.602.218.375.525.559.921.559ZM38.239,141.622h-1.261v-6.428h1.145v1.534c.164-.593.389-1.036.675-1.309.286-.279.579-.416.873-.416l.17.007v1.554c-.648,0-1.07.239-1.281.709s-.314.927-.314,1.37v2.979h-.007ZM49.118,141.622h-1.329v-4.001c0-.838-.32-1.247-.968-1.247-.375,0-.675.157-.893.47-.225.314-.334.784-.334,1.411v3.374h-1.343v-4.001c0-.845-.3-1.268-.907-1.268-.361,0-.668.17-.92.504-.252.341-.375.804-.375,1.391v3.374h-1.309v-6.428h1.227v1.37c.395-1.002,1.022-1.506,1.868-1.506.832,0,1.363.504,1.616,1.506.45-1.002,1.077-1.506,1.868-1.506.539,0,.975.198,1.309.579.327.389.491.872.491,1.438v4.54ZM55.444,141.622h-1.207c-.109-.389-.17-.825-.198-1.302-.334.954-.968,1.438-1.902,1.438-.559,0-1.009-.191-1.343-.566-.341-.375-.511-.852-.511-1.418,0-1.472,1.132-2.215,3.395-2.215.089,0,.211,0,.361.007v-.484c0-.668-.395-1.002-1.186-1.002-.77,0-1.207.334-1.309,1.002l-1.077-.184c.055-.532.293-.975.716-1.322.423-.341,1.036-.525,1.834-.525.429,0,.784.041,1.063.13.273.082.504.218.695.416.191.198.32.409.389.641.075.232.109.62.109,1.172v2.904c0,.429.062.859.171,1.308ZM54.039,138.351c-1.636,0-2.454.443-2.454,1.343,0,.273.082.498.252.682s.409.286.743.286c.484,0,.852-.177,1.097-.525s.368-.75.368-1.193v-.593h-.006ZM59.39,140.491v1.138c-.375.089-.668.136-.873.136-.341,0-.627-.075-.873-.232-.245-.157-.423-.361-.538-.634-.116-.273-.17-.682-.17-1.247v-3.326h-.702v-1.125h.777l.116-1.677,1.043-.102v1.779h1.125v1.125h-1.125v3.142c0,.402.061.675.191.825s.368.218.723.218c.088-.006.197-.013.306-.02ZM61.722,134.445h-1.268v-1.506h1.268v1.506ZM61.722,141.622h-1.268v-6.428h1.268v6.428ZM65.437,141.759c-.832,0-1.459-.341-1.902-1.029-.436-.682-.654-1.466-.654-2.345,0-.947.245-1.745.723-2.372.484-.627,1.125-.954,1.915-.954.75,0,1.37.314,1.854.927.477.613.723,1.411.723,2.399,0,1.016-.252,1.827-.757,2.447-.498.613-1.132.927-1.902.927ZM65.477,140.559c.852,0,1.275-.723,1.275-2.181,0-.661-.102-1.179-.3-1.554-.204-.382-.518-.573-.941-.573-.436,0-.763.198-.968.586-.211.395-.314.913-.314,1.561,0,.702.109,1.234.334,1.602.219.375.533.559.914.559ZM73.903,141.622h-1.268v-4.015c0-.429-.089-.75-.259-.961s-.375-.314-.613-.314c-.327,0-.62.17-.866.498-.252.334-.375.832-.375,1.493v3.306h-1.268v-6.428h1.159v1.486c.402-1.084.968-1.629,1.704-1.629.491,0,.913.184,1.261.538.348.354.525.982.525,1.875v4.151ZM80.985,141.622h-1.466v-7.341h-2.018v-1.343h5.501v1.343h-2.018v7.341ZM86.704,139.577l1.145.177c-.15.579-.436,1.057-.866,1.438-.429.375-.968.573-1.615.573-.777,0-1.404-.3-1.875-.9-.477-.6-.709-1.411-.709-2.427,0-.975.239-1.772.716-2.413.477-.634,1.132-.961,1.943-.961.804,0,1.418.32,1.854.947s.654,1.431.654,2.413v.164h-3.851c0,.443.034.791.109,1.05.068.266.218.491.429.688.211.198.484.293.804.293.628-.005,1.044-.353,1.262-1.042ZM86.629,137.648c0-.457-.123-.838-.361-1.132-.239-.293-.532-.436-.886-.436-.348,0-.634.13-.873.409-.232.279-.368.654-.409,1.159h2.529ZM92.341,139.264l1.091.13c-.143.804-.416,1.404-.818,1.779-.402.389-.886.586-1.459.586-.77,0-1.37-.32-1.779-.975-.416-.648-.627-1.438-.627-2.372,0-.968.232-1.765.682-2.399.457-.627,1.063-.954,1.82-.954,1.22,0,1.956.743,2.188,2.222l-1.091.17c-.095-.798-.436-1.193-1.029-1.193-.429,0-.743.211-.934.648-.198.423-.293.947-.293,1.561,0,.648.102,1.152.3,1.5.204.348.484.525.845.525.559-.001.927-.41,1.104-1.228ZM99.103,141.622h-1.268v-4.206c0-.457-.082-.777-.252-.954-.17-.184-.368-.279-.593-.279-.361,0-.661.164-.9.491-.245.327-.368.866-.368,1.615v3.333h-1.261v-8.684h1.261v3.381c.314-.92.873-1.384,1.656-1.384,1.152,0,1.731.757,1.731,2.27v4.417h-.006ZM105.272,141.622h-1.268v-4.015c0-.429-.082-.75-.259-.961-.17-.211-.375-.314-.613-.314-.327,0-.62.17-.866.498-.252.334-.375.832-.375,1.493v3.306h-1.268v-6.428h1.159v1.486c.402-1.084.968-1.629,1.704-1.629.491,0,.913.184,1.261.538.348.354.525.982.525,1.875v4.151ZM108.98,141.759c-.832,0-1.459-.341-1.902-1.029-.436-.682-.654-1.466-.654-2.345,0-.947.239-1.745.723-2.372s1.125-.954,1.915-.954c.75,0,1.37.314,1.854.927.484.613.723,1.411.723,2.399,0,1.016-.252,1.827-.757,2.447-.498.613-1.139.927-1.902.927ZM109.021,140.559c.852,0,1.275-.723,1.275-2.181,0-.661-.102-1.179-.3-1.554-.204-.382-.518-.573-.941-.573-.436,0-.763.198-.975.586-.211.395-.314.913-.314,1.561,0,.702.109,1.234.334,1.602.226.375.532.559.921.559ZM114.058,141.622h-1.268v-8.684h1.268v8.684ZM117.78,141.759c-.832,0-1.466-.341-1.902-1.029-.436-.682-.654-1.466-.654-2.345,0-.947.245-1.745.723-2.372.484-.627,1.125-.954,1.915-.954.75,0,1.37.314,1.847.927.484.613.723,1.411.723,2.399,0,1.016-.252,1.827-.75,2.447-.498.613-1.139.927-1.902.927ZM117.821,140.559c.852,0,1.275-.723,1.275-2.181,0-.661-.102-1.179-.307-1.554-.204-.382-.518-.573-.934-.573-.436,0-.763.198-.975.586-.211.395-.314.913-.314,1.561,0,.702.109,1.234.334,1.602.226.375.532.559.921.559ZM126.716,133.968v1.111h-.389c-.17,0-.32.02-.45.068-.13.048-.252.198-.375.45.443.423.668.879.668,1.391,0,.566-.211,1.036-.627,1.411s-.968.559-1.65.559c-.293,0-.641-.055-1.043-.164-.259.136-.389.341-.389.627,0,.157.061.3.191.429.123.136.314.198.573.198h1.67c.573,0,1.016.17,1.343.504.32.341.484.757.484,1.254,0,.607-.245,1.118-.736,1.513s-1.213.6-2.181.6c-1.806,0-2.713-.579-2.713-1.738,0-.573.273-1.009.818-1.309-.348-.334-.525-.688-.525-1.063,0-.559.293-1.002.893-1.336-.518-.361-.777-.859-.777-1.486,0-.538.191-.988.573-1.37.382-.382.961-.573,1.738-.573.354,0,.716.048,1.084.136.17-.818.62-1.227,1.35-1.227h.47v.015ZM123.833,138.105c.688,0,1.036-.368,1.036-1.111,0-.286-.082-.532-.259-.723-.177-.198-.423-.293-.757-.293s-.586.102-.777.307c-.184.204-.279.457-.279.763,0,.314.089.566.273.763.19.192.443.294.763.294ZM122.449,141.275c-.184.191-.273.375-.273.552,0,.293.15.552.45.777.307.218.791.327,1.452.327.975,0,1.459-.286,1.459-.859,0-.218-.082-.375-.252-.484s-.368-.164-.586-.164h-1.343c-.252.008-.559-.047-.907-.149ZM131.679,135.194l-2.181,7.314c-.13.45-.314.798-.545,1.05-.232.245-.559.368-.982.368-.17,0-.409-.014-.729-.041v-1.152l.607.014c.266,0,.464-.048.586-.15.123-.102.232-.279.3-.532.075-.259.109-.402.109-.443,0-.027-.041-.157-.116-.395l-1.929-6.033h1.329l1.363,4.24,1.172-4.24h1.016Z"/>
        </g>
      </g>
    </g>
  </g>
</svg>