<?xml version="1.0" encoding="utf-8"?>
<!-- Generator: Adobe Illustrator 25.0.1, SVG Export Plug-In . SVG Version: 6.00 Build 0)  -->
<svg version="1.1" id="Layer_1" xmlns="http://www.w3.org/2000/svg" xmlns:xlink="http://www.w3.org/1999/xlink" x="0px" y="0px"
	 width="150px" height="150px" viewBox="0 0 150 150" style="enable-background:new 0 0 150 150;" xml:space="preserve">
<style type="text/css">
	.st0{display:none;}
	.st1{display:inline;}
	.st2{fill:#606060;}
	.st3{fill:#F84D10;}
	.st4{fill:#444444;}
	.st5{display:inline;fill:#606060;}
	.st6{fill:#4C6BB0;}
</style>
<g class="st0">
	<g class="st1">
		<g>
			<polygon class="st2" points="11.588,517.685 1.857,540.164 -3.28,540.164 -12.979,517.685 -7.359,517.685 -0.519,533.742 
				6.417,517.685 			"/>
			<path class="st2" d="M28.638,532.682h-13.07c0.481,2.152,2.312,3.468,4.946,3.468c1.83,0,3.147-0.546,4.335-1.67l2.665,2.89
				c-1.606,1.831-4.014,2.794-7.129,2.794c-5.973,0-9.859-3.757-9.859-8.896c0-5.17,3.95-8.895,9.217-8.895
				c5.073,0,8.992,3.404,8.992,8.96C28.734,531.719,28.67,532.265,28.638,532.682 M15.503,529.76h8.51
				c-0.354-2.184-1.992-3.597-4.239-3.597C17.494,526.164,15.856,527.544,15.503,529.76"/>
			<path class="st2" d="M30.787,531.269c0-5.202,4.014-8.895,9.634-8.895c3.629,0,6.487,1.574,7.739,4.4l-3.886,2.087
				c-0.931-1.638-2.312-2.376-3.886-2.376c-2.537,0-4.528,1.766-4.528,4.785c0,3.019,1.991,4.785,4.528,4.785
				c1.574,0,2.954-0.707,3.886-2.376l3.886,2.119c-1.252,2.762-4.111,4.367-7.739,4.367
				C34.801,540.164,30.787,536.472,30.787,531.269"/>
			<path class="st2" d="M62.449,539.073c-1.028,0.739-2.537,1.092-4.079,1.092c-4.078,0-6.455-2.087-6.455-6.198v-7.097H49.25
				v-3.854h2.666v-4.206h5.01v4.206h4.303v3.854h-4.303v7.033c0,1.477,0.802,2.28,2.151,2.28c0.738,0,1.477-0.224,2.023-0.642
				L62.449,539.073z"/>
		</g>
		<path class="st2" d="M96.83,522.631v4.624c-0.417-0.032-0.738-0.064-1.124-0.064c-2.761,0-4.592,1.509-4.592,4.817v8.157h-5.01
			v-17.277h4.785v2.28C92.109,523.498,94.164,522.631,96.83,522.631"/>
		<path class="st2" d="M98.274,537.564l1.766-3.918c1.895,1.381,4.721,2.344,7.418,2.344c3.083,0,4.335-1.028,4.335-2.409
			c0-4.207-13.07-1.316-13.07-9.666c0-3.821,3.083-7.001,9.473-7.001c2.826,0,5.717,0.674,7.804,1.991l-1.606,3.95
			c-2.087-1.188-4.239-1.766-6.23-1.766c-3.083,0-4.271,1.156-4.271,2.569c0,4.143,13.07,1.284,13.07,9.538
			c0,3.758-3.115,6.969-9.537,6.969C103.862,540.165,100.265,539.105,98.274,537.564"/>
		<path class="st2" d="M137,532.682h-13.07c0.481,2.152,2.312,3.468,4.946,3.468c1.83,0,3.147-0.546,4.335-1.67l2.666,2.89
			c-1.606,1.831-4.014,2.794-7.129,2.794c-5.973,0-9.859-3.757-9.859-8.896c0-5.17,3.95-8.895,9.216-8.895
			c5.074,0,8.992,3.404,8.992,8.96C137.097,531.719,137.032,532.265,137,532.682 M123.865,529.76h8.51
			c-0.353-2.184-1.991-3.597-4.239-3.597C125.856,526.164,124.219,527.544,123.865,529.76"/>
		<path class="st2" d="M157.262,532.682h-13.07c0.481,2.152,2.312,3.468,4.945,3.468c1.831,0,3.147-0.546,4.335-1.67l2.666,2.89
			c-1.606,1.831-4.014,2.794-7.129,2.794c-5.973,0-9.859-3.757-9.859-8.896c0-5.17,3.95-8.895,9.217-8.895
			c5.074,0,8.992,3.404,8.992,8.96C157.358,531.719,157.294,532.265,157.262,532.682 M144.127,529.76h8.51
			c-0.353-2.184-1.991-3.597-4.239-3.597C146.118,526.164,144.48,527.544,144.127,529.76"/>
		<polygon class="st2" points="168.114,533.389 165.705,535.765 165.705,540.165 160.696,540.165 160.696,516.337 165.705,516.337 
			165.705,529.824 173.027,522.888 179.001,522.888 171.807,530.209 179.643,540.165 173.573,540.165 		"/>
		<path class="st2" d="M86.552,542.514L86.552,542.514l-5.005-5.005c-0.762,0.89-1.668,1.651-2.684,2.247
			c-0.162,0.12-0.326,0.238-0.495,0.348l5.297,5.297c0.797,0.797,2.09,0.797,2.888,0C87.349,544.604,87.349,543.311,86.552,542.514"
			/>
		<path class="st3" d="M74.972,521.312c0.386-0.303,0.866-0.492,1.395-0.492c0.073,0,0.146,0.004,0.217,0.01
			c-0.375-0.274-0.837-0.436-1.337-0.436c-0.691,0-1.301,0.315-1.718,0.802c-0.089,0-0.175,0.01-0.264,0.013
			c0.069-0.134,0.112-0.284,0.112-0.446c0-0.409-0.25-0.76-0.605-0.908c0.152,0.221,0.242,0.489,0.242,0.778
			c0,0.214-0.053,0.415-0.141,0.596c-4.918,0.351-8.802,4.442-8.802,9.45c0,5.238,4.246,9.484,9.485,9.484
			c5.239,0,9.485-4.246,9.485-9.484C83.042,525.924,79.537,521.997,74.972,521.312 M71.471,523.783c0.761,0,1.477,0.196,2.099,0.541
			c0.654-0.428,1.435-0.676,2.273-0.676c1.244,0,2.359,0.547,3.121,1.411c-0.762-0.664-1.757-1.067-2.847-1.067
			c-0.785,0-1.523,0.21-2.159,0.576c-0.139,0.08-0.273,0.167-0.401,0.262c-0.114-0.083-0.233-0.163-0.357-0.235
			c-0.646-0.383-1.399-0.602-2.205-0.602c-0.525,0-1.028,0.094-1.495,0.266C70.092,523.955,70.762,523.783,71.471,523.783
			 M78.101,531.557c0.201,0.534,0.316,1.109,0.316,1.713c0,2.685-2.176,4.86-4.861,4.86c-2.684,0-4.86-2.176-4.86-4.86
			c0-0.604,0.115-1.179,0.316-1.713c-1.085-0.668-1.811-1.863-1.811-3.23c0-2.095,1.699-3.794,3.794-3.794
			c0.988,0,1.886,0.381,2.561,1c0.675-0.619,1.572-1,2.561-1c2.095,0,3.794,1.699,3.794,3.794
			C79.912,529.694,79.186,530.889,78.101,531.557"/>
		<path class="st4" d="M77.916,527.992c0,0.869-0.706,1.576-1.576,1.576c-0.869,0-1.576-0.707-1.576-1.576s0.706-1.576,1.576-1.576
			c0.177,0,0.344,0.03,0.503,0.082c-0.052,0.109-0.079,0.231-0.079,0.358c0,0.478,0.387,0.865,0.865,0.865
			c0.088,0,0.174-0.013,0.256-0.038C77.904,527.782,77.916,527.886,77.916,527.992"/>
		<path class="st4" d="M71.947,527.992c0,0.658-0.534,1.192-1.192,1.192c-0.658,0-1.192-0.534-1.192-1.192s0.534-1.192,1.192-1.192
			c0.133,0,0.26,0.022,0.38,0.062c-0.04,0.082-0.06,0.175-0.06,0.271c0,0.361,0.293,0.654,0.654,0.654
			c0.067,0,0.132-0.01,0.193-0.029C71.938,527.833,71.947,527.912,71.947,527.992"/>
		<g>
			<g>
				<rect x="62.589" y="529.337" class="st2" width="1.077" height="1.077"/>
				<rect x="83.448" y="529.337" class="st2" width="1.077" height="1.077"/>
				<path class="st2" d="M84.109,529.778h-0.245c0-5.683-4.624-10.307-10.307-10.307c-5.683,0-10.307,4.624-10.307,10.307h-0.245
					c0-2.819,1.098-5.468,3.091-7.461c1.993-1.993,4.643-3.091,7.461-3.091c2.819,0,5.469,1.098,7.462,3.091
					C83.011,524.31,84.109,526.959,84.109,529.778"/>
			</g>
			<rect x="73.018" y="518.81" class="st2" width="1.077" height="1.077"/>
			<rect x="66.163" y="519.226" class="st2" width="14.788" height="0.245"/>
			<path class="st2" d="M66.555,519.397c0,0.189-0.153,0.343-0.343,0.343c-0.189,0-0.343-0.154-0.343-0.343s0.153-0.343,0.343-0.343
				C66.401,519.054,66.555,519.208,66.555,519.397"/>
			<path class="st2" d="M81.294,519.397c0,0.189-0.153,0.343-0.343,0.343c-0.189,0-0.343-0.154-0.343-0.343s0.153-0.343,0.343-0.343
				C81.14,519.054,81.294,519.208,81.294,519.397"/>
		</g>
	</g>
	<path class="st5" d="M187.624,539.102c0,2.729-4.136,2.729-4.136,0C183.487,536.375,187.624,536.375,187.624,539.102z"/>
	<g class="st1">
		<g>
			<path class="st2" d="M-79.456,527.097l3.102,10.653l3.246-10.653h3.877l-4.94,14.245h-4.078l-1.465-4.193l-1.264-4.74
				l-1.263,4.74l-1.465,4.193h-4.078l-4.968-14.245h3.905l3.246,10.653l3.073-10.653H-79.456z"/>
			<path class="st2" d="M-53.252,527.097l3.102,10.653l3.246-10.653h3.877l-4.94,14.245h-4.078l-1.465-4.193l-1.263-4.74
				l-1.264,4.74l-1.465,4.193h-4.078l-4.968-14.245h3.905l3.246,10.653l3.073-10.653H-53.252z"/>
			<path class="st2" d="M-27.048,527.097l3.102,10.653l3.246-10.653h3.877l-4.94,14.245h-4.078l-1.465-4.193l-1.264-4.74
				l-1.263,4.74l-1.465,4.193h-4.078l-4.968-14.245h3.905l3.246,10.653l3.073-10.653H-27.048z"/>
		</g>
		<path class="st2" d="M-10.91,539.295c0,2.729-4.136,2.729-4.136,0C-15.047,536.569-10.91,536.569-10.91,539.295z"/>
		<path class="st2" d="M202.243,539.102c-1.637,1.609-3.358,2.24-5.455,2.24c-4.106,0-7.525-2.469-7.525-7.494
			c0-5.025,3.419-7.497,7.525-7.497c2.011,0,3.561,0.575,5.111,2.097l-2.212,2.327c-0.832-0.748-1.866-1.12-2.841-1.12
			c-2.355,0-4.078,1.723-4.078,4.193c0,2.698,1.838,4.134,4.02,4.134c1.12,0,2.24-0.316,3.101-1.176L202.243,539.102z"/>
		<path class="st2" d="M218.16,533.962c0,4.078-2.785,7.38-7.38,7.38s-7.352-3.302-7.352-7.38c0-4.05,2.815-7.38,7.324-7.38
			S218.16,529.912,218.16,533.962z M206.931,533.962c0,2.154,1.293,4.165,3.849,4.165s3.849-2.011,3.849-4.165
			c0-2.125-1.494-4.193-3.849-4.193C208.252,529.77,206.931,531.837,206.931,533.962z"/>
		<path class="st2" d="M230.001,541.342v-7.581c0-1.868-0.977-3.561-2.902-3.561c-1.894,0-3.014,1.693-3.014,3.561v7.581h-3.505
			v-14.186h3.246l0.26,1.723c0.746-1.436,2.383-1.952,3.732-1.952c1.695,0,3.391,0.69,4.193,2.642
			c1.265-2.011,2.902-2.586,4.74-2.586c4.02,0,6.002,2.472,6.002,6.72v7.639h-3.505v-7.639c0-1.866-0.774-3.447-2.67-3.447
			c-1.894,0-3.073,1.637-3.073,3.505v7.581H230.001z"/>
	</g>
</g>
<g>
</g>
<g>
	<polygon class="st6" points="146.8,50.047 122.887,50.073 124.356,45.948 146.796,45.924 	"/>
	<path class="st6" d="M83.049,45.993l22.202-0.027l1.458,4.131c0.011-0.006-23.648,0.031-23.648,0.026
		C83.061,50.117,83.042,45.993,83.049,45.993z"/>
	<path class="st6" d="M65.416,46.011c3.66,0.349,6.842,1.649,9.554,4.12c0,0-40.244,0.048-40.244,0.044
		c0-0.005-0.005-4.131-0.005-4.131L65.416,46.011z"/>
	<g>
		<rect x="3.144" y="46.064" transform="matrix(1 -0.0011 0.0011 1 -0.0527 0.0188)" class="st6" width="27.957" height="4.123"/>
		<path class="st6" d="M17.123,48.126"/>
	</g>
	<path class="st6" d="M146.808,57.782l-26.653,0.029c0,0,1.449-4.103,1.44-4.104l25.208-0.028L146.808,57.782z"/>
	<polygon class="st6" points="109.464,57.828 83.061,57.857 83.056,53.748 108.013,53.721 	"/>
	<path class="st6" d="M78.108,53.753c0.532,1.354,1.161,2.512,1.163,4.102l-44.528,0.049L34.738,53.8L78.108,53.753z"/>
	<g>
		<rect x="3.152" y="53.82" transform="matrix(1 -0.0011 0.0011 1 -0.0611 0.0188)" class="st6" width="27.957" height="4.103"/>
		<path class="st6" d="M17.132,55.871"/>
	</g>
	<polygon class="st6" points="117.438,65.569 118.896,61.446 138.909,61.429 138.913,65.537 	"/>
	<polygon class="st6" points="110.752,61.454 112.215,65.575 90.941,65.598 90.937,61.475 	"/>
	<path class="st6" d="M79.628,61.487c0.002,1.414-0.174,2.887-0.584,4.124l-12.192,0.013l-0.005-4.124L79.628,61.487z"/>
	<g>
		<rect x="10.953" y="61.575" transform="matrix(1 -0.0011 0.0011 1 -0.0696 0.0186)" class="st6" width="12.017" height="4.103"/>
		<path class="st6" d="M16.961,63.627"/>
	</g>
	<g>
		<rect x="42.838" y="61.52" transform="matrix(1 -0.0011 0.0011 1 -0.0695 0.0535)" class="st6" width="11.996" height="4.123"/>
		<path class="st6" d="M48.836,63.582"/>
	</g>
	<path class="st6" d="M102.763,70.037c0,0,0.007,3.121,0.004,3.126L90.95,73.176l-0.004-4.103l22.519-0.025l1.403,3.824
		c0.007,0.002,1.344-3.836,1.347-3.828l22.695-0.025l0.004,4.104l-11.759,0.013c-0.001-0.006-0.01-3.126-0.01-3.126l-1.084,3.127
		l-22.208,0.018L102.763,70.037z"/>
	<path class="st6" d="M42.844,69.125l34.436-0.038v-0.002c-0.752,1.375-2.116,3.047-3.412,4.109c0,0-31.021,0.04-31.021,0.034
		C42.847,73.223,42.844,69.133,42.844,69.125z"/>
	<g>
		<rect x="10.961" y="69.153" transform="matrix(1 -0.0011 0.0011 1 -0.0779 0.0186)" class="st6" width="12.017" height="4.104"/>
		<path class="st6" d="M16.969,71.204"/>
	</g>
	<g>
		<rect x="127.161" y="76.763" transform="matrix(1 -0.0011 0.0011 1 -0.0862 0.1456)" class="st6" width="11.759" height="4.103"/>
		<path class="st6" d="M133.04,78.814"/>
	</g>
	<path class="st6" d="M102.771,76.796l-11.817,0.013l0.004,4.103c-0.006-0.002,11.82-0.012,11.82-0.013
		C102.778,80.897,102.787,76.796,102.771,76.796z"/>
	<path class="st6" d="M124.783,76.772c-0.053-0.006-1.373,4.102-1.429,4.105l-16.75,0.025c-0.013-0.006-1.477-4.115-1.478-4.109
		L124.783,76.772z"/>
	<path class="st6" d="M42.851,76.861l30.963-0.034c1.415,1.177,2.694,2.628,3.696,4.1c0.056-0.002-34.654,0.039-34.654,0.038
		C42.856,80.962,42.851,76.865,42.851,76.861z"/>
	<path class="st6" d="M22.987,80.985l-0.004-4.103l-11.995,0.013c0,0,0.007,4.102,0.004,4.102
		C10.99,80.997,22.981,80.985,22.987,80.985z"/>
	<g>
		<rect x="127.169" y="84.498" transform="matrix(1 -0.0011 0.0011 1 -0.0946 0.1456)" class="st6" width="11.759" height="4.104"/>
		<path class="st6" d="M133.049,86.55"/>
	</g>
	<g>
		<rect x="90.964" y="84.538" transform="matrix(1 -0.0011 0.0011 1 -0.0947 0.1061)" class="st6" width="11.818" height="4.103"/>
		<path class="st6" d="M96.873,86.589"/>
	</g>
	<path class="st6" d="M120.613,88.635c0.003-0.019,1.446-4.128,1.468-4.125l-14.239,0.016c-0.025-0.002,1.464,4.103,1.464,4.103
		S120.611,88.652,120.613,88.635z"/>
	<path class="st6" d="M42.864,88.7c0,0.016-0.005-4.103-0.004-4.104l12.174-0.013c0,0,0.015,4.105,0.004,4.105
		C55.027,88.688,42.864,88.697,42.864,88.7z"/>
	<path class="st6" d="M79.222,84.557c0.59,1.236,0.651,2.708,0.77,4.122l-12.899,0.014l-0.005-4.123L79.222,84.557z"/>
	<g>
		<rect x="10.998" y="84.625" transform="matrix(1 -0.0011 0.0011 1 -0.0948 0.0187)" class="st6" width="11.995" height="4.103"/>
		<path class="st6" d="M16.996,86.676"/>
	</g>
	<g>
		<rect x="127.178" y="92.071" transform="matrix(1 -0.0011 0.0011 1 -0.1029 0.15)" class="st6" width="19.67" height="4.105"/>
		<path class="st6" d="M137.012,94.124"/>
	</g>
	<g>
		<rect x="83.1" y="92.12" transform="matrix(1 -0.0011 0.0011 1 -0.103 0.1018)" class="st6" width="19.69" height="4.105"/>
		<path class="st6" d="M92.944,94.173"/>
	</g>
	<polygon class="st6" points="117.976,96.197 111.97,96.204 110.525,92.1 119.36,92.091 	"/>
	<path class="st6" d="M3.191,92.218l0.004,4.103l27.938-0.031c0.012,0.006-0.017-4.101-0.004-4.101
		C31.14,92.19,3.158,92.218,3.191,92.218z"/>
	<path class="st6" d="M79.484,92.134c-0.293,1.354-0.56,3.005-1.548,4.107l-0.369-0.001l-42.784,0.047l-0.004-4.103L79.484,92.134z"
		/>
	<polygon class="st6" points="115.262,103.944 114.709,103.945 113.301,99.833 116.698,99.83 	"/>
	<g>
		<rect x="127.185" y="99.808" transform="matrix(1 -0.0011 0.0011 1 -0.1114 0.15)" class="st6" width="19.671" height="4.123"/>
		<path class="st6" d="M137.021,101.869"/>
	</g>
	<path class="st6" d="M34.786,104.032l-0.004-4.106c0,0,40.364-0.039,40.479-0.039c-2.707,2.594-6.424,4.06-10.429,4.123
		l-30.04,0.025"/>
	<g>
		<rect x="83.108" y="99.856" transform="matrix(1 -0.0011 0.0011 1 -0.1115 0.1018)" class="st6" width="19.69" height="4.123"/>
		<path class="st6" d="M92.953,101.917"/>
	</g>
	<path class="st6" d="M31.137,99.942c0,0-0.008,4.095,0.004,4.095c0.012,0-27.93,0.047-27.938,0.039
		c-0.008-0.008,0.003-4.114-0.005-4.114C3.192,99.961,31.125,99.955,31.137,99.942z"/>
</g>
</svg>
