<?xml version="1.0" encoding="UTF-8"?>
<svg xmlns="http://www.w3.org/2000/svg" width="84" height="84" version="1.1" viewBox="0 0 84 84">
  <defs>
    <style>
      .cls-1 {
        fill: #080808;
      }

      .cls-2 {
        fill: #050505;
      }

      .cls-3 {
        fill: #040404;
      }
    </style>
  </defs>
  <!-- Generator: Adobe Illustrator 28.7.1, SVG Export Plug-In . SVG Version: 1.2.0 Build 142)  -->
  <g>
    <g id="Layer_1">
      <path class="cls-3" d="M76.074,48.936c2.77,0,5.023-2.253,5.023-5.023s-2.253-5.023-5.023-5.023c-2.305,0-4.306,1.565-4.867,3.806l-.087.348h-4.36c-.48,0-.87.39-.87.87s.39.87.87.87h4.36s.087.348.087.348c.561,2.24,2.562,3.805,4.867,3.805ZM72.791,43.913c0-1.811,1.473-3.283,3.283-3.283s3.283,1.473,3.283,3.283-1.473,3.283-3.283,3.283-3.283-1.473-3.283-3.283Z"/>
      <path class="cls-3" d="M12.793,45.131l.087-.348h4.36c.48,0,.87-.39.87-.87,0-.479-.39-.87-.87-.87h-4.36s-.087-.348-.087-.348c-.561-2.241-2.562-3.806-4.867-3.806-2.77,0-5.023,2.253-5.023,5.023s2.253,5.023,5.023,5.023c2.305,0,4.306-1.565,4.867-3.805ZM7.926,47.196c-1.81,0-3.283-1.473-3.283-3.283s1.473-3.283,3.283-3.283,3.283,1.473,3.283,3.283-1.473,3.283-3.283,3.283Z"/>
      <path class="cls-3" d="M68.912,22.418c1.889-2.026,1.778-5.211-.248-7.1s-5.211-1.778-7.1.248c-1.572,1.686-1.792,4.217-.536,6.155l.195.301-2.973,3.189c-.327.351-.308.902.043,1.229s.903.308,1.23-.043l2.973-3.189.314.174c2.021,1.117,4.53.721,6.102-.965ZM62.999,21.394c-1.324-1.235-1.397-3.317-.162-4.641s3.316-1.397,4.641-.162,1.397,3.317.162,4.641-3.316,1.397-4.641.162Z"/>
      <path class="cls-3" d="M22.972,66.104l-.195-.301,2.973-3.189c.327-.351.308-.902-.043-1.23s-.902-.308-1.229.043l-2.973,3.189-.314-.174c-2.021-1.118-4.531-.721-6.103.964-1.889,2.026-1.778,5.211.248,7.1s5.211,1.778,7.1-.248c1.572-1.686,1.792-4.216.537-6.154ZM21.163,71.072c-1.235,1.324-3.316,1.397-4.641.162s-1.397-3.317-.162-4.641,3.316-1.397,4.641-.162,1.397,3.317.162,4.641Z"/>
      <path class="cls-3" d="M20.506,17c-2.026-1.889-5.211-1.778-7.1.248s-1.778,5.211.248,7.1c1.686,1.572,4.217,1.792,6.155.536l.301-.195,3.189,2.973c.351.327.902.308,1.229-.043s.308-.903-.043-1.23l-3.189-2.973.174-.314c1.117-2.021.721-4.53-.965-6.102ZM19.481,22.913c-1.235,1.324-3.317,1.397-4.641.162s-1.397-3.316-.162-4.641,3.317-1.397,4.641-.162,1.397,3.316.162,4.641Z"/>
      <path class="cls-3" d="M64.192,62.94l-.301.195-3.189-2.973c-.351-.327-.902-.308-1.23.043s-.308.902.043,1.229l3.189,2.973-.174.314c-1.118,2.021-.721,4.531.964,6.103,2.026,1.889,5.211,1.778,7.1-.248s1.778-5.211-.248-7.1c-1.686-1.572-4.216-1.792-6.154-.537ZM69.16,64.75c1.324,1.235,1.397,3.316.162,4.641s-3.317,1.397-4.641.162-1.397-3.316-.162-4.641,3.317-1.397,4.641-.162Z"/>
      <path class="cls-3" d="M43.699,73.054l-.347-.093.076-4.359c.008-.48-.375-.877-.855-.885s-.876.375-.885.855l-.076,4.359-.35.081c-2.25.522-3.85,2.496-3.89,4.8-.048,2.77,2.165,5.062,4.935,5.11s5.062-2.165,5.11-4.935c.04-2.304-1.49-4.333-3.719-4.933ZM45.679,77.957c-.032,1.81-1.53,3.257-3.34,3.226s-3.257-1.53-3.226-3.34c.032-1.81,1.53-3.257,3.34-3.226s3.257,1.53,3.226,3.34Z"/>
      <path class="cls-3" d="M41.22,1.077c.757,0,1.515,0,2.272,0,4.578.245,8.542,1.976,11.943,5.009.432.385,1.348.823.635,1.605-.65.714-1.178.042-1.69-.396-7.337-6.28-16.46-6.294-23.889-.056-.477.4-1.011,1.231-1.669.451-.586-.694.136-1.176.641-1.634,3.341-3.034,7.269-4.666,11.758-4.981Z"/>
      <path class="cls-2" d="M51.628,11.222c.005.323-.11.585-.429.729-.504.227-.816-.131-1.12-.406-1.432-1.3-3.074-2.226-4.95-2.673-3.771-.899-7.129.027-10.112,2.437-.503.406-1,1.202-1.658.445-.613-.706.129-1.186.62-1.634,4.54-4.145,12.269-4.165,16.791-.033.352.321.845.549.858,1.136Z"/>
      <path class="cls-1" d="M42.612,12.833c1.499.015,3.059.607,4.414,1.762.434.37.634.781.21,1.242-.324.351-.725.38-1.138.046-2.422-1.96-4.852-2.042-7.3-.029-.33.271-.758.501-1.128.045-.379-.468-.237-.924.172-1.293,1.274-1.149,2.778-1.733,4.771-1.772Z"/>
      <path class="cls-3" d="M58.933,30.698c.024-1.124-.246-1.619-1.514-1.674-5.212-.224-9.938-1.881-14.013-5.2-.688-.561-1.197-.627-1.914-.042-4.022,3.283-8.668,4.994-13.833,5.22-1.331.058-1.818.474-1.799,1.841.063,4.541-.049,9.085.024,13.626.163,10.081,5.705,18.251,14.689,21.737.886.344,1.736.722,2.817.335,6.74-2.417,11.382-6.957,14.043-13.576,1.891-4.704,1.437-9.644,1.483-14.534,0-2.578-.038-5.157.019-7.734ZM57.08,47.648c-1.143,8.344-5.878,14.032-13.653,17.206-.772.315-1.495.194-2.293-.111-8.37-3.197-13.591-11.023-13.635-20.534-.008-1.658-.001-3.316-.003-4.974-.002-2.456.026-4.913-.018-7.368-.015-.867.161-1.277,1.155-1.351,4.747-.352,9.066-1.951,12.901-4.774.661-.487,1.096-.536,1.747-.039,3.799,2.902,8.148,4.383,12.869,4.832.745.071,1.253.112,1.219,1.106-.184,5.335.437,10.709-.289,16.006Z"/>
      <path class="cls-3" d="M42.35,35.462c-5.163.046-9.477,4.392-9.471,9.544.006,5.323,4.269,9.572,9.607,9.576,5.165.004,9.498-4.351,9.475-9.522-.024-5.279-4.395-9.644-9.61-9.598ZM42.341,53.01c-4.402-.073-7.899-3.637-7.845-7.997.054-4.383,3.719-8.081,7.907-7.978,4.395.108,8.017,3.699,8.011,7.941-.006,4.424-3.706,8.106-8.073,8.034Z"/>
      <path class="cls-3" d="M40.774,47.314c1.627-1.829,3.197-3.596,4.768-5.36.284-.319.576-.631.866-.945.337-.364.691-.469,1.108-.103.413.364.371.704.031,1.096-2.038,2.355-4.071,4.714-6.097,7.079-.539.629-1.011.301-1.369-.14-.961-1.183-1.876-2.403-2.789-3.623-.276-.369-.359-.812.031-1.158.483-.428.924-.186,1.251.231.713.909,1.392,1.845,2.2,2.924Z"/>
      <circle class="cls-3" cx="42.459" cy="19.505" r="1.153"/>
    </g>
  </g>
</svg>