<?xml version="1.0" encoding="UTF-8"?>
<svg xmlns="http://www.w3.org/2000/svg" width="84" height="84" version="1.1" viewBox="0 0 84 84">
  <defs>
    <style>
      .cls-1 {
        fill: #f5821f;
      }
    </style>
  </defs>
  <!-- Generator: Adobe Illustrator 28.7.1, SVG Export Plug-In . SVG Version: 1.2.0 Build 142)  -->
  <g>
    <g id="Layer_1">
      <g>
        <path class="cls-1" d="M998.737,1226.176c-.305,0-.588-.195-.685-.501l-13.724-42.986c-.121-.379.088-.784.467-.904.379-.121.784.088.904.467l13.724,42.986c.121.379-.088.784-.467.904-.073.023-.147.034-.219.034Z"/>
        <path class="cls-1" d="M967.328,1226.176c-.07,0-.142-.01-.213-.032-.38-.117-.592-.52-.475-.9l13.311-43.099c.117-.38.52-.593.9-.475.38.117.592.52.475.9l-13.311,43.099c-.095.309-.38.507-.687.507Z"/>
        <path class="cls-1" d="M982.762,1183.354c-2.337,0-4.238-1.901-4.238-4.238s1.901-4.238,4.238-4.238,4.238,1.901,4.238,4.238-1.901,4.238-4.238,4.238ZM982.762,1176.318c-1.543,0-2.799,1.255-2.799,2.799s1.256,2.799,2.799,2.799,2.799-1.255,2.799-2.799-1.255-2.799-2.799-2.799Z"/>
        <path class="cls-1" d="M977.521,1185.532c-.174,0-.349-.063-.487-.19-1.736-1.598-2.732-3.867-2.732-6.226,0-4.665,3.795-8.46,8.46-8.46s8.459,3.795,8.459,8.46c0,2.26-.88,4.384-2.478,5.982-.281.281-.737.281-1.018,0-.281-.281-.281-.737,0-1.018,1.326-1.326,2.056-3.089,2.056-4.964,0-3.871-3.149-7.02-7.02-7.02s-7.021,3.149-7.021,7.02c0,1.957.827,3.84,2.268,5.167.292.269.311.724.042,1.017-.142.154-.335.232-.53.232Z"/>
        <path class="cls-1" d="M989.839,1190.273c-.23,0-.456-.11-.595-.314-.224-.328-.139-.776.189-1,3.253-2.217,5.195-5.888,5.195-9.819,0-2.862-1.032-5.626-2.907-7.783-.261-.3-.229-.755.071-1.015.3-.261.755-.229,1.015.071,2.102,2.419,3.259,5.519,3.259,8.727,0,4.407-2.177,8.522-5.823,11.008-.124.085-.265.125-.405.125Z"/>
        <path class="cls-1" d="M970.437,1177.225c-.05,0-.1-.005-.151-.016-.389-.083-.637-.465-.554-.854,1.299-6.101,6.775-10.529,13.021-10.529,3.001,0,5.835.975,8.194,2.819.313.245.368.697.124,1.01-.244.313-.697.369-1.01.124-2.103-1.645-4.63-2.514-7.307-2.514-5.571,0-10.455,3.949-11.613,9.389-.072.338-.371.57-.703.57Z"/>
        <path class="cls-1" d="M975.864,1190.404c-.135,0-.272-.038-.393-.118-3.042-1.992-5.161-5.176-5.812-8.736-.072-.391.187-.766.578-.837.391-.072.766.188.837.578.58,3.174,2.47,6.014,5.185,7.791.332.218.426.664.208.996-.138.211-.368.326-.603.326Z"/>
        <path class="cls-1" d="M991.413,1195.222c-.251,0-.495-.132-.627-.366-.196-.346-.073-.785.273-.981,5.309-2.999,8.607-8.645,8.607-14.735,0-8.487-6.338-15.698-14.743-16.773-.394-.05-.673-.411-.623-.805.05-.394.414-.672.805-.622,9.121,1.167,15.999,8.992,15.999,18.201,0,6.609-3.578,12.735-9.338,15.988-.112.063-.233.093-.353.093Z"/>
        <path class="cls-1" d="M974.163,1195.26c-.119,0-.24-.029-.351-.092-5.804-3.244-9.409-9.386-9.409-16.029,0-4.574,1.693-8.956,4.767-12.339,3.053-3.359,7.211-5.46,11.708-5.917.392-.039.749.248.789.643.04.395-.248.749-.643.789-4.143.421-7.974,2.357-10.788,5.453-2.833,3.117-4.393,7.155-4.393,11.37,0,6.122,3.323,11.782,8.672,14.772.347.194.471.632.277.979-.132.236-.377.369-.629.369Z"/>
        <path class="cls-1" d="M993.029,1200.072c-.262,0-.515-.144-.642-.393-.18-.354-.04-.788.315-.968,7.403-3.77,12.001-11.269,12.001-19.571,0-12.102-9.846-21.949-21.949-21.949-.397,0-.72-.322-.72-.72s.322-.72.72-.72c12.896,0,23.388,10.492,23.388,23.388,0,8.845-4.9,16.836-12.787,20.853-.105.053-.216.079-.326.079Z"/>
        <path class="cls-1" d="M972.864,1200.263c-.105,0-.212-.023-.314-.072-3.892-1.89-7.184-4.82-9.518-8.474-2.398-3.753-3.666-8.102-3.666-12.577,0-4.803,1.445-9.418,4.179-13.346,2.671-3.838,6.377-6.761,10.717-8.453.37-.144.787.039.932.409s-.039.787-.409.932c-4.073,1.588-7.551,4.331-10.059,7.934-2.565,3.686-3.921,8.016-3.921,12.524,0,4.199,1.19,8.28,3.44,11.802,2.192,3.429,5.281,6.18,8.934,7.954.358.174.507.604.333.962-.124.256-.381.405-.648.405Z"/>
        <path class="cls-1" d="M994.555,1204.934c-.27,0-.529-.153-.651-.413-.17-.359-.015-.788.344-.958,4.566-2.152,8.432-5.535,11.18-9.783,2.821-4.36,4.312-9.422,4.312-14.64,0-6.254-2.189-12.35-6.162-17.165-.253-.307-.209-.76.097-1.013.306-.253.76-.21,1.013.097,4.186,5.072,6.491,11.494,6.491,18.081,0,5.495-1.571,10.828-4.543,15.422-2.895,4.474-6.966,8.037-11.775,10.304-.099.047-.204.069-.306.069Z"/>
        <path class="cls-1" d="M955.112,1177.976c-.016,0-.033,0-.049-.002-.397-.027-.696-.37-.67-.766.482-7.18,3.646-13.855,8.909-18.796,5.287-4.964,12.195-7.697,19.451-7.697,6.733,0,13.264,2.397,18.388,6.748.303.257.34.711.083,1.014-.257.303-.711.34-1.014.083-4.865-4.131-11.065-6.406-17.457-6.406-6.889,0-13.447,2.595-18.466,7.307-4.997,4.691-8.001,11.028-8.458,17.843-.026.38-.342.671-.717.671Z"/>
        <path class="cls-1" d="M970.96,1204.937c-.103,0-.207-.022-.306-.069-9.326-4.394-15.556-13.498-16.258-23.76-.027-.396.272-.74.669-.767.396-.028.74.272.767.669.666,9.742,6.581,18.385,15.435,22.556.36.169.514.598.344.958-.123.26-.382.413-.652.413Z"/>
        <path class="cls-1" d="M996.142,1209.75c-.275,0-.537-.158-.657-.425-.163-.363,0-.788.362-.951,11.5-5.158,18.93-16.633,18.93-29.234,0-8.169-3.076-15.947-8.661-21.902-5.559-5.928-13.071-9.496-21.152-10.046-.396-.027-.696-.37-.669-.767.027-.397.37-.696.767-.669,8.445.576,16.295,4.304,22.104,10.498,5.836,6.223,9.05,14.351,9.05,22.887,0,13.166-7.764,25.157-19.781,30.547-.096.043-.196.063-.294.063Z"/>
        <path class="cls-1" d="M969.366,1209.75c-.098,0-.199-.02-.294-.063-12.016-5.39-19.781-17.381-19.781-30.547,0-17.774,13.889-32.451,31.621-33.413.395-.021.736.283.758.68.021.397-.283.736-.68.758-16.968.921-30.26,14.966-30.26,31.976,0,12.6,7.431,24.075,18.931,29.234.363.163.525.588.362.951-.12.267-.382.425-.657.425Z"/>
        <path class="cls-1" d="M967.726,1214.533c-.096,0-.193-.019-.286-.06-14.085-6.113-23.186-19.982-23.186-35.334,0-21.229,17.271-38.5,38.5-38.5s38.5,17.271,38.5,38.5c0,15.35-9.1,29.219-23.183,35.333-.364.158-.788-.009-.947-.374s.009-.788.374-.947c13.557-5.885,22.317-19.236,22.317-34.012,0-20.435-16.626-37.061-37.061-37.061s-37.061,16.625-37.061,37.061c0,14.778,8.761,28.129,22.32,34.013.364.158.532.582.374.947-.118.271-.383.433-.66.433Z"/>
        <path class="cls-1" d="M998.946,1226.276h-31.663c-.397,0-.72-.322-.72-.72s.322-.72.72-.72h31.663c.397,0,.72.322.72.72s-.322.72-.72.72Z"/>
        <path class="cls-1" d="M982.762,1226.276c-.397,0-.72-.322-.72-.72v-42.922c0-.397.322-.72.72-.72s.72.322.72.72v42.922c0,.397-.322.72-.72.72Z"/>
        <path class="cls-1" d="M967.727,1225.518c-.25,0-.493-.13-.625-.362-.197-.345-.078-.785.267-.982l14.222-8.134-8.005-11.67c-.197-.287-.16-.674.087-.919l8.137-8.054-3.32-6.7c-.176-.356-.031-.788.325-.964.356-.177.788-.031.964.325l3.551,7.165c.138.278.082.613-.138.831l-8.079,7.997,8.107,11.818c.114.166.153.372.108.568-.045.196-.17.364-.344.464l-14.9,8.522c-.113.064-.236.095-.357.095Z"/>
        <path class="cls-1" d="M997.783,1225.518c-.121,0-.244-.031-.357-.095l-14.9-8.522c-.174-.1-.299-.268-.344-.464-.045-.196-.006-.402.108-.568l8.107-11.818-8.079-7.997c-.221-.218-.276-.553-.139-.831l3.551-7.165c.176-.356.608-.502.964-.325.356.176.502.608.325.964l-3.321,6.7,8.137,8.054c.247.245.284.632.087.919l-8.005,11.67,14.222,8.134c.345.197.465.637.267.982-.133.232-.376.362-.625.362Z"/>
      </g>
      <path class="cls-1" d="M69.9,42c0-10.876-6.259-20.312-15.362-24.912-.039-.025-.08-.042-.122-.062-3.742-1.868-7.957-2.926-12.417-2.926-15.384,0-27.9,12.516-27.9,27.9s12.516,27.9,27.9,27.9c4.816,0,9.351-1.227,13.309-3.384.01-.007.022-.011.032-.018,8.667-4.739,14.559-13.942,14.559-24.497ZM67.564,42c0,.891-.047,1.771-.136,2.639-1.61.559-3.11,1.305-4.457,2.216-.642.434-1.134.807-1.53,1.106-.747.566-1.158.877-1.887,1.113-.933.302-2.204.151-2.714-.623-.397-.602-.355-1.47-.306-2.474.033-.667.066-1.357-.027-2.063-.264-2.01-1.538-3.897-3.787-5.609-.574-.437-1.169-.84-1.744-1.23-1.077-.73-2.094-1.42-2.934-2.282-1.823-1.871-3.092-5.491-1.988-8.79.725-2.167,2.285-3.462,3.318-4.319,1.297-1.076,2.788-1.857,4.423-2.354,8.174,4.27,13.769,12.826,13.769,22.669ZM33.052,18.056c.051,1.101.068,2.205.008,3.3-.082,1.502-.27,3.01-.557,4.483-.005.026-.009.053-.013.08-.179,1.441-.905,2.729-2.046,3.628l-2.014,1.588c-.942.743-1.436,1.899-1.322,3.093s.818,2.236,1.883,2.787c.068.035.139.063.213.085,1.108.32,2.084.824,2.901,1.496,2.713,2.233,3.598,6.182,2.631,11.736-.261,1.504-.909,2.481-1.406,3.036-.201.225-.668.745-.946.739-.663-.033-1.446-1.854-1.74-2.54-.055-.128-.107-.248-.16-.368-1.29-3.099-3.066-5.725-5.279-7.807-1.311-1.232-1.986-3.105-1.761-4.887.282-2.242-.398-4.514-1.866-6.233-.896-1.049-1.805-2.102-2.071-2.409,2.925-5.399,7.737-9.629,13.546-11.807ZM37.857,67.223c.497-1.01.978-1.858,1.481-2.613.801-1.202,1.692-2.204,2.651-2.979.578-.467,2.325-1.881,4.774-1.881.021,0,.042,0,.063,0,.686.007,1.732.128,2.821.667.265.131.96.513,1.683,1.222,1.056,1.034,1.639,2.253,1.964,3.287-3.408,1.686-7.241,2.638-11.294,2.638-1.411,0-2.794-.12-4.143-.341ZM55.368,63.779c-.441-1.223-1.171-2.602-2.404-3.809-.928-.909-1.827-1.422-2.281-1.646-1.485-.736-2.905-.901-3.835-.91-.029,0-.059,0-.088,0-3.274,0-5.504,1.804-6.241,2.401-1.142.924-2.194,2.102-3.125,3.5-.647.97-1.254,2.074-1.887,3.412-10.961-2.881-19.071-12.873-19.071-24.726,0-3.484.703-6.806,1.97-9.836.395.458.896,1.041,1.394,1.625,1.042,1.221,1.525,2.833,1.325,4.424-.316,2.509.634,5.146,2.479,6.88,1.972,1.855,3.561,4.211,4.723,7.005.007.016.013.032.018.043.047.105.097.222.151.347.618,1.439,1.652,3.847,3.773,3.951.042.002.084.003.125.003,1.316,0,2.229-1.019,2.675-1.516,1.006-1.122,1.686-2.573,1.968-4.194,1.122-6.443-.038-11.134-3.447-13.941-1.032-.849-2.244-1.487-3.606-1.898-.315-.194-.514-.513-.55-.888-.039-.406.123-.784.443-1.036l2.014-1.587c1.615-1.274,2.648-3.095,2.912-5.133.304-1.566.503-3.169.59-4.765.075-1.382.046-2.777-.044-4.164,2.122-.572,4.35-.883,6.651-.883,3.094,0,6.061.553,8.808,1.565-1.044.515-2.027,1.138-2.929,1.886-1.161.964-3.105,2.576-4.041,5.375-1.256,3.754-.215,8.344,2.53,11.162,1.005,1.031,2.17,1.821,3.296,2.585.575.39,1.118.758,1.64,1.156,1.735,1.321,2.706,2.685,2.886,4.054.066.497.038,1.055.009,1.644-.06,1.235-.129,2.634.688,3.874.838,1.272,2.307,1.816,3.728,1.816.575,0,1.142-.089,1.656-.255,1.106-.357,1.756-.85,2.579-1.474.392-.297.837-.634,1.428-1.033.842-.57,1.757-1.062,2.726-1.479-1.474,6.945-5.774,12.855-11.637,16.467Z"/>
      <path class="cls-1" d="M82.81,57.794c-.252-.594-.938-.871-1.532-.619l-4.915,2.085c3.891-7.773,5.045-16.591,3.233-25.187-.818-3.88-2.211-7.581-4.14-11.002-.317-.562-1.03-.761-1.591-.444-.562.317-.76,1.029-.444,1.591,1.812,3.213,3.12,6.69,3.889,10.336,1.7,8.059.623,16.327-3.014,23.618l-.825-4.916c-.107-.636-.711-1.064-1.345-.959-.636.107-1.065.709-.959,1.345l1.378,8.209c.003.017.01.032.014.049.005.024.013.045.02.068.036.13.088.254.164.362.002.003.005.006.007.01.081.113.187.207.305.285.011.008.017.02.029.027.008.005.017.006.024.011.01.006.017.014.027.019.053.029.109.045.165.065.033.012.064.029.097.038.088.023.178.034.269.037.01,0,.02.004.03.004.14,0,.277-.034.408-.083.016-.006.034-.003.05-.01l8.038-3.409c.594-.252.871-.938.62-1.532Z"/>
      <path class="cls-1" d="M59.782,73.42c-3.214,1.812-6.691,3.121-10.337,3.889-8.059,1.7-16.327.623-23.618-3.014l4.916-.826c.636-.107,1.065-.709.959-1.345-.107-.636-.709-1.064-1.346-.959l-8.209,1.378c-.017.003-.031.01-.048.014-.024.005-.046.013-.07.02-.128.036-.251.087-.358.162-.005.003-.01.007-.015.011-.111.081-.203.184-.281.3-.008.012-.022.019-.03.032-.004.007-.004.015-.008.021-.006.011-.015.019-.021.03-.059.108-.094.225-.116.343-.005.027-.01.053-.013.08-.015.128-.012.256.016.383.005.022.013.042.019.064.014.049.023.1.044.148l3.409,8.038c.189.445.621.712,1.076.712.152,0,.307-.03.455-.093.594-.252.871-.938.62-1.532l-2.092-4.934c5.37,2.691,11.234,4.089,17.186,4.089,2.665,0,5.349-.277,8.008-.838,3.879-.818,7.58-2.211,11.002-4.14.562-.317.761-1.029.444-1.591-.317-.562-1.029-.76-1.591-.444Z"/>
      <path class="cls-1" d="M11.442,22.099c-.005-.024-.013-.045-.02-.069-.036-.129-.087-.252-.163-.361-.003-.004-.006-.008-.009-.012-.081-.112-.186-.205-.303-.283-.012-.008-.018-.02-.03-.028-.006-.004-.014-.004-.02-.007-.011-.007-.02-.016-.032-.022-.109-.06-.226-.094-.345-.116-.026-.005-.051-.009-.077-.013-.129-.016-.258-.012-.385.016-.021.005-.04.012-.061.018-.05.014-.101.024-.149.044l-8.038,3.409c-.594.252-.871.938-.62,1.532.252.594.937.871,1.532.619l4.915-2.085c-3.891,7.773-5.045,16.591-3.233,25.187.818,3.879,2.211,7.58,4.14,11.002.215.381.611.594,1.018.594.194,0,.391-.049.573-.151.562-.317.761-1.029.444-1.591-1.812-3.214-3.121-6.691-3.889-10.336-1.699-8.059-.623-16.328,3.015-23.619l.825,4.916c.096.571.591.975,1.151.975.064,0,.129-.005.195-.016.637-.107,1.065-.709.959-1.345l-1.378-8.209c-.003-.017-.01-.032-.014-.049Z"/>
      <path class="cls-1" d="M62.797,10.059c-.005-.022-.013-.042-.019-.064-.014-.049-.023-.099-.043-.147l-3.409-8.038c-.252-.594-.938-.871-1.532-.619-.594.252-.871.938-.62,1.532l2.085,4.915c-7.772-3.89-16.591-5.045-25.187-3.232-3.879.818-7.581,2.211-11.001,4.14-.562.317-.761,1.029-.444,1.591.317.562,1.03.76,1.591.444,3.213-1.812,6.691-3.12,10.337-3.889,8.059-1.7,16.327-.623,23.618,3.014l-4.916.825c-.637.107-1.065.709-.959,1.345.096.571.591.975,1.151.975.064,0,.129-.005.195-.016l8.209-1.378c.017-.003.032-.01.048-.014.041-.009.08-.021.121-.035.049-.016.096-.034.142-.056.038-.018.074-.039.11-.061.044-.027.085-.058.125-.091.032-.027.064-.053.093-.083.04-.041.075-.086.108-.133.017-.023.039-.041.054-.066.004-.007.004-.014.008-.021.006-.011.016-.019.022-.031.059-.108.094-.225.116-.344.005-.027.01-.053.013-.08.015-.128.012-.256-.016-.383Z"/>
    </g>
  </g>
</svg>