<?xml version="1.0" encoding="utf-8"?>
<!-- Generator: Adobe Illustrator 25.4.1, SVG Export Plug-In . SVG Version: 6.00 Build 0)  -->
<svg version="1.1" id="Layer_1" xmlns="http://www.w3.org/2000/svg" xmlns:xlink="http://www.w3.org/1999/xlink" x="0px" y="0px"
	 viewBox="0 0 32 32" style="enable-background:new 0 0 32 32;" xml:space="preserve">
<path d="M21.557,12.542c-0.129,0-0.233,0.105-0.233,0.234v5.696c0,0.129,0.104,0.234,0.233,0.234s0.234-0.105,0.234-0.234v-5.696
	C21.791,12.647,21.686,12.542,21.557,12.542z"/>
<path d="M21.557,10.106c-0.261,0-0.473,0.212-0.473,0.472c0,0.261,0.212,0.473,0.473,0.473s0.473-0.212,0.473-0.473
	C22.029,10.318,21.817,10.106,21.557,10.106z"/>
<path d="M13.395,9.127c0.129,0,0.234-0.105,0.234-0.234s-0.105-0.234-0.234-0.234H7.491c-0.129,0-0.234,0.105-0.234,0.234
	s0.105,0.234,0.234,0.234H13.395z"/>
<path d="M13.395,12.079c0.129,0,0.234-0.105,0.234-0.234s-0.105-0.234-0.234-0.234H7.491c-0.129,0-0.234,0.105-0.234,0.234
	s0.105,0.234,0.234,0.234H13.395z"/>
<path d="M13.395,15.031c0.129,0,0.234-0.105,0.234-0.234s-0.105-0.234-0.234-0.234H7.491c-0.129,0-0.234,0.105-0.234,0.234
	s0.105,0.234,0.234,0.234H13.395z"/>
<path d="M13.395,17.983c0.129,0,0.234-0.105,0.234-0.234c0-0.129-0.105-0.234-0.234-0.234H7.491c-0.129,0-0.234,0.105-0.234,0.234
	c0,0.129,0.105,0.234,0.234,0.234H13.395z"/>
<path d="M12.032,24.379c0.845,0,1.683,0.281,2.359,0.79l1.468,1.106c0.08,0.061,0.201,0.061,0.282,0l1.467-1.106
	c0.676-0.509,1.514-0.79,2.359-0.79h8.883c0.129,0,0.233-0.105,0.233-0.234V8.893c0-0.129-0.104-0.234-0.233-0.234h-1.503V5.912
	c0-0.129-0.105-0.234-0.234-0.234h-7.181c-1.376,0-2.729,0.472-3.808,1.33L16,7.106l-0.125-0.099
	c-1.079-0.857-2.432-1.33-3.809-1.33H4.886c-0.129,0-0.234,0.105-0.234,0.234v2.747H3.15c-0.129,0-0.234,0.105-0.234,0.234v15.252
	c0,0.129,0.105,0.234,0.234,0.234H12.032z M16.234,7.522l0.072-0.06c1.016-0.849,2.304-1.316,3.627-1.316h6.947v15.508h-6.911
	c-1.204,0-2.42,0.371-3.423,1.046l-0.312,0.209V7.522z M5.12,6.146h6.947c1.324,0,2.612,0.467,3.627,1.316l0.072,0.06v15.387
	L15.454,22.7c-1.003-0.675-2.219-1.046-3.423-1.046H5.12V6.146z M3.384,9.127h1.269v12.761c0,0.129,0.105,0.234,0.234,0.234h7.145
	c1.221,0,2.43,0.405,3.405,1.14l0.423,0.318h0.017l0.065,0.038l0.06,0.009l0.132-0.046l0.43-0.319
	c0.975-0.735,2.185-1.14,3.406-1.14h7.145c0.129,0,0.234-0.105,0.234-0.234V9.127h1.269v14.784h-8.648
	c-0.946,0-1.884,0.314-2.642,0.884l-1.326,1l-1.327-1c-0.756-0.57-1.695-0.884-2.641-0.884H3.384V9.127z"/>
</svg>
