<?xml version="1.0" encoding="UTF-8"?>
<svg xmlns="http://www.w3.org/2000/svg" width="32" height="32" version="1.1" viewBox="0 0 32 32">
  <!-- Generator: Adobe Illustrator 28.7.1, SVG Export Plug-In . SVG Version: 1.2.0 Build 142)  -->
  <g>
    <g id="Layer_1">
      <path d="M24.633,24.612c-1.947,1.943-4.497,3.166-7.231,3.468-.434.047-.869.07-1.305.07-2.256.001-4.467-.627-6.386-1.813-.17-.107-.223-.331-.116-.501.106-.17.33-.223.5-.116,3.095,1.918,6.922,2.239,10.292.859,3.371-1.379,5.876-4.289,6.737-7.827s-.025-7.276-2.384-10.049v1.142h0c.003.098-.034.193-.103.264-.069.07-.162.11-.261.11-.098,0-.191-.04-.26-.11-.069-.071-.106-.166-.103-.265v-2.071c0-.022.003-.045.007-.067v-.004c.004-.021.011-.042.018-.062v-.005c.011-.021.021-.041.033-.059l.003-.004c.013-.02.028-.038.045-.055.017-.017.036-.032.055-.045l.004-.003h.001c.018-.012.038-.022.058-.032h.005c.02-.008.041-.015.063-.018h.003c.021-.004.045-.007.067-.007h2.071c.098-.003.194.034.264.103.071.069.111.162.111.261,0,.098-.04.191-.111.26-.07.069-.166.106-.264.103h-1.236c2.003,2.311,3.057,5.294,2.949,8.351-.107,3.055-1.367,5.958-3.526,8.123h0ZM7.959,24.365v-.005h0c.008-.02.015-.041.018-.062v-.004c.004-.022.007-.045.007-.067v-2.071c-.005-.197-.166-.352-.363-.352s-.358.156-.364.352v1.142c-2.385-2.803-3.265-6.59-2.36-10.158.905-3.567,3.483-6.476,6.916-7.804,3.434-1.327,7.298-.909,10.368,1.121.168.111.392.066.503-.102.111-.168.066-.393-.102-.504-3.278-2.166-7.406-2.605-11.067-1.174-3.661,1.43-6.397,4.552-7.338,8.368-.939,3.817.034,7.851,2.612,10.818h-1.237c-.201,0-.363.164-.363.364s.162.363.363.363h2.073c.022,0,.046-.001.067-.007h.004c.022-.004.044-.011.063-.018h.004c.021-.008.041-.018.059-.03l.004-.003c.04-.026.074-.061.102-.102l.003-.004c.012-.02.021-.04.029-.061,0,0,0,0,0,0ZM16.363,22.132v-1.011c1.706-.146,3.037-1.317,3.037-2.736,0-1.516-1.525-2.751-3.401-2.751-1.475,0-2.674-.908-2.674-2.024.001-1.115,1.2-2.021,2.675-2.021.867-.03,1.702.325,2.281.971.127.152.354.174.508.049.154-.125.179-.352.055-.508-.629-.723-1.524-1.164-2.482-1.222v-1.012c0-.201-.162-.363-.363-.363s-.363.162-.363.363v1.011c-1.704.146-3.037,1.317-3.037,2.736,0,1.516,1.525,2.751,3.401,2.751,1.475,0,2.674.908,2.674,2.024-.001,1.115-1.2,2.021-2.675,2.021-.867.03-1.702-.326-2.281-.971-.059-.078-.148-.128-.245-.139-.098-.012-.195.016-.272.078s-.124.152-.133.249c-.008.098.022.195.087.269.629.724,1.524,1.165,2.481,1.223v1.013c0,.201.162.364.363.364s.363-.164.363-.364c0,0,0-.001,0-.001ZM31.198,16c0,4.03-1.602,7.896-4.451,10.746-2.851,2.85-6.716,4.451-10.746,4.451s-7.896-1.602-10.746-4.451c-2.85-2.851-4.451-6.716-4.451-10.746s1.602-7.896,4.451-10.746C8.104,2.404,11.97.802,16,.802c4.029.004,7.892,1.607,10.741,4.456,2.85,2.849,4.453,6.712,4.456,10.741ZM30.471,16c0-3.838-1.524-7.518-4.239-10.232-2.714-2.715-6.394-4.239-10.232-4.239s-7.518,1.524-10.232,4.239C3.053,8.482,1.529,12.162,1.529,16s1.524,7.518,4.239,10.232c2.714,2.715,6.395,4.239,10.232,4.239,3.836-.004,7.514-1.53,10.228-4.242,2.712-2.714,4.239-6.392,4.243-10.228,0,0,0,0,0,0ZM16,25.37c-2.485,0-4.869-.988-6.626-2.745-1.757-1.757-2.744-4.141-2.744-6.625s.987-4.869,2.745-6.626c1.757-1.757,4.14-2.744,6.625-2.744s4.869.987,6.627,2.744c1.757,1.757,2.744,4.141,2.744,6.626-.003,2.484-.991,4.867-2.748,6.623-1.756,1.757-4.139,2.745-6.622,2.748,0,0,0,0,0,0ZM16,24.644c2.293,0,4.491-.91,6.112-2.532,1.621-1.621,2.532-3.819,2.532-6.112s-.91-4.491-2.532-6.112c-1.621-1.621-3.819-2.532-6.112-2.532s-4.491.91-6.112,2.532c-1.621,1.621-2.532,3.819-2.532,6.112.003,2.292.914,4.489,2.534,6.109,1.62,1.62,3.818,2.532,6.109,2.534,0,0,0,0,0,0Z"/>
    </g>
  </g>
</svg>