<?xml version="1.0" encoding="UTF-8"?>
<svg xmlns="http://www.w3.org/2000/svg" width="84" height="84" version="1.1" viewBox="0 0 84 84">
  <defs>
    <style>
      .cls-1 {
        fill: #1a0b27;
      }

      .cls-2 {
        fill: #f5821f;
      }
    </style>
  </defs>
  <!-- Generator: Adobe Illustrator 28.7.1, SVG Export Plug-In . SVG Version: 1.2.0 Build 142)  -->
  <g>
    <g id="Layer_1">
      <g>
        <path class="cls-2" d="M998.737,1226.176c-.305,0-.588-.195-.685-.501l-13.724-42.986c-.121-.379.088-.784.467-.904.379-.121.784.088.904.467l13.724,42.986c.121.379-.088.784-.467.904-.073.023-.147.034-.219.034Z"/>
        <path class="cls-2" d="M967.328,1226.176c-.07,0-.142-.01-.213-.032-.38-.117-.592-.52-.475-.9l13.311-43.099c.117-.38.52-.593.9-.475.38.117.592.52.475.9l-13.311,43.099c-.095.309-.38.507-.687.507Z"/>
        <path class="cls-2" d="M982.762,1183.354c-2.337,0-4.238-1.901-4.238-4.238s1.901-4.238,4.238-4.238,4.238,1.901,4.238,4.238-1.901,4.238-4.238,4.238ZM982.762,1176.318c-1.543,0-2.799,1.255-2.799,2.799s1.256,2.799,2.799,2.799,2.799-1.255,2.799-2.799-1.255-2.799-2.799-2.799Z"/>
        <path class="cls-2" d="M977.521,1185.532c-.174,0-.349-.063-.487-.19-1.736-1.598-2.732-3.867-2.732-6.226,0-4.665,3.795-8.46,8.46-8.46s8.459,3.795,8.459,8.46c0,2.26-.88,4.384-2.478,5.982-.281.281-.737.281-1.018,0-.281-.281-.281-.737,0-1.018,1.326-1.326,2.056-3.089,2.056-4.964,0-3.871-3.149-7.02-7.02-7.02s-7.021,3.149-7.021,7.02c0,1.957.827,3.84,2.268,5.167.292.269.311.724.042,1.017-.142.154-.335.232-.53.232Z"/>
        <path class="cls-2" d="M989.839,1190.273c-.23,0-.456-.11-.595-.314-.224-.328-.139-.776.189-1,3.253-2.217,5.195-5.888,5.195-9.819,0-2.862-1.032-5.626-2.907-7.783-.261-.3-.229-.755.071-1.015.3-.261.755-.229,1.015.071,2.102,2.419,3.259,5.519,3.259,8.727,0,4.407-2.177,8.522-5.823,11.008-.124.085-.265.125-.405.125Z"/>
        <path class="cls-2" d="M970.437,1177.225c-.05,0-.1-.005-.151-.016-.389-.083-.637-.465-.554-.854,1.299-6.101,6.775-10.529,13.021-10.529,3.001,0,5.835.975,8.194,2.819.313.245.368.697.124,1.01-.244.313-.697.369-1.01.124-2.103-1.645-4.63-2.514-7.307-2.514-5.571,0-10.455,3.949-11.613,9.389-.072.338-.371.57-.703.57Z"/>
        <path class="cls-2" d="M975.864,1190.404c-.135,0-.272-.038-.393-.118-3.042-1.992-5.161-5.176-5.812-8.736-.072-.391.187-.766.578-.837.391-.072.766.188.837.578.58,3.174,2.47,6.014,5.185,7.791.332.218.426.664.208.996-.138.211-.368.326-.603.326Z"/>
        <path class="cls-2" d="M991.413,1195.222c-.251,0-.495-.132-.627-.366-.196-.346-.073-.785.273-.981,5.309-2.999,8.607-8.645,8.607-14.735,0-8.487-6.338-15.698-14.743-16.773-.394-.05-.673-.411-.623-.805.05-.394.414-.672.805-.622,9.121,1.167,15.999,8.992,15.999,18.201,0,6.609-3.578,12.735-9.338,15.988-.112.063-.233.093-.353.093Z"/>
        <path class="cls-2" d="M974.163,1195.26c-.119,0-.24-.029-.351-.092-5.804-3.244-9.409-9.386-9.409-16.029,0-4.574,1.693-8.956,4.767-12.339,3.053-3.359,7.211-5.46,11.708-5.917.392-.039.749.248.789.643.04.395-.248.749-.643.789-4.143.421-7.974,2.357-10.788,5.453-2.833,3.117-4.393,7.155-4.393,11.37,0,6.122,3.323,11.782,8.672,14.772.347.194.471.632.277.979-.132.236-.377.369-.629.369Z"/>
        <path class="cls-2" d="M993.029,1200.072c-.262,0-.515-.144-.642-.393-.18-.354-.04-.788.315-.968,7.403-3.77,12.001-11.269,12.001-19.571,0-12.102-9.846-21.949-21.949-21.949-.397,0-.72-.322-.72-.72s.322-.72.72-.72c12.896,0,23.388,10.492,23.388,23.388,0,8.845-4.9,16.836-12.787,20.853-.105.053-.216.079-.326.079Z"/>
        <path class="cls-2" d="M972.864,1200.263c-.105,0-.212-.023-.314-.072-3.892-1.89-7.184-4.82-9.518-8.474-2.398-3.753-3.666-8.102-3.666-12.577,0-4.803,1.445-9.418,4.179-13.346,2.671-3.838,6.377-6.761,10.717-8.453.37-.144.787.039.932.409s-.039.787-.409.932c-4.073,1.588-7.551,4.331-10.059,7.934-2.565,3.686-3.921,8.016-3.921,12.524,0,4.199,1.19,8.28,3.44,11.802,2.192,3.429,5.281,6.18,8.934,7.954.358.174.507.604.333.962-.124.256-.381.405-.648.405Z"/>
        <path class="cls-2" d="M994.555,1204.934c-.27,0-.529-.153-.651-.413-.17-.359-.015-.788.344-.958,4.566-2.152,8.432-5.535,11.18-9.783,2.821-4.36,4.312-9.422,4.312-14.64,0-6.254-2.189-12.35-6.162-17.165-.253-.307-.209-.76.097-1.013.306-.253.76-.21,1.013.097,4.186,5.072,6.491,11.494,6.491,18.081,0,5.495-1.571,10.828-4.543,15.422-2.895,4.474-6.966,8.037-11.775,10.304-.099.047-.204.069-.306.069Z"/>
        <path class="cls-2" d="M955.112,1177.976c-.016,0-.033,0-.049-.002-.397-.027-.696-.37-.67-.766.482-7.18,3.646-13.855,8.909-18.796,5.287-4.964,12.195-7.697,19.451-7.697,6.733,0,13.264,2.397,18.388,6.748.303.257.34.711.083,1.014-.257.303-.711.34-1.014.083-4.865-4.131-11.065-6.406-17.457-6.406-6.889,0-13.447,2.595-18.466,7.307-4.997,4.691-8.001,11.028-8.458,17.843-.026.38-.342.671-.717.671Z"/>
        <path class="cls-2" d="M970.96,1204.937c-.103,0-.207-.022-.306-.069-9.326-4.394-15.556-13.498-16.258-23.76-.027-.396.272-.74.669-.767.396-.028.74.272.767.669.666,9.742,6.581,18.385,15.435,22.556.36.169.514.598.344.958-.123.26-.382.413-.652.413Z"/>
        <path class="cls-2" d="M996.142,1209.75c-.275,0-.537-.158-.657-.425-.163-.363,0-.788.362-.951,11.5-5.158,18.93-16.633,18.93-29.234,0-8.169-3.076-15.947-8.661-21.902-5.559-5.928-13.071-9.496-21.152-10.046-.396-.027-.696-.37-.669-.767.027-.397.37-.696.767-.669,8.445.576,16.295,4.304,22.104,10.498,5.836,6.223,9.05,14.351,9.05,22.887,0,13.166-7.764,25.157-19.781,30.547-.096.043-.196.063-.294.063Z"/>
        <path class="cls-2" d="M969.366,1209.75c-.098,0-.199-.02-.294-.063-12.016-5.39-19.781-17.381-19.781-30.547,0-17.774,13.889-32.451,31.621-33.413.395-.021.736.283.758.68.021.397-.283.736-.68.758-16.968.921-30.26,14.966-30.26,31.976,0,12.6,7.431,24.075,18.931,29.234.363.163.525.588.362.951-.12.267-.382.425-.657.425Z"/>
        <path class="cls-2" d="M967.726,1214.533c-.096,0-.193-.019-.286-.06-14.085-6.113-23.186-19.982-23.186-35.334,0-21.229,17.271-38.5,38.5-38.5s38.5,17.271,38.5,38.5c0,15.35-9.1,29.219-23.183,35.333-.364.158-.788-.009-.947-.374s.009-.788.374-.947c13.557-5.885,22.317-19.236,22.317-34.012,0-20.435-16.626-37.061-37.061-37.061s-37.061,16.625-37.061,37.061c0,14.778,8.761,28.129,22.32,34.013.364.158.532.582.374.947-.118.271-.383.433-.66.433Z"/>
        <path class="cls-2" d="M998.946,1226.276h-31.663c-.397,0-.72-.322-.72-.72s.322-.72.72-.72h31.663c.397,0,.72.322.72.72s-.322.72-.72.72Z"/>
        <path class="cls-2" d="M982.762,1226.276c-.397,0-.72-.322-.72-.72v-42.922c0-.397.322-.72.72-.72s.72.322.72.72v42.922c0,.397-.322.72-.72.72Z"/>
        <path class="cls-2" d="M967.727,1225.518c-.25,0-.493-.13-.625-.362-.197-.345-.078-.785.267-.982l14.222-8.134-8.005-11.67c-.197-.287-.16-.674.087-.919l8.137-8.054-3.32-6.7c-.176-.356-.031-.788.325-.964.356-.177.788-.031.964.325l3.551,7.165c.138.278.082.613-.138.831l-8.079,7.997,8.107,11.818c.114.166.153.372.108.568-.045.196-.17.364-.344.464l-14.9,8.522c-.113.064-.236.095-.357.095Z"/>
        <path class="cls-2" d="M997.783,1225.518c-.121,0-.244-.031-.357-.095l-14.9-8.522c-.174-.1-.299-.268-.344-.464-.045-.196-.006-.402.108-.568l8.107-11.818-8.079-7.997c-.221-.218-.276-.553-.139-.831l3.551-7.165c.176-.356.608-.502.964-.325.356.176.502.608.325.964l-3.321,6.7,8.137,8.054c.247.245.284.632.087.919l-8.005,11.67,14.222,8.134c.345.197.465.637.267.982-.133.232-.376.362-.625.362Z"/>
      </g>
      <path class="cls-1" d="M83.181,45.187c0-2.365-1.561-4.362-3.73-4.995-.026-1.048-.096-2.103-.208-3.152-.918-8.511-4.719-16.454-10.736-22.493.366-.722.565-1.525.565-2.349,0-2.87-2.334-5.205-5.203-5.205-1.311,0-2.552.491-3.5,1.353-6.867-3.896-14.635-5.505-22.538-4.652-1.26.136-2.521.338-3.763.6-.819-1.367-2.237-2.308-3.866-2.496-1.381-.159-2.741.229-3.83,1.094-1.088.864-1.775,2.101-1.934,3.483-.052.455-.042.915.025,1.365-1.585.828-3.115,1.773-4.568,2.822-.892-.672-1.982-1.044-3.126-1.044-2.869,0-5.203,2.335-5.203,5.205,0,1.051.32,2.068.901,2.923-5.442,6.823-8.325,15.248-8.193,23.951-2.033.721-3.454,2.647-3.454,4.898,0,2.792,2.211,5.077,4.974,5.197,2.488,8.496,7.864,15.782,15.275,20.702-.098.401-.148.814-.148,1.228,0,2.869,2.335,5.203,5.205,5.203,1.614,0,3.119-.757,4.092-1.994,3.749,1.225,7.637,1.845,11.59,1.845.088,0,.176-.002.264-.002.693,2.075,2.66,3.567,4.933,3.567,2.807,0,5.102-2.234,5.2-5.016,6.342-1.806,12.098-5.257,16.703-10.03,4.549-4.715,7.779-10.509,9.389-16.813,2.721-.165,4.884-2.43,4.884-5.192ZM76.811,40.116c-.713.163-1.38.473-1.962.913-3.088-2.383-6.453-4.718-10.031-6.959.169-.518.26-1.061.26-1.614,0-1.884-1.02-3.585-2.593-4.498.992-3.453,1.727-7.015,2.192-10.62.747-.117,1.456-.395,2.079-.811,5.527,5.599,9.018,12.938,9.866,20.797.1.93.162,1.865.189,2.794ZM45.718,59.097c-.115.017-.24.026-.372.026-.682,0-1.324-.265-1.809-.747-.489-.484-.758-1.132-.758-1.822,0-1.264.94-2.355,2.193-2.541.115-.017.241-.026.374-.026.559,0,1.092.177,1.542.512.652.492,1.025,1.24,1.025,2.055,0,1.265-.941,2.358-2.195,2.543ZM47.332,51.745c-.465-.192-.955-.314-1.461-.364-1.568-8.614-3.921-17.295-7.003-25.84.506-.33.95-.745,1.313-1.227,5.108,2.171,10.015,4.518,14.62,6.993-.085.377-.13.763-.13,1.149,0,1.566.718,3.034,1.894,4.01-2.367,5.265-5.468,10.395-9.233,15.279ZM21.531,12.63c1.268-.909,2.598-1.732,3.973-2.461.847,1.084,2.101,1.805,3.505,1.966.199.023.398.035.598.035.294,0,.587-.026.877-.076.779,1.68,1.532,3.374,2.252,5.062-.363.295-.682.635-.951,1.013-3.226-1.181-6.516-2.294-9.817-3.321.001-.042.004-.084.004-.126,0-.724-.154-1.437-.441-2.092ZM33.766,22.411c-.253-.465-.355-.992-.294-1.524.024-.212.075-.419.155-.626.233-.612.712-1.125,1.312-1.406.34-.158.708-.239,1.081-.239.098,0,.197.006.296.017.878.101,1.633.637,2.018,1.431,0,0,0,.001,0,.002.213.438.296.927.241,1.41-.028.236-.085.462-.172.675-.285.702-.862,1.24-1.589,1.477-.347.114-.711.15-1.086.107-.829-.095-1.563-.59-1.963-1.323ZM59.203,14.495c.588,1.185,1.616,2.11,2.852,2.574-.449,3.459-1.157,6.875-2.11,10.186-.024,0-.048-.002-.072-.002-1.497,0-2.886.635-3.859,1.714-4.675-2.512-9.655-4.892-14.835-7.092.004-.032.011-.063.014-.095.061-.526.038-1.054-.06-1.568,5.645-2.483,11.713-4.402,18.07-5.716ZM58.783,34.781c-.897-.423-1.477-1.335-1.477-2.326,0-.407.098-.814.281-1.172.444-.86,1.32-1.395,2.286-1.395.231,0,.456.03.667.088.003,0,.006.002.009.002,1.115.301,1.894,1.319,1.894,2.477,0,.498-.143.98-.416,1.398-.475.733-1.28,1.171-2.153,1.171-.382,0-.748-.081-1.09-.244ZM63.868,9.629c1.415,0,2.567,1.153,2.567,2.57,0,.617-.22,1.21-.624,1.676-.487.567-1.195.892-1.943.892-.072,0-.153-.004-.241-.012-1.116-.101-2.052-.94-2.278-2.047-.034-.16-.051-.331-.051-.508,0-.512.15-1.007.435-1.433.48-.712,1.278-1.137,2.135-1.137ZM38.113,6.314c7.298-.789,14.467.681,20.817,4.246-.144.436-.231.89-.256,1.354-6.565,1.357-12.836,3.344-18.671,5.916-.843-1.004-2.042-1.66-3.384-1.815-.498-.058-.997-.042-1.485.043-.72-1.685-1.472-3.376-2.249-5.053,1.042-.848,1.736-2.084,1.89-3.444.028-.244.037-.488.031-.73,1.093-.224,2.201-.398,3.307-.517ZM27.054,6.674c.078-.682.418-1.293.955-1.719.458-.364,1.014-.557,1.59-.557.099,0,.199.006.299.017,1.011.117,1.858.818,2.158,1.787,0,0,0,0,0,.001.106.342.139.698.098,1.058-.103.906-.662,1.671-1.496,2.046-.421.19-.887.262-1.35.209-.931-.107-1.729-.712-2.084-1.58-.164-.402-.222-.827-.172-1.262ZM16.767,12.152c.779,0,1.509.348,2.001.955.372.46.569,1.019.569,1.615,0,.235-.032.468-.097.696-.308,1.102-1.325,1.872-2.473,1.872-.63,0-1.236-.231-1.707-.648-.547-.487-.861-1.186-.861-1.919,0-1.417,1.152-2.57,2.567-2.57ZM14.453,19.38c.714.355,1.504.544,2.314.544,1.861,0,3.55-1.001,4.471-2.543,3.232,1.007,6.453,2.096,9.612,3.252-.066.623-.02,1.242.132,1.837-8.37,4.949-16.014,11.44-22.751,19.318-.421-.196-.867-.335-1.324-.415-.079-7.986,2.572-15.713,7.547-21.992ZM3.454,46.493c0-1.321.989-2.419,2.297-2.554.088-.009.178-.013.27-.013.605,0,1.171.204,1.636.59,0,0,.001.001.002.002.591.488.93,1.208.93,1.975,0,1.224-.87,2.284-2.07,2.52-.159.032-.326.047-.497.047-1.415,0-2.567-1.152-2.567-2.567ZM8.377,51.131c1.708-.87,2.848-2.645,2.848-4.637,0-1.099-.344-2.149-.968-3.021,6.525-7.624,13.918-13.907,22.004-18.698.831.87,1.949,1.438,3.169,1.578.203.023.405.035.606.035.111,0,.221-.006.332-.013,3.036,8.405,5.354,16.943,6.9,25.413-1.848.813-3.124,2.673-3.124,4.767,0,.957.256,1.873.734,2.67-3.397,3.545-7.244,7.026-11.461,10.371-.92-.751-2.081-1.178-3.291-1.178-1.47,0-2.833.608-3.8,1.644-6.735-4.537-11.635-11.187-13.949-18.931ZM26.125,76.187c-1.417,0-2.57-1.152-2.57-2.567,0-.404.097-.807.282-1.167.44-.863,1.316-1.4,2.287-1.4.828,0,1.611.404,2.094,1.081.31.435.473.948.473,1.486,0,.375-.079.736-.235,1.074-.418.907-1.333,1.493-2.332,1.493ZM31.269,74.398c.038-.256.059-.515.059-.778,0-.657-.123-1.296-.357-1.894,4.334-3.432,8.292-7.009,11.788-10.656.608.35,1.281.572,1.986.653.391,3.428.665,6.887.817,10.314-1.85.54-3.284,2.09-3.662,3.997-3.625.009-7.19-.54-10.631-1.637ZM47.004,79.602c-1.335,0-2.46-1.041-2.559-2.359-.005-.068-.008-.137-.008-.209,0-1.39,1.128-2.542,2.515-2.568.003,0,.005,0,.008,0,.005,0,.01,0,.015,0,.004,0,.008,0,.011,0,.013,0,.025,0,.038-.002-.011,0-.02.002-.02.002,1.211,0,2.268.857,2.514,2.038,0,.002,0,.003,0,.005.037.175.055.347.055.527,0,1.415-1.153,2.567-2.57,2.567ZM67.011,65.362c-4.247,4.402-9.546,7.597-15.385,9.287-.695-1.34-1.954-2.323-3.429-2.674-.155-3.531-.438-7.094-.842-10.625,1.885-.798,3.194-2.676,3.194-4.796,0-1.172-.405-2.306-1.117-3.216,3.877-5.032,7.075-10.324,9.523-15.76.301.054.607.082.919.082,1.327,0,2.576-.499,3.523-1.372,3.505,2.195,6.799,4.479,9.82,6.809-.287.655-.44,1.367-.44,2.089,0,2.038,1.178,3.837,2.933,4.684-1.51,5.806-4.501,11.141-8.698,15.491ZM77.978,47.754c-.157,0-.311-.014-.469-.045-1.216-.221-2.098-1.282-2.098-2.523,0-.588.193-1.141.559-1.599.491-.616,1.223-.97,2.008-.97.035,0,.071.002.106.003,0,0,.006,0,.008,0,1.375.058,2.453,1.185,2.453,2.566,0,1.416-1.152,2.567-2.567,2.567Z"/>
    </g>
  </g>
</svg>