<?xml version="1.0" encoding="UTF-8"?>
<svg xmlns="http://www.w3.org/2000/svg" width="84" height="84" version="1.1" viewBox="0 0 84 84">
  <defs>
    <style>
      .cls-1 {
        fill: #1a0b27;
      }

      .cls-2 {
        fill: #f5821f;
      }
    </style>
  </defs>
  <!-- Generator: Adobe Illustrator 28.7.1, SVG Export Plug-In . SVG Version: 1.2.0 Build 142)  -->
  <g>
    <g id="Layer_1">
      <g>
        <path class="cls-2" d="M998.737,1226.176c-.305,0-.588-.195-.685-.501l-13.724-42.986c-.121-.379.088-.784.467-.904.379-.121.784.088.904.467l13.724,42.986c.121.379-.088.784-.467.904-.073.023-.147.034-.219.034Z"/>
        <path class="cls-2" d="M967.328,1226.176c-.07,0-.142-.01-.213-.032-.38-.117-.592-.52-.475-.9l13.311-43.099c.117-.38.52-.593.9-.475.38.117.592.52.475.9l-13.311,43.099c-.095.309-.38.507-.687.507Z"/>
        <path class="cls-2" d="M982.762,1183.354c-2.337,0-4.238-1.901-4.238-4.238s1.901-4.238,4.238-4.238,4.238,1.901,4.238,4.238-1.901,4.238-4.238,4.238ZM982.762,1176.318c-1.543,0-2.799,1.255-2.799,2.799s1.256,2.799,2.799,2.799,2.799-1.255,2.799-2.799-1.255-2.799-2.799-2.799Z"/>
        <path class="cls-2" d="M977.521,1185.532c-.174,0-.349-.063-.487-.19-1.736-1.598-2.732-3.867-2.732-6.226,0-4.665,3.795-8.46,8.46-8.46s8.459,3.795,8.459,8.46c0,2.26-.88,4.384-2.478,5.982-.281.281-.737.281-1.018,0-.281-.281-.281-.737,0-1.018,1.326-1.326,2.056-3.089,2.056-4.964,0-3.871-3.149-7.02-7.02-7.02s-7.021,3.149-7.021,7.02c0,1.957.827,3.84,2.268,5.167.292.269.311.724.042,1.017-.142.154-.335.232-.53.232Z"/>
        <path class="cls-2" d="M989.839,1190.273c-.23,0-.456-.11-.595-.314-.224-.328-.139-.776.189-1,3.253-2.217,5.195-5.888,5.195-9.819,0-2.862-1.032-5.626-2.907-7.783-.261-.3-.229-.755.071-1.015.3-.261.755-.229,1.015.071,2.102,2.419,3.259,5.519,3.259,8.727,0,4.407-2.177,8.522-5.823,11.008-.124.085-.265.125-.405.125Z"/>
        <path class="cls-2" d="M970.437,1177.225c-.05,0-.1-.005-.151-.016-.389-.083-.637-.465-.554-.854,1.299-6.101,6.775-10.529,13.021-10.529,3.001,0,5.835.975,8.194,2.819.313.245.368.697.124,1.01-.244.313-.697.369-1.01.124-2.103-1.645-4.63-2.514-7.307-2.514-5.571,0-10.455,3.949-11.613,9.389-.072.338-.371.57-.703.57Z"/>
        <path class="cls-2" d="M975.864,1190.404c-.135,0-.272-.038-.393-.118-3.042-1.992-5.161-5.176-5.812-8.736-.072-.391.187-.766.578-.837.391-.072.766.188.837.578.58,3.174,2.47,6.014,5.185,7.791.332.218.426.664.208.996-.138.211-.368.326-.603.326Z"/>
        <path class="cls-2" d="M991.413,1195.222c-.251,0-.495-.132-.627-.366-.196-.346-.073-.785.273-.981,5.309-2.999,8.607-8.645,8.607-14.735,0-8.487-6.338-15.698-14.743-16.773-.394-.05-.673-.411-.623-.805.05-.394.414-.672.805-.622,9.121,1.167,15.999,8.992,15.999,18.201,0,6.609-3.578,12.735-9.338,15.988-.112.063-.233.093-.353.093Z"/>
        <path class="cls-2" d="M974.163,1195.26c-.119,0-.24-.029-.351-.092-5.804-3.244-9.409-9.386-9.409-16.029,0-4.574,1.693-8.956,4.767-12.339,3.053-3.359,7.211-5.46,11.708-5.917.392-.039.749.248.789.643.04.395-.248.749-.643.789-4.143.421-7.974,2.357-10.788,5.453-2.833,3.117-4.393,7.155-4.393,11.37,0,6.122,3.323,11.782,8.672,14.772.347.194.471.632.277.979-.132.236-.377.369-.629.369Z"/>
        <path class="cls-2" d="M993.029,1200.072c-.262,0-.515-.144-.642-.393-.18-.354-.04-.788.315-.968,7.403-3.77,12.001-11.269,12.001-19.571,0-12.102-9.846-21.949-21.949-21.949-.397,0-.72-.322-.72-.72s.322-.72.72-.72c12.896,0,23.388,10.492,23.388,23.388,0,8.845-4.9,16.836-12.787,20.853-.105.053-.216.079-.326.079Z"/>
        <path class="cls-2" d="M972.864,1200.263c-.105,0-.212-.023-.314-.072-3.892-1.89-7.184-4.82-9.518-8.474-2.398-3.753-3.666-8.102-3.666-12.577,0-4.803,1.445-9.418,4.179-13.346,2.671-3.838,6.377-6.761,10.717-8.453.37-.144.787.039.932.409s-.039.787-.409.932c-4.073,1.588-7.551,4.331-10.059,7.934-2.565,3.686-3.921,8.016-3.921,12.524,0,4.199,1.19,8.28,3.44,11.802,2.192,3.429,5.281,6.18,8.934,7.954.358.174.507.604.333.962-.124.256-.381.405-.648.405Z"/>
        <path class="cls-2" d="M994.555,1204.934c-.27,0-.529-.153-.651-.413-.17-.359-.015-.788.344-.958,4.566-2.152,8.432-5.535,11.18-9.783,2.821-4.36,4.312-9.422,4.312-14.64,0-6.254-2.189-12.35-6.162-17.165-.253-.307-.209-.76.097-1.013.306-.253.76-.21,1.013.097,4.186,5.072,6.491,11.494,6.491,18.081,0,5.495-1.571,10.828-4.543,15.422-2.895,4.474-6.966,8.037-11.775,10.304-.099.047-.204.069-.306.069Z"/>
        <path class="cls-2" d="M955.112,1177.976c-.016,0-.033,0-.049-.002-.397-.027-.696-.37-.67-.766.482-7.18,3.646-13.855,8.909-18.796,5.287-4.964,12.195-7.697,19.451-7.697,6.733,0,13.264,2.397,18.388,6.748.303.257.34.711.083,1.014-.257.303-.711.34-1.014.083-4.865-4.131-11.065-6.406-17.457-6.406-6.889,0-13.447,2.595-18.466,7.307-4.997,4.691-8.001,11.028-8.458,17.843-.026.38-.342.671-.717.671Z"/>
        <path class="cls-2" d="M970.96,1204.937c-.103,0-.207-.022-.306-.069-9.326-4.394-15.556-13.498-16.258-23.76-.027-.396.272-.74.669-.767.396-.028.74.272.767.669.666,9.742,6.581,18.385,15.435,22.556.36.169.514.598.344.958-.123.26-.382.413-.652.413Z"/>
        <path class="cls-2" d="M996.142,1209.75c-.275,0-.537-.158-.657-.425-.163-.363,0-.788.362-.951,11.5-5.158,18.93-16.633,18.93-29.234,0-8.169-3.076-15.947-8.661-21.902-5.559-5.928-13.071-9.496-21.152-10.046-.396-.027-.696-.37-.669-.767.027-.397.37-.696.767-.669,8.445.576,16.295,4.304,22.104,10.498,5.836,6.223,9.05,14.351,9.05,22.887,0,13.166-7.764,25.157-19.781,30.547-.096.043-.196.063-.294.063Z"/>
        <path class="cls-2" d="M969.366,1209.75c-.098,0-.199-.02-.294-.063-12.016-5.39-19.781-17.381-19.781-30.547,0-17.774,13.889-32.451,31.621-33.413.395-.021.736.283.758.68.021.397-.283.736-.68.758-16.968.921-30.26,14.966-30.26,31.976,0,12.6,7.431,24.075,18.931,29.234.363.163.525.588.362.951-.12.267-.382.425-.657.425Z"/>
        <path class="cls-2" d="M967.726,1214.533c-.096,0-.193-.019-.286-.06-14.085-6.113-23.186-19.982-23.186-35.334,0-21.229,17.271-38.5,38.5-38.5s38.5,17.271,38.5,38.5c0,15.35-9.1,29.219-23.183,35.333-.364.158-.788-.009-.947-.374s.009-.788.374-.947c13.557-5.885,22.317-19.236,22.317-34.012,0-20.435-16.626-37.061-37.061-37.061s-37.061,16.625-37.061,37.061c0,14.778,8.761,28.129,22.32,34.013.364.158.532.582.374.947-.118.271-.383.433-.66.433Z"/>
        <path class="cls-2" d="M998.946,1226.276h-31.663c-.397,0-.72-.322-.72-.72s.322-.72.72-.72h31.663c.397,0,.72.322.72.72s-.322.72-.72.72Z"/>
        <path class="cls-2" d="M982.762,1226.276c-.397,0-.72-.322-.72-.72v-42.922c0-.397.322-.72.72-.72s.72.322.72.72v42.922c0,.397-.322.72-.72.72Z"/>
        <path class="cls-2" d="M967.727,1225.518c-.25,0-.493-.13-.625-.362-.197-.345-.078-.785.267-.982l14.222-8.134-8.005-11.67c-.197-.287-.16-.674.087-.919l8.137-8.054-3.32-6.7c-.176-.356-.031-.788.325-.964.356-.177.788-.031.964.325l3.551,7.165c.138.278.082.613-.138.831l-8.079,7.997,8.107,11.818c.114.166.153.372.108.568-.045.196-.17.364-.344.464l-14.9,8.522c-.113.064-.236.095-.357.095Z"/>
        <path class="cls-2" d="M997.783,1225.518c-.121,0-.244-.031-.357-.095l-14.9-8.522c-.174-.1-.299-.268-.344-.464-.045-.196-.006-.402.108-.568l8.107-11.818-8.079-7.997c-.221-.218-.276-.553-.139-.831l3.551-7.165c.176-.356.608-.502.964-.325.356.176.502.608.325.964l-3.321,6.7,8.137,8.054c.247.245.284.632.087.919l-8.005,11.67,14.222,8.134c.345.197.465.637.267.982-.133.232-.376.362-.625.362Z"/>
      </g>
      <path class="cls-1" d="M34.505,31.826c-.465-.514-1.259-.554-1.774-.088-.713.646-1.361,1.368-1.926,2.148-.406.562-.281,1.347.28,1.753.223.161.481.239.736.239.389,0,.773-.18,1.018-.519.462-.639.993-1.23,1.578-1.76.514-.465.553-1.26.088-1.773Z"/>
      <path class="cls-1" d="M31.854,50.63c.257,0,.516-.078.739-.242.56-.409.682-1.194.273-1.755-.465-.637-.864-1.324-1.186-2.042-.283-.633-1.028-.917-1.659-.633-.633.283-.916,1.026-.633,1.659.393.877.88,1.717,1.449,2.497.246.337.628.515,1.015.515Z"/>
      <path class="cls-1" d="M29.444,43.246c.693,0,1.256-.575,1.256-1.268,0-.783.08-1.566.24-2.327.142-.679-.294-1.344-.973-1.486-.676-.142-1.344.294-1.485.973-.194.93-.292,1.886-.292,2.84v.026c0,.693.562,1.243,1.256,1.243Z"/>
      <path class="cls-1" d="M38.476,31.237c.746-.245,1.522-.411,2.308-.495.689-.074,1.189-.692,1.115-1.382-.074-.69-.693-1.188-1.382-1.115-.959.103-1.909.307-2.823.606-.659.216-1.018.925-.802,1.584.174.529.665.865,1.193.865.129,0,.261-.02.391-.063Z"/>
      <path class="cls-1" d="M45.502,52.725c-.747.243-1.524.408-2.308.49-.69.073-1.19.69-1.118,1.38.068.645.613,1.124,1.248,1.124.044,0,.088-.002.132-.007.959-.101,1.909-.303,2.823-.601.659-.214,1.02-.923.806-1.582-.215-.659-.921-1.02-1.583-.805Z"/>
      <path class="cls-1" d="M53.455,38.082c.173,0,.348-.036.516-.111.632-.285.914-1.028.628-1.661-.395-.876-.884-1.714-1.454-2.492-.411-.559-1.195-.681-1.755-.27-.559.41-.68,1.196-.27,1.755.467.637.868,1.323,1.191,2.039.21.465.666.74,1.145.74Z"/>
      <path class="cls-1" d="M54.556,40.696c-.693,0-1.256.588-1.256,1.282,0,.791-.082,1.582-.245,2.35-.143.678.291,1.344.969,1.488.087.018.175.027.261.027.581,0,1.102-.405,1.227-.996.198-.938.299-1.904.299-2.869v-.052c0-.693-.562-1.229-1.256-1.229Z"/>
      <path class="cls-1" d="M35.108,53.949c.837.483,1.725.877,2.639,1.173.128.041.259.061.386.061.53,0,1.023-.338,1.195-.87.213-.66-.149-1.368-.809-1.581-.747-.242-1.473-.564-2.157-.958-.6-.347-1.368-.14-1.715.46-.346.601-.14,1.368.46,1.715Z"/>
      <path class="cls-1" d="M49.331,31.706c.345-.601.138-1.369-.463-1.714-.836-.48-1.725-.872-2.642-1.167-.661-.214-1.367.152-1.579.812-.212.66.151,1.367.812,1.579.75.241,1.476.561,2.159.954.197.113.412.167.624.167.435,0,.858-.226,1.09-.631Z"/>
      <path class="cls-1" d="M50.407,52.56c.3,0,.6-.107.841-.323.715-.645,1.364-1.367,1.929-2.145.408-.56.284-1.346-.277-1.753-.56-.409-1.346-.284-1.753.277-.463.637-.996,1.228-1.581,1.756-.515.465-.555,1.259-.091,1.774.248.275.59.414.933.414Z"/>
      <path class="cls-1" d="M42,36.955c-2.769,0-5.022,2.253-5.022,5.022s2.253,5.022,5.022,5.022,5.022-2.253,5.022-5.022-2.253-5.022-5.022-5.022ZM42,44.489c-1.385,0-2.511-1.126-2.511-2.511s1.126-2.511,2.511-2.511,2.511,1.127,2.511,2.511-1.126,2.511-2.511,2.511Z"/>
      <path class="cls-1" d="M42,1.798c-.693,0-1.256.562-1.256,1.256v17.103l-2.296-2.296c-.49-.49-1.285-.49-1.776,0-.49.49-.49,1.285,0,1.776l4.439,4.439c.245.245.567.368.888.368s.643-.123.888-.368l4.439-4.439c.49-.49.49-1.285,0-1.776-.49-.49-1.285-.49-1.776,0l-2.296,2.296V3.054c0-.693-.562-1.256-1.256-1.256Z"/>
      <path class="cls-1" d="M42,82.202c.693,0,1.256-.562,1.256-1.256v-17.103l2.296,2.296c.245.245.567.368.888.368s.643-.123.888-.368c.49-.49.49-1.285,0-1.775l-4.439-4.439c-.49-.49-1.285-.49-1.775,0l-4.439,4.439c-.49.49-.49,1.285,0,1.775.49.49,1.285.49,1.776,0l2.296-2.296v17.103c0,.693.562,1.256,1.256,1.256Z"/>
      <path class="cls-1" d="M80.946,40.744h-17.103l2.296-2.296c.49-.49.49-1.285,0-1.776-.49-.49-1.285-.49-1.775,0l-4.439,4.439c-.49.49-.49,1.285,0,1.776l4.439,4.439c.245.245.566.368.888.368s.643-.123.888-.368c.49-.49.49-1.285,0-1.775l-2.296-2.296h17.103c.693,0,1.256-.562,1.256-1.255s-.562-1.256-1.256-1.256Z"/>
      <path class="cls-1" d="M3.054,43.255h17.103l-2.296,2.296c-.49.49-.49,1.285,0,1.775.245.245.567.368.888.368s.643-.123.888-.368l4.439-4.439c.49-.49.49-1.286,0-1.776l-4.439-4.439c-.49-.49-1.285-.49-1.775,0-.49.49-.49,1.285,0,1.776l2.296,2.296H3.054c-.693,0-1.256.562-1.256,1.256s.562,1.255,1.256,1.255Z"/>
      <path class="cls-1" d="M62.836,55.302c0-.693-.562-1.256-1.256-1.256h-6.278c-.693,0-1.256.562-1.256,1.256v6.278c0,.693.562,1.256,1.256,1.256s1.256-.562,1.256-1.256v-3.247l12.094,12.094c.245.245.567.368.888.368s.643-.123.888-.368c.49-.49.49-1.285,0-1.775l-12.094-12.094h3.247c.693,0,1.256-.562,1.256-1.256Z"/>
      <path class="cls-1" d="M21.164,28.698c0,.693.562,1.256,1.256,1.256h6.278c.693,0,1.256-.562,1.256-1.256v-6.278c0-.693-.562-1.256-1.256-1.256s-1.256.562-1.256,1.256v3.247l-12.094-12.093c-.49-.49-1.285-.49-1.776,0-.49.49-.49,1.285,0,1.775l12.094,12.094h-3.247c-.693,0-1.256.562-1.256,1.256Z"/>
      <path class="cls-1" d="M70.427,13.573c-.49-.49-1.285-.49-1.776,0l-12.094,12.093v-3.247c0-.693-.562-1.256-1.256-1.256s-1.256.562-1.256,1.256v6.278c0,.693.562,1.256,1.256,1.256h6.278c.693,0,1.256-.562,1.256-1.256s-.562-1.256-1.256-1.256h-3.247l12.094-12.094c.49-.49.49-1.285,0-1.775Z"/>
      <path class="cls-1" d="M28.698,62.835c.693,0,1.256-.562,1.256-1.256v-6.278c0-.693-.562-1.256-1.256-1.256h-6.278c-.693,0-1.256.562-1.256,1.256s.562,1.256,1.256,1.256h3.247l-12.094,12.094c-.49.49-.49,1.285,0,1.775.245.245.567.368.888.368s.642-.123.888-.368l12.094-12.094v3.247c0,.693.562,1.256,1.256,1.256Z"/>
    </g>
  </g>
</svg>