<?xml version="1.0" encoding="UTF-8"?>
<svg xmlns="http://www.w3.org/2000/svg" width="80" height="80" version="1.1" viewBox="0 0 80 80">
  <!-- Generator: Adobe Illustrator 28.7.1, SVG Export Plug-In . SVG Version: 1.2.0 Build 142)  -->
  <g>
    <g id="Layer_1">
      <path d="M75.928,43.692c-1.168-15.885-7.534-27.267-18.919-33.831-8.549-4.929-16.903-5.171-16.986-5.173l.062-2.997c.367.007,9.1.24,18.303,5.505,8.506,4.866,18.973,15.109,20.53,36.276l-2.99.22Z"/>
      <path d="M64.304,43.687c-.819-11.696-5.118-19.875-12.78-24.31-5.747-3.327-11.371-3.223-11.427-3.221l-.087-2.997c.259-.008,6.414-.147,12.883,3.547,10.786,6.159,13.785,17.958,14.402,26.771l-2.991.209Z"/>
      <g>
        <path d="M68.722,57.416l-.036-.025c-.047-.035-.114-.082-.2-.13l-12.15-6.987-.122-.065c-.069-.039-.139-.077-.213-.111-4.742-2.215-7.992,2.066-10.153,4.911-.408.547-.923,1.221-1.284,1.582-.483.483-.79.689-.989.781-4.937-2.525-9.037-5.552-12.534-9.254-2.878-3.036-5.388-6.545-7.889-11.03-.113-.681,1.612-1.93,2.574-2.627.526-.384,1.024-.747,1.472-1.125,1.712-1.253,2.836-2.539,3.438-3.937.848-1.999.573-4.015-.794-5.835l-7.743-13.09c-.488-.877-1.411-1.464-2.391-1.533-4.631-.411-8.552.649-11.652,3.15-3.077,2.469-5.101,6.234-5.854,10.89-1.118,6.972.617,14.866,5.018,22.829,4.397,7.951,11.375,15.874,19.155,21.745,1.891,1.407,3.844,2.625,5.568,3.699l.48.304c4.355,2.691,7.986,4.441,11.428,5.507,2.702.832,5.331,1.246,7.956,1.246,1.239,0,2.478-.092,3.723-.276,3.109-.459,5.531-1.121,7.612-2.08,2.894-1.312,5.092-3.261,6.533-5.793,1.258-2.209,1.979-4.679,1.979-6.791-.025-2.591-1.039-4.649-2.932-5.952ZM67.069,68.676c-1.138,1.999-2.827,3.486-5.173,4.55-1.823.84-3.985,1.425-6.804,1.841-3.477.513-6.769.237-10.357-.868-3.191-.988-6.603-2.638-10.718-5.181l-.49-.31c-1.756-1.094-3.572-2.226-5.356-3.554-7.448-5.621-14.128-13.201-18.329-20.796-4.073-7.371-5.692-14.599-4.682-20.902.441-2.726,1.626-6.505,4.774-9.031,2.117-1.708,4.759-2.571,7.896-2.571.535,0,1.084.025,1.648.075l7.827,13.234.103.152c.76.985.904,1.883.471,2.903-.38.882-1.219,1.799-2.491,2.725l-.091.072c-.372.317-.841.659-1.351,1.031-1.862,1.349-4.674,3.386-3.565,6.208h0s.018.044.018.044l.049.094c2.654,4.783,5.328,8.528,8.415,11.784,3.745,3.966,8.127,7.2,13.416,9.898.756.372,1.587.41,2.318.117.667-.254,1.331-.725,2.087-1.482.494-.494,1.07-1.243,1.561-1.902,2.306-3.036,4.121-5.1,6.494-3.99.048.027.096.053.146.079l12.065,6.938c.029.021.065.047.108.074,1.059.747,1.582,1.888,1.598,3.472,0,1.593-.578,3.522-1.587,5.293Z"/>
        <path d="M52.471,42.655l2.985-.272c-.797-8.763-5.263-13.492-8.87-15.916-3.9-2.621-7.61-3.157-7.766-3.179l-.414,2.969c.52.075,12.755,1.996,14.064,16.398Z"/>
      </g>
    </g>
  </g>
</svg>