<?xml version="1.0" encoding="UTF-8"?>
<svg xmlns="http://www.w3.org/2000/svg" width="24" height="24" version="1.1" viewBox="0 0 24 24">
  <!-- Generator: Adobe Illustrator 28.7.1, SVG Export Plug-In . SVG Version: 1.2.0 Build 142)  -->
  <g>
    <g id="Layer_1">
      <path d="M23.405,7.785c0-.642-.518-1.16-1.16-1.169-.372-.005-.744,0-1.116-.001-.336-.001-.349-.014-.349-.352,0-1.202-.004-2.404.003-3.607.001-.224-.088-.439-.249-.594-.426-.411-.841-.834-1.258-1.255-.089-.09-.184-.169-.298-.224-.001,0-.003-.001-.004-.001h-7.384s-.006.001-.008.004c-.086.108-.061.237-.061.359-.002,1.787,0,3.573-.001,5.36,0,.302-.011.312-.313.312-.66.001-1.32-.009-1.979.005-.241.005-.366-.072-.469-.299-.394-.87-1.067-1.4-2.013-1.576-.368-.069-.739-.044-1.109-.042-1.225.007-2.109.557-2.613,1.684-.075.168-.182.234-.359.23-.281-.006-.563-.002-.845-.002-.709.001-1.073.283-1.232.954,0,0,0,.002,0,.002v13.358s0,.001,0,.002c.037.228.097.439.27.615.263.266.582.375.943.385.326.009.653.011.979,0,.217-.008.348.072.467.26.406.635.98,1.058,1.731,1.178.513.082,1.037.036,1.555.028.197-.003.398-.018.592-.085.58-.2,1.07-.533,1.393-1.054.168-.272.366-.329.657-.329,4.252.007,8.503.005,12.755.005.111,0,.223.003.334-.005.605-.044,1.15-.476,1.148-1.222-.014-4.308-.007-8.616-.007-12.924ZM2.771,21.108c-.334-.007-.667.004-1.001-.005-.276-.007-.413-.159-.424-.439-.002-.059,0-.119,0-.178,0-4.161,0-8.322,0-12.482,0-.14-.017-.283.082-.413.079-.104.206-.16.336-.164.332-.009.664,0,.996-.004.074,0,.111.021.105.1-.004.052,0,.104,0,.156,0,2.166,0,4.331,0,6.497,0,2.047,0,4.094,0,6.141,0,.215-.013.431.026.644.018.098.002.15-.119.147ZM8.19,20.586c0,.667-.222,1.23-.764,1.647-.323.248-.691.37-1.091.384-.362.013-.726.024-1.089-.025-.819-.111-1.513-.814-1.594-1.643-.02-.208-.028-.414-.028-.622,0-2.086,0-4.171,0-6.257,0-2.167,0-4.334,0-6.501,0-.485.106-.938.422-1.325.385-.472.886-.702,1.489-.719.245-.007.49-.005.735,0,.921.017,1.646.59,1.865,1.484.044.178.055.366.055.552,0,4.342,0,8.683,0,13.025ZM12.368,1.451c0-.028.003-.055.007-.102,0-.005.005-.009.01-.009h.231c1.942,0,3.885.002,5.827-.003.144,0,.281.059.381.163.336.35.681.691,1.027,1.032.08.078.113.157.113.271-.004,1.224-.002,2.449-.003,3.673,0,.187-.002.188-.196.188-2.396,0-4.793,0-7.189,0-.205,0-.207-.001-.207-.181,0-1.677,0-3.354,0-5.031ZM22.626,20.462c0,.067.002.134,0,.2-.01.289-.153.431-.444.443-.059.002-.119,0-.178,0-2.129,0-4.258,0-6.387,0h-6.432c-.037,0-.075-.004-.111,0-.127.017-.173-.032-.15-.16.042-.228.026-.459.026-.688,0-4.192,0-8.384,0-12.577q0-.256.259-.257c4.266,0,8.531.004,12.797-.005.526-.001.625.165.624.622-.006,4.14-.004,8.281-.004,12.421ZM15.783,2.858c-.822,0-1.645,0-2.467,0-.203,0-.188.021-.188-.193,0-.148.005-.297-.001-.445-.005-.1.036-.124.129-.123.348.004.696.002,1.045.002,1.304,0,2.608,0,3.912,0,.262,0,.227-.043.23.238.002.126-.008.253.003.378.011.123-.04.145-.151.145-.837-.004-1.674-.002-2.511-.002ZM15.793,4.379c-.831,0-1.662-.003-2.492.003-.133,0-.187-.026-.175-.17.014-.162.005-.326.003-.489,0-.074.029-.11.105-.105.044.003.089,0,.133,0,1.617,0,3.234,0,4.851,0,.045,0,.089.002.133,0,.068-.004.092.029.091.093-.001.193-.002.386,0,.579,0,.066-.025.094-.091.09-.052-.003-.104,0-.156,0-.801,0-1.602,0-2.403,0ZM18.443,5.9c-.715,0-1.405,0-2.094,0-1.001,0-2.002,0-3.004,0-.241,0-.215.017-.216-.213,0-.141.004-.282-.001-.423-.004-.098.037-.135.131-.126.037.004.074,0,.111,0,1.617,0,3.234,0,4.85,0,.037,0,.075.003.111,0,.09-.01.114.034.113.117-.004.207-.001.414-.001.645ZM20.721,11.034c0-.89,0-1.78,0-2.67,0-.177-.002-.179-.18-.179-2.914,0-5.828,0-8.742,0-.193,0-.195.002-.195.192,0,.883,0,1.765,0,2.648,0,.037.002.074,0,.111-.004.069.032.091.095.089.052-.002.104,0,.156,0,1.431,0,2.862,0,4.293,0,1.461,0,2.922,0,4.382,0,.206,0,.19.026.19-.19ZM19.96,10.278c0,.207.02.187-.195.187-1.788,0-3.576,0-5.364,0-.623,0-1.247-.006-1.87.004-.151.002-.168-.054-.166-.18.006-.393.01-.787-.002-1.18-.005-.149.052-.167.179-.166,1.202.004,2.404.002,3.606.002,1.202,0,2.404,0,3.606,0,.232,0,.205-.025.206.197.001.378,0,.757,0,1.135ZM16.181,11.982c-.623-.009-1.151.508-1.156,1.134-.006.615.504,1.132,1.124,1.139.637.008,1.147-.494,1.15-1.129.003-.623-.498-1.135-1.118-1.144ZM16.163,13.496c-.202-.001-.369-.164-.375-.365-.006-.202.175-.387.378-.387.196,0,.367.17.371.368.004.213-.163.385-.374.384ZM19.216,11.982c-.625-.009-1.145.508-1.146,1.139,0,.625.501,1.132,1.123,1.135.634.003,1.152-.508,1.151-1.134,0-.616-.511-1.131-1.129-1.14ZM19.185,13.496c-.201-.01-.357-.179-.353-.384.004-.198.174-.368.37-.369.203,0,.385.185.379.387-.006.21-.186.376-.396.366ZM13.124,15.022c-.616.002-1.13.513-1.138,1.13-.008.626.51,1.145,1.141,1.144.625,0,1.131-.503,1.133-1.125.002-.634-.51-1.152-1.135-1.15ZM13.121,16.535c-.198-.001-.37-.169-.374-.366-.004-.201.18-.387.381-.385.2.002.367.169.371.37.004.21-.167.382-.378.381ZM13.13,18.068c-.623-.003-1.135.498-1.144,1.119-.009.623.508,1.151,1.134,1.156.615.005,1.132-.504,1.139-1.124.007-.637-.494-1.148-1.129-1.15ZM13.117,19.58c-.195-.005-.367-.18-.37-.375-.003-.197.164-.368.364-.375.214-.007.387.158.388.369.001.21-.175.385-.383.38ZM13.13,11.983c-.624-.003-1.148.522-1.143,1.146.004.629.522,1.133,1.157,1.127.621-.006,1.12-.516,1.116-1.141-.003-.621-.51-1.13-1.13-1.132ZM13.125,13.496c-.206,0-.386-.184-.378-.386.008-.194.187-.368.379-.367.204,0,.379.184.373.391-.006.201-.173.363-.374.362ZM16.189,15.025c-.627-.006-1.135.443-1.162,1.124-.024.612.488,1.129,1.115,1.146.623.017,1.135-.47,1.157-1.099.022-.63-.471-1.165-1.11-1.171ZM16.535,16.195c-.016.205-.182.348-.392.338-.201-.01-.361-.182-.354-.381.008-.207.194-.377.398-.365.209.013.364.195.348.409ZM19.201,15.022c-.628.002-1.139.524-1.131,1.155.009.627.513,1.123,1.137,1.12.624-.003,1.13-.505,1.137-1.126.007-.622-.519-1.15-1.144-1.148ZM19.581,16.183c-.011.2-.182.355-.385.351-.216-.005-.371-.174-.361-.392.009-.201.181-.362.38-.355.207.007.378.193.366.397ZM16.167,18.068c-.632,0-1.153.521-1.142,1.143.011.622.52,1.128,1.138,1.131.626.003,1.141-.518,1.136-1.15-.005-.626-.507-1.125-1.132-1.125ZM16.176,19.578c-.207.006-.386-.168-.387-.376-.001-.2.163-.367.365-.371.208-.005.372.145.382.35.011.213-.152.392-.361.398ZM19.164,18.07c-.63.025-1.112.538-1.092,1.162.009.577.465,1.12,1.151,1.105.689-.015,1.129-.547,1.118-1.164-.012-.642-.545-1.128-1.176-1.103ZM19.204,19.578c-.2.001-.366-.163-.371-.365-.005-.217.156-.382.372-.382.203,0,.37.16.375.361.006.206-.169.386-.376.387Z"/>
    </g>
  </g>
</svg>