<?xml version="1.0" encoding="UTF-8"?>
<svg xmlns="http://www.w3.org/2000/svg" width="84" height="84" version="1.1" viewBox="0 0 84 84">
  <defs>
    <style>
      .cls-1 {
        fill: #1a0b27;
      }

      .cls-2 {
        fill: #f5821f;
      }
    </style>
  </defs>
  <!-- Generator: Adobe Illustrator 28.7.1, SVG Export Plug-In . SVG Version: 1.2.0 Build 142)  -->
  <g>
    <g id="Layer_1">
      <g>
        <path class="cls-2" d="M998.737,1226.176c-.305,0-.588-.195-.685-.501l-13.724-42.986c-.121-.379.088-.784.467-.904.379-.121.784.088.904.467l13.724,42.986c.121.379-.088.784-.467.904-.073.023-.147.034-.219.034Z"/>
        <path class="cls-2" d="M967.328,1226.176c-.07,0-.142-.01-.213-.032-.38-.117-.592-.52-.475-.9l13.311-43.099c.117-.38.52-.593.9-.475.38.117.592.52.475.9l-13.311,43.099c-.095.309-.38.507-.687.507Z"/>
        <path class="cls-2" d="M982.762,1183.354c-2.337,0-4.238-1.901-4.238-4.238s1.901-4.238,4.238-4.238,4.238,1.901,4.238,4.238-1.901,4.238-4.238,4.238ZM982.762,1176.318c-1.543,0-2.799,1.255-2.799,2.799s1.256,2.799,2.799,2.799,2.799-1.255,2.799-2.799-1.255-2.799-2.799-2.799Z"/>
        <path class="cls-2" d="M977.521,1185.532c-.174,0-.349-.063-.487-.19-1.736-1.598-2.732-3.867-2.732-6.226,0-4.665,3.795-8.46,8.46-8.46s8.459,3.795,8.459,8.46c0,2.26-.88,4.384-2.478,5.982-.281.281-.737.281-1.018,0-.281-.281-.281-.737,0-1.018,1.326-1.326,2.056-3.089,2.056-4.964,0-3.871-3.149-7.02-7.02-7.02s-7.021,3.149-7.021,7.02c0,1.957.827,3.84,2.268,5.167.292.269.311.724.042,1.017-.142.154-.335.232-.53.232Z"/>
        <path class="cls-2" d="M989.839,1190.273c-.23,0-.456-.11-.595-.314-.224-.328-.139-.776.189-1,3.253-2.217,5.195-5.888,5.195-9.819,0-2.862-1.032-5.626-2.907-7.783-.261-.3-.229-.755.071-1.015.3-.261.755-.229,1.015.071,2.102,2.419,3.259,5.519,3.259,8.727,0,4.407-2.177,8.522-5.823,11.008-.124.085-.265.125-.405.125Z"/>
        <path class="cls-2" d="M970.437,1177.225c-.05,0-.1-.005-.151-.016-.389-.083-.637-.465-.554-.854,1.299-6.101,6.775-10.529,13.021-10.529,3.001,0,5.835.975,8.194,2.819.313.245.368.697.124,1.01-.244.313-.697.369-1.01.124-2.103-1.645-4.63-2.514-7.307-2.514-5.571,0-10.455,3.949-11.613,9.389-.072.338-.371.57-.703.57Z"/>
        <path class="cls-2" d="M975.864,1190.404c-.135,0-.272-.038-.393-.118-3.042-1.992-5.161-5.176-5.812-8.736-.072-.391.187-.766.578-.837.391-.072.766.188.837.578.58,3.174,2.47,6.014,5.185,7.791.332.218.426.664.208.996-.138.211-.368.326-.603.326Z"/>
        <path class="cls-2" d="M991.413,1195.222c-.251,0-.495-.132-.627-.366-.196-.346-.073-.785.273-.981,5.309-2.999,8.607-8.645,8.607-14.735,0-8.487-6.338-15.698-14.743-16.773-.394-.05-.673-.411-.623-.805.05-.394.414-.672.805-.622,9.121,1.167,15.999,8.992,15.999,18.201,0,6.609-3.578,12.735-9.338,15.988-.112.063-.233.093-.353.093Z"/>
        <path class="cls-2" d="M974.163,1195.26c-.119,0-.24-.029-.351-.092-5.804-3.244-9.409-9.386-9.409-16.029,0-4.574,1.693-8.956,4.767-12.339,3.053-3.359,7.211-5.46,11.708-5.917.392-.039.749.248.789.643.04.395-.248.749-.643.789-4.143.421-7.974,2.357-10.788,5.453-2.833,3.117-4.393,7.155-4.393,11.37,0,6.122,3.323,11.782,8.672,14.772.347.194.471.632.277.979-.132.236-.377.369-.629.369Z"/>
        <path class="cls-2" d="M993.029,1200.072c-.262,0-.515-.144-.642-.393-.18-.354-.04-.788.315-.968,7.403-3.77,12.001-11.269,12.001-19.571,0-12.102-9.846-21.949-21.949-21.949-.397,0-.72-.322-.72-.72s.322-.72.72-.72c12.896,0,23.388,10.492,23.388,23.388,0,8.845-4.9,16.836-12.787,20.853-.105.053-.216.079-.326.079Z"/>
        <path class="cls-2" d="M972.864,1200.263c-.105,0-.212-.023-.314-.072-3.892-1.89-7.184-4.82-9.518-8.474-2.398-3.753-3.666-8.102-3.666-12.577,0-4.803,1.445-9.418,4.179-13.346,2.671-3.838,6.377-6.761,10.717-8.453.37-.144.787.039.932.409s-.039.787-.409.932c-4.073,1.588-7.551,4.331-10.059,7.934-2.565,3.686-3.921,8.016-3.921,12.524,0,4.199,1.19,8.28,3.44,11.802,2.192,3.429,5.281,6.18,8.934,7.954.358.174.507.604.333.962-.124.256-.381.405-.648.405Z"/>
        <path class="cls-2" d="M994.555,1204.934c-.27,0-.529-.153-.651-.413-.17-.359-.015-.788.344-.958,4.566-2.152,8.432-5.535,11.18-9.783,2.821-4.36,4.312-9.422,4.312-14.64,0-6.254-2.189-12.35-6.162-17.165-.253-.307-.209-.76.097-1.013.306-.253.76-.21,1.013.097,4.186,5.072,6.491,11.494,6.491,18.081,0,5.495-1.571,10.828-4.543,15.422-2.895,4.474-6.966,8.037-11.775,10.304-.099.047-.204.069-.306.069Z"/>
        <path class="cls-2" d="M955.112,1177.976c-.016,0-.033,0-.049-.002-.397-.027-.696-.37-.67-.766.482-7.18,3.646-13.855,8.909-18.796,5.287-4.964,12.195-7.697,19.451-7.697,6.733,0,13.264,2.397,18.388,6.748.303.257.34.711.083,1.014-.257.303-.711.34-1.014.083-4.865-4.131-11.065-6.406-17.457-6.406-6.889,0-13.447,2.595-18.466,7.307-4.997,4.691-8.001,11.028-8.458,17.843-.026.38-.342.671-.717.671Z"/>
        <path class="cls-2" d="M970.96,1204.937c-.103,0-.207-.022-.306-.069-9.326-4.394-15.556-13.498-16.258-23.76-.027-.396.272-.74.669-.767.396-.028.74.272.767.669.666,9.742,6.581,18.385,15.435,22.556.36.169.514.598.344.958-.123.26-.382.413-.652.413Z"/>
        <path class="cls-2" d="M996.142,1209.75c-.275,0-.537-.158-.657-.425-.163-.363,0-.788.362-.951,11.5-5.158,18.93-16.633,18.93-29.234,0-8.169-3.076-15.947-8.661-21.902-5.559-5.928-13.071-9.496-21.152-10.046-.396-.027-.696-.37-.669-.767.027-.397.37-.696.767-.669,8.445.576,16.295,4.304,22.104,10.498,5.836,6.223,9.05,14.351,9.05,22.887,0,13.166-7.764,25.157-19.781,30.547-.096.043-.196.063-.294.063Z"/>
        <path class="cls-2" d="M969.366,1209.75c-.098,0-.199-.02-.294-.063-12.016-5.39-19.781-17.381-19.781-30.547,0-17.774,13.889-32.451,31.621-33.413.395-.021.736.283.758.68.021.397-.283.736-.68.758-16.968.921-30.26,14.966-30.26,31.976,0,12.6,7.431,24.075,18.931,29.234.363.163.525.588.362.951-.12.267-.382.425-.657.425Z"/>
        <path class="cls-2" d="M967.726,1214.533c-.096,0-.193-.019-.286-.06-14.085-6.113-23.186-19.982-23.186-35.334,0-21.229,17.271-38.5,38.5-38.5s38.5,17.271,38.5,38.5c0,15.35-9.1,29.219-23.183,35.333-.364.158-.788-.009-.947-.374s.009-.788.374-.947c13.557-5.885,22.317-19.236,22.317-34.012,0-20.435-16.626-37.061-37.061-37.061s-37.061,16.625-37.061,37.061c0,14.778,8.761,28.129,22.32,34.013.364.158.532.582.374.947-.118.271-.383.433-.66.433Z"/>
        <path class="cls-2" d="M998.946,1226.276h-31.663c-.397,0-.72-.322-.72-.72s.322-.72.72-.72h31.663c.397,0,.72.322.72.72s-.322.72-.72.72Z"/>
        <path class="cls-2" d="M982.762,1226.276c-.397,0-.72-.322-.72-.72v-42.922c0-.397.322-.72.72-.72s.72.322.72.72v42.922c0,.397-.322.72-.72.72Z"/>
        <path class="cls-2" d="M967.727,1225.518c-.25,0-.493-.13-.625-.362-.197-.345-.078-.785.267-.982l14.222-8.134-8.005-11.67c-.197-.287-.16-.674.087-.919l8.137-8.054-3.32-6.7c-.176-.356-.031-.788.325-.964.356-.177.788-.031.964.325l3.551,7.165c.138.278.082.613-.138.831l-8.079,7.997,8.107,11.818c.114.166.153.372.108.568-.045.196-.17.364-.344.464l-14.9,8.522c-.113.064-.236.095-.357.095Z"/>
        <path class="cls-2" d="M997.783,1225.518c-.121,0-.244-.031-.357-.095l-14.9-8.522c-.174-.1-.299-.268-.344-.464-.045-.196-.006-.402.108-.568l8.107-11.818-8.079-7.997c-.221-.218-.276-.553-.139-.831l3.551-7.165c.176-.356.608-.502.964-.325.356.176.502.608.325.964l-3.321,6.7,8.137,8.054c.247.245.284.632.087.919l-8.005,11.67,14.222,8.134c.345.197.465.637.267.982-.133.232-.376.362-.625.362Z"/>
      </g>
      <path class="cls-1" d="M50.732,44.074c.749,0,1.359-.609,1.359-1.357s-.609-1.357-1.359-1.357-1.357.609-1.357,1.357.609,1.357,1.357,1.357ZM50.732,41.54c.65,0,1.179.528,1.179,1.177s-.529,1.177-1.179,1.177-1.177-.528-1.177-1.177.528-1.177,1.177-1.177Z"/>
      <path class="cls-1" d="M47.182,44.074c.748,0,1.357-.609,1.357-1.357s-.609-1.357-1.357-1.357-1.357.609-1.357,1.357.609,1.357,1.357,1.357ZM47.182,41.54c.649,0,1.177.528,1.177,1.177s-.528,1.177-1.177,1.177-1.177-.528-1.177-1.177.528-1.177,1.177-1.177Z"/>
      <path class="cls-1" d="M43.631,44.074c.748,0,1.357-.609,1.357-1.357s-.609-1.357-1.357-1.357-1.357.609-1.357,1.357.609,1.357,1.357,1.357ZM43.631,41.54c.649,0,1.177.528,1.177,1.177s-.528,1.177-1.177,1.177-1.177-.528-1.177-1.177.528-1.177,1.177-1.177Z"/>
      <path class="cls-1" d="M79.608,57.783h-23.1c-1.189,0-2.156.967-2.156,2.156v6.688h-3.463c-2.081,0-3.774-1.693-3.774-3.774v-12.171h6.53c1.189,0,2.156-.967,2.156-2.156v-3.563h4.627c2.873,0,5.211-2.338,5.211-5.211v-6.32c.438.037.878.061,1.319.061,5.515,0,10.687-2.951,13.497-7.702,1.425-2.404,2.178-5.16,2.178-7.971s-.753-5.568-2.177-7.971c-2.81-4.752-7.982-7.704-13.498-7.704s-10.685,2.951-13.498,7.702c-1.424,2.407-2.177,5.164-2.177,7.973s.753,5.564,2.177,7.971c2.349,3.97,6.243,6.64,10.741,7.437v6.524c0,2.081-1.693,3.774-3.774,3.774h-4.627v-4.97c0-1.189-.967-2.156-2.156-2.156h-15.918v-14.086c0-2.873-2.338-5.211-5.211-5.211h-4.322v-5.838c0-1.227-.979-2.225-2.182-2.225H5.195c-1.203,0-2.182.998-2.182,2.225v13.9h-.929c-.397,0-.719.322-.719.719,0,2.554,1.181,4.079,3.159,4.079h22.158c1.146,0,2.038-.51,2.577-1.471.481-.849.582-1.887.582-2.608,0-.397-.322-.719-.719-.719h-.929v-6.624h4.322c2.081,0,3.774,1.693,3.774,3.774v14.086h-5.729c-1.189,0-2.156.967-2.156,2.156v4.97h-8.25c-2.873,0-5.211,2.338-5.211,5.211v9.878h-4.178c-.866,0-1.571.705-1.571,1.57v19.269c0,.865.705,1.569,1.571,1.569h9.793c.866,0,1.571-.704,1.571-1.569v-19.269c0-.866-.705-1.57-1.571-1.57h-4.178v-9.878c0-2.081,1.693-3.774,3.774-3.774h8.25v3.563c0,1.189.967,2.156,2.156,2.156h15.116v12.171c0,2.873,2.338,5.211,5.211,5.211h3.463v6.687c0,1.189.967,2.156,2.156,2.156h10.83v3.509h-4.789c-.397,0-.719.322-.719.719s.322.719.719.719h11.017c.397,0,.719-.322.719-.719s-.322-.719-.719-.719h-4.791v-3.509h10.832c1.189,0,2.156-.967,2.156-2.156v-14.813c0-1.189-.967-2.156-2.156-2.156ZM67.678,31.974v-6.961c1.819.018,3.656.107,5.492.263-1.207,3.746-3.271,6.248-5.492,6.699ZM73.556,23.862c-1.964-.173-3.932-.268-5.878-.287v-5.036h6.574c-.049,1.847-.285,3.659-.696,5.324ZM67.678,17.101v-5.038c1.947-.019,3.916-.114,5.879-.287.415,1.679.648,3.464.696,5.325h-6.574ZM67.678,10.625V3.664c2.222.451,4.285,2.953,5.492,6.699-1.835.155-3.673.244-5.492.263ZM66.24,3.664v6.961c-1.824-.018-3.661-.108-5.492-.264,1.207-3.745,3.271-6.246,5.492-6.697ZM60.362,11.774c1.958.174,3.926.269,5.878.288v5.038h-6.574c.049-1.843.286-3.657.696-5.327ZM66.24,18.539v5.037c-1.952.019-3.92.115-5.878.289-.415-1.683-.648-3.468-.696-5.325h6.574ZM66.24,25.013v6.957c-.338-.067-.675-.167-1.005-.329-1.86-.904-3.462-3.207-4.477-6.365,1.828-.155,3.662-.245,5.482-.263ZM71.436,31.324c1.324-1.395,2.431-3.416,3.194-5.918,1.316.137,2.663.314,4.025.525-1.771,2.546-4.325,4.428-7.22,5.393ZM79.471,24.599c-1.514-.245-3.008-.442-4.471-.598.411-1.73.643-3.559.689-5.462h5.483c-.107,2.127-.689,4.198-1.701,6.06ZM81.172,17.101h-5.483c-.047-1.903-.278-3.733-.689-5.464,1.475-.157,2.971-.354,4.471-.596,1.012,1.862,1.594,3.933,1.701,6.06ZM78.656,9.709c-1.352.209-2.698.386-4.025.524-.763-2.503-1.871-4.523-3.194-5.918,2.895.966,5.449,2.848,7.22,5.395ZM62.481,4.315c-1.323,1.395-2.43,3.415-3.193,5.916-1.311-.135-2.658-.312-4.026-.523,1.772-2.545,4.325-4.428,7.219-5.394ZM54.446,11.04c1.52.245,3.015.441,4.472.596-.412,1.735-.643,3.565-.69,5.465h-5.483c.107-2.126.689-4.197,1.701-6.061ZM52.746,18.539h5.483c.047,1.899.278,3.729.69,5.464-1.461.155-2.955.351-4.471.597-1.012-1.864-1.594-3.936-1.702-6.061ZM55.281,25.928c1.36-.21,2.703-.387,4.014-.522.757,2.476,1.868,4.51,3.205,5.917-2.92-.957-5.441-2.831-7.219-5.396ZM28.008,27.783c-.283.505-.704.74-1.325.74H4.525c-.69,0-1.497-.354-1.682-1.923h25.519c-.06.47-.18.877-.353,1.183ZM4.451,25.162v-13.9c0-.434.334-.787.744-.787h20.818c.41,0,.744.353.744.787v13.9H4.451ZM20.559,79.585h-9.793c-.072,0-.133-.06-.133-.131v-2.088h10.059v2.088c0,.072-.06.131-.133.131ZM20.692,60.185v15.743h-10.059v-15.743c0-.073.06-.133.133-.133h9.793c.073,0,.133.06.133.133ZM29.843,38.555c0-.396.322-.719.719-.719h23.084c.396,0,.719.322.719.719v7.086h-24.521v-7.086ZM29.843,48.527v-1.448h24.521v1.448c0,.396-.322.719-.719.719h-23.084c-.396,0-.719-.322-.719-.719ZM80.327,74.752c0,.396-.322.719-.719.719h-23.1c-.396,0-.719-.322-.719-.719v-14.813c0-.396.322-.719.719-.719h23.1c.396,0,.719.322.719.719v14.813Z"/>
    </g>
  </g>
</svg>