<?xml version="1.0" encoding="UTF-8"?>
<svg xmlns="http://www.w3.org/2000/svg" width="80" height="80" version="1.1" viewBox="0 0 80 80">
  <!-- Generator: Adobe Illustrator 28.7.1, SVG Export Plug-In . SVG Version: 1.2.0 Build 142)  -->
  <g>
    <g id="Layer_1">
      <path d="M40,79.215h0c-1.728,0-3.312-.871-4.237-2.329l-20.148-31.733c-5.734-9.031-6.081-20.02-.928-29.395C19.84,6.382,29.302.785,40,.785s20.161,5.597,25.313,14.972c5.153,9.375,4.806,20.364-.928,29.395l-20.147,31.733c-.926,1.458-2.51,2.329-4.238,2.329ZM40,3.745c-9.601,0-18.095,5.023-22.719,13.438-4.625,8.415-4.314,18.278.833,26.383l20.148,31.733c.385.607,1.019.956,1.739.956s1.354-.348,1.739-.956l20.147-31.733c5.146-8.106,5.458-17.969.833-26.383-4.624-8.414-13.118-13.438-22.72-13.438Z"/>
      <path d="M40,46.918c-9.232,0-16.743-7.511-16.743-16.743s7.511-16.743,16.743-16.743,16.743,7.511,16.743,16.743-7.511,16.743-16.743,16.743ZM40,16.391c-7.6,0-13.784,6.183-13.784,13.784s6.183,13.784,13.784,13.784,13.784-6.183,13.784-13.784-6.184-13.784-13.784-13.784Z"/>
    </g>
  </g>
</svg>