<?xml version="1.0" encoding="UTF-8"?>
<svg xmlns="http://www.w3.org/2000/svg" width="32" height="32" version="1.1" viewBox="0 0 32 32">
  <!-- Generator: Adobe Illustrator 28.7.1, SVG Export Plug-In . SVG Version: 1.2.0 Build 142)  -->
  <g>
    <g id="Layer_1">
      <path d="M28.727,9.892l-1.074-.36h.001c-1.386-.462-2.694-1.135-3.876-1.995-.137-.102-.324-.102-.461,0-.984.728-2.064,1.317-3.209,1.747-.174-.097-.349-.198-.53-.291h-.001c-1.033-.513-1.498-1.734-1.07-2.805l1.139-2.872c.285-.715.138-1.529-.378-2.099-.517-.57-1.312-.796-2.052-.584l-2.651.775h0c-.217.061-.445.061-.663.001l-3.1-.818c-.754-.196-1.555.06-2.055.655-.501.597-.615,1.43-.289,2.139l1.368,2.977c.498,1.052.116,2.312-.884,2.91-1.814,1.052-3.317,2.564-4.36,4.383-1.042,1.818-1.586,3.881-1.577,5.976,0,6.53,5.17,11.843,11.522,11.843,6.351.001,11.487-5.286,11.518-11.788l2.283-1.605c.417-.291.667-.767.666-1.276v-1.198c0-.214-.173-.387-.387-.387-.215,0-.388.173-.388.387v1.198c-.001.256-.125.496-.333.644l-3.876,2.713c-.269.19-.631.19-.9,0l-3.876-2.713h.001c-.211-.147-.336-.387-.334-.644v-6.267l1.016-.349c1.299-.439,2.527-1.067,3.644-1.863,1.183.827,2.479,1.48,3.849,1.937l.81.272v2.295h0c0,.214.173.387.388.387.214,0,.387-.173.387-.388v-2.57c0-.167-.108-.315-.267-.368,0,0,0,0,0,0ZM21.283,19.829c-.062,2-1.007,3.87-2.581,5.106-1.573,1.237-3.613,1.712-5.571,1.298-1.958-.413-3.632-1.671-4.572-3.439-.939-1.766-1.048-3.857-.296-5.712s2.285-3.282,4.19-3.895c1.904-.615,3.982-.353,5.675.712v2.907c-.001.509.246.985.663,1.276,0,0,2.492,1.747,2.492,1.747ZM18.391,9.892c-.164.055-.272.214-.263.388v2.74c-1.911-1.039-4.177-1.202-6.217-.449-2.041.754-3.655,2.353-4.431,4.385-.776,2.032-.637,4.301.382,6.222,1.019,1.921,2.817,3.311,4.934,3.809,2.118.498,4.347.06,6.116-1.206,1.77-1.264,2.907-3.232,3.119-5.396l.637.419c.535.378,1.25.378,1.786,0l.798-.544c-.307,5.814-5,10.464-10.724,10.464-5.925,0-10.748-4.965-10.748-11.069h.001c-.01-1.961.499-3.889,1.474-5.591.975-1.702,2.383-3.114,4.08-4.097.656-.379,1.139-.996,1.353-1.721h4.946c.214,0,.387-.174.387-.388s-.173-.388-.387-.388h-4.814c.02-.49-.074-.98-.279-1.426l-1.368-2.977h-.002c-.199-.437-.129-.949.18-1.317.308-.368.801-.525,1.266-.404l3.1.818c.35.096.721.096,1.07,0l2.651-.775v-.002c.456-.132.948.006,1.267.358.318.35.41.853.233,1.294l-1.046,2.628h-4.604c-.214,0-.387.174-.387.388s.173.388.387.388h4.357c-.256,1.283.356,2.583,1.507,3.205l-.76.244h0ZM21.039,14.271c0,1.029.619,1.955,1.57,2.347.95.392,2.043.172,2.769-.557.725-.73.939-1.824.541-2.773-.398-.948-1.328-1.562-2.356-1.555-1.395.01-2.522,1.142-2.523,2.537,0,0,0,0,0,0ZM25.341,14.271c0,.712-.429,1.355-1.086,1.628-.657.275-1.414.126-1.92-.375-.506-.501-.66-1.257-.392-1.917.269-.658.907-1.093,1.619-1.099.974,0,1.763.789,1.763,1.763,0,0,.016,0,.016,0ZM16.775,21.187c-.064,1.009-.853,1.821-1.86,1.914v.682c0,.215-.173.388-.387.388-.215,0-.388-.173-.388-.388v-.682c-.748-.09-1.4-.557-1.725-1.237-.084-.196.007-.424.203-.509.198-.086.426.006.51.204.269.517.817.828,1.4.798.81,0,1.472-.523,1.472-1.163s-.663-1.163-1.472-1.163c-1.24,0-2.251-.872-2.251-1.937,0-.961.807-1.756,1.865-1.937v-.687c-.001-.214.172-.387.387-.387.214,0,.387.173.387.387v.683c.759.092,1.416.571,1.732,1.267.081.198-.013.424-.211.506-.198.081-.424-.013-.506-.212-.263-.528-.814-.849-1.402-.817-.814,0-1.477.528-1.477,1.163s.663,1.163,1.477,1.163c1.24.019,2.247.891,2.247,1.965h0Z"/>
    </g>
  </g>
</svg>