<?xml version="1.0" encoding="utf-8"?>
<!-- Generator: Adobe Illustrator 25.4.1, SVG Export Plug-In . SVG Version: 6.00 Build 0)  -->
<svg version="1.1" id="Layer_1" xmlns="http://www.w3.org/2000/svg" xmlns:xlink="http://www.w3.org/1999/xlink" x="0px" y="0px"
	 viewBox="0 0 34 34" style="enable-background:new 0 0 34 34;" xml:space="preserve">
<style type="text/css">
	.st0{fill:#FFFFFF;}
</style>
<path class="st0" d="M20.784,18.293c2.817-1.406,4.762-4.32,4.762-7.69c0-4.736-3.834-8.589-8.546-8.589
	c-4.713,0-8.546,3.853-8.546,8.589c0,3.369,1.945,6.284,4.762,7.69c-5.568,1.648-9.647,6.823-9.647,12.946
	c0,0.412,0.333,0.745,0.745,0.745c0.412,0,0.745-0.334,0.745-0.745c0-6.622,5.356-12.01,11.94-12.01s11.94,5.388,11.94,12.01
	c0,0.412,0.333,0.745,0.745,0.745c0.412,0,0.745-0.334,0.745-0.745C30.431,25.116,26.352,19.941,20.784,18.293z M9.944,10.604
	c0-3.914,3.165-7.098,7.056-7.098s7.055,3.184,7.055,7.098c0,3.914-3.165,7.098-7.055,7.098S9.944,14.518,9.944,10.604z"/>
</svg>
