<?xml version="1.0" encoding="UTF-8"?>
<svg xmlns="http://www.w3.org/2000/svg" width="32" height="32" version="1.1" viewBox="0 0 32 32">
  <!-- Generator: Adobe Illustrator 28.7.1, SVG Export Plug-In . SVG Version: 1.2.0 Build 142)  -->
  <g>
    <g id="Layer_1">
      <path d="M26.628,12.88c-3.304-2.207-6.626-4.389-9.973-6.531-1.652-1.058-3.315-2.101-4.988-3.125-1.497-.916-3.008-1.997-4.712-2.481-1.128-.32-2.61-.016-3.079,1.181-.375.957-.224,2.046-.224,3.057,0,1.585.002,3.17.003,4.754.004,5.66.007,11.32.011,16.98,0,1.301-.242,3.31,1.061,4.156,1.418.921,2.832.455,4.151-.374,5.769-3.626,11.737-6.957,17.644-10.351.796-.457,1.593-.914,2.389-1.37.06-.026.12-.059.181-.104.086-.049.153-.108.211-.17.827-.715,1.489-1.936.758-2.985-.808-1.16-2.275-1.864-3.434-2.637ZM28.23,17.195c-4.81,2.754-9.613,5.52-14.391,8.328-2.022,1.189-4.046,2.379-6.032,3.627-.956.601-2.299.823-2.42-.707-.08-1.017-.008-2.068-.009-3.088-.002-2.491-.003-4.981-.005-7.471-.003-4.528-.006-9.056-.009-13.584,0-1.257.031-2.223,1.548-1.793.709.201,1.369.681,1.998,1.051,1.319.778,2.621,1.582,3.92,2.392,2.846,1.774,5.658,3.601,8.461,5.44,1.269.833,2.534,1.671,3.797,2.512.436.291,4.295,2.438,3.141,3.291Z"/>
    </g>
  </g>
</svg>