<?xml version="1.0" encoding="utf-8"?>
<!-- Generator: Adobe Illustrator 25.4.1, SVG Export Plug-In . SVG Version: 6.00 Build 0)  -->
<svg version="1.1" id="Layer_1" xmlns="http://www.w3.org/2000/svg" xmlns:xlink="http://www.w3.org/1999/xlink" x="0px" y="0px"
	 viewBox="0 0 32 32" style="enable-background:new 0 0 32 32;" xml:space="preserve">
<g>
	<path d="M5.553,22.603c-0.027,0-0.054-0.006-0.08-0.017c-0.073-0.032-0.12-0.104-0.12-0.183V6.901c0-0.854,0.695-1.548,1.548-1.548
		h14.827c0.854,0,1.549,0.695,1.549,1.548v9.772c0,0.854-0.695,1.548-1.549,1.548H10.35l-4.66,4.327
		C5.651,22.584,5.603,22.603,5.553,22.603z M6.901,5.753c-0.633,0-1.148,0.515-1.148,1.148v15.043l4.008-3.722H8.923
		c-0.11,0-0.2-0.09-0.2-0.2s0.09-0.2,0.2-0.2h1.346c0.001,0,0.002,0,0.003,0h11.456c0.634,0,1.148-0.515,1.148-1.148V6.901
		c0-0.633-0.515-1.148-1.148-1.148H6.901z"/>
</g>
<path d="M25.436,12.767h-0.337c-0.11,0-0.2,0.09-0.2,0.2s0.09,0.2,0.2,0.2h0.337c0.447,0,0.812,0.363,0.812,0.811v12.017
	l-2.989-2.718h0.493c0.11,0,0.2-0.09,0.2-0.2s-0.09-0.2-0.2-0.2H22.74H12.63c-0.447,0-0.811-0.363-0.811-0.811v-2.022
	c0-0.11-0.09-0.2-0.2-0.2s-0.2,0.09-0.2,0.2v2.022c0,0.667,0.543,1.211,1.211,1.211h10.033l3.649,3.318
	c0.038,0.034,0.086,0.052,0.135,0.052c0.027,0,0.055-0.006,0.081-0.017c0.072-0.032,0.119-0.104,0.119-0.183V13.978
	C26.647,13.311,26.104,12.767,25.436,12.767z"/>
<g>
	<g>
		<path d="M14.315,12.493c-0.296,0-0.537-0.241-0.537-0.537s0.241-0.537,0.537-0.537s0.537,0.241,0.537,0.537
			S14.611,12.493,14.315,12.493z M14.315,11.819c-0.076,0-0.137,0.061-0.137,0.137c0,0.151,0.273,0.151,0.273,0
			C14.452,11.88,14.391,11.819,14.315,11.819z"/>
	</g>
	<g>
		<path d="M18.359,12.493c-0.297,0-0.538-0.241-0.538-0.537s0.241-0.537,0.538-0.537c0.296,0,0.537,0.241,0.537,0.537
			S18.655,12.493,18.359,12.493z M18.359,11.819c-0.076,0-0.138,0.061-0.138,0.137c0,0.15,0.274,0.152,0.274,0
			C18.496,11.88,18.435,11.819,18.359,11.819z"/>
	</g>
	<g>
		<path d="M10.271,12.493c-0.296,0-0.537-0.241-0.537-0.537s0.241-0.537,0.537-0.537s0.537,0.241,0.537,0.537
			S10.567,12.493,10.271,12.493z M10.271,11.819c-0.076,0-0.137,0.061-0.137,0.137c0,0.151,0.273,0.151,0.273,0
			C10.408,11.88,10.347,11.819,10.271,11.819z"/>
	</g>
</g>
</svg>
