<?xml version="1.0" encoding="UTF-8"?>
<svg xmlns="http://www.w3.org/2000/svg" width="84" height="84" version="1.1" viewBox="0 0 84 84">
  <!-- Generator: Adobe Illustrator 28.7.1, SVG Export Plug-In . SVG Version: 1.2.0 Build 142)  -->
  <g>
    <g id="Layer_1">
      <path d="M42.009,60.4c1.998,0,3.996-.012,5.993.01.43.005,1.026-.253,1.07.603.047.915-.544.776-1.084.776-3.996.001-7.991.006-11.987-.008-.438-.002-1.023.23-1.07-.615-.052-.926.553-.764,1.084-.765,1.998-.004,3.996-.002,5.993-.001Z"/>
      <path d="M83.281,23.769c.061-3.19-1.956-4.394-4.874-4.218-4.769-.01-9.536-.003-14.303-.002-.888-.029-1.958.065-2.815-.134-.717-.19-.886-.666-.931-1.841.052-2.583-.153-5.247-3.057-5.576-8.89-.329-17.785.078-26.669-.146-4.594-.119-7.425.063-6.973,5.864.155,1.472-.275,1.923-1.733,1.858-5.513-.058-10.979-.038-16.478-.022-2.999-.177-4.931,1.331-4.725,4.498-.02,13.731-.021,27.448,0,41.177-.026.985.111,2.286.68,3.043.797,1.216,2.431,1.513,3.827,1.466,5.652.007,11.286.012,16.939-.01,2.843-.214,1.901,2.425,5.091,2.38,10.217-.142,20.487.321,30.665-.163,1.751-.449,1.642-2.416,3.7-2.214,5.68.014,11.345.014,17.021.007,1.161.005,2.523-.133,3.39-.842,1.082-.805,1.286-2.604,1.251-3.949,0-13.72.015-27.42-.005-41.108l-.002-.069ZM22.044,68.486c-5.599-.05-11.22-.018-16.829-.026-.993-.007-2.183-.101-2.744-.941-.495-.732-.474-1.809-.482-2.687-.012-4.05.02-8.088-.021-12.143.001-.453-.024-1.158.325-1.45,5.831-.657,11.939.003,17.875-.238.818.125,1.357-.928.462-1.23-5.714-.102-11.468-.037-17.212-.026-1.206.111-1.54-.601-1.46-1.692-.006-.794-.001-2.123.393-2.456.873-.735,2.529-.392,3.655-.48,4.736.078,9.502-.136,14.218.069.28.007.559-.063.701-.318.074-.196.111-.217.101-.485-.024-.527-.432-.75-.882-.695-5.312.293-10.693-.052-16.034.113-2.206.201-2.245-.678-2.123-2.588-.091-1.965,1.082-2.004,2.628-1.984,4.908-.007,9.821.008,14.727-.013.571-.053,1.512.281,1.702-.464.069-.281-.113-.726-.445-.755-5.43.027-10.936-.037-16.389.021-.691-.039-1.743.178-2.095-.562-.285-.962-.231-2.965.244-3.648.809-.726,2.379-.391,3.45-.476,4.791-.004,9.581.009,14.378-.007.834.15,1.331-1.043.373-1.237-4.948-.089-9.899-.014-14.832-.043-1.108-.127-2.555.357-3.509-.291-.386-.562-.228-1.437-.254-2.115.063-1.334.053-1.985,1.335-2.177,5.325-.199,10.75-.004,16.086-.092.669.011,1.851.282,1.675-.774-.097-.459-.569-.519-.971-.494-5.384.032-10.772-.037-16.161.026-2.546.284-2.011-1.601-1.781-3.471.351-2.098,2.855-1.862,4.486-1.885,5.029.003,10.048.032,15.081-.024.916-.037,2.004.04,1.957,1.229.024,14.801-.068,29.597.027,44.399.071,1.156-.153,2.24-1.59,2.109l-.067.002ZM55.956,70.913c-9.441-.006-18.885.033-28.325-.014-1.04-.042-2.02-.283-2.53-1.32-.168-.354-.039-.604.414-.586,11.093.168,22.373-.328,33.442.173.064.126.004.332-.073.472-.583,1.118-1.753,1.265-2.865,1.275h-.063ZM59.09,56.23c-.055,3.104-.062,6.225-.009,9.337-.006.511.082,1.217-.291,1.595-.356.309-1.083.253-1.561.262-10.197-.03-20.391-.027-30.589-.003-1.296.035-1.803-.096-1.722-1.549.046-3.172.058-6.307-.005-9.485-.024-.862.076-1.625,1.138-1.607,7.93.004,15.859.001,23.788.013,2.352.001,4.704-.005,7.056-.03,1.114-.016,2.256-.116,2.194,1.399l.002.068ZM25.741,30.444c7.872-.09,24.402-.001,32.477-.031.68.131.73.764.693,1.396,0,.7,0,1.779,0,2.262,0,.196-.002.381-.095.556-.095.211-.418.443-.597.44-1.14,0-31.323,0-32.345,0-.038-.002-.124-.013-.257-.095-.303-.18-.463-.545-.425-.901,0-.466,0-1.483,0-2.183-.01-.763-.052-1.121.522-1.432l.028-.012ZM25.223,28.501c-.1-.707.005-2.441-.03-3.171-.022-.32.159-.636.424-.794.132-.081.219-.092.257-.095,1.022-.001,31.205,0,32.345,0,.167,0,.506.228.597.44.093.175.094.36.095.556,0,.483,0,1.563,0,2.262,0,.258.009.461-.015.697-.002.302-.409.699-.678.699-6.28-.002-19.611.002-26.574,0-3.233,0-5.492,0-5.771,0-.237-.015-.544-.279-.639-.553l-.012-.04ZM25.741,36.416c7.872-.09,24.402-.001,32.477-.031.68.131.73.764.693,1.396,0,.7,0,1.779,0,2.262,0,.196-.002.381-.095.556-.095.211-.418.443-.597.44-1.14,0-31.323,0-32.345,0-.038-.002-.124-.013-.257-.095-.303-.18-.463-.545-.425-.901,0-.466,0-1.483,0-2.183-.01-.763-.052-1.121.522-1.432l.028-.012ZM25.741,42.389c7.872-.09,24.402-.001,32.477-.031.68.131.73.764.693,1.396,0,.7,0,1.779,0,2.262,0,.196-.002.381-.095.556-.095.211-.418.443-.597.44-1.14,0-31.323,0-32.345,0-.038-.002-.124-.013-.257-.095-.303-.18-.463-.545-.425-.901,0-.466,0-1.483,0-2.183-.01-.763-.052-1.121.522-1.432l.028-.012ZM25.741,48.361c7.872-.09,24.402-.001,32.477-.031.68.131.73.764.693,1.396,0,.7,0,1.779,0,2.262,0,.196-.002.381-.095.556-.095.211-.418.443-.597.44-1.14,0-31.323,0-32.345,0-.038-.002-.124-.013-.257-.095-.303-.18-.463-.545-.425-.901,0-.466,0-1.483,0-2.183-.01-.763-.052-1.121.522-1.432l.028-.012ZM57.749,23.235c-10.244-.007-20.489-.068-30.733.012-1.645.062-2.258-.155-2.1-1.966.067-1.685-.002-3.32.015-5.019-.054-2.205.964-3.262,3.213-3.152,9.227-.02,18.426-.02,27.651,0,1.187-.038,2.643.182,3.039,1.457.219.6.24,1.323.242,1.962.006,1.628-.045,3.247.008,4.87.047,1.018.057,1.881-1.268,1.834l-.065.002ZM81.941,25.759c-.408.567-1.12.303-1.725.336-5.428.022-10.852.007-16.292.017-.371.002-.834.042-.968.434-.118.32.031.692.336.775,5.585.171,11.207.033,16.797.052.581.024,1.446-.13,1.78.439.266.579.166,1.297.18,1.936-.058,1.432-.079,2.051-1.412,2.234-5.282.19-10.657-.005-15.94.097-.634.024-1.682-.401-1.771.519-.027,1.099,1.21.702,1.918.716,5.426.092,10.888-.064,16.315.054,1.011.127.907,1.265.882,2.043-.026.679-.078,1.792-.395,2.107-.6.647-1.934.428-2.806.485-5.134-.012-10.329.018-15.44-.004-.83.257-.461,1.411.409,1.241,5.35-.046,10.709.036,16.063-.028.671.037,1.677-.169,2.023.548.283.938.219,2.85-.232,3.545-.785.733-2.353.394-3.402.48-4.93-.051-9.911.09-14.81-.05-.392.061-.576.586-.458.971.273.813,1.302.329,1.931.392,5.064.036,10.137.06,15.221-.003,1.56-.121,2.028.468,1.896,1.99.172,3.217-1.398,2.557-3.804,2.647-4.96-.002-9.957-.002-14.903.007-.282.065-.425.373-.418.657.024.57.578.656,1.042.619,5.367-.025,10.736.035,16.108-.024,1.437-.105,2.111.239,1.977,1.801-.055,4.029-.017,8.029-.024,12.05.163,2.623-.806,3.821-3.546,3.62-5.708-.03-11.409.038-17.118-.002-.762-.066-1.021-.482-1.034-1.224.004-11.258.006-22.527.011-33.763,0-3.508-.006-7.016-.028-10.524.014-.84-.146-2.073.993-2.158,5.681-.082,11.364.021,17.045-.017,2.643-.337,4.928,2.442,3.634,4.933l-.035.052Z"/>
      <circle cx="57.134" cy="26.743" r="1.147"/>
      <circle cx="51.08" cy="26.743" r="1.147"/>
      <circle cx="45.027" cy="26.743" r="1.147"/>
      <circle cx="38.973" cy="26.743" r="1.147"/>
      <circle cx="32.919" cy="26.743" r="1.147"/>
      <circle cx="26.865" cy="26.743" r="1.147"/>
      <circle cx="57.134" cy="32.699" r="1.147"/>
      <circle cx="51.08" cy="32.699" r="1.147"/>
      <circle cx="45.027" cy="32.699" r="1.147"/>
      <circle cx="38.973" cy="32.699" r="1.147"/>
      <circle cx="32.919" cy="32.699" r="1.147"/>
      <circle cx="26.865" cy="32.699" r="1.147"/>
      <circle cx="57.134" cy="38.72" r="1.147"/>
      <circle cx="51.08" cy="38.72" r="1.147"/>
      <circle cx="45.027" cy="38.72" r="1.147"/>
      <circle cx="38.973" cy="38.72" r="1.147"/>
      <circle cx="32.919" cy="38.72" r="1.147"/>
      <circle cx="26.865" cy="38.72" r="1.147"/>
      <circle cx="57.134" cy="44.709" r="1.147"/>
      <circle cx="51.08" cy="44.709" r="1.147"/>
      <circle cx="45.027" cy="44.709" r="1.147"/>
      <circle cx="38.973" cy="44.709" r="1.147"/>
      <circle cx="32.919" cy="44.709" r="1.147"/>
      <circle cx="26.865" cy="44.709" r="1.147"/>
      <circle cx="57.134" cy="50.633" r="1.147"/>
      <circle cx="51.08" cy="50.633" r="1.147"/>
      <circle cx="45.027" cy="50.633" r="1.147"/>
      <circle cx="38.973" cy="50.633" r="1.147"/>
      <circle cx="32.919" cy="50.633" r="1.147"/>
      <circle cx="26.865" cy="50.633" r="1.147"/>
    </g>
  </g>
</svg>