<?xml version="1.0" encoding="UTF-8"?>
<svg xmlns="http://www.w3.org/2000/svg" width="84" height="84" version="1.1" viewBox="0 0 84 84">
  <defs>
    <style>
      .cls-1 {
        fill: #f5821f;
      }
    </style>
  </defs>
  <!-- Generator: Adobe Illustrator 28.7.1, SVG Export Plug-In . SVG Version: 1.2.0 Build 142)  -->
  <g>
    <g id="Layer_1">
      <path class="cls-1" d="M51,35.1l-.8-.3c-.7-.2-1.4.1-1.6.8-.2.7.1,1.4.8,1.6l.8.3c.9.3,1.4,1.1,1.4,2v9.4c0,.5-.4.9-.9.9h-1.7v-5.5c0-.7-.6-1.3-1.3-1.3s-1.3.6-1.3,1.3v5.5h-8.8v-5.5c0-.7-.6-1.3-1.3-1.3s-1.3.6-1.3,1.3v5.5h-1.7c-.5,0-.9-.4-.9-.9v-9.4c0-.9.6-1.7,1.4-2l1.2-.4c.7-.2,1-1,.8-1.6-.2-.7-1-1-1.6-.8l-1.2.4c-1.9.7-3.1,2.4-3.1,4.4v9.4c0,1.9,1.5,3.4,3.4,3.4h17.4c1.9,0,3.5-1.5,3.5-3.5v-9.4c0-2-1.2-3.7-3.1-4.4Z"/>
      <path class="cls-1" d="M42,34.7c-3.6,0-6.5-2.9-6.5-6.5s2.9-6.5,6.5-6.5,6.5,2.9,6.5,6.5-2.9,6.5-6.5,6.5ZM42,24.1c-2.2,0-4,1.8-4,4s1.8,4,4,4,4-1.8,4-4-1.8-4-4-4Z"/>
      <path class="cls-1" d="M78.1,36.8c-2.4,0-4.5,1.7-5.1,4h-13.9c-.7,0-1.3.6-1.3,1.3s.6,1.3,1.3,1.3h13.9c.6,2.3,2.6,4,5.1,4s5.2-2.3,5.2-5.2-2.3-5.2-5.2-5.2ZM78.1,44.8c-1.5,0-2.7-1.2-2.7-2.7s1.2-2.7,2.7-2.7,2.7,1.2,2.7,2.7-1.2,2.7-2.7,2.7Z"/>
      <path class="cls-1" d="M25.6,54l-9.8,9.8c-.8-.5-1.7-.8-2.7-.8-1.4,0-2.7.5-3.7,1.5-2,2-2,5.4,0,7.4,1,1,2.4,1.5,3.7,1.5s2.7-.5,3.7-1.5c1.7-1.7,2-4.4.8-6.4l9.8-9.8c.5-.5.5-1.3,0-1.8-.5-.5-1.3-.5-1.8,0h0ZM15,70.2c-1.1,1.1-2.8,1.1-3.8,0-1.1-1.1-1.1-2.8,0-3.8.5-.5,1.2-.8,1.9-.8s1.4.3,1.9.8c1.1,1.1,1.1,2.8,0,3.8h0Z"/>
      <path class="cls-1" d="M43.3,71.4v-13.7c0-.2,0-.4-.1-.6-.2-.5-.6-.9-1.2-.9s-1.3.6-1.3,1.3v13.9c-2.3.6-4,2.6-4,5.1s.2,1.5.4,2.1c.8,1.9,2.7,3.3,4.9,3.3s5.2-2.4,5.2-5.2-.2-1.5-.4-2.1c-.6-1.5-1.9-2.7-3.5-3.1h0ZM44.7,76.4c0,1.5-1.2,2.7-2.7,2.7s-2-.7-2.5-1.6c-.1-.3-.2-.6-.2-1,0-1.5,1.2-2.7,2.7-2.7s2,.7,2.5,1.6c.1.3.2.6.2,1Z"/>
      <path class="cls-1" d="M74.6,64.7c-1-1-2.3-1.5-3.7-1.5s-1.9.3-2.7.8l-9.8-9.8c-.5-.5-1.3-.5-1.8,0-.5.5-.5,1.3,0,1.8l9.8,9.8c-1.2,2-1,4.7.8,6.4,1,1,2.3,1.5,3.7,1.5s2.7-.5,3.7-1.5c2-2,2-5.4,0-7.4h0ZM72.8,70.3c-1,1-2.8,1-3.8,0-1.1-1.1-1.1-2.8,0-3.8.5-.5,1.2-.8,1.9-.8s1.4.3,1.9.8c1.1,1.1,1.1,2.8,0,3.8h0Z"/>
      <path class="cls-1" d="M74.6,12c-1-1-2.3-1.5-3.7-1.5s-2.7.5-3.7,1.5c-1.7,1.7-2,4.4-.8,6.4l-9.8,9.8c-.5.5-.5,1.3,0,1.8s.6.4.9.4.7-.1.9-.4l9.8-9.8c.8.5,1.7.8,2.7.8,1.4,0,2.7-.5,3.7-1.5,2-2,2-5.4,0-7.4h0ZM72.8,17.6c-1,1-2.8,1-3.8,0,0,0,0,0,0,0s0,0,0,0c-1-1.1-1-2.8,0-3.8,1-1,2.8-1,3.8,0,1.1,1.1,1.1,2.8,0,3.8h0Z"/>
      <path class="cls-1" d="M24.8,40.7h-13.9c-.6-2.3-2.6-4-5.1-4s-5.2,2.4-5.2,5.2,2.4,5.2,5.2,5.2,4.5-1.7,5.1-4h13.9c.7,0,1.3-.6,1.3-1.3s-.6-1.3-1.3-1.3ZM5.9,44.6c-1.5,0-2.7-1.2-2.7-2.7s1.2-2.7,2.7-2.7,2.7,1.2,2.7,2.7-1.2,2.7-2.7,2.7Z"/>
      <path class="cls-1" d="M27.4,28.1l-9.8-9.8c1.2-2,1-4.7-.8-6.4-1-1-2.3-1.5-3.7-1.5s-2.7.5-3.7,1.5c-2,2-2,5.4,0,7.4,1,1,2.3,1.5,3.7,1.5s1.9-.3,2.7-.8l9.8,9.8c.2.2.6.4.9.4s.6-.1.9-.4c.5-.5.5-1.3,0-1.8h0ZM11.2,17.5c-1.1-1.1-1.1-2.8,0-3.8.5-.5,1.2-.8,1.9-.8s1.4.3,1.9.8c1.1,1.1,1.1,2.8,0,3.8-1,1-2.8,1-3.8,0h0Z"/>
      <path class="cls-1" d="M47.3,7.6c0-.8-.2-1.5-.5-2.1-.8-1.9-2.7-3.3-4.9-3.3s-5.2,2.4-5.2,5.2.2,1.5.4,2.1c.6,1.5,1.9,2.7,3.5,3.1v3.7c0,.4.2.7.4.9.2.2.6.4.9.4.7,0,1.3-.6,1.3-1.3v-3.7c2.3-.6,4-2.6,4-5.1h0ZM44.7,7.4c0,1.5-1.2,2.7-2.7,2.7s-2-.7-2.5-1.6c-.1-.3-.2-.6-.2-1,0-1.5,1.2-2.7,2.7-2.7s2,.7,2.5,1.6c.1.3.2.6.2,1h0Z"/>
      <path class="cls-1" d="M42,45.7c-.7,0-1.3-.6-1.3-1.3v-4.5c0-.7.6-1.3,1.3-1.3s1.3.6,1.3,1.3v4.5c0,.7-.6,1.3-1.3,1.3Z"/>
    </g>
  </g>
</svg>