<?xml version="1.0" encoding="UTF-8"?>
<svg xmlns="http://www.w3.org/2000/svg" width="32" height="32" version="1.1" viewBox="0 0 32 32">
  <!-- Generator: Adobe Illustrator 28.7.1, SVG Export Plug-In . SVG Version: 1.2.0 Build 142)  -->
  <g>
    <g id="Layer_1">
      <path d="M30.219,4.401H1.781c-.619,0-1.123.503-1.123,1.122v20.954c0,.619.503,1.122,1.123,1.122h28.438c.619,0,1.123-.503,1.123-1.122V5.523c0-.619-.503-1.122-1.123-1.122ZM2.529,8.891c0-.207.168-.375.375-.375h26.192c.207,0,.375.168.375.375v16.464c0,.206-.168.374-.375.374H2.904c-.207,0-.375-.168-.375-.374V8.891ZM2.904,7.02c-.207,0-.375-.168-.375-.375s.168-.374.375-.374.375.168.375.374-.168.375-.375.375ZM5.149,7.02c-.207,0-.375-.168-.375-.375s.168-.374.375-.374.375.168.375.374-.168.375-.375.375ZM7.02,6.646c0-.206.168-.374.375-.374s.374.168.374.374-.168.375-.374.375-.375-.168-.375-.375Z"/>
      <polygon points="14.129 21.549 9.858 17.278 10.917 16.219 14.129 19.432 21.083 12.478 22.142 13.536 14.129 21.549"/>
    </g>
  </g>
</svg>