<?xml version="1.0" encoding="UTF-8"?>
<svg xmlns="http://www.w3.org/2000/svg" width="32" height="32" version="1.1" viewBox="0 0 32 32">
  <!-- Generator: Adobe Illustrator 28.7.1, SVG Export Plug-In . SVG Version: 1.2.0 Build 142)  -->
  <g>
    <g id="Layer_1">
      <path d="M20.677,15.904s-.004.001-.006.002h0l.007-.002ZM23.018,13.72c-.264-.805-.883-1.479-1.662-1.811l-.03-.011c-.177-.068-.36-.126-.545-.17-.22-.054-.447-.091-.672-.111l-.011-.002c-.282-.022-.561-.14-.774-.327-.212-.188-.364-.451-.421-.729-.055-.279-.018-.58.105-.835.124-.257.334-.473.587-.604.185-.094.397-.146.606-.146.02,0,.033,0,.054.002.225.009.452.078.644.198.192.12.355.292.463.491.107.199.164.428.161.655-.009.451.351.822.801.831.45.007.823-.351.831-.803.009-.508-.116-1.016-.358-1.464-.244-.447-.604-.827-1.036-1.097-.257-.159-.539-.273-.831-.348l.002-.698v-.002c0-.45-.366-.816-.818-.816s-.816.366-.816.816v-.002l-.002.75c-.153.049-.303.107-.447.181-.569.292-1.036.77-1.313,1.346-.277.576-.36,1.239-.234,1.867.127.626.46,1.204.94,1.629.478.423,1.093.683,1.732.733h-.011c.144.013.292.037.432.07.111.028.221.063.329.103.342.149.624.456.741.813.116.358.072.779-.12,1.104-.151.255-.393.462-.67.57l-.005.002h-.001c-.152.058-.317.089-.485.089-.133,0-.264-.018-.388-.057-.284-.085-.543-.271-.713-.515-.17-.242-.258-.548-.242-.846.024-.451-.321-.835-.772-.859-.45-.024-.835.321-.859.772-.037.661.155,1.327.535,1.87.374.534.926.935,1.547,1.131l-.052.751h.004c-.001.019-.006.036-.006.055v.002c0,.439.347.8.788.816.439.015.812-.321.842-.761l.057-.823c.115-.029.229-.063.34-.106l.007-.004-.006.004c.617-.242,1.145-.692,1.483-1.263.43-.729.528-1.638.264-2.443ZM22.312,28.188h-.002l-.007.003s-.004.002-.006.003l.015-.006ZM31.634,20.356c-.09.548-.388,1.056-.82,1.405l-.005.004-7.225,5.668-.009.007c-.395.294-.823.546-1.271.75l-.008.003c-.896.406-1.878.613-2.86.613-.628,0-1.256-.085-1.861-.255l.113.015-.125-.018-5.833-1.824.011.004c-.574-.162-1.156-.281-1.747-.356l-.009-.002h-.002l.011.002c-.481-.062-.966-.092-1.45-.096-.075.325-.25.626-.506.842-.279.234-.639.366-1.001.366-.027,0-.06-.002-.088-.004l-4.86.006h-.004c-.447-.006-.884-.183-1.206-.491-.319-.307-.515-.735-.541-1.176v-.024l.002-6.666v.002c0-.419.179-.831.486-1.115.281-.259.655-.403,1.032-.403.046,0,.091.002.139.006l-.041-.002,4.969.004-.063.006c.07-.011.144-.017.214-.017.41,0,.82.172,1.106.476h-.002c.286.305.434.728.402,1.143v.219l.685.008h.002c.209,0,.417-.037.615-.107.244-.089.471-.229.655-.412l.007-.006c.164-.155.341-.296.523-.428-1.63-2.854-1.784-6.497-.374-9.468,1.448-3.052,4.489-5.281,7.834-5.744.462-.065.923-.096,1.388-.096,1.437,0,2.875.303,4.19.89,1.737.777,3.248,2.049,4.309,3.63,1.062,1.579,1.669,3.458,1.732,5.36.053,1.596-.281,3.2-.952,4.648.064-.005.129-.012.193-.012.181,0,.366.022.543.065.561.14,1.062.499,1.372.986.299.469.417,1.047.329,1.595ZM7.741,25.858h0s0-6.662,0-6.662l.002-.033c.013-.181-.054-.371-.177-.504-.122-.131-.307-.209-.491-.209-.031,0-.061.002-.09.006-.02.004-.043.006-.063.006l-4.967-.004-.039-.002c-.022-.002-.037-.004-.059-.004-.168,0-.34.066-.462.179-.135.125-.216.312-.216.497l-.002,6.643c.013.229.116.456.282.615.168.161.401.255.631.257l4.88-.004.026.002h.039c.166,0,.332-.061.458-.166.166-.14.264-.369.249-.587l-.002-.03ZM11.785,18.064c.56-.285,1.168-.476,1.793-.55h.002c.205-.024.412-.037.617-.037.711,0,1.42.142,2.075.417l.006.002,6.243,2.727,5.545-2.531c.865-1.505,1.302-3.254,1.244-4.989-.059-1.745-.617-3.471-1.59-4.921-.975-1.449-2.361-2.618-3.955-3.331-1.204-.539-2.526-.818-3.846-.818-.428,0-.851.03-1.274.089-3.065.423-5.864,2.476-7.19,5.271-1.289,2.714-1.152,6.059.331,8.67ZM30.596,19.213c-.194-.305-.513-.534-.866-.622-.109-.026-.223-.041-.34-.041-.251,0-.5.065-.716.186l-.033.017-5.208,2.377c.218.188.4.418.529.677.22.443.279.962.168,1.444-.135.578-.517,1.091-1.034,1.385-.329.185-.7.279-1.071.279-.218,0-.438-.031-.648-.1h.002l-6.746-2.112c-.222-.07-.345-.307-.277-.528.07-.222.307-.343.528-.275l6.746,2.114h.002c.126.041.259.061.393.061.231,0,.46-.059.655-.17.312-.177.548-.495.63-.846.068-.292.031-.609-.102-.879-.133-.269-.363-.49-.636-.614l-6.632-2.898.004.002c-.55-.233-1.148-.353-1.748-.353-.174,0-.347.011-.519.031h-.002c-.949.113-1.859.537-2.554,1.193l.006-.006c-.271.266-.602.475-.96.604-.288.103-.595.157-.899.157h-.013l-.674-.008v5.148c.507.005,1.014.037,1.516.101l.011.002h.002l-.011-.002c.631.081,1.255.209,1.868.38l.011.004,5.82,1.82h.001c.532.15,1.082.225,1.634.225.866,0,1.728-.183,2.513-.537l-.013.006.015-.006c.396-.18.772-.401,1.12-.661l7.22-5.665-.004.002c.271-.218.462-.543.517-.886.057-.345-.018-.713-.207-1.006Z"/>
    </g>
  </g>
</svg>