<?xml version="1.0" encoding="UTF-8"?>
<svg xmlns="http://www.w3.org/2000/svg" width="80" height="80" version="1.1" viewBox="0 0 80 80">
  <!-- Generator: Adobe Illustrator 28.7.1, SVG Export Plug-In . SVG Version: 1.2.0 Build 142)  -->
  <g>
    <g id="Layer_1">
      <path d="M37.292,79.189c-9.268,0-17.832-3.383-24.117-9.525-6.672-6.521-10.199-15.431-10.199-25.765,0-11.508,3.955-22.222,11.136-30.166C21.646,5.4,32.262.811,44.007.811c9.582,0,17.843,3.219,23.889,9.31,5.886,5.929,9.127,14.27,9.127,23.489,0,17.907-10.452,27.276-20.777,27.276-2.756,0-5.364-1.08-7.157-2.963-.826-.867-1.732-2.167-2.267-4.012-3.771,4.686-8.478,6.975-14.294,6.975-7.646,0-13.196-6.37-13.196-15.146,0-6.966,2.772-13.857,7.605-18.906,5.099-5.327,12.046-8.26,19.562-8.26,4.443,0,8.895.879,12.217,2.412l1.263.583-10.626,28.442c-.076,2.434.582,4.452,1.908,5.845,1.23,1.291,3.047,2.032,4.986,2.032,11.672,0,17.779-12.213,17.779-24.278,0-17.547-12.344-29.801-30.018-29.801-11.045,0-20.613,4.127-27.67,11.934-6.682,7.393-10.362,17.392-10.362,28.156,0,9.509,3.214,17.677,9.296,23.621,5.721,5.591,13.541,8.671,22.021,8.671,7.394,0,13.124-1.283,18.579-4.159l1.399,2.652c-5.909,3.116-12.07,4.505-19.977,4.505ZM46.498,21.571c-6.691,0-12.869,2.605-17.397,7.335-4.304,4.497-6.773,10.632-6.773,16.834,0,7.153,4.194,12.148,10.199,12.148,5.873,0,10.434-2.855,13.94-8.728l.01-.023,9.699-25.961c-2.768-1.028-6.213-1.605-9.679-1.605Z"/>
    </g>
  </g>
</svg>