<?xml version="1.0" encoding="UTF-8"?>
<svg xmlns="http://www.w3.org/2000/svg" width="84" height="84" version="1.1" viewBox="0 0 84 84">
  <defs>
    <style>
      .cls-1 {
        fill: #f5821f;
      }
    </style>
  </defs>
  <!-- Generator: Adobe Illustrator 28.7.1, SVG Export Plug-In . SVG Version: 1.2.0 Build 142)  -->
  <g>
    <g id="Layer_1">
      <g>
        <path class="cls-1" d="M998.737,1226.176c-.305,0-.588-.195-.685-.501l-13.724-42.986c-.121-.379.088-.784.467-.904.379-.121.784.088.904.467l13.724,42.986c.121.379-.088.784-.467.904-.073.023-.147.034-.219.034Z"/>
        <path class="cls-1" d="M967.328,1226.176c-.07,0-.142-.01-.213-.032-.38-.117-.592-.52-.475-.9l13.311-43.099c.117-.38.52-.593.9-.475.38.117.592.52.475.9l-13.311,43.099c-.095.309-.38.507-.687.507Z"/>
        <path class="cls-1" d="M982.762,1183.354c-2.337,0-4.238-1.901-4.238-4.238s1.901-4.238,4.238-4.238,4.238,1.901,4.238,4.238-1.901,4.238-4.238,4.238ZM982.762,1176.318c-1.543,0-2.799,1.255-2.799,2.799s1.256,2.799,2.799,2.799,2.799-1.255,2.799-2.799-1.255-2.799-2.799-2.799Z"/>
        <path class="cls-1" d="M977.521,1185.532c-.174,0-.349-.063-.487-.19-1.736-1.598-2.732-3.867-2.732-6.226,0-4.665,3.795-8.46,8.46-8.46s8.459,3.795,8.459,8.46c0,2.26-.88,4.384-2.478,5.982-.281.281-.737.281-1.018,0-.281-.281-.281-.737,0-1.018,1.326-1.326,2.056-3.089,2.056-4.964,0-3.871-3.149-7.02-7.02-7.02s-7.021,3.149-7.021,7.02c0,1.957.827,3.84,2.268,5.167.292.269.311.724.042,1.017-.142.154-.335.232-.53.232Z"/>
        <path class="cls-1" d="M989.839,1190.273c-.23,0-.456-.11-.595-.314-.224-.328-.139-.776.189-1,3.253-2.217,5.195-5.888,5.195-9.819,0-2.862-1.032-5.626-2.907-7.783-.261-.3-.229-.755.071-1.015.3-.261.755-.229,1.015.071,2.102,2.419,3.259,5.519,3.259,8.727,0,4.407-2.177,8.522-5.823,11.008-.124.085-.265.125-.405.125Z"/>
        <path class="cls-1" d="M970.437,1177.225c-.05,0-.1-.005-.151-.016-.389-.083-.637-.465-.554-.854,1.299-6.101,6.775-10.529,13.021-10.529,3.001,0,5.835.975,8.194,2.819.313.245.368.697.124,1.01-.244.313-.697.369-1.01.124-2.103-1.645-4.63-2.514-7.307-2.514-5.571,0-10.455,3.949-11.613,9.389-.072.338-.371.57-.703.57Z"/>
        <path class="cls-1" d="M975.864,1190.404c-.135,0-.272-.038-.393-.118-3.042-1.992-5.161-5.176-5.812-8.736-.072-.391.187-.766.578-.837.391-.072.766.188.837.578.58,3.174,2.47,6.014,5.185,7.791.332.218.426.664.208.996-.138.211-.368.326-.603.326Z"/>
        <path class="cls-1" d="M991.413,1195.222c-.251,0-.495-.132-.627-.366-.196-.346-.073-.785.273-.981,5.309-2.999,8.607-8.645,8.607-14.735,0-8.487-6.338-15.698-14.743-16.773-.394-.05-.673-.411-.623-.805.05-.394.414-.672.805-.622,9.121,1.167,15.999,8.992,15.999,18.201,0,6.609-3.578,12.735-9.338,15.988-.112.063-.233.093-.353.093Z"/>
        <path class="cls-1" d="M974.163,1195.26c-.119,0-.24-.029-.351-.092-5.804-3.244-9.409-9.386-9.409-16.029,0-4.574,1.693-8.956,4.767-12.339,3.053-3.359,7.211-5.46,11.708-5.917.392-.039.749.248.789.643.04.395-.248.749-.643.789-4.143.421-7.974,2.357-10.788,5.453-2.833,3.117-4.393,7.155-4.393,11.37,0,6.122,3.323,11.782,8.672,14.772.347.194.471.632.277.979-.132.236-.377.369-.629.369Z"/>
        <path class="cls-1" d="M993.029,1200.072c-.262,0-.515-.144-.642-.393-.18-.354-.04-.788.315-.968,7.403-3.77,12.001-11.269,12.001-19.571,0-12.102-9.846-21.949-21.949-21.949-.397,0-.72-.322-.72-.72s.322-.72.72-.72c12.896,0,23.388,10.492,23.388,23.388,0,8.845-4.9,16.836-12.787,20.853-.105.053-.216.079-.326.079Z"/>
        <path class="cls-1" d="M972.864,1200.263c-.105,0-.212-.023-.314-.072-3.892-1.89-7.184-4.82-9.518-8.474-2.398-3.753-3.666-8.102-3.666-12.577,0-4.803,1.445-9.418,4.179-13.346,2.671-3.838,6.377-6.761,10.717-8.453.37-.144.787.039.932.409s-.039.787-.409.932c-4.073,1.588-7.551,4.331-10.059,7.934-2.565,3.686-3.921,8.016-3.921,12.524,0,4.199,1.19,8.28,3.44,11.802,2.192,3.429,5.281,6.18,8.934,7.954.358.174.507.604.333.962-.124.256-.381.405-.648.405Z"/>
        <path class="cls-1" d="M994.555,1204.934c-.27,0-.529-.153-.651-.413-.17-.359-.015-.788.344-.958,4.566-2.152,8.432-5.535,11.18-9.783,2.821-4.36,4.312-9.422,4.312-14.64,0-6.254-2.189-12.35-6.162-17.165-.253-.307-.209-.76.097-1.013.306-.253.76-.21,1.013.097,4.186,5.072,6.491,11.494,6.491,18.081,0,5.495-1.571,10.828-4.543,15.422-2.895,4.474-6.966,8.037-11.775,10.304-.099.047-.204.069-.306.069Z"/>
        <path class="cls-1" d="M955.112,1177.976c-.016,0-.033,0-.049-.002-.397-.027-.696-.37-.67-.766.482-7.18,3.646-13.855,8.909-18.796,5.287-4.964,12.195-7.697,19.451-7.697,6.733,0,13.264,2.397,18.388,6.748.303.257.34.711.083,1.014-.257.303-.711.34-1.014.083-4.865-4.131-11.065-6.406-17.457-6.406-6.889,0-13.447,2.595-18.466,7.307-4.997,4.691-8.001,11.028-8.458,17.843-.026.38-.342.671-.717.671Z"/>
        <path class="cls-1" d="M970.96,1204.937c-.103,0-.207-.022-.306-.069-9.326-4.394-15.556-13.498-16.258-23.76-.027-.396.272-.74.669-.767.396-.028.74.272.767.669.666,9.742,6.581,18.385,15.435,22.556.36.169.514.598.344.958-.123.26-.382.413-.652.413Z"/>
        <path class="cls-1" d="M996.142,1209.75c-.275,0-.537-.158-.657-.425-.163-.363,0-.788.362-.951,11.5-5.158,18.93-16.633,18.93-29.234,0-8.169-3.076-15.947-8.661-21.902-5.559-5.928-13.071-9.496-21.152-10.046-.396-.027-.696-.37-.669-.767.027-.397.37-.696.767-.669,8.445.576,16.295,4.304,22.104,10.498,5.836,6.223,9.05,14.351,9.05,22.887,0,13.166-7.764,25.157-19.781,30.547-.096.043-.196.063-.294.063Z"/>
        <path class="cls-1" d="M969.366,1209.75c-.098,0-.199-.02-.294-.063-12.016-5.39-19.781-17.381-19.781-30.547,0-17.774,13.889-32.451,31.621-33.413.395-.021.736.283.758.68.021.397-.283.736-.68.758-16.968.921-30.26,14.966-30.26,31.976,0,12.6,7.431,24.075,18.931,29.234.363.163.525.588.362.951-.12.267-.382.425-.657.425Z"/>
        <path class="cls-1" d="M967.726,1214.533c-.096,0-.193-.019-.286-.06-14.085-6.113-23.186-19.982-23.186-35.334,0-21.229,17.271-38.5,38.5-38.5s38.5,17.271,38.5,38.5c0,15.35-9.1,29.219-23.183,35.333-.364.158-.788-.009-.947-.374s.009-.788.374-.947c13.557-5.885,22.317-19.236,22.317-34.012,0-20.435-16.626-37.061-37.061-37.061s-37.061,16.625-37.061,37.061c0,14.778,8.761,28.129,22.32,34.013.364.158.532.582.374.947-.118.271-.383.433-.66.433Z"/>
        <path class="cls-1" d="M998.946,1226.276h-31.663c-.397,0-.72-.322-.72-.72s.322-.72.72-.72h31.663c.397,0,.72.322.72.72s-.322.72-.72.72Z"/>
        <path class="cls-1" d="M982.762,1226.276c-.397,0-.72-.322-.72-.72v-42.922c0-.397.322-.72.72-.72s.72.322.72.72v42.922c0,.397-.322.72-.72.72Z"/>
        <path class="cls-1" d="M967.727,1225.518c-.25,0-.493-.13-.625-.362-.197-.345-.078-.785.267-.982l14.222-8.134-8.005-11.67c-.197-.287-.16-.674.087-.919l8.137-8.054-3.32-6.7c-.176-.356-.031-.788.325-.964.356-.177.788-.031.964.325l3.551,7.165c.138.278.082.613-.138.831l-8.079,7.997,8.107,11.818c.114.166.153.372.108.568-.045.196-.17.364-.344.464l-14.9,8.522c-.113.064-.236.095-.357.095Z"/>
        <path class="cls-1" d="M997.783,1225.518c-.121,0-.244-.031-.357-.095l-14.9-8.522c-.174-.1-.299-.268-.344-.464-.045-.196-.006-.402.108-.568l8.107-11.818-8.079-7.997c-.221-.218-.276-.553-.139-.831l3.551-7.165c.176-.356.608-.502.964-.325.356.176.502.608.325.964l-3.321,6.7,8.137,8.054c.247.245.284.632.087.919l-8.005,11.67,14.222,8.134c.345.197.465.637.267.982-.133.232-.376.362-.625.362Z"/>
      </g>
      <path class="cls-1" d="M48.682,48.427c-.217,0-.43-.104-.561-.297-.211-.31-.131-.732.179-.943,3.068-2.091,4.899-5.553,4.899-9.26,0-2.699-.974-5.306-2.741-7.34-.246-.283-.216-.712.067-.957.283-.246.712-.216.957.067,1.982,2.282,3.074,5.205,3.074,8.231,0,4.157-2.053,8.038-5.492,10.382-.117.08-.25.118-.382.118Z"/>
      <path class="cls-1" d="M30.384,36.122c-.047,0-.094-.005-.142-.015-.367-.078-.601-.438-.523-.805,1.225-5.754,6.389-9.93,12.28-9.93,2.83,0,5.503.919,7.727,2.659.295.231.347.657.117.953-.231.295-.657.348-.953.117-1.984-1.551-4.367-2.371-6.891-2.371-5.254,0-9.861,3.724-10.953,8.855-.068.319-.35.538-.663.538Z"/>
      <path class="cls-1" d="M35.502,48.551c-.127,0-.256-.036-.371-.111-2.869-1.879-4.867-4.882-5.481-8.239-.067-.369.177-.722.546-.79.369-.068.722.177.79.546.547,2.993,2.33,5.671,4.89,7.348.314.205.401.626.196.94-.13.199-.347.307-.569.307Z"/>
      <path class="cls-1" d="M50.167,53.095c-.237,0-.467-.124-.592-.345-.184-.326-.069-.74.257-.925,5.007-2.828,8.117-8.153,8.117-13.897,0-8.004-5.978-14.805-13.904-15.819-.372-.048-.635-.387-.587-.759.048-.372.39-.634.759-.587,8.602,1.101,15.089,8.48,15.089,17.166,0,6.233-3.374,12.01-8.807,15.079-.105.06-.22.088-.333.088Z"/>
      <path class="cls-1" d="M33.898,53.131c-.112,0-.226-.028-.331-.086-5.474-3.06-8.874-8.852-8.874-15.117,0-4.314,1.597-8.447,4.496-11.637,2.879-3.168,6.801-5.15,11.042-5.581.37-.036.706.234.744.607.038.373-.234.706-.607.744-3.907.397-7.521,2.223-10.174,5.143-2.672,2.94-4.143,6.748-4.143,10.724,0,5.773,3.134,11.112,8.179,13.932.327.183.444.596.261.924-.124.222-.355.348-.593.348Z"/>
      <path class="cls-1" d="M51.69,57.669c-.247,0-.485-.135-.605-.371-.17-.334-.037-.743.297-.913,6.981-3.556,11.318-10.628,11.318-18.457,0-11.414-9.286-20.7-20.7-20.7-.375,0-.679-.304-.679-.679s.304-.679.679-.679c12.162,0,22.057,9.895,22.057,22.057,0,8.342-4.621,15.878-12.06,19.667-.099.05-.204.074-.308.074Z"/>
      <path class="cls-1" d="M32.673,57.849c-.099,0-.2-.022-.296-.068-3.671-1.783-6.775-4.546-8.977-7.992-2.262-3.54-3.457-7.641-3.457-11.861,0-4.53,1.363-8.882,3.941-12.587,2.519-3.62,6.014-6.376,10.107-7.972.349-.136.743.037.879.386s-.037.743-.386.879c-3.841,1.497-7.121,4.085-9.486,7.482-2.419,3.476-3.698,7.56-3.698,11.811,0,3.961,1.122,7.809,3.244,11.131,2.067,3.234,4.981,5.828,8.426,7.501.337.164.478.57.314.907-.117.242-.359.382-.611.382Z"/>
      <path class="cls-1" d="M53.13,62.254c-.255,0-.499-.144-.614-.389-.16-.339-.015-.743.324-.903,4.306-2.03,7.952-5.221,10.544-9.227,2.661-4.112,4.067-8.886,4.067-13.807,0-5.898-2.064-11.648-5.812-16.189-.239-.289-.198-.717.092-.955.289-.239.717-.198.955.091,3.948,4.784,6.122,10.84,6.122,17.053,0,5.183-1.482,10.212-4.285,14.544-2.73,4.219-6.57,7.579-11.105,9.717-.094.044-.192.065-.289.065Z"/>
      <path class="cls-1" d="M15.931,36.83c-.015,0-.031,0-.046-.002-.374-.025-.657-.349-.632-.723.455-6.771,3.439-13.067,8.402-17.727,4.987-4.681,11.502-7.259,18.345-7.259,6.35,0,12.509,2.26,17.342,6.364.286.243.321.671.078.957-.242.286-.671.321-.956.078-4.588-3.896-10.435-6.042-16.464-6.042-6.497,0-12.682,2.448-17.416,6.892-4.713,4.424-7.546,10.4-7.977,16.828-.024.359-.322.633-.676.633Z"/>
      <path class="cls-1" d="M30.877,62.257c-.097,0-.195-.021-.289-.065-8.795-4.144-14.671-12.73-15.333-22.408-.026-.374.257-.698.631-.723.374-.026.698.257.723.631.629,9.188,6.207,17.339,14.557,21.273.339.16.484.564.325.903-.116.246-.36.39-.615.39Z"/>
      <path class="cls-1" d="M54.626,66.796c-.259,0-.507-.149-.62-.401-.154-.342,0-.744.341-.897,10.846-4.865,17.854-15.687,17.854-27.57,0-7.704-2.901-15.04-8.168-20.656-5.243-5.59-12.328-8.955-19.948-9.475-.374-.025-.656-.349-.631-.723.026-.374.349-.657.723-.631,7.964.543,15.368,4.059,20.846,9.9,5.504,5.869,8.535,13.534,8.535,21.585,0,12.417-7.323,23.725-18.655,28.809-.09.04-.185.06-.277.06Z"/>
      <path class="cls-1" d="M29.374,66.796c-.093,0-.187-.019-.277-.06-11.333-5.084-18.655-16.392-18.655-28.809,0-16.763,13.099-30.605,29.822-31.512.373-.02.694.267.714.641.02.374-.267.694-.641.714-16.003.868-28.538,14.115-28.538,30.157,0,11.883,7.008,22.705,17.854,27.57.342.153.495.555.342.897-.113.252-.361.401-.62.401Z"/>
      <path class="cls-1" d="M27.827,71.308c-.09,0-.182-.018-.27-.056-13.283-5.765-21.867-18.845-21.867-33.323C5.69,17.907,21.979,1.618,42,1.618s36.31,16.288,36.31,36.31c0,14.477-8.582,27.557-21.864,33.322-.344.149-.744-.008-.893-.352s.009-.744.352-.893c12.786-5.55,21.048-18.141,21.048-32.077,0-19.273-15.68-34.952-34.953-34.952S7.047,18.655,7.047,37.928c0,13.937,8.263,26.529,21.05,32.078.344.149.501.549.352.893-.111.256-.361.409-.623.409Z"/>
      <path class="cls-1" d="M57.27,82.382h-29.862c-.375,0-.679-.304-.679-.679s.304-.679.679-.679h29.862c.375,0,.679.304.679.679s-.304.679-.679.679Z"/>
      <path class="cls-1" d="M57.72,81.403l-12.943-40.541c-.007-.022-.024-.038-.033-.059.771-.729,1.26-1.754,1.26-2.897,0-2.204-1.793-3.997-3.997-3.997s-3.997,1.793-3.997,3.997c0,1.17.514,2.214,1.318,2.946l-12.526,40.558c-.111.358.09.738.448.849.067.021.134.03.201.03.29,0,.558-.187.648-.479l.073-.237,13.156-7.524v7.654c0,.375.304.679.679.679s.679-.304.679-.679v-7.647l13.151,7.522c.106.061.222.09.336.09.067,0,.127-.031.19-.05l.063.198c.092.288.359.472.646.472.068,0,.138-.01.207-.032.357-.114.554-.496.44-.853ZM49.353,59.655l-6.46-6.394,2.687-5.422,3.772,11.816ZM45.024,46.097c-.087.063-.165.139-.216.242l-2.122,4.281v-8.787c.311-.054.613-.135.895-.257l1.443,4.52ZM42.008,35.266c1.455,0,2.639,1.184,2.639,2.639s-1.184,2.639-2.639,2.639-2.64-1.184-2.64-2.639,1.184-2.639,2.64-2.639ZM41.329,41.833v8.814l-2.135-4.308c-.025-.051-.065-.087-.099-.128l1.422-4.604c.258.104.531.178.813.226ZM38.527,48.05l2.582,5.211-6.037,5.976,3.455-11.187ZM28.76,79.673l5.249-16.995,6.894,10.05-12.143,6.945ZM34.793,61.422l6.536-6.47v15.997l-6.536-9.528ZM42.686,54.966l6.522,6.456-6.522,9.508v-15.965ZM43.099,72.729l7.116-10.373,5.641,17.669-12.757-7.296Z"/>
      <path class="cls-1" d="M37.065,43.956c.183,0,.366-.074.5-.219.254-.276.236-.705-.04-.959-1.359-1.251-2.139-3.027-2.139-4.873,0-3.651,2.97-6.621,6.621-6.621s6.621,2.97,6.621,6.621c0,1.769-.689,3.431-1.939,4.682-.265.265-.265.695,0,.96.265.265.695.265.96,0,1.507-1.507,2.337-3.51,2.337-5.642,0-4.399-3.579-7.978-7.978-7.978s-7.978,3.579-7.978,7.978c0,2.224.939,4.364,2.577,5.872.13.12.295.179.459.179Z"/>
    </g>
  </g>
</svg>