<?xml version="1.0" encoding="UTF-8"?>
<svg xmlns="http://www.w3.org/2000/svg" width="84" height="84" version="1.1" viewBox="0 0 84 84">
  <defs>
    <style>
      .cls-1 {
        fill: #040404;
      }
    </style>
  </defs>
  <!-- Generator: Adobe Illustrator 28.7.1, SVG Export Plug-In . SVG Version: 1.2.0 Build 142)  -->
  <g>
    <g id="Layer_1">
      <path class="cls-1" d="M73.151,14.986c.045-2.117-.463-3.05-2.852-3.153-9.818-.422-18.721-3.543-26.397-9.796-1.296-1.057-2.255-1.181-3.606-.079-7.577,6.184-16.329,9.408-26.058,9.833-2.507.109-3.425.893-3.389,3.468.119,8.554-.092,17.114.045,25.668.307,18.99,10.747,34.381,27.671,40.948,1.669.648,3.27,1.36,5.307.631,12.697-4.553,21.441-13.105,26.454-25.574,3.562-8.861,2.707-18.167,2.794-27.379,0-4.856-.072-9.715.036-14.569l-.004.002ZM69.66,46.916c-2.153,15.718-11.073,26.433-25.719,32.412-1.454.593-2.816.365-4.32-.209-15.767-6.022-25.603-20.765-25.685-38.682-.015-3.123-.002-6.247-.006-9.37-.004-4.627.049-9.255-.034-13.88-.028-1.633.303-2.406,2.176-2.545,8.942-.663,17.078-3.675,24.303-8.993,1.245-.917,2.065-1.01,3.291-.073,7.157,5.467,15.349,8.257,24.242,9.102,1.403.134,2.36.211,2.296,2.083-.347,10.05.823,20.173-.544,30.152v.002Z"/>
      <path class="cls-1" d="M41.912,35.089c-9.726.087-17.853,8.274-17.841,17.979.011,10.027,8.042,18.032,18.098,18.039,9.73.008,17.892-8.196,17.849-17.937-.045-9.945-8.279-18.167-18.103-18.081h-.002ZM41.895,68.146c-8.292-.138-14.88-6.851-14.778-15.065.102-8.257,7.006-15.223,14.895-15.029,8.279.203,15.102,6.968,15.091,14.959-.011,8.334-6.981,15.27-15.208,15.134Z"/>
      <path class="cls-1" d="M38.943,57.416c3.065-3.445,6.022-6.774,8.982-10.097.535-.601,1.085-1.189,1.631-1.78.635-.686,1.302-.883,2.087-.194.778.686.699,1.326.058,2.065-3.839,4.436-7.669,8.88-11.485,13.335-1.015,1.185-1.905.567-2.579-.264-1.81-2.229-3.534-4.527-5.254-6.825-.52-.695-.676-1.53.058-2.181.91-.806,1.741-.35,2.357.435,1.343,1.712,2.622,3.476,4.144,5.508v-.002Z"/>
      <path d="M26.204,17.872c1.013.516,1.79,1.253,2.329,2.212.542.959.812,2.088.812,3.386s-.27,2.425-.812,3.377c-.539.953-1.316,1.681-2.329,2.185s-2.212.756-3.596.756h-3.95v-12.689h3.95c1.384,0,2.582.258,3.596.773ZM26.36,27.121c.861-.868,1.292-2.085,1.292-3.651,0-1.578-.434-2.81-1.301-3.696-.868-.886-2.116-1.329-3.742-1.329h-2.293v9.977h2.293c1.639,0,2.889-.434,3.751-1.302Z"/>
      <path d="M39.076,17.872c1.012.516,1.79,1.253,2.329,2.212.541.959.81,2.088.81,3.386s-.27,2.425-.81,3.377c-.539.953-1.317,1.681-2.329,2.185-1.015.504-2.212.756-3.596.756h-3.951v-12.689h3.951c1.384,0,2.581.258,3.596.773ZM39.23,27.121c.862-.868,1.292-2.085,1.292-3.651,0-1.578-.434-2.81-1.301-3.696-.868-.886-2.116-1.329-3.741-1.329h-2.295v9.977h2.295c1.639,0,2.888-.434,3.75-1.302Z"/>
      <path d="M46.213,29.314c-.759-.424-1.354-1.029-1.784-1.811-.431-.783-.647-1.69-.647-2.722,0-1.02.222-1.921.665-2.704s1.046-1.384,1.812-1.802c.764-.419,1.619-.628,2.566-.628s1.803.21,2.568.628,1.367,1.016,1.81,1.793c.443.776.665,1.681.665,2.713s-.228,1.939-.683,2.722c-.455.782-1.071,1.387-1.848,1.811-.776.425-1.639.637-2.585.637-.935,0-1.781-.212-2.539-.637ZM50.428,28.077c.522-.279.942-.698,1.265-1.256.32-.558.482-1.238.482-2.039s-.157-1.481-.473-2.039c-.316-.558-.729-.974-1.239-1.247-.51-.273-1.062-.41-1.656-.41-.607,0-1.163.136-1.665.41-.505.273-.908.689-1.212,1.247-.302.559-.455,1.238-.455,2.039,0,.813.148,1.499.446,2.057.298.558.695.974,1.193,1.247.498.273,1.045.41,1.639.41s1.153-.139,1.676-.419Z"/>
      <path d="M57.827,29.469c-.661-.297-1.181-.71-1.556-1.238-.376-.528-.572-1.138-.584-1.83h1.766c.061.595.307,1.096.738,1.502.431.407,1.059.61,1.885.61.788,0,1.41-.197,1.865-.592.456-.394.683-.902.683-1.52,0-.485-.133-.88-.4-1.184-.267-.303-.602-.533-1.002-.691s-.941-.328-1.621-.51c-.837-.219-1.508-.436-2.01-.655-.505-.219-.935-.562-1.293-1.029-.359-.467-.536-1.095-.536-1.884,0-.692.175-1.305.527-1.839.351-.533.846-.947,1.483-1.238s1.369-.437,2.194-.437c1.19,0,2.163.298,2.922.893s1.187,1.383,1.285,2.366h-1.821c-.061-.485-.316-.913-.764-1.283s-1.045-.556-1.784-.556c-.692,0-1.256.179-1.693.537-.437.359-.656.859-.656,1.502,0,.462.13.837.393,1.128.261.292.582.513.965.665s.919.324,1.61.519c.839.23,1.511.459,2.021.683s.947.57,1.311,1.037c.364.467.547,1.102.547,1.903,0,.619-.164,1.202-.492,1.748s-.813.989-1.456,1.329-1.402.51-2.276.51c-.837,0-1.587-.148-2.249-.446Z"/>
    </g>
  </g>
</svg>