<?xml version="1.0" encoding="UTF-8"?>
<svg xmlns="http://www.w3.org/2000/svg" width="32" height="32" version="1.1" viewBox="0 0 32 32">
  <!-- Generator: Adobe Illustrator 28.7.1, SVG Export Plug-In . SVG Version: 1.2.0 Build 142)  -->
  <g>
    <g id="Layer_1">
      <path d="M3.848,5.53c24.234,0,0,0,0,0-.508.004-.968.209-1.304.539h-.001c-.094.096-.152.227-.152.372,0,.294.239.531.531.531.142,0,.269-.053.364-.143.148-.147.352-.236.577-.236h24.275c.225,0,.429.09.577.236.095.09.222.143.364.143.292,0,.53-.238.53-.531,0-.144-.057-.275-.151-.372h-.001c-.336-.33-.796-.535-1.304-.539,0,0-24.303,0-24.303,0ZM15.468,16.44h0c-.275-.092-.514-.191-.72-.299h-.003c-.092-.048-.175-.1-.249-.161-.043-.034-.077-.069-.103-.105-.042-.058-.062-.119-.062-.184v-.726c0-.009,0-.02.001-.03.005-.07.032-.157.082-.261.06-.13.178-.255.356-.375.162-.109.394-.188.695-.238,0,0,.003,2.38.003,2.38ZM8.297,16.306h.001c.453,0,.821.368.821.822s-.368.821-.822.821-.821-.368-.821-.821.368-.822.821-.822h0ZM23.701,16.306h.001c.453,0,.821.368.821.822s-.368.821-.821.821-.822-.368-.822-.821.368-.822.821-.822h0ZM8.298,15.245h-.001c-1.04,0-1.884.843-1.884,1.884s.844,1.883,1.884,1.883,1.883-.844,1.883-1.883-.842-1.884-1.882-1.884h0ZM23.703,15.245h-.001c-1.04,0-1.883.843-1.883,1.884s.844,1.883,1.885,1.883,1.883-.844,1.883-1.883-.843-1.884-1.883-1.884h0ZM16.533,17.884h.001c.273.09.511.188.712.294l.012.006c.087.045.168.099.24.158h.001c.042.032.074.064.1.097h.001c.045.061.068.123.068.19v.714c0,.012,0,.023-.001.036-.007.07-.036.161-.09.272-.06.129-.178.252-.355.372-.157.109-.387.188-.691.236,0,0,.001-2.376.001-2.376ZM15.999,11.821c-.294,0-.53.238-.53.53v.638c-.487.061-.873.177-1.16.347-.304.183-.523.371-.657.565l-.003.005c-.121.164-.209.321-.266.47-.053.152-.088.279-.101.383h0c-.012.105-.017.171-.017.2v.731c0,.131.025.278.075.442.047.152.138.308.275.469h0c.139.165.336.317.608.468l.009.005c.379.191.792.353,1.239.488l-.003,2.699c-.303-.049-.535-.129-.698-.238-.177-.12-.295-.243-.355-.37h0c-.051-.107-.078-.196-.083-.268-.001-.01-.001-.019-.001-.03v-.286c0-.147-.055-.273-.161-.381h-.001c-.104-.104-.23-.153-.375-.153h-.004c-.144,0-.266.052-.369.157h-.001c-.104.105-.156.23-.156.377v.292c0,.026.008.095.022.205v.005c.012.097.045.222.103.372v.004c.053.148.14.304.26.466l.003.005c.134.194.356.383.664.566.283.172.669.287,1.156.347l-.003.572c0,.294.238.531.531.531s.531-.238.531-.531l-.003-.572c.488-.061.875-.175,1.161-.347.305-.182.523-.372.659-.566l.003-.005c.12-.162.207-.317.258-.465.055-.153.09-.283.104-.388.014-.107.022-.173.022-.199v-.733c0-.13-.025-.277-.075-.439-.045-.152-.14-.308-.281-.47h-.001c-.138-.164-.339-.32-.603-.469h-.001c-.379-.192-.792-.355-1.242-.49v-2.701c.304.049.535.129.696.236h.003c.172.121.288.247.352.378v.003c.051.109.079.199.084.27v.301c0,.148.051.274.156.382v.003c.105.101.23.152.375.152.147,0,.273-.053.381-.161.104-.104.156-.229.156-.375v-.291c0-.027-.008-.095-.022-.205-.014-.101-.049-.229-.104-.382h0c-.053-.149-.139-.304-.258-.466l-.003-.004c-.134-.195-.356-.383-.664-.566h-.001c-.281-.17-.665-.286-1.151-.347v-.638c-.001-.294-.24-.53-.534-.53h0ZM25.561,10.823h0s.005.016.005.016l.062.183.012.031.074.178.013.03.084.174.016.029.095.169.017.029.104.162.019.026.114.156.021.026.123.148.022.025.132.14.023.023.139.131.025.021.148.122.025.019.155.113.027.018.161.104.027.017.168.094.029.014.173.083.029.013.178.073.03.012.182.062.012.004v7.72l-.012.004-.182.062-.03.01-.178.073-.029.013-.173.084-.029.014-.168.094-.027.017-.161.103-.027.018-.155.113-.025.021-.148.122-.025.021-.139.131-.023.022-.132.142-.022.023-.125.149-.019.025-.114.156-.019.027-.104.162-.017.027-.096.169-.014.03-.084.174-.013.029-.074.179-.012.031-.062.183-.005.016H6.439l-.005-.016-.062-.183-.012-.031-.074-.179-.013-.029-.084-.174-.016-.03-.095-.169-.017-.027-.104-.162-.019-.027-.114-.156-.021-.025-.123-.149-.022-.023-.133-.142-.023-.022-.139-.131-.025-.021-.148-.122-.025-.021-.155-.113-.027-.018-.161-.103-.027-.017-.168-.094-.029-.014-.173-.084-.029-.013-.178-.073-.03-.01-.182-.062-.012-.004v-7.72l.012-.004.182-.062.03-.012.178-.073.029-.013.173-.083.029-.014.168-.094.027-.017.161-.104.027-.018.155-.113.025-.019.148-.122.025-.021.139-.131.023-.023.133-.14.022-.025.123-.148.021-.026.114-.156.019-.026.104-.162.017-.029.095-.169.016-.029.084-.174.013-.03.074-.178.012-.031.062-.183.005-.016s19.123,0,19.123,0ZM5.996,9.763c-.235,0-.443.178-.494.42l-.036.173-.043.156-.052.152-.061.149-.07.144-.079.142-.087.134-.096.13-.103.125-.11.117-.117.108-.123.103-.127.094-.135.086-.139.078-.145.07-.145.06-.151.052-.155.042-.171.036c-.265.056-.422.296-.422.56v8.472c0,.265.157.505.422.561l.171.035.155.043.151.051.145.061.145.069.139.078.135.087.127.094.123.103.117.108.11.117.103.123.096.13.087.135.079.14.07.145.061.149.052.152.043.155.036.174c.051.243.261.421.497.421h20.001c.236,0,.447-.178.498-.421l.036-.174.043-.155.051-.152.062-.149.07-.145.079-.14.087-.135.096-.13.103-.123.11-.117.117-.108.123-.103.127-.094.135-.087.139-.078.144-.069.147-.061.151-.051.155-.043.171-.035c.265-.056.422-.296.422-.561v-8.472c0-.264-.157-.504-.422-.56l-.171-.036-.155-.042-.151-.052-.145-.06-.145-.07-.139-.078-.135-.086-.127-.094-.123-.103-.117-.108-.11-.117-.103-.125-.096-.13-.087-.134-.079-.142-.07-.144-.061-.149-.052-.152-.043-.156-.036-.173c-.051-.243-.261-.422-.498-.422,0,0-20.005.003-20.005.003ZM29.215,8.849c.453,0,.821.368.821.821v14.917c0,.453-.368.82-.82.821H2.785c-.453,0-.821-.368-.821-.821v-14.917c0-.453.368-.821.821-.822h26.431ZM2.77,7.786h0c-1.034.008-1.869.848-1.869,1.883v14.917c0,1.035.835,1.876,1.869,1.882h26.459c1.034-.006,1.869-.847,1.869-1.882v-14.917c0-1.035-.835-1.876-1.869-1.883,0,0-26.459,0-26.459,0Z"/>
    </g>
  </g>
</svg>