<svg >
  <symbol xmlns="http://www.w3.org/2000/svg" version="1.1" viewBox="0 0 32 32" id="icon-run">
        <path d="M26.628,12.88c-3.304-2.207-6.626-4.389-9.973-6.531-1.652-1.058-3.315-2.101-4.988-3.125-1.497-.916-3.008-1.997-4.712-2.481-1.128-.32-2.61-.016-3.079,1.181-.375.957-.224,2.046-.224,3.057,0,1.585.002,3.17.003,4.754.004,5.66.007,11.32.011,16.98,0,1.301-.242,3.31,1.061,4.156,1.418.921,2.832.455,4.151-.374,5.769-3.626,11.737-6.957,17.644-10.351.796-.457,1.593-.914,2.389-1.37.06-.026.12-.059.181-.104.086-.049.153-.108.211-.17.827-.715,1.489-1.936.758-2.985-.808-1.16-2.275-1.864-3.434-2.637ZM28.23,17.195c-4.81,2.754-9.613,5.52-14.391,8.328-2.022,1.189-4.046,2.379-6.032,3.627-.956.601-2.299.823-2.42-.707-.08-1.017-.008-2.068-.009-3.088-.002-2.491-.003-4.981-.005-7.471-.003-4.528-.006-9.056-.009-13.584,0-1.257.031-2.223,1.548-1.793.709.201,1.369.681,1.998,1.051,1.319.778,2.621,1.582,3.92,2.392,2.846,1.774,5.658,3.601,8.461,5.44,1.269.833,2.534,1.671,3.797,2.512.436.291,4.295,2.438,3.141,3.291Z"></path>
    
  </symbol>
  <symbol xmlns="http://www.w3.org/2000/svg" version="1.1" viewBox="0 0 32 32" id="icon-sales">
        <path d="M20.677,15.904s-.004.001-.006.002h0l.007-.002ZM23.018,13.72c-.264-.805-.883-1.479-1.662-1.811l-.03-.011c-.177-.068-.36-.126-.545-.17-.22-.054-.447-.091-.672-.111l-.011-.002c-.282-.022-.561-.14-.774-.327-.212-.188-.364-.451-.421-.729-.055-.279-.018-.58.105-.835.124-.257.334-.473.587-.604.185-.094.397-.146.606-.146.02,0,.033,0,.054.002.225.009.452.078.644.198.192.12.355.292.463.491.107.199.164.428.161.655-.009.451.351.822.801.831.45.007.823-.351.831-.803.009-.508-.116-1.016-.358-1.464-.244-.447-.604-.827-1.036-1.097-.257-.159-.539-.273-.831-.348l.002-.698v-.002c0-.45-.366-.816-.818-.816s-.816.366-.816.816v-.002l-.002.75c-.153.049-.303.107-.447.181-.569.292-1.036.77-1.313,1.346-.277.576-.36,1.239-.234,1.867.127.626.46,1.204.94,1.629.478.423,1.093.683,1.732.733h-.011c.144.013.292.037.432.07.111.028.221.063.329.103.342.149.624.456.741.813.116.358.072.779-.12,1.104-.151.255-.393.462-.67.57l-.005.002h-.001c-.152.058-.317.089-.485.089-.133,0-.264-.018-.388-.057-.284-.085-.543-.271-.713-.515-.17-.242-.258-.548-.242-.846.024-.451-.321-.835-.772-.859-.45-.024-.835.321-.859.772-.037.661.155,1.327.535,1.87.374.534.926.935,1.547,1.131l-.052.751h.004c-.001.019-.006.036-.006.055v.002c0,.439.347.8.788.816.439.015.812-.321.842-.761l.057-.823c.115-.029.229-.063.34-.106l.007-.004-.006.004c.617-.242,1.145-.692,1.483-1.263.43-.729.528-1.638.264-2.443ZM22.312,28.188h-.002l-.007.003s-.004.002-.006.003l.015-.006ZM31.634,20.356c-.09.548-.388,1.056-.82,1.405l-.005.004-7.225,5.668-.009.007c-.395.294-.823.546-1.271.75l-.008.003c-.896.406-1.878.613-2.86.613-.628,0-1.256-.085-1.861-.255l.113.015-.125-.018-5.833-1.824.011.004c-.574-.162-1.156-.281-1.747-.356l-.009-.002h-.002l.011.002c-.481-.062-.966-.092-1.45-.096-.075.325-.25.626-.506.842-.279.234-.639.366-1.001.366-.027,0-.06-.002-.088-.004l-4.86.006h-.004c-.447-.006-.884-.183-1.206-.491-.319-.307-.515-.735-.541-1.176v-.024l.002-6.666v.002c0-.419.179-.831.486-1.115.281-.259.655-.403,1.032-.403.046,0,.091.002.139.006l-.041-.002,4.969.004-.063.006c.07-.011.144-.017.214-.017.41,0,.82.172,1.106.476h-.002c.286.305.434.728.402,1.143v.219l.685.008h.002c.209,0,.417-.037.615-.107.244-.089.471-.229.655-.412l.007-.006c.164-.155.341-.296.523-.428-1.63-2.854-1.784-6.497-.374-9.468,1.448-3.052,4.489-5.281,7.834-5.744.462-.065.923-.096,1.388-.096,1.437,0,2.875.303,4.19.89,1.737.777,3.248,2.049,4.309,3.63,1.062,1.579,1.669,3.458,1.732,5.36.053,1.596-.281,3.2-.952,4.648.064-.005.129-.012.193-.012.181,0,.366.022.543.065.561.14,1.062.499,1.372.986.299.469.417,1.047.329,1.595ZM7.741,25.858h0s0-6.662,0-6.662l.002-.033c.013-.181-.054-.371-.177-.504-.122-.131-.307-.209-.491-.209-.031,0-.061.002-.09.006-.02.004-.043.006-.063.006l-4.967-.004-.039-.002c-.022-.002-.037-.004-.059-.004-.168,0-.34.066-.462.179-.135.125-.216.312-.216.497l-.002,6.643c.013.229.116.456.282.615.168.161.401.255.631.257l4.88-.004.026.002h.039c.166,0,.332-.061.458-.166.166-.14.264-.369.249-.587l-.002-.03ZM11.785,18.064c.56-.285,1.168-.476,1.793-.55h.002c.205-.024.412-.037.617-.037.711,0,1.42.142,2.075.417l.006.002,6.243,2.727,5.545-2.531c.865-1.505,1.302-3.254,1.244-4.989-.059-1.745-.617-3.471-1.59-4.921-.975-1.449-2.361-2.618-3.955-3.331-1.204-.539-2.526-.818-3.846-.818-.428,0-.851.03-1.274.089-3.065.423-5.864,2.476-7.19,5.271-1.289,2.714-1.152,6.059.331,8.67ZM30.596,19.213c-.194-.305-.513-.534-.866-.622-.109-.026-.223-.041-.34-.041-.251,0-.5.065-.716.186l-.033.017-5.208,2.377c.218.188.4.418.529.677.22.443.279.962.168,1.444-.135.578-.517,1.091-1.034,1.385-.329.185-.7.279-1.071.279-.218,0-.438-.031-.648-.1h.002l-6.746-2.112c-.222-.07-.345-.307-.277-.528.07-.222.307-.343.528-.275l6.746,2.114h.002c.126.041.259.061.393.061.231,0,.46-.059.655-.17.312-.177.548-.495.63-.846.068-.292.031-.609-.102-.879-.133-.269-.363-.49-.636-.614l-6.632-2.898.004.002c-.55-.233-1.148-.353-1.748-.353-.174,0-.347.011-.519.031h-.002c-.949.113-1.859.537-2.554,1.193l.006-.006c-.271.266-.602.475-.96.604-.288.103-.595.157-.899.157h-.013l-.674-.008v5.148c.507.005,1.014.037,1.516.101l.011.002h.002l-.011-.002c.631.081,1.255.209,1.868.38l.011.004,5.82,1.82h.001c.532.15,1.082.225,1.634.225.866,0,1.728-.183,2.513-.537l-.013.006.015-.006c.396-.18.772-.401,1.12-.661l7.22-5.665-.004.002c.271-.218.462-.543.517-.886.057-.345-.018-.713-.207-1.006Z"></path>
    
  </symbol>
  <symbol xmlns="http://www.w3.org/2000/svg" version="1.1" viewBox="0 0 32 32" id="icon-visit">
        <path d="M30.219,4.401H1.781c-.619,0-1.123.503-1.123,1.122v20.954c0,.619.503,1.122,1.123,1.122h28.438c.619,0,1.123-.503,1.123-1.122V5.523c0-.619-.503-1.122-1.123-1.122ZM2.529,8.891c0-.207.168-.375.375-.375h26.192c.207,0,.375.168.375.375v16.464c0,.206-.168.374-.375.374H2.904c-.207,0-.375-.168-.375-.374V8.891ZM2.904,7.02c-.207,0-.375-.168-.375-.375s.168-.374.375-.374.375.168.375.374-.168.375-.375.375ZM5.149,7.02c-.207,0-.375-.168-.375-.375s.168-.374.375-.374.375.168.375.374-.168.375-.375.375ZM7.02,6.646c0-.206.168-.374.375-.374s.374.168.374.374-.168.375-.374.375-.375-.168-.375-.375Z"></path>
        <polygon points="14.129 21.549 9.858 17.278 10.917 16.219 14.129 19.432 21.083 12.478 22.142 13.536 14.129 21.549"></polygon>
  </symbol>
  <symbol xmlns="http://www.w3.org/2000/svg" version="1.1" viewBox="0 0 32 32" id="icon-aov">
    
        <path d="M3.848,5.53c24.234,0,0,0,0,0-.508.004-.968.209-1.304.539h-.001c-.094.096-.152.227-.152.372,0,.294.239.531.531.531.142,0,.269-.053.364-.143.148-.147.352-.236.577-.236h24.275c.225,0,.429.09.577.236.095.09.222.143.364.143.292,0,.53-.238.53-.531,0-.144-.057-.275-.151-.372h-.001c-.336-.33-.796-.535-1.304-.539,0,0-24.303,0-24.303,0ZM15.468,16.44h0c-.275-.092-.514-.191-.72-.299h-.003c-.092-.048-.175-.1-.249-.161-.043-.034-.077-.069-.103-.105-.042-.058-.062-.119-.062-.184v-.726c0-.009,0-.02.001-.03.005-.07.032-.157.082-.261.06-.13.178-.255.356-.375.162-.109.394-.188.695-.238,0,0,.003,2.38.003,2.38ZM8.297,16.306h.001c.453,0,.821.368.821.822s-.368.821-.822.821-.821-.368-.821-.821.368-.822.821-.822h0ZM23.701,16.306h.001c.453,0,.821.368.821.822s-.368.821-.821.821-.822-.368-.822-.821.368-.822.821-.822h0ZM8.298,15.245h-.001c-1.04,0-1.884.843-1.884,1.884s.844,1.883,1.884,1.883,1.883-.844,1.883-1.883-.842-1.884-1.882-1.884h0ZM23.703,15.245h-.001c-1.04,0-1.883.843-1.883,1.884s.844,1.883,1.885,1.883,1.883-.844,1.883-1.883-.843-1.884-1.883-1.884h0ZM16.533,17.884h.001c.273.09.511.188.712.294l.012.006c.087.045.168.099.24.158h.001c.042.032.074.064.1.097h.001c.045.061.068.123.068.19v.714c0,.012,0,.023-.001.036-.007.07-.036.161-.09.272-.06.129-.178.252-.355.372-.157.109-.387.188-.691.236,0,0,.001-2.376.001-2.376ZM15.999,11.821c-.294,0-.53.238-.53.53v.638c-.487.061-.873.177-1.16.347-.304.183-.523.371-.657.565l-.003.005c-.121.164-.209.321-.266.47-.053.152-.088.279-.101.383h0c-.012.105-.017.171-.017.2v.731c0,.131.025.278.075.442.047.152.138.308.275.469h0c.139.165.336.317.608.468l.009.005c.379.191.792.353,1.239.488l-.003,2.699c-.303-.049-.535-.129-.698-.238-.177-.12-.295-.243-.355-.37h0c-.051-.107-.078-.196-.083-.268-.001-.01-.001-.019-.001-.03v-.286c0-.147-.055-.273-.161-.381h-.001c-.104-.104-.23-.153-.375-.153h-.004c-.144,0-.266.052-.369.157h-.001c-.104.105-.156.23-.156.377v.292c0,.026.008.095.022.205v.005c.012.097.045.222.103.372v.004c.053.148.14.304.26.466l.003.005c.134.194.356.383.664.566.283.172.669.287,1.156.347l-.003.572c0,.294.238.531.531.531s.531-.238.531-.531l-.003-.572c.488-.061.875-.175,1.161-.347.305-.182.523-.372.659-.566l.003-.005c.12-.162.207-.317.258-.465.055-.153.09-.283.104-.388.014-.107.022-.173.022-.199v-.733c0-.13-.025-.277-.075-.439-.045-.152-.14-.308-.281-.47h-.001c-.138-.164-.339-.32-.603-.469h-.001c-.379-.192-.792-.355-1.242-.49v-2.701c.304.049.535.129.696.236h.003c.172.121.288.247.352.378v.003c.051.109.079.199.084.27v.301c0,.148.051.274.156.382v.003c.105.101.23.152.375.152.147,0,.273-.053.381-.161.104-.104.156-.229.156-.375v-.291c0-.027-.008-.095-.022-.205-.014-.101-.049-.229-.104-.382h0c-.053-.149-.139-.304-.258-.466l-.003-.004c-.134-.195-.356-.383-.664-.566h-.001c-.281-.17-.665-.286-1.151-.347v-.638c-.001-.294-.24-.53-.534-.53h0ZM25.561,10.823h0s.005.016.005.016l.062.183.012.031.074.178.013.03.084.174.016.029.095.169.017.029.104.162.019.026.114.156.021.026.123.148.022.025.132.14.023.023.139.131.025.021.148.122.025.019.155.113.027.018.161.104.027.017.168.094.029.014.173.083.029.013.178.073.03.012.182.062.012.004v7.72l-.012.004-.182.062-.03.01-.178.073-.029.013-.173.084-.029.014-.168.094-.027.017-.161.103-.027.018-.155.113-.025.021-.148.122-.025.021-.139.131-.023.022-.132.142-.022.023-.125.149-.019.025-.114.156-.019.027-.104.162-.017.027-.096.169-.014.03-.084.174-.013.029-.074.179-.012.031-.062.183-.005.016H6.439l-.005-.016-.062-.183-.012-.031-.074-.179-.013-.029-.084-.174-.016-.03-.095-.169-.017-.027-.104-.162-.019-.027-.114-.156-.021-.025-.123-.149-.022-.023-.133-.142-.023-.022-.139-.131-.025-.021-.148-.122-.025-.021-.155-.113-.027-.018-.161-.103-.027-.017-.168-.094-.029-.014-.173-.084-.029-.013-.178-.073-.03-.01-.182-.062-.012-.004v-7.72l.012-.004.182-.062.03-.012.178-.073.029-.013.173-.083.029-.014.168-.094.027-.017.161-.104.027-.018.155-.113.025-.019.148-.122.025-.021.139-.131.023-.023.133-.14.022-.025.123-.148.021-.026.114-.156.019-.026.104-.162.017-.029.095-.169.016-.029.084-.174.013-.03.074-.178.012-.031.062-.183.005-.016s19.123,0,19.123,0ZM5.996,9.763c-.235,0-.443.178-.494.42l-.036.173-.043.156-.052.152-.061.149-.07.144-.079.142-.087.134-.096.13-.103.125-.11.117-.117.108-.123.103-.127.094-.135.086-.139.078-.145.07-.145.06-.151.052-.155.042-.171.036c-.265.056-.422.296-.422.56v8.472c0,.265.157.505.422.561l.171.035.155.043.151.051.145.061.145.069.139.078.135.087.127.094.123.103.117.108.11.117.103.123.096.13.087.135.079.14.07.145.061.149.052.152.043.155.036.174c.051.243.261.421.497.421h20.001c.236,0,.447-.178.498-.421l.036-.174.043-.155.051-.152.062-.149.07-.145.079-.14.087-.135.096-.13.103-.123.11-.117.117-.108.123-.103.127-.094.135-.087.139-.078.144-.069.147-.061.151-.051.155-.043.171-.035c.265-.056.422-.296.422-.561v-8.472c0-.264-.157-.504-.422-.56l-.171-.036-.155-.042-.151-.052-.145-.06-.145-.07-.139-.078-.135-.086-.127-.094-.123-.103-.117-.108-.11-.117-.103-.125-.096-.13-.087-.134-.079-.142-.07-.144-.061-.149-.052-.152-.043-.156-.036-.173c-.051-.243-.261-.422-.498-.422,0,0-20.005.003-20.005.003ZM29.215,8.849c.453,0,.821.368.821.821v14.917c0,.453-.368.82-.82.821H2.785c-.453,0-.821-.368-.821-.821v-14.917c0-.453.368-.821.821-.822h26.431ZM2.77,7.786h0c-1.034.008-1.869.848-1.869,1.883v14.917c0,1.035.835,1.876,1.869,1.882h26.459c1.034-.006,1.869-.847,1.869-1.882v-14.917c0-1.035-.835-1.876-1.869-1.883,0,0-26.459,0-26.459,0Z"></path>
  </symbol>
  <symbol xmlns="http://www.w3.org/2000/svg" version="1.1" viewBox="0 0 32 32" id="icon-conversion">
    
        <path d="M24.633,24.612c-1.947,1.943-4.497,3.166-7.231,3.468-.434.047-.869.07-1.305.07-2.256.001-4.467-.627-6.386-1.813-.17-.107-.223-.331-.116-.501.106-.17.33-.223.5-.116,3.095,1.918,6.922,2.239,10.292.859,3.371-1.379,5.876-4.289,6.737-7.827s-.025-7.276-2.384-10.049v1.142h0c.003.098-.034.193-.103.264-.069.07-.162.11-.261.11-.098,0-.191-.04-.26-.11-.069-.071-.106-.166-.103-.265v-2.071c0-.022.003-.045.007-.067v-.004c.004-.021.011-.042.018-.062v-.005c.011-.021.021-.041.033-.059l.003-.004c.013-.02.028-.038.045-.055.017-.017.036-.032.055-.045l.004-.003h.001c.018-.012.038-.022.058-.032h.005c.02-.008.041-.015.063-.018h.003c.021-.004.045-.007.067-.007h2.071c.098-.003.194.034.264.103.071.069.111.162.111.261,0,.098-.04.191-.111.26-.07.069-.166.106-.264.103h-1.236c2.003,2.311,3.057,5.294,2.949,8.351-.107,3.055-1.367,5.958-3.526,8.123h0ZM7.959,24.365v-.005h0c.008-.02.015-.041.018-.062v-.004c.004-.022.007-.045.007-.067v-2.071c-.005-.197-.166-.352-.363-.352s-.358.156-.364.352v1.142c-2.385-2.803-3.265-6.59-2.36-10.158.905-3.567,3.483-6.476,6.916-7.804,3.434-1.327,7.298-.909,10.368,1.121.168.111.392.066.503-.102.111-.168.066-.393-.102-.504-3.278-2.166-7.406-2.605-11.067-1.174-3.661,1.43-6.397,4.552-7.338,8.368-.939,3.817.034,7.851,2.612,10.818h-1.237c-.201,0-.363.164-.363.364s.162.363.363.363h2.073c.022,0,.046-.001.067-.007h.004c.022-.004.044-.011.063-.018h.004c.021-.008.041-.018.059-.03l.004-.003c.04-.026.074-.061.102-.102l.003-.004c.012-.02.021-.04.029-.061,0,0,0,0,0,0ZM16.363,22.132v-1.011c1.706-.146,3.037-1.317,3.037-2.736,0-1.516-1.525-2.751-3.401-2.751-1.475,0-2.674-.908-2.674-2.024.001-1.115,1.2-2.021,2.675-2.021.867-.03,1.702.325,2.281.971.127.152.354.174.508.049.154-.125.179-.352.055-.508-.629-.723-1.524-1.164-2.482-1.222v-1.012c0-.201-.162-.363-.363-.363s-.363.162-.363.363v1.011c-1.704.146-3.037,1.317-3.037,2.736,0,1.516,1.525,2.751,3.401,2.751,1.475,0,2.674.908,2.674,2.024-.001,1.115-1.2,2.021-2.675,2.021-.867.03-1.702-.326-2.281-.971-.059-.078-.148-.128-.245-.139-.098-.012-.195.016-.272.078s-.124.152-.133.249c-.008.098.022.195.087.269.629.724,1.524,1.165,2.481,1.223v1.013c0,.201.162.364.363.364s.363-.164.363-.364c0,0,0-.001,0-.001ZM31.198,16c0,4.03-1.602,7.896-4.451,10.746-2.851,2.85-6.716,4.451-10.746,4.451s-7.896-1.602-10.746-4.451c-2.85-2.851-4.451-6.716-4.451-10.746s1.602-7.896,4.451-10.746C8.104,2.404,11.97.802,16,.802c4.029.004,7.892,1.607,10.741,4.456,2.85,2.849,4.453,6.712,4.456,10.741ZM30.471,16c0-3.838-1.524-7.518-4.239-10.232-2.714-2.715-6.394-4.239-10.232-4.239s-7.518,1.524-10.232,4.239C3.053,8.482,1.529,12.162,1.529,16s1.524,7.518,4.239,10.232c2.714,2.715,6.395,4.239,10.232,4.239,3.836-.004,7.514-1.53,10.228-4.242,2.712-2.714,4.239-6.392,4.243-10.228,0,0,0,0,0,0ZM16,25.37c-2.485,0-4.869-.988-6.626-2.745-1.757-1.757-2.744-4.141-2.744-6.625s.987-4.869,2.745-6.626c1.757-1.757,4.14-2.744,6.625-2.744s4.869.987,6.627,2.744c1.757,1.757,2.744,4.141,2.744,6.626-.003,2.484-.991,4.867-2.748,6.623-1.756,1.757-4.139,2.745-6.622,2.748,0,0,0,0,0,0ZM16,24.644c2.293,0,4.491-.91,6.112-2.532,1.621-1.621,2.532-3.819,2.532-6.112s-.91-4.491-2.532-6.112c-1.621-1.621-3.819-2.532-6.112-2.532s-4.491.91-6.112,2.532c-1.621,1.621-2.532,3.819-2.532,6.112.003,2.292.914,4.489,2.534,6.109,1.62,1.62,3.818,2.532,6.109,2.534,0,0,0,0,0,0Z"></path>
  </symbol>
  <symbol xmlns="http://www.w3.org/2000/svg" version="1.1" viewBox="0 0 32 32" id="icon-cpc">
        <path d="M30.702,27.574l-5.134-5.134,3.37-1.197c.094-.032.157-.063.22-.126.22-.22.315-.567.189-.882-.031-.094-.094-.189-.157-.283l-.032-.032c-.126-.126-.283-.189-.441-.22l-11.023-3.055c-.032,0-.063,0-.094-.032h-.094c-.22,0-.441.094-.598.252-.189.189-.252.409-.252.661,0,.032,0,.094.031.126l3.653,11.212c.063.283.283.504.535.598.315.126.661.032.882-.189.094-.094.157-.189.157-.315l.693-3.338,5.039,5.008c.158.157.378.252.598.252s.441-.094.598-.252l1.89-1.89c.315-.315.315-.85-.032-1.165h0ZM28.246,29.559l-5.575-5.575c-.126-.126-.252-.189-.409-.189-.063,0-.126,0-.189.032-.22.063-.378.252-.409.441l-.567,2.898-3.024-9.197,9.26,2.583-3.055,1.071c-.189.063-.346.22-.378.441-.032.189.032.409.157.567l5.575,5.575s-1.386,1.354-1.386,1.354Z"></path>
        <path d="M18.356,29.275c-.882.157-1.701.252-2.52.252-7.496,0-13.606-6.11-13.606-13.606S8.341,2.315,15.837,2.315s13.606,6.11,13.606,13.606c0,.598-.063,1.197-.157,1.858-.063.315.157.63.504.693.315.063.63-.157.693-.504.126-.724.158-1.386.158-2.047,0-8.157-6.645-14.803-14.803-14.803S1.034,7.764,1.034,15.921s6.645,14.803,14.803,14.803c.882,0,1.795-.094,2.74-.283.315-.063.535-.378.472-.693-.063-.315-.378-.535-.693-.472Z"></path>
        <path d="M25.537,17.244c.315.032.63-.22.661-.535.031-.346.063-.661.063-.976,0-5.795-4.724-10.519-10.519-10.519S5.223,9.937,5.223,15.732s4.724,10.519,10.519,10.519c.472,0,.976-.032,1.449-.094.315-.032.567-.346.504-.661-.032-.315-.346-.567-.661-.504-.441.063-.85.094-1.291.094-5.134,0-9.323-4.189-9.323-9.323S10.608,6.441,15.742,6.441s9.323,4.189,9.323,9.323c0,.283-.032.567-.032.85-.063.315.157.598.504.63Z"></path>
  </symbol>
  <symbol xmlns="http://www.w3.org/2000/svg" version="1.1" viewBox="0 0 32 32" id="icon-gmv">
        <path d="M28.727,9.892l-1.074-.36h.001c-1.386-.462-2.694-1.135-3.876-1.995-.137-.102-.324-.102-.461,0-.984.728-2.064,1.317-3.209,1.747-.174-.097-.349-.198-.53-.291h-.001c-1.033-.513-1.498-1.734-1.07-2.805l1.139-2.872c.285-.715.138-1.529-.378-2.099-.517-.57-1.312-.796-2.052-.584l-2.651.775h0c-.217.061-.445.061-.663.001l-3.1-.818c-.754-.196-1.555.06-2.055.655-.501.597-.615,1.43-.289,2.139l1.368,2.977c.498,1.052.116,2.312-.884,2.91-1.814,1.052-3.317,2.564-4.36,4.383-1.042,1.818-1.586,3.881-1.577,5.976,0,6.53,5.17,11.843,11.522,11.843,6.351.001,11.487-5.286,11.518-11.788l2.283-1.605c.417-.291.667-.767.666-1.276v-1.198c0-.214-.173-.387-.387-.387-.215,0-.388.173-.388.387v1.198c-.001.256-.125.496-.333.644l-3.876,2.713c-.269.19-.631.19-.9,0l-3.876-2.713h.001c-.211-.147-.336-.387-.334-.644v-6.267l1.016-.349c1.299-.439,2.527-1.067,3.644-1.863,1.183.827,2.479,1.48,3.849,1.937l.81.272v2.295h0c0,.214.173.387.388.387.214,0,.387-.173.387-.388v-2.57c0-.167-.108-.315-.267-.368,0,0,0,0,0,0ZM21.283,19.829c-.062,2-1.007,3.87-2.581,5.106-1.573,1.237-3.613,1.712-5.571,1.298-1.958-.413-3.632-1.671-4.572-3.439-.939-1.766-1.048-3.857-.296-5.712s2.285-3.282,4.19-3.895c1.904-.615,3.982-.353,5.675.712v2.907c-.001.509.246.985.663,1.276,0,0,2.492,1.747,2.492,1.747ZM18.391,9.892c-.164.055-.272.214-.263.388v2.74c-1.911-1.039-4.177-1.202-6.217-.449-2.041.754-3.655,2.353-4.431,4.385-.776,2.032-.637,4.301.382,6.222,1.019,1.921,2.817,3.311,4.934,3.809,2.118.498,4.347.06,6.116-1.206,1.77-1.264,2.907-3.232,3.119-5.396l.637.419c.535.378,1.25.378,1.786,0l.798-.544c-.307,5.814-5,10.464-10.724,10.464-5.925,0-10.748-4.965-10.748-11.069h.001c-.01-1.961.499-3.889,1.474-5.591.975-1.702,2.383-3.114,4.08-4.097.656-.379,1.139-.996,1.353-1.721h4.946c.214,0,.387-.174.387-.388s-.173-.388-.387-.388h-4.814c.02-.49-.074-.98-.279-1.426l-1.368-2.977h-.002c-.199-.437-.129-.949.18-1.317.308-.368.801-.525,1.266-.404l3.1.818c.35.096.721.096,1.07,0l2.651-.775v-.002c.456-.132.948.006,1.267.358.318.35.41.853.233,1.294l-1.046,2.628h-4.604c-.214,0-.387.174-.387.388s.173.388.387.388h4.357c-.256,1.283.356,2.583,1.507,3.205l-.76.244h0ZM21.039,14.271c0,1.029.619,1.955,1.57,2.347.95.392,2.043.172,2.769-.557.725-.73.939-1.824.541-2.773-.398-.948-1.328-1.562-2.356-1.555-1.395.01-2.522,1.142-2.523,2.537,0,0,0,0,0,0ZM25.341,14.271c0,.712-.429,1.355-1.086,1.628-.657.275-1.414.126-1.92-.375-.506-.501-.66-1.257-.392-1.917.269-.658.907-1.093,1.619-1.099.974,0,1.763.789,1.763,1.763,0,0,.016,0,.016,0ZM16.775,21.187c-.064,1.009-.853,1.821-1.86,1.914v.682c0,.215-.173.388-.387.388-.215,0-.388-.173-.388-.388v-.682c-.748-.09-1.4-.557-1.725-1.237-.084-.196.007-.424.203-.509.198-.086.426.006.51.204.269.517.817.828,1.4.798.81,0,1.472-.523,1.472-1.163s-.663-1.163-1.472-1.163c-1.24,0-2.251-.872-2.251-1.937,0-.961.807-1.756,1.865-1.937v-.687c-.001-.214.172-.387.387-.387.214,0,.387.173.387.387v.683c.759.092,1.416.571,1.732,1.267.081.198-.013.424-.211.506-.198.081-.424-.013-.506-.212-.263-.528-.814-.849-1.402-.817-.814,0-1.477.528-1.477,1.163s.663,1.163,1.477,1.163c1.24.019,2.247.891,2.247,1.965h0Z"></path>
    
  </symbol>
</svg>