<?xml version="1.0" encoding="UTF-8"?>
<svg xmlns="http://www.w3.org/2000/svg" width="84" height="84" version="1.1" viewBox="0 0 84 84">
  <!-- Generator: Adobe Illustrator 28.7.1, SVG Export Plug-In . SVG Version: 1.2.0 Build 142)  -->
  <g>
    <g id="Layer_1">
      <g id="Layer_1-2" data-name="Layer_1">
        <path d="M80.6,72.4l-13.5-13.5,8.8-3.1c.2,0,.4-.2.6-.3.6-.6.8-1.5.5-2.3,0-.2-.2-.5-.4-.7h0c-.3-.4-.7-.6-1.2-.7l-28.9-8c0,0-.2,0-.2,0h-.2c-.6,0-1.2.2-1.6.7-.5.5-.7,1.1-.7,1.7s0,.2,0,.3l9.6,29.4c.2.7.7,1.3,1.4,1.6.8.3,1.7,0,2.3-.5.2-.2.4-.5.4-.8l1.8-8.8,13.2,13.1c.4.4,1,.7,1.6.7s1.2-.2,1.6-.7l5-5c.8-.8.8-2.2,0-3.1h0ZM74.1,77.6l-14.6-14.6c-.3-.3-.7-.5-1.1-.5s-.3,0-.5,0c-.6.2-1,.7-1.1,1.2l-1.5,7.6-7.9-24.1,24.3,6.8-8,2.8c-.5.2-.9.6-1,1.2,0,.5,0,1.1.4,1.5l14.6,14.6-3.6,3.6h0Z"/>
        <path d="M48.2,76.8c-2.3.4-4.5.7-6.6.7-19.7,0-35.7-16-35.7-35.7S21.9,6.1,41.6,6.1s35.7,16,35.7,35.7-.2,3.1-.4,4.9c-.2.8.4,1.7,1.3,1.8.8.2,1.7-.4,1.8-1.3.3-1.9.4-3.6.4-5.4,0-21.4-17.4-38.8-38.8-38.8S2.7,20.4,2.7,41.8s17.4,38.8,38.8,38.8,4.7-.2,7.2-.7c.8-.2,1.4-1,1.2-1.8s-1-1.4-1.8-1.2h0Z"/>
        <path d="M67,45.3c.8,0,1.7-.6,1.7-1.4,0-.9.2-1.7.2-2.6,0-15.2-12.4-27.6-27.6-27.6s-27.6,12.4-27.6,27.6,12.4,27.6,27.6,27.6,2.6,0,3.8-.2c.8,0,1.5-.9,1.3-1.7,0-.8-.9-1.5-1.7-1.3-1.2.2-2.2.2-3.4.2-13.5,0-24.5-11-24.5-24.5s11-24.5,24.5-24.5,24.5,11,24.5,24.5,0,1.5,0,2.2c-.2.8.4,1.6,1.3,1.7Z"/>
      </g>
    </g>
  </g>
</svg>