<?xml version="1.0" encoding="UTF-8"?>
<svg xmlns="http://www.w3.org/2000/svg" width="84" height="84" version="1.1" viewBox="0 0 84 84">
  <defs>
    <style>
      .cls-1 {
        fill: #f5821f;
      }
    </style>
  </defs>
  <!-- Generator: Adobe Illustrator 28.7.1, SVG Export Plug-In . SVG Version: 1.2.0 Build 142)  -->
  <g>
    <g id="Layer_1">
      <g>
        <path class="cls-1" d="M998.737,1226.176c-.305,0-.588-.195-.685-.501l-13.724-42.986c-.121-.379.088-.784.467-.904.379-.121.784.088.904.467l13.724,42.986c.121.379-.088.784-.467.904-.073.023-.147.034-.219.034Z"/>
        <path class="cls-1" d="M967.328,1226.176c-.07,0-.142-.01-.213-.032-.38-.117-.592-.52-.475-.9l13.311-43.099c.117-.38.52-.593.9-.475.38.117.592.52.475.9l-13.311,43.099c-.095.309-.38.507-.687.507Z"/>
        <path class="cls-1" d="M982.762,1183.354c-2.337,0-4.238-1.901-4.238-4.238s1.901-4.238,4.238-4.238,4.238,1.901,4.238,4.238-1.901,4.238-4.238,4.238ZM982.762,1176.318c-1.543,0-2.799,1.255-2.799,2.799s1.256,2.799,2.799,2.799,2.799-1.255,2.799-2.799-1.255-2.799-2.799-2.799Z"/>
        <path class="cls-1" d="M977.521,1185.532c-.174,0-.349-.063-.487-.19-1.736-1.598-2.732-3.867-2.732-6.226,0-4.665,3.795-8.46,8.46-8.46s8.459,3.795,8.459,8.46c0,2.26-.88,4.384-2.478,5.982-.281.281-.737.281-1.018,0-.281-.281-.281-.737,0-1.018,1.326-1.326,2.056-3.089,2.056-4.964,0-3.871-3.149-7.02-7.02-7.02s-7.021,3.149-7.021,7.02c0,1.957.827,3.84,2.268,5.167.292.269.311.724.042,1.017-.142.154-.335.232-.53.232Z"/>
        <path class="cls-1" d="M989.839,1190.273c-.23,0-.456-.11-.595-.314-.224-.328-.139-.776.189-1,3.253-2.217,5.195-5.888,5.195-9.819,0-2.862-1.032-5.626-2.907-7.783-.261-.3-.229-.755.071-1.015.3-.261.755-.229,1.015.071,2.102,2.419,3.259,5.519,3.259,8.727,0,4.407-2.177,8.522-5.823,11.008-.124.085-.265.125-.405.125Z"/>
        <path class="cls-1" d="M970.437,1177.225c-.05,0-.1-.005-.151-.016-.389-.083-.637-.465-.554-.854,1.299-6.101,6.775-10.529,13.021-10.529,3.001,0,5.835.975,8.194,2.819.313.245.368.697.124,1.01-.244.313-.697.369-1.01.124-2.103-1.645-4.63-2.514-7.307-2.514-5.571,0-10.455,3.949-11.613,9.389-.072.338-.371.57-.703.57Z"/>
        <path class="cls-1" d="M975.864,1190.404c-.135,0-.272-.038-.393-.118-3.042-1.992-5.161-5.176-5.812-8.736-.072-.391.187-.766.578-.837.391-.072.766.188.837.578.58,3.174,2.47,6.014,5.185,7.791.332.218.426.664.208.996-.138.211-.368.326-.603.326Z"/>
        <path class="cls-1" d="M991.413,1195.222c-.251,0-.495-.132-.627-.366-.196-.346-.073-.785.273-.981,5.309-2.999,8.607-8.645,8.607-14.735,0-8.487-6.338-15.698-14.743-16.773-.394-.05-.673-.411-.623-.805.05-.394.414-.672.805-.622,9.121,1.167,15.999,8.992,15.999,18.201,0,6.609-3.578,12.735-9.338,15.988-.112.063-.233.093-.353.093Z"/>
        <path class="cls-1" d="M974.163,1195.26c-.119,0-.24-.029-.351-.092-5.804-3.244-9.409-9.386-9.409-16.029,0-4.574,1.693-8.956,4.767-12.339,3.053-3.359,7.211-5.46,11.708-5.917.392-.039.749.248.789.643.04.395-.248.749-.643.789-4.143.421-7.974,2.357-10.788,5.453-2.833,3.117-4.393,7.155-4.393,11.37,0,6.122,3.323,11.782,8.672,14.772.347.194.471.632.277.979-.132.236-.377.369-.629.369Z"/>
        <path class="cls-1" d="M993.029,1200.072c-.262,0-.515-.144-.642-.393-.18-.354-.04-.788.315-.968,7.403-3.77,12.001-11.269,12.001-19.571,0-12.102-9.846-21.949-21.949-21.949-.397,0-.72-.322-.72-.72s.322-.72.72-.72c12.896,0,23.388,10.492,23.388,23.388,0,8.845-4.9,16.836-12.787,20.853-.105.053-.216.079-.326.079Z"/>
        <path class="cls-1" d="M972.864,1200.263c-.105,0-.212-.023-.314-.072-3.892-1.89-7.184-4.82-9.518-8.474-2.398-3.753-3.666-8.102-3.666-12.577,0-4.803,1.445-9.418,4.179-13.346,2.671-3.838,6.377-6.761,10.717-8.453.37-.144.787.039.932.409s-.039.787-.409.932c-4.073,1.588-7.551,4.331-10.059,7.934-2.565,3.686-3.921,8.016-3.921,12.524,0,4.199,1.19,8.28,3.44,11.802,2.192,3.429,5.281,6.18,8.934,7.954.358.174.507.604.333.962-.124.256-.381.405-.648.405Z"/>
        <path class="cls-1" d="M994.555,1204.934c-.27,0-.529-.153-.651-.413-.17-.359-.015-.788.344-.958,4.566-2.152,8.432-5.535,11.18-9.783,2.821-4.36,4.312-9.422,4.312-14.64,0-6.254-2.189-12.35-6.162-17.165-.253-.307-.209-.76.097-1.013.306-.253.76-.21,1.013.097,4.186,5.072,6.491,11.494,6.491,18.081,0,5.495-1.571,10.828-4.543,15.422-2.895,4.474-6.966,8.037-11.775,10.304-.099.047-.204.069-.306.069Z"/>
        <path class="cls-1" d="M955.112,1177.976c-.016,0-.033,0-.049-.002-.397-.027-.696-.37-.67-.766.482-7.18,3.646-13.855,8.909-18.796,5.287-4.964,12.195-7.697,19.451-7.697,6.733,0,13.264,2.397,18.388,6.748.303.257.34.711.083,1.014-.257.303-.711.34-1.014.083-4.865-4.131-11.065-6.406-17.457-6.406-6.889,0-13.447,2.595-18.466,7.307-4.997,4.691-8.001,11.028-8.458,17.843-.026.38-.342.671-.717.671Z"/>
        <path class="cls-1" d="M970.96,1204.937c-.103,0-.207-.022-.306-.069-9.326-4.394-15.556-13.498-16.258-23.76-.027-.396.272-.74.669-.767.396-.028.74.272.767.669.666,9.742,6.581,18.385,15.435,22.556.36.169.514.598.344.958-.123.26-.382.413-.652.413Z"/>
        <path class="cls-1" d="M996.142,1209.75c-.275,0-.537-.158-.657-.425-.163-.363,0-.788.362-.951,11.5-5.158,18.93-16.633,18.93-29.234,0-8.169-3.076-15.947-8.661-21.902-5.559-5.928-13.071-9.496-21.152-10.046-.396-.027-.696-.37-.669-.767.027-.397.37-.696.767-.669,8.445.576,16.295,4.304,22.104,10.498,5.836,6.223,9.05,14.351,9.05,22.887,0,13.166-7.764,25.157-19.781,30.547-.096.043-.196.063-.294.063Z"/>
        <path class="cls-1" d="M969.366,1209.75c-.098,0-.199-.02-.294-.063-12.016-5.39-19.781-17.381-19.781-30.547,0-17.774,13.889-32.451,31.621-33.413.395-.021.736.283.758.68.021.397-.283.736-.68.758-16.968.921-30.26,14.966-30.26,31.976,0,12.6,7.431,24.075,18.931,29.234.363.163.525.588.362.951-.12.267-.382.425-.657.425Z"/>
        <path class="cls-1" d="M967.726,1214.533c-.096,0-.193-.019-.286-.06-14.085-6.113-23.186-19.982-23.186-35.334,0-21.229,17.271-38.5,38.5-38.5s38.5,17.271,38.5,38.5c0,15.35-9.1,29.219-23.183,35.333-.364.158-.788-.009-.947-.374s.009-.788.374-.947c13.557-5.885,22.317-19.236,22.317-34.012,0-20.435-16.626-37.061-37.061-37.061s-37.061,16.625-37.061,37.061c0,14.778,8.761,28.129,22.32,34.013.364.158.532.582.374.947-.118.271-.383.433-.66.433Z"/>
        <path class="cls-1" d="M998.946,1226.276h-31.663c-.397,0-.72-.322-.72-.72s.322-.72.72-.72h31.663c.397,0,.72.322.72.72s-.322.72-.72.72Z"/>
        <path class="cls-1" d="M982.762,1226.276c-.397,0-.72-.322-.72-.72v-42.922c0-.397.322-.72.72-.72s.72.322.72.72v42.922c0,.397-.322.72-.72.72Z"/>
        <path class="cls-1" d="M967.727,1225.518c-.25,0-.493-.13-.625-.362-.197-.345-.078-.785.267-.982l14.222-8.134-8.005-11.67c-.197-.287-.16-.674.087-.919l8.137-8.054-3.32-6.7c-.176-.356-.031-.788.325-.964.356-.177.788-.031.964.325l3.551,7.165c.138.278.082.613-.138.831l-8.079,7.997,8.107,11.818c.114.166.153.372.108.568-.045.196-.17.364-.344.464l-14.9,8.522c-.113.064-.236.095-.357.095Z"/>
        <path class="cls-1" d="M997.783,1225.518c-.121,0-.244-.031-.357-.095l-14.9-8.522c-.174-.1-.299-.268-.344-.464-.045-.196-.006-.402.108-.568l8.107-11.818-8.079-7.997c-.221-.218-.276-.553-.139-.831l3.551-7.165c.176-.356.608-.502.964-.325.356.176.502.608.325.964l-3.321,6.7,8.137,8.054c.247.245.284.632.087.919l-8.005,11.67,14.222,8.134c.345.197.465.637.267.982-.133.232-.376.362-.625.362Z"/>
      </g>
      <path class="cls-1" d="M83.421,54.936c.055-.594-.306-1.149-.872-1.339l-37.978-12.797c-.452-.152-.952-.042-1.298.286-.346.328-.483.821-.355,1.281l10.217,36.757c.155.556.66.941,1.237.944h.006c.575,0,1.08-.381,1.239-.933l3.528-12.28,14.168,14.972c.254.268.595.403.937.403.318,0,.637-.117.886-.353l7.743-7.325c.248-.235.393-.559.403-.901.009-.342-.117-.673-.352-.922l-13.935-14.726,13.328-1.908c.591-.085,1.047-.564,1.101-1.159ZM66.18,55.801c-.273.039-.513.161-.699.337-.005.005-.011.009-.016.013-.016.015-.03.032-.046.048-.004.004-.009.009-.013.013-.459.494-.462,1.265.008,1.762l14.754,15.591-5.87,5.553-14.834-15.676s-.01-.009-.014-.014c-.018-.019-.038-.037-.057-.055-.012-.011-.024-.022-.037-.033-.019-.016-.039-.031-.06-.046-.015-.011-.029-.022-.044-.032-.018-.012-.037-.024-.057-.036-.018-.011-.036-.022-.055-.032-.017-.009-.034-.017-.051-.025-.022-.011-.044-.021-.066-.03-.016-.006-.032-.012-.047-.018-.025-.009-.05-.018-.075-.026-.006-.002-.012-.004-.018-.006-.011-.003-.021-.005-.032-.007-.024-.006-.047-.012-.071-.017-.02-.004-.041-.007-.061-.011-.02-.003-.039-.006-.059-.008-.024-.003-.048-.004-.072-.005-.016,0-.033-.001-.049-.001-.026,0-.052,0-.078.002-.015,0-.031.002-.046.003-.026.002-.052.005-.077.009-.016.002-.032.005-.048.008-.024.004-.048.009-.071.015-.018.004-.036.009-.053.015-.021.006-.042.013-.063.02-.019.007-.038.014-.058.022-.019.008-.038.016-.057.024-.019.009-.038.018-.057.028-.019.01-.037.02-.055.031-.017.01-.034.021-.051.032-.02.013-.039.026-.058.04-.014.01-.028.021-.042.032-.021.017-.042.035-.062.053-.007.006-.015.012-.021.018-.004.004-.008.008-.012.012-.02.02-.04.04-.059.061-.01.011-.021.023-.03.034-.016.02-.032.04-.047.061-.011.014-.022.029-.032.043-.012.018-.024.037-.035.056-.011.018-.023.037-.033.056-.009.016-.016.033-.024.049-.011.023-.022.046-.032.069-.006.015-.011.03-.017.044-.01.026-.019.052-.027.078-.002.006-.004.011-.006.017l-2.892,10.066-8.344-30.018,30.538,10.29-10.412,1.491Z"/>
      <path class="cls-1" d="M47.19,66.694c-.65-.289-1.412.004-1.702.654-2.098,4.719-4.601,7.318-7.049,7.318-.057,0-.114-.001-.172-.006-.01,0-.02-.001-.03-.002-3.993-.228-7.964-7.393-10.037-17.972,3.331-.511,6.768-.771,10.239-.771,1.343,0,2.697.039,4.027.117.711.041,1.321-.501,1.362-1.212.041-.711-.501-1.321-1.212-1.362-1.38-.08-2.785-.121-4.177-.121-3.623,0-7.213.274-10.689.811-.73-4.559-1.101-9.432-1.101-14.508,0-4.439.288-8.743.852-12.818,3.481.548,7.055.833,10.646.846.027,0,.054,0,.082,0,.07,0,.141.002.208.002.496,0,.991-.006,1.487-.016.022,0,.045,0,.067,0,.117-.003.233-.008.35-.011.349-.009.697-.02,1.046-.034.051-.002.102-.003.153-.005.14-.006.279-.016.419-.023.295-.015.589-.03.883-.048.081-.005.162-.008.242-.013.135-.009.27-.021.405-.031.266-.019.532-.039.797-.061.111-.009.223-.016.335-.026.121-.011.241-.024.361-.035.246-.023.492-.047.738-.072.143-.015.287-.027.43-.042.101-.011.201-.025.301-.036.231-.026.461-.055.692-.083.175-.022.352-.04.527-.063.078-.01.154-.022.232-.033.218-.029.435-.062.653-.093.208-.03.418-.057.625-.09.051-.008.102-.017.153-.025.016-.003.033-.005.049-.007.55,3.992.836,8.193.849,12.509.002.711.579,1.285,1.289,1.285h.004c.712-.002,1.287-.581,1.285-1.293-.014-4.466-.315-8.814-.89-12.949,5.907-1.158,11.388-3.049,16.326-5.633,3.593,5.647,5.483,12.137,5.483,18.899,0,2.359-.234,4.717-.696,7.008-.141.698.311,1.378,1.009,1.518.697.14,1.378-.311,1.519-1.009.495-2.458.746-4.987.746-7.517,0-8.029-2.483-15.701-7.179-22.187-3.44-4.751-8-8.694-13.188-11.402-5.361-2.8-11.412-4.279-17.499-4.279-.159,0-.337,0-.526.011-10,.134-19.378,4.127-26.412,11.245C4.454,20.158.573,29.609.573,39.639c0,8.22,2.589,16.039,7.488,22.613,5.535,7.424,13.549,12.553,22.565,14.442,2.378.5,4.835.771,7.3.805.079.003.158.005.237.005h.276c.326,0,.622-.122.849-.321,2.434-.34,5.656-2.265,8.556-8.788.289-.651-.004-1.412-.654-1.702ZM38.439,4.611c3.476,0,7.043,5.329,9.31,13.909.001.006.002.011.004.017.475,1.799.888,3.722,1.233,5.733-.051.008-.101.017-.151.025-.072.011-.145.021-.217.032-.389.059-.779.115-1.17.167-.126.017-.252.032-.378.048-.338.043-.676.084-1.016.122-.153.017-.307.033-.46.049-.313.033-.626.064-.939.092-.17.015-.341.03-.512.045-.298.025-.596.047-.895.068-.182.013-.363.026-.545.037-.291.018-.583.033-.875.047-.183.009-.366.019-.55.027-.319.013-.638.022-.957.031-.154.004-.309.01-.463.013-.474.01-.948.015-1.423.015-.08,0-.16,0-.239-.002h0c-.009,0-.019,0-.029,0-3.468-.011-6.918-.287-10.277-.816,2-11.64,6.27-19.66,10.547-19.66ZM66.766,18.599c-4.616,2.379-9.73,4.133-15.242,5.223-.355-2.07-.781-4.054-1.27-5.913-.002-.01-.004-.02-.006-.03-1.578-5.979-3.736-10.444-6.244-13.085,3.748.598,7.39,1.791,10.742,3.541,4.701,2.455,8.846,5.999,12.021,10.264ZM13.335,14.838c5.349-5.413,12.153-8.886,19.539-10.049-3.32,3.489-6.001,10.135-7.522,19.032-5.517-1.091-10.634-2.846-15.247-5.225.981-1.315,2.058-2.572,3.23-3.759ZM8.628,20.739c4.936,2.583,10.419,4.475,16.332,5.634-.589,4.22-.89,8.675-.89,13.266,0,5.224.384,10.244,1.139,14.947-5.641,1.081-10.917,2.841-15.716,5.243-4.152-5.938-6.342-12.894-6.342-20.19,0-6.793,1.912-13.3,5.476-18.9ZM11.076,61.924c4.462-2.182,9.354-3.794,14.582-4.799,1.57,8.095,4.1,14.104,7.195,17.358-.57-.09-1.136-.195-1.697-.313-7.901-1.655-14.975-5.982-20.08-12.246Z"/>
    </g>
  </g>
</svg>