<?xml version="1.0" encoding="utf-8"?>
<!-- Generator: Adobe Illustrator 25.4.1, SVG Export Plug-In . SVG Version: 6.00 Build 0)  -->
<svg version="1.1" id="Layer_1" xmlns="http://www.w3.org/2000/svg" xmlns:xlink="http://www.w3.org/1999/xlink" x="0px" y="0px"
	 viewBox="0 0 32 32" style="enable-background:new 0 0 32 32;" xml:space="preserve">
<path d="M7.63,7.194V25.96c0,0.723,0.588,1.311,1.311,1.311h8.596c0.66,0,1.551-0.357,2.028-0.814l2.917-2.788
	c0.479-0.458,0.854-1.336,0.854-2v-10.31l-0.444,0.444v9.866c0,0.539-0.328,1.308-0.718,1.68l-2.917,2.788
	c-0.392,0.374-1.18,0.69-1.721,0.69H8.94c-0.478,0-0.866-0.388-0.866-0.866V7.194c0-0.478,0.389-0.866,0.866-0.866h10.821
	l0.443-0.444H8.94C8.218,5.883,7.63,6.471,7.63,7.194z"/>
<path d="M9.651,15.108c0,0.123,0.1,0.222,0.222,0.222h3.716l0.095-0.445H9.873C9.751,14.885,9.651,14.985,9.651,15.108z"/>
<path d="M9.651,12.387c0,0.123,0.1,0.222,0.222,0.222h4.294l0.094-0.444H9.873C9.751,12.165,9.651,12.265,9.651,12.387z"/>
<path d="M9.651,9.667c0,0.123,0.1,0.222,0.222,0.222h6.145l0.462-0.445H9.873C9.751,9.444,9.651,9.544,9.651,9.667z"/>
<path d="M18.425,23.047H9.81c-0.088,0-0.159,0.1-0.159,0.222s0.071,0.222,0.159,0.222h8.614c0.088,0,0.159-0.1,0.159-0.222
	S18.512,23.047,18.425,23.047z"/>
<path d="M21.093,14.885h-1.346l-0.462,0.445h1.808c0.122,0,0.222-0.1,0.222-0.222S21.215,14.885,21.093,14.885z"/>
<path d="M21.093,20.326H9.873c-0.122,0-0.222,0.1-0.222,0.222s0.1,0.223,0.222,0.223h11.22c0.122,0,0.222-0.1,0.222-0.223
	S21.215,20.326,21.093,20.326z"/>
<path d="M21.093,17.606H9.873c-0.122,0-0.222,0.1-0.222,0.222s0.1,0.222,0.222,0.222h11.22c0.122,0,0.222-0.1,0.222-0.222
	S21.215,17.606,21.093,17.606z"/>
<path d="M17.316,11.974L17.316,11.974l5.12-4.924c0.032-0.032,0.05-0.074,0.05-0.119c0-0.044-0.018-0.086-0.051-0.118
	c-0.034-0.034-0.08-0.05-0.125-0.05c-0.046,0-0.092,0.017-0.127,0.05l-5.119,4.924c-0.032,0.031-0.05,0.073-0.05,0.118
	s0.018,0.087,0.051,0.118C17.131,12.038,17.251,12.037,17.316,11.974z"/>
<path d="M23.553,7.96c-0.045,0-0.091,0.017-0.126,0.05l-5.119,4.924c-0.032,0.031-0.05,0.073-0.05,0.118s0.018,0.087,0.051,0.118
	c0.065,0.064,0.186,0.063,0.251,0h0.001l5.118-4.924c0.032-0.032,0.051-0.074,0.051-0.119c0-0.044-0.019-0.086-0.051-0.118
	C23.644,7.977,23.599,7.96,23.553,7.96z"/>
<path d="M22.055,5.277l-6.851,6.59l-0.824,3.887l4.044-0.793l6.849-6.588L22.055,5.277z M18.249,14.652l-0.015,0.002l-3.4,0.667
	l0.696-3.29l0.012-0.011l6.514-6.266l0.034,0.033l2.687,2.583l-0.038,0.036L18.249,14.652z"/>
<path d="M22.342,5.001l3.219,3.096l1.066-1.027c0.24-0.231,0.378-0.554,0.378-0.886c0-0.332-0.138-0.654-0.378-0.885l-1.445-1.391
	c-0.477-0.46-1.227-0.46-1.703,0L22.342,5.001z M24.955,4.17l1.419,1.365c0.176,0.168,0.276,0.405,0.276,0.65
	s-0.101,0.482-0.277,0.651L25.56,7.619l-0.034-0.033L22.84,5.001l0.037-0.036l0.826-0.795C24.053,3.833,24.604,3.833,24.955,4.17z"
	/>
<path d="M18.073,14.08l-1.947-1.873c-0.034-0.034-0.08-0.05-0.125-0.05c-0.046,0-0.092,0.017-0.127,0.05
	c-0.032,0.032-0.051,0.074-0.051,0.118s0.019,0.086,0.051,0.118l1.947,1.874c0.066,0.063,0.186,0.063,0.251,0h0.001
	c0.032-0.032,0.051-0.074,0.051-0.118C18.124,14.153,18.105,14.111,18.073,14.08z"/>
</svg>
