<?xml version="1.0" encoding="utf-8"?>
<!-- Generator: Adobe Illustrator 25.4.1, SVG Export Plug-In . SVG Version: 6.00 Build 0)  -->
<svg version="1.1" id="Layer_1" xmlns="http://www.w3.org/2000/svg" xmlns:xlink="http://www.w3.org/1999/xlink" x="0px" y="0px"
	 viewBox="0 0 34 34" style="enable-background:new 0 0 34 34;" xml:space="preserve">
<style type="text/css">
	.st0{fill:#FFFFFF;}
</style>
<path class="st0" d="M31.771,30.712L25.058,24c2.154-2.41,3.337-5.485,3.322-8.756c-0.015-3.521-1.4-6.835-3.9-9.335
	C19.32,0.747,10.954,0.713,5.835,5.832c-2.481,2.481-3.839,5.787-3.824,9.31c0.015,3.521,1.4,6.836,3.9,9.335
	c2.595,2.594,5.998,3.893,9.393,3.893c3.124,0,6.23-1.115,8.699-3.317l6.714,6.714c0.146,0.146,0.336,0.218,0.527,0.218
	c0.191,0,0.382-0.073,0.527-0.218C32.062,31.475,32.062,31.003,31.771,30.712z M6.965,23.423c-2.22-2.219-3.45-5.163-3.463-8.287
	c-0.013-3.122,1.189-6.052,3.387-8.249c2.256-2.255,5.222-3.381,8.199-3.381c3.012,0,6.034,1.154,8.338,3.457
	c2.219,2.219,3.45,5.163,3.463,8.287c0.013,3.122-1.189,6.052-3.387,8.249C18.963,28.036,11.545,28.002,6.965,23.423z"/>
</svg>
