<?xml version="1.0" encoding="UTF-8"?>
<svg xmlns="http://www.w3.org/2000/svg" width="84" height="84" version="1.1" viewBox="0 0 84 84">
  <!-- Generator: Adobe Illustrator 28.7.1, SVG Export Plug-In . SVG Version: 1.2.0 Build 142)  -->
  <g>
    <g id="Layer_1">
      <path d="M47.268,34.021c0,2.837-.008,5.674.006,8.511.004.82-.056,1.712-1.086,1.643-.909-.061-.785-.992-.786-1.658-.012-5.214.006-10.428-.008-15.641-.012-4.377-2.684-7.537-6.525-7.76-3.646-.212-6.49,2.618-7.024,6.989-.346,2.836-2.461,4.785-5.032,4.636-2.63-.152-4.448-2.237-4.493-5.151-.107-6.936,4.832-13.31,11.938-15.405,6.532-1.926,14.383.997,17.938,6.698.384.616,1.121,1.397.231,1.999-1.041.704-1.43-.403-1.898-1.048-3.582-4.93-8.453-7.1-14.413-6.088-5.576.947-9.298,4.41-11.237,9.739-.477,1.31-.64,2.68-.672,4.063-.041,1.799.885,3.1,2.605,3.228,1.825.136,3.047-1.058,3.155-2.933.124-2.158.768-4.046,2.208-5.65,2.474-2.756,5.927-3.614,9.411-2.355,3.314,1.197,5.569,4.269,5.667,7.905.075,2.758.015,5.52.016,8.28Z"/>
      <path d="M14.738,31.808c.097-5.104-.53-10.275,1.708-15.155,3.93-8.57,10.504-13.493,19.887-14.613.379-.045.772-.085,1.145-.033.733.103,1.943-.462,1.906.911-.03,1.085-1.082.821-1.805.871-5.817.407-10.802,2.639-14.854,6.846-4.053,4.209-6.168,9.256-6.23,15.107-.052,4.901-.006,9.804-.016,14.705-.001.734.21,1.756-.867,1.806-1.203.056-.851-1.036-.859-1.715-.034-2.91-.014-5.821-.015-8.731Z"/>
      <path d="M39.487,38.334c0,3.675.018,7.349-.005,11.024-.02,3.27-1.861,5.189-4.856,5.126-2.8-.06-4.576-2.043-4.588-5.164-.014-3.521-.031-7.043.019-10.564.011-.798-.48-2.174.933-2.105,1.267.062.9,1.388.909,2.24.035,3.215.012,6.43.013,9.646.001,2.744.95,4.071,2.89,4.051,1.904-.019,2.795-1.332,2.797-4.151.004-6.813.001-13.627.001-20.44,0-.536-.009-1.072.003-1.608.015-.667.227-1.28.981-1.303.849-.026.896.683.899,1.307.011,2.679.003,5.359.003,8.038,0,1.301,0,2.603,0,3.904Z"/>
      <path d="M62.531,24.653c.1.824.419,1.917-.757,2.04-1.241.129-1.046-1.091-1.109-1.859-.776-9.478-5.653-15.941-14.344-19.629-.729-.309-1.925-.439-1.43-1.61.482-1.141,1.448-.412,2.182-.141,8.864,3.267,14.95,11.626,15.458,21.201Z"/>
      <path d="M64.193,50.274c-1.225-.648-1.568-1.341-1.54-2.668.094-4.522.045-9.048.029-13.572-.003-.819.107-1.944-1.07-1.907-1.106.035-.766,1.136-.772,1.835-.028,3.45-.012,6.901-.011,10.352,0,4.222.002,4.101-4.091,4.042-1.629-.024-1.875-.559-1.861-1.977.063-6.441.04-12.883.012-19.324-.003-.752.367-1.968-.925-1.928-1.209.038-.905,1.203-.91,1.996-.019,3.297-.008,6.595-.008,9.892,0,3.221-.087,6.445.039,9.661.058,1.478-.4,2.086-1.817,2.557-5.534,1.836-9.388,5.548-10.841,11.224-.609,2.377-1.75,2.639-3.711,2.348-7.143-1.059-12.441-7.071-12.51-14.288-.032-3.374-.002-6.748-.004-10.122,0-.783-.016-1.787-.968-1.799-1.036-.013-.906,1.028-.907,1.783-.006,3.297-.01,6.595,0,9.892.022,8.304,5.459,15.119,13.7,16.144,3.25.404,3.8,1.695,4.076,4.376.16,1.548-.117,1.748-1.514,1.776-9.876.193-19.484-7.41-21.528-17.107-.333-1.579-.596-3.16-.6-4.78-.001-.585-.229-1.077-.916-1.086-.77-.011-.812.58-.793,1.124.043,1.224.025,2.462.212,3.667,1.816,11.667,11.82,20.025,23.893,20.017,1.173,0,2.226-.221,3.09,1.235,3.926,6.612,10.822,9.53,18.275,7.985,6.488-1.345,11.902-7.029,12.847-13.485,1.125-7.686-2.089-14.269-8.876-17.86ZM56.235,80.172c-7.982-.055-14.746-6.908-14.738-14.935.008-8.155,6.738-14.964,14.904-15.08,8.152-.116,15.074,6.84,15.059,15.131-.015,8.26-6.849,14.941-15.225,14.884Z"/>
      <path d="M60.611,63.41h-.228v-3.092c0-1.36-.433-3.168-3.875-3.168s-3.966,1.809-3.966,3.168v3.092h-.228c-.831,0-1.504.673-1.504,1.504v6.929c0,.831.673,1.504,1.504,1.504h8.297c.831,0,1.504-.673,1.504-1.504v-6.929c0-.831-.673-1.504-1.504-1.504ZM53.728,62.954v-2.354c0-.776,1.117-2.174,2.712-2.174s2.758,1.398,2.758,2.174v2.354c0,.161-.031.313-.081.456h-5.306c-.05-.144-.083-.295-.083-.456ZM60.558,71.79h-8.19v-6.823h8.19v6.823Z"/>
    </g>
  </g>
</svg>