<?xml version="1.0" encoding="UTF-8"?>
<svg xmlns="http://www.w3.org/2000/svg" width="110" height="34" version="1.1" viewBox="0 0 110 34">
  <defs>
    <style>
      .cls-1, .cls-2 {
        fill-rule: evenodd;
      }

      .cls-1, .cls-3 {
        fill: #1f191a;
      }

      .cls-2 {
        fill: #ff7e00;
      }
    </style>
  </defs>
  <!-- Generator: Adobe Illustrator 28.7.1, SVG Export Plug-In . SVG Version: 1.2.0 Build 142)  -->
  <g>
    <g id="Layer_1">
      <path class="cls-3" d="M44.812,13.6h-3.827v10.473h-1.412v-10.473h-3.638v-1.425h8.876v1.425ZM44.316,24.072v-5.464c0-1.895,1.44-3.481,3.259-3.481h.349v1.425h-.349c-.989,0-1.848.896-1.848,2.057v5.464h-1.412ZM48.17,21.311c0-1.586,1.572-2.761,3.289-2.761h.946c.407,0,.931-.22.931-.661,0-.675-.713-1.337-1.732-1.337-.655,0-1.222.264-1.95,1.249l-1.135-.852c.699-1.175,1.993-1.821,3.07-1.821,1.688,0,3.143,1.234,3.143,2.761v3.422c0,1.572-1.557,2.762-3.274,2.762-1.732,0-3.289-1.19-3.289-2.762ZM49.597,21.296c0,.69.815,1.351,1.863,1.351,1.062,0,1.863-.676,1.863-1.351v-1.586s-.116.25-1.863.235c-1.048,0-1.863.661-1.863,1.351ZM60.843,24.072v-5.464c0-1.16-.858-2.057-1.848-2.057s-1.848.896-1.848,2.057v5.464h-1.412v-5.464c0-1.895,1.44-3.481,3.259-3.481,1.79,0,3.259,1.572,3.259,3.481v5.464h-1.412ZM63.285,22.251l1.121-.867c.538.911,1.179,1.249,2.284,1.249,1.179,0,1.732-.529,1.732-1.293,0-.338-.087-.5-.407-.69-1.164-.69-4.394-.573-4.394-3.041,0-1.498,1.179-2.482,2.838-2.482,1.004,0,2.052.367,3.143,1.821l-1.121.867c-.814-1.102-1.455-1.249-2.008-1.249-.873,0-1.426.411-1.426,1.058,0,.72.815.94,1.892,1.204.582.147,1.207.265,1.819.646.699.441,1.092,1.072,1.092,1.895,0,1.601-1.324,2.703-3.143,2.703-1.528,0-2.532-.441-3.42-1.822ZM75.609,16.288h.917l1.819,5.919,2.561-6.933h1.092l-3.245,8.798h-.888l-1.775-5.802-1.775,5.802h-.888l-3.245-8.798h1.091l2.561,6.933,1.775-5.919ZM82.009,19.666c0-2.423,1.702-4.392,3.798-4.392,2.284,0,3.798,2.144,3.798,4.392,0,2.438-1.703,4.407-3.798,4.407-2.285,0-3.798-2.144-3.798-4.407ZM83.027,19.651c0,1.88,1.266,3.393,2.78,3.393s2.779-1.513,2.779-3.393-1.266-3.378-2.779-3.378-2.78,1.498-2.78,3.378ZM90.752,24.072v-5.405c0-1.851,1.397-3.393,3.143-3.393h.146v1.028h-.146c-1.164,0-2.124,1.043-2.124,2.35v5.42h-1.019ZM95.436,12.263h1.019v11.809h-1.019v-11.809ZM98.127,19.754c0-2.365,1.965-4.348,4.307-4.348h.597c.466,0,.466-.264.466-.323v-2.82h1.018v11.809h-2.066c-2.226,0-4.322-1.822-4.322-4.318ZM103.468,16.405c-.146.029-.291.044-.451.044h-.597c-1.804,0-3.274,1.484-3.274,3.305s1.47,3.305,3.274,3.305h1.048v-6.654ZM37.625,29.052c0-1.159.771-2.158,1.737-2.158,1.042,0,1.738,1.073,1.738,2.158,0,1.159-.776,2.157-1.738,2.157-1.041,0-1.737-1.073-1.737-2.157ZM37.992,29.057c0,.993.627,1.776,1.371,1.776s1.371-.783,1.371-1.776-.627-1.777-1.371-1.777-1.371.783-1.371,1.777ZM43.684,31.209v-1.98c0-.478-.351-.859-.776-.859s-.776.381-.776.859v1.98h-.372v-1.98c0-.682.521-1.234,1.148-1.234s1.148.553,1.148,1.234v1.98h-.372ZM44.659,29.647c0-.88.568-1.653,1.339-1.653.6,0,1.02.343,1.02.805,0,.499-.484.864-1.142.864h-.728c-.09,0-.101.091-.101.129,0,.456.446,1.036.956,1.036.308,0,.536-.102.786-.44l.298.225c-.26.354-.553.596-1.089.596-.802,0-1.339-.741-1.339-1.562ZM45.057,29.288c.059-.011.08-.011.085-.011h.723c.468,0,.776-.209.776-.483,0-.193-.181-.429-.643-.429-.447,0-.829.392-.941.923ZM54.145,26.894l-1.493,4.315h-.319l-.813-3.022-.813,3.022h-.319l-1.493-4.315h.377l1.249,3.607.866-3.215h.26l.866,3.215,1.249-3.607h.383ZM54.281,29.599c0-.885.622-1.605,1.387-1.605.834,0,1.387.783,1.387,1.605,0,.891-.621,1.61-1.387,1.61-.835,0-1.387-.783-1.387-1.61ZM54.653,29.594c0,.687.462,1.24,1.015,1.24s1.015-.553,1.015-1.24-.463-1.234-1.015-1.234-1.015.547-1.015,1.234ZM57.689,31.209v-1.975c0-.676.51-1.24,1.148-1.24h.053v.376h-.053c-.425,0-.776.381-.776.859v1.98h-.372ZM59.507,26.894h.372v4.315h-.372v-4.315ZM60.384,29.631c0-.864.718-1.589,1.573-1.589h.217c.17,0,.17-.096.17-.118v-1.03h.372v4.315h-.755c-.813,0-1.578-.665-1.578-1.578ZM62.334,28.408c-.053.011-.107.016-.165.016h-.217c-.659,0-1.196.542-1.196,1.208s.536,1.208,1.196,1.208h.383v-2.431ZM66.163,29.052c0-1.159.77-2.158,1.737-2.158,1.041,0,1.737,1.073,1.737,2.158,0,1.159-.776,2.157-1.737,2.157-1.042,0-1.737-1.073-1.737-2.157ZM66.529,29.057c0,.993.627,1.776,1.371,1.776s1.371-.783,1.371-1.776-.627-1.777-1.371-1.777-1.371.783-1.371,1.777ZM72.223,31.209v-1.98c0-.478-.351-.859-.776-.859s-.776.381-.776.859v1.98h-.372v-1.98c0-.682.52-1.234,1.148-1.234s1.148.553,1.148,1.234v1.98h-.372ZM73.196,29.647c0-.88.569-1.653,1.339-1.653.6,0,1.02.343,1.02.805,0,.499-.484.864-1.143.864h-.728c-.09,0-.101.091-.101.129,0,.456.446,1.036.956,1.036.308,0,.537-.102.787-.44l.298.225c-.26.354-.553.596-1.089.596-.803,0-1.339-.741-1.339-1.562ZM73.595,29.288c.058-.011.08-.011.085-.011h.723c.468,0,.775-.209.775-.483,0-.193-.18-.429-.643-.429-.447,0-.829.392-.941.923ZM77.545,29.057c0-1.159.775-2.163,1.743-2.163.542,0,1.078.322,1.493,1.02l-.319.199c-.356-.596-.76-.837-1.174-.837-.744,0-1.371.789-1.371,1.782s.627,1.782,1.371,1.782c.414,0,.818-.241,1.174-.837l.319.199c-.414.698-.951,1.014-1.493,1.02-1.052,0-1.743-1.084-1.743-2.163ZM81.282,29.599c0-.885.621-1.605,1.387-1.605.835,0,1.387.783,1.387,1.605,0,.891-.622,1.61-1.387,1.61-.834,0-1.387-.783-1.387-1.61ZM81.654,29.594c0,.687.463,1.24,1.015,1.24s1.015-.553,1.015-1.24-.462-1.234-1.015-1.234-1.015.547-1.015,1.234ZM86.507,31.209v-1.98c0-.478-.35-.859-.775-.859s-.776.381-.776.859v1.98h-.372v-1.98c0-.682.521-1.234,1.148-1.234s1.148.553,1.148,1.234v1.98h-.372ZM89.458,31.209v-1.98c0-.478-.351-.859-.776-.859s-.776.381-.776.859v1.98h-.372v-1.98c0-.682.52-1.234,1.148-1.234s1.148.553,1.148,1.234v1.98h-.372ZM90.432,29.647c0-.88.569-1.653,1.339-1.653.6,0,1.02.343,1.02.805,0,.499-.483.864-1.142.864h-.728c-.09,0-.101.091-.101.129,0,.456.446,1.036.956,1.036.308,0,.537-.102.787-.44l.298.225c-.26.354-.553.596-1.09.596-.802,0-1.339-.741-1.339-1.562ZM90.83,29.288c.058-.011.08-.011.085-.011h.723c.468,0,.775-.209.775-.483,0-.193-.18-.429-.643-.429-.446,0-.829.392-.94.923ZM93.324,29.604c0-.875.611-1.61,1.345-1.61.404,0,.728.166,1.041.59l-.298.225c-.244-.327-.478-.44-.738-.44-.526,0-.967.531-.967,1.234s.441,1.229.967,1.229c.26,0,.51-.113.754-.44l.298.225c-.314.424-.664.59-1.052.59-.829,0-1.35-.821-1.35-1.605ZM97.395,30.833h.053v.376h-.053c-.632,0-1.148-.569-1.148-1.245v-3.07h.372v1.17c.053-.011.106-.016.165-.016h.664v.376h-.664c-.165,0-.17.081-.17.123v1.422c.005.483.356.864.781.864ZM98.151,26.894c.149,0,.271.123.271.274s-.122.268-.271.268-.266-.118-.266-.268.117-.274.266-.274ZM97.976,27.994h.372v3.215h-.372v-3.215ZM98.858,29.599c0-.885.621-1.605,1.387-1.605.835,0,1.387.783,1.387,1.605,0,.891-.622,1.61-1.387,1.61-.834,0-1.387-.783-1.387-1.61ZM99.23,29.594c0,.687.463,1.24,1.015,1.24s1.015-.553,1.015-1.24-.462-1.234-1.015-1.234-1.015.547-1.015,1.234ZM104.19,31.209v-1.98c0-.478-.351-.859-.776-.859s-.776.381-.776.859v1.98h-.372v-1.98c0-.682.52-1.234,1.148-1.234s1.148.553,1.148,1.234v1.98h-.372ZM105.838,30.93c0,.177-.117.322-.303.322-.175,0-.298-.139-.298-.317,0-.182.128-.317.303-.317s.298.129.298.311ZM63.991,30.93c0,.177-.117.322-.303.322-.175,0-.298-.139-.298-.317,0-.182.128-.317.303-.317s.298.129.298.311ZM106.972,12.507h-.661v1.807h-.244v-1.807h-.628v-.246h1.532v.246ZM108.937,12.261v2.053h-.243v-1.293l-.468,1.293h-.213l-.468-1.293v1.293h-.243v-2.053h.229l.587,1.632.591-1.632h.228Z"/>
      <path class="cls-1" d="M15.957,30.957c-.03.075-.197.124-.38.108-.183-.016-.323-.097-.302-.173.017-.061.139-.117.385-.094.19.021.322.094.297.158ZM14.811,30.547c-.165-.071-.411-.087-.534-.033-.123.054-.075.159.091.225.166.067.388.079.509.029.121-.049.099-.151-.066-.222ZM14.037,30.126c-.135-.103-.406-.168-.593-.14-.187.028-.205.138-.062.239.143.101.391.159.568.133.177-.026.222-.128.087-.231ZM13.498,29.552c-.082-.133-.358-.263-.612-.28-.254-.016-.37.087-.268.224.101.137.368.252.6.266.232.014.363-.077.281-.21ZM13.285,28.845c.003-.155-.238-.356-.546-.441-.309-.085-.555-.017-.528.157.027.174.284.359.57.43.286.071.501.009.504-.146ZM12.805,28.08c.309.159.627.15.739-.008.113-.158-.029-.429-.354-.609-.326-.18-.697-.184-.794.002-.096.187.1.456.409.615ZM14.401,26.652c-.261-.282-.708-.411-.961-.26-.253.152-.198.504.07.757.268.253.646.34.885.215.239-.125.267-.431.007-.713ZM16.246,26.194c-.096-.346-.498-.6-.877-.528-.379.073-.541.451-.404.782.137.331.496.507.83.445.334-.062.547-.353.45-.699ZM17.541,30.798c-.19.021-.322.094-.297.158.03.075.197.124.38.108.183-.016.323-.097.302-.173-.017-.061-.139-.117-.385-.094ZM18.923,30.514c-.123-.054-.368-.038-.534.033-.165.071-.188.173-.066.222.121.049.344.037.509-.029.166-.067.214-.171.091-.225ZM19.756,29.986c-.187-.028-.458.037-.593.14-.135.103-.09.205.087.231.177.026.425-.032.568-.133.143-.101.125-.211-.062-.239ZM20.315,29.272c-.254.016-.53.146-.612.28-.082.133.049.225.281.21.232-.014.498-.129.6-.266.101-.137-.014-.24-.268-.224ZM20.461,28.404c-.309.085-.55.286-.546.441.003.155.218.217.504.146.286-.071.543-.256.57-.43.027-.174-.219-.242-.528-.157ZM19.656,28.072c.113.158.431.167.739.008.309-.159.505-.428.409-.615-.097-.187-.468-.183-.794-.002-.325.18-.467.451-.354.609ZM19.761,26.392c-.253-.152-.701-.022-.961.26-.261.282-.233.588.007.713.239.125.617.038.885-.215.268-.253.323-.606.07-.757ZM17.831,25.666c-.379-.073-.781.182-.877.528-.096.346.116.637.45.699.334.062.694-.113.83-.445.137-.331-.025-.709-.404-.782ZM16.6,30.91h0s0,0,0,0h0c-.16.001-.337.047-.34.13,0,.084.18.136.34.143h0s0,0,0,0,0,0,0,0h0c.161-.007.339-.059.34-.143-.003-.083-.18-.129-.34-.13Z"/>
      <path class="cls-2" d="M6.758,16.347c-1.856-3.676-3.331-9.905-1.687-10.611,1.685-.6,4.841,4.969,5.98,8.927,1.144,3.975.774,5.588-.131,5.974,0,0,0,0-.001,0,0,0,0,0-.001,0-.926.333-2.295-.598-4.159-4.29ZM7.39,23.584s0,0,0,0c0,0,0,0,0,0,.481-.39.427-1.431-.952-3.64-1.373-2.2-4.246-5.028-5.163-4.373-.873.711,1.095,4.229,2.854,6.135,1.767,1.914,2.756,2.241,3.26,1.88ZM7.448,26.613s0,0,0,0c0,0,0,0,0,0,.184-.254.02-.756-.947-1.654-.962-.894-2.741-1.897-3.103-1.456-.333.463,1.095,1.923,2.207,2.622,1.117.702,1.644.731,1.842.488ZM8.615,28.773s0,0,0,0,0,0,0,0c.077-.165-.072-.433-.723-.839-.648-.404-1.773-.779-1.931-.487-.139.301.837.976,1.549,1.252.715.277,1.019.235,1.105.075ZM9.598,29.68c-.474-.22-1.271-.38-1.353-.168-.069.216.651.593,1.158.72.509.128.712.074.757-.042,0,0,0,0,0,0,0,0,0,0,0,0,.038-.119-.086-.288-.562-.509ZM11.36,30.788c-.373-.137-.987-.209-1.036-.044-.039.168.53.409.922.474.394.066.544.012.571-.079,0,0,0,0,0,0,0,0,0,0,0,0,.022-.092-.083-.213-.458-.351ZM13.204,31.464c-.314-.087-.821-.097-.851.05-.021.149.46.309.785.333.327.023.447-.036.463-.117,0,0,0,0,0,0,0,0,0,0,0,0,.012-.082-.081-.178-.397-.265ZM15.036,31.824c-.287-.044-.736,0-.747.134-.003.134.439.225.729.212.291-.014.391-.079.397-.152,0,0,0,0,0,0h0c.002-.074-.091-.149-.379-.193ZM22.281,20.636s0,0,.001,0c0,0,0,0,.001,0,.926.333,2.295-.598,4.159-4.29,1.856-3.676,3.331-9.905,1.687-10.611-1.685-.6-4.841,4.969-5.98,8.927-1.144,3.975-.774,5.588.131,5.974ZM25.809,23.583s0,0,0,0c0,0,0,0,0,0,.503.361,1.493.034,3.26-1.88,1.759-1.906,3.727-5.424,2.854-6.135-.917-.654-3.789,2.173-5.163,4.373-1.379,2.21-1.434,3.251-.952,3.64ZM26.699,24.958c-.967.898-1.131,1.4-.947,1.654,0,0,0,0,0,0,0,0,0,0,0,0,.198.243.725.214,1.842-.488,1.112-.699,2.539-2.159,2.207-2.622-.362-.441-2.14.562-3.103,1.456ZM25.308,27.933c-.651.405-.8.673-.723.839,0,0,0,0,0,0,0,0,0,0,0,0,.086.161.39.202,1.105-.075.712-.276,1.687-.951,1.549-1.252-.158-.292-1.283.084-1.931.487ZM23.602,29.68c-.476.221-.6.39-.562.509,0,0,0,0,0,0,0,0,0,0,0,0,.045.116.248.17.757.042.507-.127,1.227-.504,1.158-.72-.082-.211-.879-.051-1.353.168ZM21.84,30.788c-.375.138-.479.259-.458.351,0,0,0,0,0,0,0,0,0,0,0,0,.027.091.177.144.571.079.392-.065.961-.306.922-.474-.049-.165-.663-.093-1.036.044ZM19.997,31.464c-.316.088-.409.183-.397.265,0,0,0,0,0,0,0,0,0,0,0,0,.016.081.136.14.463.117.325-.023.806-.183.785-.333-.03-.148-.537-.137-.851-.05ZM18.164,31.824c-.288.044-.381.119-.379.193,0,0,0,0,0,0h0c.006.074.106.139.397.152.29.014.732-.077.729-.212-.011-.134-.46-.178-.747-.134ZM16.6,32.01h0s0,0,0,0h0c-.257.001-.542.059-.547.165.002.106.289.173.547.181h0s0,0,0,0,0,0,0,0h0c.258-.009.546-.075.547-.181-.005-.105-.29-.163-.547-.165ZM16.6,1.644h0s0,0,0,0,0,0,0,0h0c-2.265.062-3.41,6.895-2.922,11.317.49,4.441,1.674,5.915,2.92,5.945,0,0,.001,0,.002,0,0,0,.001,0,.002,0,1.246-.031,2.43-1.504,2.92-5.945.488-4.421-.657-11.255-2.922-11.317Z"/>
    </g>
  </g>
</svg>