<?xml version="1.0" encoding="UTF-8"?>
<svg xmlns="http://www.w3.org/2000/svg" width="128" height="64" version="1.1" viewBox="0 0 128 64">
  <!-- Generator: Adobe Illustrator 28.7.1, SVG Export Plug-In . SVG Version: 1.2.0 Build 142)  -->
  <g>
    <g id="Layer_1">
      <path d="M41.133,41.409c0,1.758.086,3.515.258,5.272h-4.986c-.172-.429-.344-1.157-.387-1.714h-.215c-.989,1.029-2.278,2.015-5.287,2.015-3.955,0-6.619-2.443-6.619-6.816s3.482-6.944,11.305-6.944h.817v-1.2c0-2.315-1.118-3.172-3.568-3.172-2.622,0-5.631,1.115-7.007,2.143v-4.244c1.548-.9,4.212-1.972,7.608-1.972,5.416,0,8.081,1.972,8.081,7.201v9.431ZM36.018,36.608h-.731c-4.384,0-6.147.9-6.147,3.429,0,1.929,1.074,3.215,3.224,3.215,1.805,0,3.009-.772,3.654-1.715v-4.93ZM50.417,46.682h-5.115v-21.562h4.986l.129,1.8h.258c1.032-1.029,2.837-2.143,5.889-2.143,4.169,0,5.889,1.886,5.889,6.173v15.732h-5.115v-15.217c0-1.629-.817-2.4-2.622-2.4-1.848,0-3.353.986-4.298,2.143v15.475ZM65.891,36.051c0-7.202,3.439-11.36,8.382-11.36,2.235,0,4.127,1.029,5.416,2.958v-10.759h5.115v29.792h-4.728l-.258-2.786c-1.376,2.1-3.353,3.215-5.76,3.215-4.814,0-8.167-3.944-8.167-11.059M71.178,36.051c0,4.887,1.376,7.03,4.169,7.03,2.88,0,4.341-2.186,4.341-7.201,0-4.972-1.375-7.159-4.127-7.159-2.923,0-4.384,2.229-4.384,7.33M98.301,47.11c-6.534,0-10.23-3.644-10.23-11.145,0-6.516,2.966-11.274,9.199-11.274,5.115,0,8.425,2.829,8.425,10.331v2.701h-12.336c.215,3.601,1.633,5.358,5.373,5.358,2.493,0,5.158-.943,6.748-2.015v4.158c-1.504,1.029-3.911,1.886-7.178,1.886M93.358,33.95h7.135v-.429c0-2.701-.774-4.801-3.31-4.801-2.45,0-3.696,1.8-3.825,5.23M116.397,39.395l-4.341,7.287h-5.201l6.791-11.231-6.534-10.331h5.76l4.126,6.516,3.697-6.516h5.115l-6.104,10.459,7.049,11.102h-5.76l-4.599-7.287Z"/>
      <path d="M11.302,46.682v-3.001c0-4.072-.473-6.087-2.106-9.602L1.244,16.89h5.502l6.748,14.703c1.977,4.287,2.837,6.516,2.837,11.445v3.644h-5.029Z"/>
      <polygon points="14.526 31.293 20.801 16.89 26.088 16.89 19.727 31.293 14.526 31.293"/>
    </g>
  </g>
</svg>