<?xml version="1.0" encoding="utf-8"?>
<!-- Generator: Adobe Illustrator 24.0.1, SVG Export Plug-In . SVG Version: 6.00 Build 0)  -->
<svg version="1.1" id="Layer_1" xmlns="http://www.w3.org/2000/svg" xmlns:xlink="http://www.w3.org/1999/xlink" x="0px" y="0px"
	 viewBox="0 0 160.266 49.972" style="enable-background:new 0 0 160.266 49.972;" xml:space="preserve">
<style type="text/css">
	.st0{fill:#18509E;}
	.st1{fill:#211D1E;}
	.st2{fill-rule:evenodd;clip-rule:evenodd;fill:url(#SVGID_1_);}
	.st3{fill-rule:evenodd;clip-rule:evenodd;fill:url(#SVGID_2_);}
</style>
<path class="st0" d="M123.012,45.661v-3.945c-0.179,0.082-0.374,0.132-0.63,0.138l-2.503,0.001c-0.247,0-0.434,0.07-0.571,0.201
	c-0.05,0.047-0.085,0.097-0.104,0.126v3.479h-0.686v-7.886h0.686v3.533c0.183-0.084,0.401-0.14,0.675-0.14h2.458
	c0.247,0,0.435-0.069,0.572-0.199c0.05-0.048,0.085-0.098,0.103-0.127v-3.067h0.687v7.886H123.012z"/>
<path class="st0" d="M127.871,45.338c-0.385-0.204-0.728-0.494-1.02-0.861c-0.593-0.742-0.917-1.722-0.917-2.758
	c0-1.037,0.324-2.017,0.917-2.759c0.292-0.366,0.635-0.657,1.02-0.861c0.403-0.213,0.834-0.322,1.279-0.322
	c0.444,0,0.875,0.109,1.278,0.322c0.385,0.204,0.729,0.495,1.021,0.861c0.592,0.742,0.916,1.722,0.916,2.759
	c0,1.036-0.324,2.016-0.916,2.758c-0.292,0.367-0.636,0.657-1.021,0.861c-0.403,0.214-0.834,0.322-1.278,0.322
	C128.705,45.66,128.274,45.552,127.871,45.338 M126.622,41.719c0,1.814,1.154,3.254,2.528,3.254c1.373,0,2.527-1.44,2.527-3.254
	c0-1.815-1.154-3.255-2.527-3.255C127.776,38.464,126.622,39.904,126.622,41.719"/>
<polygon class="st0" points="141.159,37.775 141.159,45.661 140.472,45.661 140.472,39.816 138.339,45.661 137.68,45.661 
	135.549,39.817 135.549,45.661 134.863,45.661 134.863,37.775 135.534,37.775 138.011,44.557 140.485,37.775 "/>
<path class="st0" d="M143.594,45.66v-7.885h4.774l0.001,0.686h-4.088v2.74c0.1-0.024,0.197-0.034,0.307-0.034h3.78v0.686h-3.78
	c-0.144,0-0.224,0.035-0.259,0.073c-0.036,0.039-0.048,0.115-0.048,0.139v2.908l4.087,0.001l0.001,0.686H143.594z"/>
<polygon class="st1" points="66.95,20.083 61.732,20.083 61.732,34.365 59.806,34.365 59.806,20.083 54.846,20.083 54.846,18.14 
	66.95,18.14 "/>
<path class="st1" d="M66.273,34.365v-7.452c0-2.584,1.964-4.747,4.445-4.747h0.476v1.943h-0.476c-1.349,0-2.52,1.222-2.52,2.804
	v7.452H66.273z"/>
<path class="st1" d="M71.53,30.599c0-2.164,2.143-3.766,4.485-3.766h1.29c0.556,0,1.27-0.3,1.27-0.901
	c0-0.921-0.973-1.823-2.361-1.823c-0.893,0-1.668,0.361-2.66,1.703l-1.548-1.162c0.953-1.603,2.719-2.484,4.187-2.484
	c2.303,0,4.287,1.683,4.287,3.766v4.667c0,2.144-2.124,3.766-4.465,3.766C73.654,34.365,71.53,32.743,71.53,30.599 M73.475,30.579
	c0,0.941,1.111,1.843,2.54,1.843c1.448,0,2.54-0.922,2.54-1.843v-2.163c0,0-0.159,0.34-2.54,0.32
	C74.586,28.736,73.475,29.638,73.475,30.579"/>
<path class="st1" d="M88.811,34.365v-7.452c0-1.582-1.171-2.804-2.52-2.804s-2.52,1.222-2.52,2.804v7.452h-1.925v-7.452
	c0-2.584,1.965-4.747,4.445-4.747c2.441,0,4.445,2.143,4.445,4.747v7.452H88.811z"/>
<path class="st1" d="M92.142,31.881l1.528-1.182c0.735,1.243,1.608,1.703,3.116,1.703c1.607,0,2.361-0.721,2.361-1.763
	c0-0.46-0.119-0.681-0.556-0.941c-1.587-0.942-5.992-0.781-5.992-4.147c0-2.043,1.607-3.385,3.869-3.385
	c1.37,0,2.798,0.501,4.287,2.484l-1.529,1.182c-1.11-1.503-1.984-1.703-2.738-1.703c-1.19,0-1.945,0.561-1.945,1.442
	c0,0.982,1.112,1.283,2.58,1.643c0.794,0.2,1.647,0.361,2.48,0.881c0.953,0.601,1.489,1.463,1.489,2.584
	c0,2.184-1.806,3.686-4.286,3.686C94.722,34.365,93.352,33.764,92.142,31.881"/>
<polygon class="st1" points="108.948,23.748 110.198,23.748 112.679,31.821 116.171,22.367 117.659,22.367 113.235,34.365 
	112.024,34.365 109.603,26.453 107.182,34.365 105.971,34.365 101.547,22.367 103.034,22.367 106.528,31.821 "/>
<path class="st1" d="M117.676,28.355c0-3.305,2.322-5.989,5.18-5.989c3.115,0,5.179,2.925,5.179,5.989
	c0,3.325-2.322,6.01-5.179,6.01C119.74,34.365,117.676,31.44,117.676,28.355 M119.065,28.335c0,2.564,1.727,4.627,3.791,4.627
	c2.063,0,3.79-2.063,3.79-4.627c0-2.564-1.727-4.607-3.79-4.607C120.792,23.728,119.065,25.771,119.065,28.335"/>
<path class="st1" d="M129.599,34.365v-7.372c0-2.524,1.905-4.627,4.286-4.627h0.199v1.402h-0.199c-1.587,0-2.897,1.423-2.897,3.205
	v7.392H129.599z"/>
<rect x="135.987" y="18.26" class="st1" width="1.389" height="16.105"/>
<path class="st1" d="M139.657,28.476c0-3.225,2.679-5.929,5.874-5.929h0.814c0.635,0,0.635-0.361,0.635-0.441v-3.845h1.389v16.105
	h-2.818C142.515,34.366,139.657,31.881,139.657,28.476 M146.94,23.909c-0.199,0.04-0.397,0.06-0.615,0.06h-0.814
	c-2.461,0-4.465,2.023-4.465,4.507s2.004,4.507,4.465,4.507h1.429v-9.054V23.909z"/>
<polygon class="st1" points="151.657,18.593 150.756,18.593 150.756,21.057 150.424,21.057 150.424,18.593 149.568,18.593 
	149.568,18.258 151.657,18.258 "/>
<polygon class="st1" points="154.338,18.257 154.338,21.057 154.006,21.057 154.006,19.294 153.368,21.057 153.078,21.057 
	152.44,19.294 152.44,21.057 152.109,21.057 152.109,18.257 152.42,18.257 153.221,20.483 154.026,18.257 "/>
<linearGradient id="SVGID_1_" gradientUnits="userSpaceOnUse" x1="21.5203" y1="40.2919" x2="33.4978" y2="40.2919">
	<stop  offset="0" style="stop-color:#204787"/>
	<stop  offset="1" style="stop-color:#00ADEE"/>
</linearGradient>
<path class="st2" d="M26.632,43.752c-0.04,0.103-0.269,0.169-0.519,0.148c-0.25-0.022-0.439-0.133-0.412-0.235
	c0.023-0.083,0.19-0.16,0.525-0.128C26.485,43.565,26.666,43.665,26.632,43.752 M25.069,43.193
	c-0.226-0.096-0.561-0.118-0.728-0.044c-0.167,0.074-0.102,0.216,0.124,0.307c0.226,0.091,0.529,0.107,0.694,0.04
	C25.324,43.429,25.294,43.29,25.069,43.193 M24.014,42.62c-0.185-0.141-0.554-0.229-0.809-0.191s-0.279,0.188-0.084,0.325
	c0.195,0.138,0.533,0.217,0.774,0.182C24.137,42.9,24.198,42.761,24.014,42.62 M23.278,41.837c-0.112-0.182-0.489-0.358-0.835-0.381
	c-0.347-0.022-0.504,0.119-0.366,0.305c0.139,0.187,0.501,0.343,0.818,0.363C23.212,42.144,23.39,42.019,23.278,41.837
	 M22.988,40.873c0.005-0.211-0.324-0.486-0.745-0.601c-0.421-0.116-0.756-0.023-0.72,0.213c0.037,0.237,0.387,0.49,0.778,0.587
	C22.691,41.169,22.984,41.084,22.988,40.873 M22.333,39.83c0.421,0.217,0.855,0.205,1.009-0.011c0.153-0.215-0.04-0.584-0.483-0.83
	c-0.444-0.246-0.951-0.252-1.083,0.003C21.645,39.247,21.912,39.614,22.333,39.83 M24.51,37.882
	c-0.355-0.384-0.966-0.561-1.311-0.354c-0.346,0.207-0.27,0.687,0.095,1.033c0.365,0.345,0.881,0.463,1.207,0.293
	C24.827,38.684,24.865,38.266,24.51,37.882 M27.027,37.257c-0.132-0.471-0.68-0.818-1.197-0.719
	c-0.516,0.098-0.737,0.614-0.55,1.066c0.187,0.452,0.677,0.691,1.132,0.606C26.868,38.126,27.158,37.729,27.027,37.257
	 M28.792,43.537c-0.259,0.028-0.44,0.128-0.406,0.215c0.041,0.103,0.269,0.169,0.519,0.148c0.25-0.022,0.44-0.133,0.412-0.235
	C29.294,43.582,29.127,43.505,28.792,43.537 M30.677,43.149c-0.167-0.074-0.502-0.052-0.728,0.044
	c-0.225,0.097-0.255,0.236-0.09,0.303c0.165,0.067,0.468,0.051,0.694-0.04C30.78,43.365,30.844,43.223,30.677,43.149 M31.813,42.429
	c-0.255-0.038-0.624,0.05-0.808,0.191c-0.185,0.141-0.124,0.28,0.118,0.316c0.241,0.035,0.58-0.044,0.774-0.182
	C32.092,42.617,32.068,42.467,31.813,42.429 M32.575,41.456c-0.346,0.023-0.722,0.199-0.835,0.381
	c-0.112,0.182,0.066,0.307,0.383,0.287c0.317-0.02,0.68-0.176,0.818-0.363C33.079,41.575,32.922,41.434,32.575,41.456
	 M32.775,40.272c-0.421,0.115-0.75,0.39-0.745,0.601c0.004,0.211,0.297,0.296,0.687,0.199c0.391-0.097,0.741-0.35,0.778-0.587
	C33.532,40.249,33.196,40.156,32.775,40.272 M31.676,39.819c0.154,0.216,0.588,0.228,1.009,0.011
	c0.421-0.216,0.689-0.583,0.557-0.838c-0.131-0.255-0.639-0.249-1.083-0.003C31.716,39.235,31.523,39.604,31.676,39.819
	 M31.82,37.528c-0.346-0.207-0.956-0.03-1.311,0.354c-0.356,0.384-0.318,0.802,0.008,0.972c0.327,0.17,0.842,0.052,1.207-0.293
	C32.089,38.215,32.165,37.735,31.82,37.528 M29.188,36.538c-0.517-0.099-1.065,0.248-1.196,0.719
	c-0.131,0.472,0.158,0.869,0.614,0.953c0.456,0.085,0.946-0.154,1.132-0.606C29.925,37.152,29.704,36.636,29.188,36.538
	 M27.509,43.689L27.509,43.689c-0.218,0.001-0.46,0.063-0.464,0.177c0.001,0.115,0.245,0.186,0.464,0.196
	c0.22-0.01,0.463-0.081,0.464-0.196C27.969,43.752,27.727,43.69,27.509,43.689"/>
<linearGradient id="SVGID_2_" gradientUnits="userSpaceOnUse" x1="6.3201" y1="24.7203" x2="48.6979" y2="24.7203">
	<stop  offset="0" style="stop-color:#00ADEE"/>
	<stop  offset="1" style="stop-color:#204787"/>
</linearGradient>
<path class="st3" d="M14.087,23.829c-2.532-5.013-4.542-13.508-2.302-14.471c2.298-0.818,6.602,6.776,8.156,12.174
	c1.56,5.421,1.055,7.621-0.179,8.147c-0.001,0-0.001,0-0.002,0c0,0.001-0.001,0.001-0.001,0.001
	C18.496,30.134,16.63,28.864,14.087,23.829 M14.949,33.698c0,0,0-0.001,0.001-0.001c0,0,0,0,0-0.001
	c0.657-0.531,0.583-1.951-1.298-4.964c-1.872-3-5.79-6.856-7.04-5.964c-1.191,0.97,1.493,5.767,3.892,8.366
	C12.913,33.744,14.262,34.191,14.949,33.698 M15.028,37.829v-0.001c0.251-0.347,0.027-1.031-1.291-2.256
	c-1.312-1.219-3.738-2.586-4.231-1.985c-0.454,0.631,1.493,2.622,3.009,3.576C14.038,38.121,14.757,38.16,15.028,37.829
	 M16.62,40.775L16.62,40.775c0.105-0.226-0.099-0.592-0.986-1.145c-0.884-0.55-2.418-1.062-2.633-0.664
	c-0.189,0.411,1.141,1.331,2.112,1.707C16.088,41.05,16.502,40.994,16.62,40.775 M17.96,42.012
	c-0.647-0.299-1.733-0.517-1.845-0.229c-0.094,0.295,0.888,0.808,1.579,0.982c0.694,0.174,0.971,0.101,1.032-0.058
	C18.779,42.545,18.61,42.313,17.96,42.012 M20.363,43.523c-0.508-0.187-1.345-0.286-1.413-0.06c-0.053,0.23,0.723,0.558,1.258,0.647
	c0.537,0.089,0.742,0.016,0.779-0.108C21.017,43.876,20.874,43.711,20.363,43.523 M22.877,44.444
	c-0.428-0.119-1.119-0.132-1.16,0.069c-0.029,0.204,0.627,0.422,1.07,0.454c0.446,0.031,0.609-0.05,0.632-0.16v-0.001
	C23.435,44.695,23.308,44.564,22.877,44.444 M25.377,44.935c-0.392-0.06-1.004,0-1.019,0.182c-0.005,0.183,0.598,0.308,0.994,0.289
	c0.397-0.019,0.533-0.107,0.541-0.208C25.895,45.098,25.769,44.995,25.377,44.935 M35.256,29.679c0.001,0,0.001,0,0.002,0
	c0.001,0.001,0.001,0.001,0.001,0.001c1.263,0.454,3.129-0.816,5.673-5.851c2.532-5.013,4.542-13.508,2.301-14.471
	c-2.298-0.818-6.602,6.776-8.156,12.174C33.517,26.953,34.022,29.153,35.256,29.679 M40.068,33.696l0.001,0.001
	c0,0,0,0.001,0.001,0.001c0.686,0.493,2.035,0.046,4.445-2.564c2.398-2.599,5.082-7.396,3.891-8.366
	c-1.25-0.892-5.168,2.964-7.04,5.964C39.485,31.745,39.411,33.165,40.068,33.696 M41.281,35.572
	c-1.318,1.225-1.542,1.909-1.291,2.256c0,0,0,0.001,0.001,0.001c0.27,0.331,0.989,0.292,2.512-0.666
	c1.517-0.954,3.464-2.945,3.009-3.576C45.019,32.986,42.593,34.353,41.281,35.572 M39.384,39.63
	c-0.887,0.553-1.091,0.919-0.986,1.144v0.001c0.118,0.219,0.532,0.275,1.507-0.102c0.971-0.376,2.301-1.296,2.112-1.707
	C41.802,38.568,40.268,39.08,39.384,39.63 M37.058,42.012c-0.65,0.301-0.819,0.533-0.766,0.695c0.061,0.159,0.338,0.232,1.032,0.058
	c0.691-0.174,1.673-0.687,1.58-0.982C38.791,41.495,37.705,41.713,37.058,42.012 M34.655,43.523
	c-0.511,0.188-0.654,0.353-0.624,0.479c0.037,0.124,0.242,0.197,0.779,0.108c0.535-0.089,1.311-0.417,1.258-0.647
	C36,43.237,35.164,43.336,34.655,43.523 M32.141,44.444c-0.431,0.12-0.558,0.251-0.542,0.362v0.001
	c0.023,0.11,0.186,0.191,0.632,0.16c0.443-0.032,1.1-0.25,1.07-0.454C33.26,44.312,32.569,44.325,32.141,44.444 M29.642,44.935
	c-0.393,0.06-0.519,0.163-0.517,0.263c0.009,0.101,0.144,0.189,0.542,0.208c0.395,0.019,0.998-0.106,0.994-0.289
	C30.646,44.935,30.033,44.875,29.642,44.935 M27.509,45.189L27.509,45.189c-0.351,0.002-0.74,0.081-0.746,0.224
	c0.002,0.145,0.393,0.236,0.746,0.248c0.353-0.012,0.745-0.103,0.747-0.248C28.249,45.27,27.86,45.191,27.509,45.189 M27.509,3.779
	L27.509,3.779c-3.089,0.084-4.65,9.403-3.984,15.433c0.669,6.056,2.282,8.066,3.982,8.108h0.002h0.002
	c1.7-0.042,3.314-2.052,3.983-8.108C32.159,13.182,30.598,3.863,27.509,3.779"/>
</svg>
